o feelingmosaic_standing_palms_ring_18.5mm
v -6.54860 9.70870 -1.76400
v -7.55515 11.20097 -1.76400
v -7.75646 11.49943 -1.40400
v -7.75646 11.49943 1.40400
v -7.55515 11.20097 1.76400
v -6.54860 9.70870 1.76400
v -6.34729 9.41025 1.40400
v -6.34729 9.41025 -1.40400
v -7.25588 9.26857 -1.84039
v -8.38827 10.71507 -1.76018
v -8.60486 10.99173 -1.37674
v -8.52773 10.89321 1.48902
v -8.29137 10.59128 1.84039
v -7.15898 9.14478 1.76018
v -6.94239 8.86811 1.37674
v -7.01952 8.96664 -1.48902
v -7.91991 8.76173 -1.97726
v -9.21505 10.19453 -1.80828
v -9.45142 10.45601 -1.38821
v -9.27465 10.26046 1.62477
v -8.99297 9.94883 1.97726
v -7.69783 8.51603 1.80828
v -7.46146 8.25454 1.38821
v -7.63822 8.45010 -1.62477
v -8.54623 8.20509 -2.15205
v -10.03061 9.63021 -1.88114
v -10.28840 9.87771 -1.41541
v -9.98354 9.58502 1.79468
v -9.64758 9.26248 2.15205
v -8.16320 7.83735 1.88114
v -7.90541 7.58985 1.41541
v -8.21027 7.88254 -1.79468
v -9.14093 7.60993 -2.34002
v -10.82455 9.01156 -1.95374
v -11.10190 9.24246 -1.43835
v -10.63879 8.85691 1.97914
v -10.24269 8.52716 2.34002
v -8.55907 7.12553 1.95374
v -8.28172 6.89463 1.43835
v -8.74483 7.28018 -1.97914
v -9.70902 6.98235 -2.51468
v -11.58056 8.32829 -2.00362
v -11.87188 8.53780 -1.44035
v -11.22463 8.07231 2.15584
v -10.76734 7.74345 2.51468
v -8.89580 6.39751 2.00362
v -8.60447 6.18800 1.44035
v -9.25173 6.65349 -2.15584
v -10.25290 6.32408 -2.64832
v -12.27631 7.57214 -2.01131
v -12.57256 7.75487 -1.40843
v -11.72677 7.23318 2.30025
v -11.21365 6.91668 2.64832
v -9.19024 5.66862 2.01131
v -8.89399 5.48590 1.40843
v -9.73978 6.00759 -2.30025
v -10.77106 5.63364 -2.71249
v -12.88382 6.73868 -1.96072
v -13.17314 6.89000 -1.33351
v -12.13395 6.34647 2.38598
v -11.57817 6.05578 2.71249
v -9.46541 4.95074 1.96072
v -9.17609 4.79941 1.33351
v -10.21528 5.34294 -2.38598
v -11.25138 4.90522 -2.72977
v -13.40486 5.84406 -1.87472
v -13.67879 5.96349 -1.23387
v -12.45606 5.43042 2.43094
v -11.86861 5.17431 2.72977
v -9.71513 4.23546 1.87472
v -9.44119 4.11604 1.23387
v -10.66392 4.64911 -2.43094
v -11.68266 4.13705 -2.74186
v -13.85988 4.90804 -1.78515
v -14.11496 4.99837 -1.13187
v -12.70810 4.50017 2.47126
v -12.09229 4.28210 2.74186
v -9.91507 3.51111 1.78515
v -9.65999 3.42078 1.13187
v -11.06685 3.91898 -2.47126
v -12.06148 3.33235 -2.74873
v -14.24543 3.93574 -1.69218
v -14.47854 4.00014 -1.02772
v -12.88985 3.56121 2.50688
v -12.24938 3.38427 2.74873
v -10.06543 2.78088 1.69218
v -9.83231 2.71648 1.02772
v -11.42101 3.15540 -2.50688
v -12.38458 2.49467 -2.75036
v -14.55844 2.93256 -1.59599
v -14.76688 2.97455 -0.92161
v -13.00152 2.61894 2.53773
v -12.34042 2.48578 2.75036
v -10.16656 2.04789 1.59599
v -9.95812 2.00590 0.92161
v -11.72348 2.36150 -2.53773
v -12.64896 1.62785 -2.74676
v -14.79632 1.90420 -1.49676
v -14.97783 1.92756 -0.81375
v -13.04378 1.67866 2.56375
v -12.36636 1.59148 2.74676
v -10.21900 1.31513 1.49676
v -10.03749 1.29177 0.81375
v -11.97154 1.54067 -2.56375
v -12.85190 0.73603 -2.73793
v -14.95693 0.85659 -1.39468
v -15.10972 0.86534 -0.70434
v -13.01768 0.74553 2.58489
v -12.32847 0.70606 2.73793
v -10.22344 0.58550 1.39468
v -10.07064 0.57675 0.70434
v -12.16268 0.69656 -2.58489
v -12.99094 -0.17636 -2.72389
v -15.03863 -0.20416 -1.28995
v -15.16141 -0.20583 -0.59359
v -12.92466 -0.17546 2.60111
v -12.22836 -0.16601 2.72389
v -10.18067 -0.13821 1.28995
v -10.05790 -0.13654 0.59359
v -12.29464 -0.16691 -2.60111
v -13.06397 -1.10467 -2.70467
v -15.04030 -1.27178 -1.18276
v -15.13226 -1.27956 -0.48171
v -12.76654 -1.07952 2.61237
v -12.06797 -1.02045 2.70467
v -10.09164 -0.85333 1.18276
v -9.99968 -0.84556 0.48171
v -12.36540 -1.04560 -2.61237
v -13.06922 -2.04399 -2.68029
v -14.96133 -2.33991 -1.07332
v -15.02222 -2.34943 -0.36891
v -12.54545 -1.96207 2.61866
v -11.84950 -1.85323 2.68029
v -9.95739 -1.55731 1.07332
v -9.89650 -1.54778 0.36891
v -12.37326 -1.93514 -2.61866
v -13.00530 -2.98923 -2.65082
v -14.80165 -3.40212 -0.96184
v -14.83171 -3.40903 -0.25541
v -12.26387 -2.81881 2.61997
v -11.57539 -2.66057 2.65082
v -9.77903 -2.24768 0.96184
v -9.74897 -2.24077 0.25541
v -12.31682 -2.83099 -2.61997
v -12.87123 -3.93513 -2.61630
v -14.56176 -4.45198 -0.84853
v -14.56176 -4.45198 -0.14142
v -11.92454 -3.64570 2.61630
v -11.24833 -3.43896 2.61630
v -9.55781 -2.92211 0.84853
v -9.55781 -2.92211 0.14142
v -12.19502 -3.72839 -2.61630
v -12.66644 -4.87629 -2.57679
v -14.24265 -5.48309 -0.73360
v -14.21387 -5.47201 -0.02717
v -11.53047 -4.43896 2.60764
v -10.87120 -4.18516 2.57679
v -9.29499 -3.57836 0.73360
v -9.32378 -3.58944 0.02717
v -12.00718 -4.62249 -2.60764
v -12.39080 -5.80721 -2.53239
v -13.84589 -6.48916 -0.61727
v -13.79009 -6.46301 0.08714
v -11.08488 -5.19516 2.59401
v -10.44704 -4.89622 2.53239
v -8.99195 -4.21426 0.61727
v -9.04776 -4.24042 -0.08714
v -11.75296 -5.50827 -2.59401
v -12.04463 -6.72232 -2.48316
v -13.37357 -7.46403 -0.49977
v -13.29297 -7.41905 0.20128
v -10.59121 -5.91114 2.57545
v -9.97904 -5.56948 2.48316
v -8.65010 -4.82778 0.49977
v -8.73070 -4.87276 -0.20128
v -11.43246 -6.38066 -2.57545
v -11.62871 -7.61606 -2.42920
v -12.82828 -8.40170 -0.38132
v -12.72556 -8.33442 0.31504
v -10.05303 -6.58409 2.55199
v -9.47049 -6.20256 2.42920
v -8.27092 -5.41692 0.38132
v -8.37364 -5.48420 -0.31504
v -11.04617 -7.23453 -2.55199
v -11.14429 -8.48285 -2.37062
v -12.21313 -9.29643 -0.26214
v -12.09135 -9.20373 0.42820
v -9.47408 -7.21151 2.52367
v -8.92477 -6.79338 2.37062
v -7.85593 -5.97980 0.26214
v -7.97771 -6.07250 -0.42820
v -10.59498 -8.06472 -2.52367
v -10.59310 -9.31719 -2.30753
v -11.53170 -10.14274 -0.14247
v -11.39428 -10.02187 0.54054
v -8.85818 -7.79124 2.49054
v -8.34532 -7.34015 2.30753
v -7.40672 -6.51460 0.14247
v -7.54414 -6.63547 -0.54054
v -10.08024 -8.86610 -2.49054
v -9.97731 -10.11368 -2.24005
v -10.78802 -10.93547 -0.02252
v -10.63869 -10.78410 0.65186
v -8.20922 -8.32143 2.45268
v -7.73561 -7.84134 2.24005
v -6.92491 -7.01956 0.02252
v -7.07424 -7.17093 -0.65186
v -9.50370 -9.63360 -2.45268
v -9.29959 -10.86707 -2.16830
v -9.98654 -11.66981 0.09747
v -9.82930 -11.48606 0.76193
v -7.53116 -8.80056 2.41014
v -7.09913 -8.29571 2.16830
v -6.41218 -7.49298 -0.09747
v -6.56943 -7.67672 -0.76193
v -8.86757 -10.36223 -2.41014
v -8.56305 -11.57229 -2.09242
v -9.13212 -12.34135 0.21728
v -8.97116 -12.12383 0.87056
v -6.82794 -9.22743 2.36302
v -6.43935 -8.70228 2.09242
v -5.87028 -7.93323 -0.21728
v -6.03124 -8.15075 -0.87056
v -8.17446 -11.04715 -2.36302
v -7.77122 -12.22452 -2.01257
v -8.22994 -12.94611 0.33667
v -8.06962 -12.69391 0.97752
v -6.10352 -9.60114 2.31140
v -5.75972 -9.06032 2.01257
v -5.30100 -8.33873 -0.33667
v -5.46132 -8.59092 -0.97752
v -7.42742 -11.68369 -2.31140
v -6.92809 -12.81918 -1.92888
v -7.28552 -13.48053 0.45542
v -7.13028 -13.19329 1.08263
v -5.36183 -9.92110 2.25538
v -5.06362 -9.36932 1.92888
v -4.70619 -8.70796 -0.45542
v -4.86143 -8.99520 -1.08263
v -6.62988 -12.26739 -2.25538
v -6.03802 -13.35202 -1.84151
v -6.30463 -13.94158 0.57330
v -6.15895 -13.61944 1.18567
v -4.60674 -10.18699 2.19507
v -4.35441 -9.62901 1.84151
v -4.08780 -9.03945 -0.57330
v -4.23348 -9.36159 -1.18567
v -5.78570 -12.79405 -2.19507
v -5.10576 -13.81914 -1.75065
v -5.29329 -14.32670 0.69009
v -5.16162 -13.97032 1.28646
v -3.84203 -10.39875 2.13058
v -3.63534 -9.83934 1.75065
v -3.44781 -9.33178 -0.69009
v -3.57949 -9.68816 -1.28646
v -4.89908 -13.25973 -2.13058
v -4.13641 -14.21702 -1.65645
v -4.25768 -14.63385 0.80557
v -4.14438 -14.24442 1.38480
v -3.07141 -10.55659 2.06203
v -2.90960 -10.00042 1.65645
v -2.78832 -9.58359 -0.80557
v -2.90162 -9.97302 -1.38480
v -3.97459 -13.66085 -2.06203
v -3.13535 -14.54255 -1.55910
v -3.20413 -14.86153 0.91952
v -3.11341 -14.44074 1.48050
v -2.29849 -10.66096 1.98955
v -2.18026 -10.11257 1.55910
v -2.11148 -9.79358 -0.91952
v -2.20221 -10.21438 -1.48050
v -3.01712 -13.99416 -1.98955
v -2.10829 -14.79307 -1.45877
v -2.13903 -15.00878 1.03171
v -2.07491 -14.55880 1.57339
v -1.52674 -10.71251 1.91329
v -1.45031 -10.17625 1.45877
v -1.41957 -9.96054 -1.03171
v -1.48370 -10.41052 -1.57339
v -2.03187 -14.25681 -1.91329
v -1.06114 -14.96639 -1.35568
v -1.06885 -15.07516 1.14194
v -1.03506 -14.59864 1.66328
v -0.75950 -10.71211 1.83339
v -0.72263 -10.19208 1.35568
v -0.71492 -10.08331 -1.14194
v -0.74870 -10.55983 -1.66328
v -1.02426 -14.44636 -1.83339
v -0.00000 -15.06081 -1.25000
v -0.00000 -15.06081 1.25000
v -0.00000 -14.56081 1.75000
v -0.00000 -10.66081 1.75000
v -0.00000 -10.16081 1.25000
v -0.00000 -10.16081 -1.25000
v -0.00000 -10.66081 -1.75000
v -0.00000 -14.56081 -1.75000
v 1.06885 -15.07516 -1.14194
v 1.06114 -14.96639 1.35568
v 1.02426 -14.44636 1.83339
v 0.74870 -10.55983 1.66328
v 0.71492 -10.08331 1.14194
v 0.72263 -10.19208 -1.35568
v 0.75950 -10.71211 -1.83339
v 1.03506 -14.59864 -1.66328
v 2.13903 -15.00878 -1.03171
v 2.10829 -14.79307 1.45877
v 2.03187 -14.25681 1.91329
v 1.48370 -10.41052 1.57339
v 1.41957 -9.96054 1.03171
v 1.45031 -10.17625 -1.45877
v 1.52674 -10.71251 -1.91329
v 2.07491 -14.55880 -1.57339
v 3.20413 -14.86153 -0.91952
v 3.13535 -14.54255 1.55910
v 3.01712 -13.99416 1.98955
v 2.20221 -10.21438 1.48050
v 2.11148 -9.79358 0.91952
v 2.18026 -10.11257 -1.55910
v 2.29849 -10.66096 -1.98955
v 3.11341 -14.44074 -1.48050
v 4.25768 -14.63385 -0.80557
v 4.13641 -14.21702 1.65645
v 3.97459 -13.66085 2.06203
v 2.90162 -9.97302 1.38480
v 2.78832 -9.58359 0.80557
v 2.90960 -10.00042 -1.65645
v 3.07141 -10.55659 -2.06203
v 4.14438 -14.24442 -1.38480
v 5.29329 -14.32670 -0.69009
v 5.10576 -13.81914 1.75065
v 4.89908 -13.25973 2.13058
v 3.57949 -9.68816 1.28646
v 3.44781 -9.33178 0.69009
v 3.63534 -9.83934 -1.75065
v 3.84203 -10.39875 -2.13058
v 5.16162 -13.97032 -1.28646
v 6.30463 -13.94158 -0.57330
v 6.03802 -13.35202 1.84151
v 5.78570 -12.79405 2.19507
v 4.23348 -9.36159 1.18567
v 4.08780 -9.03945 0.57330
v 4.35441 -9.62901 -1.84151
v 4.60674 -10.18699 -2.19507
v 6.15895 -13.61944 -1.18567
v 7.28552 -13.48053 -0.45542
v 6.92809 -12.81918 1.92888
v 6.62988 -12.26739 2.25538
v 4.86143 -8.99520 1.08263
v 4.70619 -8.70796 0.45542
v 5.06362 -9.36932 -1.92888
v 5.36183 -9.92110 -2.25538
v 7.13028 -13.19329 -1.08263
v 8.22994 -12.94611 -0.33667
v 7.77122 -12.22452 2.01257
v 7.42742 -11.68369 2.31140
v 5.46132 -8.59092 0.97752
v 5.30100 -8.33873 0.33667
v 5.75972 -9.06032 -2.01257
v 6.10352 -9.60114 -2.31140
v 8.06962 -12.69391 -0.97752
v 9.13212 -12.34135 -0.21728
v 8.56305 -11.57229 2.09242
v 8.17446 -11.04715 2.36302
v 6.03124 -8.15075 0.87056
v 5.87028 -7.93323 0.21728
v 6.43935 -8.70228 -2.09242
v 6.82794 -9.22743 -2.36302
v 8.97116 -12.12383 -0.87056
v 9.98654 -11.66981 -0.09747
v 9.29959 -10.86707 2.16830
v 8.86757 -10.36223 2.41014
v 6.56943 -7.67672 0.76193
v 6.41218 -7.49298 0.09747
v 7.09913 -8.29571 -2.16830
v 7.53116 -8.80056 -2.41014
v 9.82930 -11.48606 -0.76193
v 10.78802 -10.93547 0.02252
v 9.97731 -10.11368 2.24005
v 9.50370 -9.63360 2.45268
v 7.07424 -7.17093 0.65186
v 6.92491 -7.01956 -0.02252
v 7.73561 -7.84134 -2.24005
v 8.20922 -8.32143 -2.45268
v 10.63869 -10.78410 -0.65186
v 11.53170 -10.14274 0.14247
v 10.59310 -9.31719 2.30753
v 10.08024 -8.86610 2.49054
v 7.54414 -6.63547 0.54054
v 7.40672 -6.51460 -0.14247
v 8.34532 -7.34015 -2.30753
v 8.85818 -7.79124 -2.49054
v 11.39428 -10.02187 -0.54054
v 12.21313 -9.29643 0.26214
v 11.14429 -8.48285 2.37062
v 10.59498 -8.06472 2.52367
v 7.97771 -6.07250 0.42820
v 7.85593 -5.97980 -0.26214
v 8.92477 -6.79338 -2.37062
v 9.47408 -7.21151 -2.52367
v 12.09135 -9.20373 -0.42820
v 12.82828 -8.40170 0.38132
v 11.62871 -7.61606 2.42920
v 11.04617 -7.23453 2.55199
v 8.37364 -5.48420 0.31504
v 8.27092 -5.41692 -0.38132
v 9.47049 -6.20256 -2.42920
v 10.05303 -6.58409 -2.55199
v 12.72556 -8.33442 -0.31504
v 13.37357 -7.46403 0.49977
v 12.04463 -6.72232 2.48316
v 11.43246 -6.38066 2.57545
v 8.73070 -4.87276 0.20128
v 8.65010 -4.82778 -0.49977
v 9.97904 -5.56948 -2.48316
v 10.59121 -5.91114 -2.57545
v 13.29297 -7.41905 -0.20128
v 13.84589 -6.48916 0.61727
v 12.39080 -5.80721 2.53239
v 11.75296 -5.50827 2.59401
v 9.04776 -4.24042 0.08714
v 8.99195 -4.21426 -0.61727
v 10.44704 -4.89622 -2.53239
v 11.08488 -5.19516 -2.59401
v 13.79009 -6.46301 -0.08714
v 14.24265 -5.48309 0.73360
v 12.66644 -4.87629 2.57679
v 12.00718 -4.62249 2.60764
v 9.32378 -3.58944 -0.02717
v 9.29499 -3.57836 -0.73360
v 10.87120 -4.18516 -2.57679
v 11.53047 -4.43896 -2.60764
v 14.21387 -5.47201 0.02717
v 14.56176 -4.45198 0.84853
v 12.87123 -3.93513 2.61630
v 12.19502 -3.72839 2.61630
v 9.55781 -2.92211 -0.14142
v 9.55781 -2.92211 -0.84853
v 11.24833 -3.43896 -2.61630
v 11.92454 -3.64570 -2.61630
v 14.56176 -4.45198 0.14142
v 14.80165 -3.40212 0.96184
v 13.00530 -2.98923 2.65082
v 12.31682 -2.83099 2.61997
v 9.74897 -2.24077 -0.25541
v 9.77903 -2.24768 -0.96184
v 11.57539 -2.66057 -2.65082
v 12.26387 -2.81881 -2.61997
v 14.83171 -3.40903 0.25541
v 14.96133 -2.33991 1.07332
v 13.06922 -2.04399 2.68029
v 12.37326 -1.93514 2.61866
v 9.89650 -1.54778 -0.36891
v 9.95739 -1.55731 -1.07332
v 11.84950 -1.85323 -2.68029
v 12.54545 -1.96207 -2.61866
v 15.02222 -2.34943 0.36891
v 15.04030 -1.27178 1.18276
v 13.06397 -1.10467 2.70467
v 12.36540 -1.04560 2.61237
v 9.99968 -0.84556 -0.48171
v 10.09164 -0.85333 -1.18276
v 12.06797 -1.02045 -2.70467
v 12.76654 -1.07952 -2.61237
v 15.13226 -1.27956 0.48171
v 15.03863 -0.20416 1.28995
v 12.99094 -0.17636 2.72389
v 12.29464 -0.16691 2.60111
v 10.05790 -0.13654 -0.59359
v 10.18067 -0.13821 -1.28995
v 12.22836 -0.16601 -2.72389
v 12.92466 -0.17546 -2.60111
v 15.16141 -0.20583 0.59359
v 14.95693 0.85659 1.39468
v 12.85190 0.73603 2.73793
v 12.16268 0.69656 2.58489
v 10.07064 0.57675 -0.70434
v 10.22344 0.58550 -1.39468
v 12.32847 0.70606 -2.73793
v 13.01768 0.74553 -2.58489
v 15.10972 0.86534 0.70434
v 14.79632 1.90420 1.49676
v 12.64896 1.62785 2.74676
v 11.97154 1.54067 2.56375
v 10.03749 1.29177 -0.81375
v 10.21900 1.31513 -1.49676
v 12.36636 1.59148 -2.74676
v 13.04378 1.67866 -2.56375
v 14.97783 1.92756 0.81375
v 14.55844 2.93256 1.59599
v 12.38458 2.49467 2.75036
v 11.72348 2.36150 2.53773
v 9.95812 2.00590 -0.92161
v 10.16656 2.04789 -1.59599
v 12.34042 2.48578 -2.75036
v 13.00152 2.61894 -2.53773
v 14.76688 2.97455 0.92161
v 14.24543 3.93574 1.69218
v 12.06148 3.33235 2.74873
v 11.42101 3.15540 2.50688
v 9.83231 2.71648 -1.02772
v 10.06543 2.78088 -1.69218
v 12.24938 3.38427 -2.74873
v 12.88985 3.56121 -2.50688
v 14.47854 4.00014 1.02772
v 13.85988 4.90804 1.78515
v 11.68266 4.13705 2.74186
v 11.06685 3.91898 2.47126
v 9.65999 3.42078 -1.13187
v 9.91507 3.51111 -1.78515
v 12.09229 4.28210 -2.74186
v 12.70810 4.50017 -2.47126
v 14.11496 4.99837 1.13187
v 13.40486 5.84406 1.87472
v 11.25138 4.90522 2.72977
v 10.66392 4.64911 2.43094
v 9.44119 4.11604 -1.23387
v 9.71513 4.23546 -1.87472
v 11.86861 5.17431 -2.72977
v 12.45606 5.43042 -2.43094
v 13.67879 5.96349 1.23387
v 12.88382 6.73868 1.96072
v 10.77106 5.63364 2.71249
v 10.21528 5.34294 2.38598
v 9.17609 4.79941 -1.33351
v 9.46541 4.95074 -1.96072
v 11.57817 6.05578 -2.71249
v 12.13395 6.34647 -2.38598
v 13.17314 6.89000 1.33351
v 12.27631 7.57214 2.01131
v 10.25290 6.32408 2.64832
v 9.73978 6.00759 2.30025
v 8.89399 5.48590 -1.40843
v 9.19024 5.66862 -2.01131
v 11.21365 6.91668 -2.64832
v 11.72677 7.23318 -2.30025
v 12.57256 7.75487 1.40843
v 11.58056 8.32829 2.00362
v 9.70902 6.98235 2.51468
v 9.25173 6.65349 2.15584
v 8.60447 6.18800 -1.44035
v 8.89580 6.39751 -2.00362
v 10.76734 7.74345 -2.51468
v 11.22463 8.07231 -2.15584
v 11.87188 8.53780 1.44035
v 10.82455 9.01156 1.95374
v 9.14093 7.60993 2.34002
v 8.74483 7.28018 1.97914
v 8.28172 6.89463 -1.43835
v 8.55907 7.12553 -1.95374
v 10.24269 8.52716 -2.34002
v 10.63879 8.85691 -1.97914
v 11.10190 9.24246 1.43835
v 10.03061 9.63021 1.88114
v 8.54623 8.20509 2.15205
v 8.21027 7.88254 1.79468
v 7.90541 7.58985 -1.41541
v 8.16320 7.83735 -1.88114
v 9.64758 9.26248 -2.15205
v 9.98354 9.58502 -1.79468
v 10.28840 9.87771 1.41541
v 9.21505 10.19453 1.80828
v 7.91991 8.76173 1.97726
v 7.63822 8.45010 1.62477
v 7.46146 8.25454 -1.38821
v 7.69783 8.51603 -1.80828
v 8.99297 9.94883 -1.97726
v 9.27465 10.26046 -1.62477
v 9.45142 10.45601 1.38821
v 8.38827 10.71507 1.76018
v 7.25588 9.26857 1.84039
v 7.01952 8.96664 1.48902
v 6.94239 8.86811 -1.37674
v 7.15898 9.14478 -1.76018
v 8.29137 10.59128 -1.84039
v 8.52773 10.89321 -1.48902
v 8.60486 10.99173 1.37674
v 7.55515 11.20097 1.76400
v 6.54860 9.70870 1.76400
v 6.34729 9.41025 1.40400
v 6.34729 9.41025 -1.40400
v 6.54860 9.70870 -1.76400
v 7.55515 11.20097 -1.76400
v 7.75646 11.49943 -1.40400
v 7.75646 11.49943 1.40400
v -7.05188 10.45484 -0.00000
v 7.05188 10.45484 0.00000
v -8.31491 11.67761 -2.20634
v -8.22798 11.73624 2.19774
v -6.28751 13.04510 2.20440
v -4.48434 14.26136 1.31376
v -5.20928 13.77238 -2.50091
v -6.84134 12.67154 -2.54888
v -6.39128 8.82572 -2.20634
v -6.30436 8.88435 2.19774
v -4.36389 10.19321 2.20440
v -2.56071 11.40947 1.31376
v -3.28566 10.92049 -2.50091
v -4.91771 9.81966 -2.54888
v -4.54964 13.68658 1.34514
v -4.10112 13.98911 1.13468
v -4.32906 13.83536 0.21750
v -4.79960 13.51798 0.33936
v -3.11810 11.56424 1.34514
v -2.66959 11.86677 1.13468
v -2.89753 11.71302 0.21750
v -3.36806 11.39564 0.33936
v -4.08964 13.99685 1.11401
v -3.64457 14.29706 0.89588
v -3.87878 14.13908 0.07832
v -4.34055 13.82761 0.23816
v -2.65811 11.87452 1.11401
v -2.21303 12.17472 0.89588
v -2.44724 12.01674 0.07832
v -2.90901 11.70528 0.23816
v -3.63997 14.30016 0.86098
v -3.19810 14.59820 0.63514
v -3.43217 14.44032 -0.08392
v -3.88338 14.13598 0.11322
v -2.20843 12.17782 0.86098
v -1.76657 12.47587 0.63514
v -2.00063 12.31799 -0.08392
v -2.45184 12.01364 0.11322
v -3.20133 14.59603 0.58667
v -2.76244 14.89206 0.35304
v -2.99005 14.73854 -0.26908
v -3.42894 14.44250 -0.03545
v -1.76979 12.47369 0.58667
v -1.33091 12.76972 0.35304
v -1.55852 12.61620 -0.26908
v -1.99740 12.32016 -0.03545
v -4.59542 13.53508 0.04340
v -4.19000 13.80854 -0.15716
v -4.41543 13.65648 -1.00985
v -4.84227 13.36858 -0.89027
v -3.27573 11.57855 0.04340
v -2.87030 11.85201 -0.15716
v -3.09574 11.69995 -1.00985
v -3.52257 11.41205 -0.89027
v -4.17948 13.81563 -0.17647
v -3.77727 14.08693 -0.38381
v -4.00763 13.93155 -1.14466
v -4.42596 13.64938 -0.99054
v -2.85978 11.85910 -0.17647
v -2.45757 12.13040 -0.38381
v -2.68793 11.97502 -1.14466
v -3.10626 11.69285 -0.99054
v -3.77326 14.08963 -0.41608
v -3.37403 14.35891 -0.63026
v -3.60344 14.20418 -1.30038
v -4.01163 13.92885 -1.11239
v -2.45357 12.13310 -0.41608
v -2.05434 12.40238 -0.63026
v -2.28375 12.24765 -1.30038
v -2.69194 11.97232 -1.11239
v -3.37741 14.35664 -0.67486
v -2.98095 14.62405 -0.89595
v -3.20361 14.47386 -1.47687
v -3.60007 14.20645 -1.25578
v -2.05771 12.40011 -0.67486
v -1.66126 12.66752 -0.89595
v -1.88392 12.51733 -1.47687
v -2.28037 12.24992 -1.25578
v -4.66667 13.36640 -1.20648
v -4.30194 13.61241 -1.39487
v -4.52109 13.46459 -2.17638
v -4.90573 13.20515 -2.05903
v -3.45881 11.57568 -1.20648
v -3.09409 11.82169 -1.39487
v -3.31323 11.67387 -2.17638
v -3.69788 11.41442 -2.05903
v -4.29234 13.61889 -1.41235
v -3.93067 13.86283 -1.60714
v -4.15413 13.71211 -2.30704
v -4.53069 13.45811 -2.15890
v -3.08448 11.82817 -1.41235
v -2.72282 12.07211 -1.60714
v -2.94627 11.92139 -2.30704
v -3.32284 11.66739 -2.15890
v -3.92699 13.86532 -1.63597
v -3.56821 14.10732 -1.83720
v -3.79079 13.95719 -2.45651
v -4.15781 13.70963 -2.27821
v -2.71913 12.07460 -1.63597
v -2.36035 12.31660 -1.83720
v -2.58293 12.16647 -2.45651
v -2.94996 11.91890 -2.27821
v -3.57120 14.10530 -1.87679
v -3.21513 14.34548 -2.08454
v -3.43172 14.19938 -2.62467
v -3.78779 13.95921 -2.41693
v -2.36334 12.31458 -1.87679
v -2.00727 12.55475 -2.08454
v -2.22386 12.40866 -2.62467
v -2.57993 12.16849 -2.41693
v -6.53146 12.51870 -1.48778
v -5.97785 12.89211 -1.68142
v -6.14811 12.77726 -2.86118
v -6.72340 12.38923 -2.81778
v -4.94335 10.16423 -1.48778
v -4.38975 10.53764 -1.68142
v -4.56001 10.42280 -2.86118
v -5.13529 10.03476 -2.81778
v -5.95102 12.91021 -1.71410
v -5.40414 13.27908 -1.92630
v -5.60822 13.14143 -2.94189
v -6.17495 12.75916 -2.82850
v -4.36291 10.55574 -1.71410
v -3.81603 10.92462 -1.92630
v -4.02011 10.78696 -2.94189
v -4.58684 10.40469 -2.82850
v -5.38941 13.28902 -1.98395
v -4.84891 13.65359 -2.21458
v -5.06987 13.50455 -3.06635
v -5.62295 13.13149 -2.88424
v -3.80130 10.93455 -1.98395
v -3.26080 11.29912 -2.21458
v -3.48176 11.15009 -3.06635
v -4.03484 10.77703 -2.88424
v -4.84884 13.65364 -2.29533
v -4.31441 14.01412 -2.54440
v -4.53551 13.86498 -3.23467
v -5.06994 13.50450 -2.98560
v -3.26073 11.29917 -2.29533
v -2.72630 11.65965 -2.54440
v -2.94740 11.51051 -3.23467
v -3.48183 11.15004 -2.98560
v 8.31491 11.67761 -2.20634
v 8.22798 11.73624 2.19774
v 6.28751 13.04510 2.20440
v 4.48434 14.26136 1.31376
v 5.20928 13.77238 -2.50091
v 6.84134 12.67154 -2.54888
v 6.39128 8.82572 -2.20634
v 6.30436 8.88435 2.19774
v 4.36389 10.19321 2.20440
v 2.56071 11.40947 1.31376
v 3.28566 10.92049 -2.50091
v 4.91771 9.81966 -2.54888
v 4.79960 13.51798 0.33936
v 4.32906 13.83536 0.21750
v 4.10112 13.98911 1.13468
v 4.54964 13.68658 1.34514
v 3.36806 11.39564 0.33936
v 2.89753 11.71302 0.21750
v 2.66959 11.86677 1.13468
v 3.11810 11.56424 1.34514
v 4.34055 13.82761 0.23816
v 3.87878 14.13908 0.07832
v 3.64457 14.29706 0.89588
v 4.08964 13.99685 1.11401
v 2.90901 11.70528 0.23816
v 2.44724 12.01674 0.07832
v 2.21303 12.17472 0.89588
v 2.65811 11.87452 1.11401
v 3.88338 14.13598 0.11322
v 3.43217 14.44032 -0.08392
v 3.19810 14.59820 0.63514
v 3.63997 14.30016 0.86098
v 2.45184 12.01364 0.11322
v 2.00063 12.31799 -0.08392
v 1.76657 12.47587 0.63514
v 2.20843 12.17782 0.86098
v 3.42894 14.44250 -0.03545
v 2.99005 14.73854 -0.26908
v 2.76244 14.89206 0.35304
v 3.20133 14.59603 0.58667
v 1.99740 12.32016 -0.03545
v 1.55852 12.61620 -0.26908
v 1.33091 12.76972 0.35304
v 1.76979 12.47369 0.58667
v 4.84227 13.36858 -0.89027
v 4.41543 13.65648 -1.00985
v 4.19000 13.80854 -0.15716
v 4.59542 13.53508 0.04340
v 3.52257 11.41205 -0.89027
v 3.09574 11.69995 -1.00985
v 2.87030 11.85201 -0.15716
v 3.27573 11.57855 0.04340
v 4.42596 13.64938 -0.99054
v 4.00763 13.93155 -1.14466
v 3.77727 14.08693 -0.38381
v 4.17948 13.81563 -0.17647
v 3.10626 11.69285 -0.99054
v 2.68793 11.97502 -1.14466
v 2.45757 12.13040 -0.38381
v 2.85978 11.85910 -0.17647
v 4.01163 13.92885 -1.11239
v 3.60344 14.20418 -1.30038
v 3.37403 14.35891 -0.63026
v 3.77326 14.08963 -0.41608
v 2.69194 11.97232 -1.11239
v 2.28375 12.24765 -1.30038
v 2.05434 12.40238 -0.63026
v 2.45357 12.13310 -0.41608
v 3.60007 14.20645 -1.25578
v 3.20361 14.47386 -1.47687
v 2.98095 14.62405 -0.89595
v 3.37741 14.35664 -0.67486
v 2.28037 12.24992 -1.25578
v 1.88392 12.51733 -1.47687
v 1.66126 12.66752 -0.89595
v 2.05771 12.40011 -0.67486
v 4.90573 13.20515 -2.05903
v 4.52109 13.46459 -2.17638
v 4.30194 13.61241 -1.39487
v 4.66667 13.36640 -1.20648
v 3.69788 11.41442 -2.05903
v 3.31323 11.67387 -2.17638
v 3.09409 11.82169 -1.39487
v 3.45881 11.57568 -1.20648
v 4.53069 13.45811 -2.15890
v 4.15413 13.71211 -2.30704
v 3.93067 13.86283 -1.60714
v 4.29234 13.61889 -1.41235
v 3.32284 11.66739 -2.15890
v 2.94627 11.92139 -2.30704
v 2.72282 12.07211 -1.60714
v 3.08448 11.82817 -1.41235
v 4.15781 13.70963 -2.27821
v 3.79079 13.95719 -2.45651
v 3.56821 14.10732 -1.83720
v 3.92699 13.86532 -1.63597
v 2.94996 11.91890 -2.27821
v 2.58293 12.16647 -2.45651
v 2.36035 12.31660 -1.83720
v 2.71913 12.07460 -1.63597
v 3.78779 13.95921 -2.41693
v 3.43172 14.19938 -2.62467
v 3.21513 14.34548 -2.08454
v 3.57120 14.10530 -1.87679
v 2.57993 12.16849 -2.41693
v 2.22386 12.40866 -2.62467
v 2.00727 12.55475 -2.08454
v 2.36334 12.31458 -1.87679
v 6.72340 12.38923 -2.81778
v 6.14811 12.77726 -2.86118
v 5.97785 12.89211 -1.68142
v 6.53146 12.51870 -1.48778
v 5.13529 10.03476 -2.81778
v 4.56001 10.42280 -2.86118
v 4.38975 10.53764 -1.68142
v 4.94335 10.16423 -1.48778
v 6.17495 12.75916 -2.82850
v 5.60822 13.14143 -2.94189
v 5.40414 13.27908 -1.92630
v 5.95102 12.91021 -1.71410
v 4.58684 10.40469 -2.82850
v 4.02011 10.78696 -2.94189
v 3.81603 10.92462 -1.92630
v 4.36291 10.55574 -1.71410
v 5.62295 13.13149 -2.88424
v 5.06987 13.50455 -3.06635
v 4.84891 13.65359 -2.21458
v 5.38941 13.28902 -1.98395
v 4.03484 10.77703 -2.88424
v 3.48176 11.15009 -3.06635
v 3.26080 11.29912 -2.21458
v 3.80130 10.93455 -1.98395
v 5.06994 13.50450 -2.98560
v 4.53551 13.86498 -3.23467
v 4.31441 14.01412 -2.54440
v 4.84884 13.65364 -2.29533
v 3.48183 11.15004 -2.98560
v 2.94740 11.51051 -3.23467
v 2.72630 11.65965 -2.54440
v 3.26073 11.29917 -2.29533
f 1 2 10
f 1 10 9
f 2 3 11
f 2 11 10
f 3 4 12
f 3 12 11
f 4 5 13
f 4 13 12
f 5 6 14
f 5 14 13
f 6 7 15
f 6 15 14
f 7 8 16
f 7 16 15
f 8 1 9
f 8 9 16
f 9 10 18
f 9 18 17
f 10 11 19
f 10 19 18
f 11 12 20
f 11 20 19
f 12 13 21
f 12 21 20
f 13 14 22
f 13 22 21
f 14 15 23
f 14 23 22
f 15 16 24
f 15 24 23
f 16 9 17
f 16 17 24
f 17 18 26
f 17 26 25
f 18 19 27
f 18 27 26
f 19 20 28
f 19 28 27
f 20 21 29
f 20 29 28
f 21 22 30
f 21 30 29
f 22 23 31
f 22 31 30
f 23 24 32
f 23 32 31
f 24 17 25
f 24 25 32
f 25 26 34
f 25 34 33
f 26 27 35
f 26 35 34
f 27 28 36
f 27 36 35
f 28 29 37
f 28 37 36
f 29 30 38
f 29 38 37
f 30 31 39
f 30 39 38
f 31 32 40
f 31 40 39
f 32 25 33
f 32 33 40
f 33 34 42
f 33 42 41
f 34 35 43
f 34 43 42
f 35 36 44
f 35 44 43
f 36 37 45
f 36 45 44
f 37 38 46
f 37 46 45
f 38 39 47
f 38 47 46
f 39 40 48
f 39 48 47
f 40 33 41
f 40 41 48
f 41 42 50
f 41 50 49
f 42 43 51
f 42 51 50
f 43 44 52
f 43 52 51
f 44 45 53
f 44 53 52
f 45 46 54
f 45 54 53
f 46 47 55
f 46 55 54
f 47 48 56
f 47 56 55
f 48 41 49
f 48 49 56
f 49 50 58
f 49 58 57
f 50 51 59
f 50 59 58
f 51 52 60
f 51 60 59
f 52 53 61
f 52 61 60
f 53 54 62
f 53 62 61
f 54 55 63
f 54 63 62
f 55 56 64
f 55 64 63
f 56 49 57
f 56 57 64
f 57 58 66
f 57 66 65
f 58 59 67
f 58 67 66
f 59 60 68
f 59 68 67
f 60 61 69
f 60 69 68
f 61 62 70
f 61 70 69
f 62 63 71
f 62 71 70
f 63 64 72
f 63 72 71
f 64 57 65
f 64 65 72
f 65 66 74
f 65 74 73
f 66 67 75
f 66 75 74
f 67 68 76
f 67 76 75
f 68 69 77
f 68 77 76
f 69 70 78
f 69 78 77
f 70 71 79
f 70 79 78
f 71 72 80
f 71 80 79
f 72 65 73
f 72 73 80
f 73 74 82
f 73 82 81
f 74 75 83
f 74 83 82
f 75 76 84
f 75 84 83
f 76 77 85
f 76 85 84
f 77 78 86
f 77 86 85
f 78 79 87
f 78 87 86
f 79 80 88
f 79 88 87
f 80 73 81
f 80 81 88
f 81 82 90
f 81 90 89
f 82 83 91
f 82 91 90
f 83 84 92
f 83 92 91
f 84 85 93
f 84 93 92
f 85 86 94
f 85 94 93
f 86 87 95
f 86 95 94
f 87 88 96
f 87 96 95
f 88 81 89
f 88 89 96
f 89 90 98
f 89 98 97
f 90 91 99
f 90 99 98
f 91 92 100
f 91 100 99
f 92 93 101
f 92 101 100
f 93 94 102
f 93 102 101
f 94 95 103
f 94 103 102
f 95 96 104
f 95 104 103
f 96 89 97
f 96 97 104
f 97 98 106
f 97 106 105
f 98 99 107
f 98 107 106
f 99 100 108
f 99 108 107
f 100 101 109
f 100 109 108
f 101 102 110
f 101 110 109
f 102 103 111
f 102 111 110
f 103 104 112
f 103 112 111
f 104 97 105
f 104 105 112
f 105 106 114
f 105 114 113
f 106 107 115
f 106 115 114
f 107 108 116
f 107 116 115
f 108 109 117
f 108 117 116
f 109 110 118
f 109 118 117
f 110 111 119
f 110 119 118
f 111 112 120
f 111 120 119
f 112 105 113
f 112 113 120
f 113 114 122
f 113 122 121
f 114 115 123
f 114 123 122
f 115 116 124
f 115 124 123
f 116 117 125
f 116 125 124
f 117 118 126
f 117 126 125
f 118 119 127
f 118 127 126
f 119 120 128
f 119 128 127
f 120 113 121
f 120 121 128
f 121 122 130
f 121 130 129
f 122 123 131
f 122 131 130
f 123 124 132
f 123 132 131
f 124 125 133
f 124 133 132
f 125 126 134
f 125 134 133
f 126 127 135
f 126 135 134
f 127 128 136
f 127 136 135
f 128 121 129
f 128 129 136
f 129 130 138
f 129 138 137
f 130 131 139
f 130 139 138
f 131 132 140
f 131 140 139
f 132 133 141
f 132 141 140
f 133 134 142
f 133 142 141
f 134 135 143
f 134 143 142
f 135 136 144
f 135 144 143
f 136 129 137
f 136 137 144
f 137 138 146
f 137 146 145
f 138 139 147
f 138 147 146
f 139 140 148
f 139 148 147
f 140 141 149
f 140 149 148
f 141 142 150
f 141 150 149
f 142 143 151
f 142 151 150
f 143 144 152
f 143 152 151
f 144 137 145
f 144 145 152
f 145 146 154
f 145 154 153
f 146 147 155
f 146 155 154
f 147 148 156
f 147 156 155
f 148 149 157
f 148 157 156
f 149 150 158
f 149 158 157
f 150 151 159
f 150 159 158
f 151 152 160
f 151 160 159
f 152 145 153
f 152 153 160
f 153 154 162
f 153 162 161
f 154 155 163
f 154 163 162
f 155 156 164
f 155 164 163
f 156 157 165
f 156 165 164
f 157 158 166
f 157 166 165
f 158 159 167
f 158 167 166
f 159 160 168
f 159 168 167
f 160 153 161
f 160 161 168
f 161 162 170
f 161 170 169
f 162 163 171
f 162 171 170
f 163 164 172
f 163 172 171
f 164 165 173
f 164 173 172
f 165 166 174
f 165 174 173
f 166 167 175
f 166 175 174
f 167 168 176
f 167 176 175
f 168 161 169
f 168 169 176
f 169 170 178
f 169 178 177
f 170 171 179
f 170 179 178
f 171 172 180
f 171 180 179
f 172 173 181
f 172 181 180
f 173 174 182
f 173 182 181
f 174 175 183
f 174 183 182
f 175 176 184
f 175 184 183
f 176 169 177
f 176 177 184
f 177 178 186
f 177 186 185
f 178 179 187
f 178 187 186
f 179 180 188
f 179 188 187
f 180 181 189
f 180 189 188
f 181 182 190
f 181 190 189
f 182 183 191
f 182 191 190
f 183 184 192
f 183 192 191
f 184 177 185
f 184 185 192
f 185 186 194
f 185 194 193
f 186 187 195
f 186 195 194
f 187 188 196
f 187 196 195
f 188 189 197
f 188 197 196
f 189 190 198
f 189 198 197
f 190 191 199
f 190 199 198
f 191 192 200
f 191 200 199
f 192 185 193
f 192 193 200
f 193 194 202
f 193 202 201
f 194 195 203
f 194 203 202
f 195 196 204
f 195 204 203
f 196 197 205
f 196 205 204
f 197 198 206
f 197 206 205
f 198 199 207
f 198 207 206
f 199 200 208
f 199 208 207
f 200 193 201
f 200 201 208
f 201 202 210
f 201 210 209
f 202 203 211
f 202 211 210
f 203 204 212
f 203 212 211
f 204 205 213
f 204 213 212
f 205 206 214
f 205 214 213
f 206 207 215
f 206 215 214
f 207 208 216
f 207 216 215
f 208 201 209
f 208 209 216
f 209 210 218
f 209 218 217
f 210 211 219
f 210 219 218
f 211 212 220
f 211 220 219
f 212 213 221
f 212 221 220
f 213 214 222
f 213 222 221
f 214 215 223
f 214 223 222
f 215 216 224
f 215 224 223
f 216 209 217
f 216 217 224
f 217 218 226
f 217 226 225
f 218 219 227
f 218 227 226
f 219 220 228
f 219 228 227
f 220 221 229
f 220 229 228
f 221 222 230
f 221 230 229
f 222 223 231
f 222 231 230
f 223 224 232
f 223 232 231
f 224 217 225
f 224 225 232
f 225 226 234
f 225 234 233
f 226 227 235
f 226 235 234
f 227 228 236
f 227 236 235
f 228 229 237
f 228 237 236
f 229 230 238
f 229 238 237
f 230 231 239
f 230 239 238
f 231 232 240
f 231 240 239
f 232 225 233
f 232 233 240
f 233 234 242
f 233 242 241
f 234 235 243
f 234 243 242
f 235 236 244
f 235 244 243
f 236 237 245
f 236 245 244
f 237 238 246
f 237 246 245
f 238 239 247
f 238 247 246
f 239 240 248
f 239 248 247
f 240 233 241
f 240 241 248
f 241 242 250
f 241 250 249
f 242 243 251
f 242 251 250
f 243 244 252
f 243 252 251
f 244 245 253
f 244 253 252
f 245 246 254
f 245 254 253
f 246 247 255
f 246 255 254
f 247 248 256
f 247 256 255
f 248 241 249
f 248 249 256
f 249 250 258
f 249 258 257
f 250 251 259
f 250 259 258
f 251 252 260
f 251 260 259
f 252 253 261
f 252 261 260
f 253 254 262
f 253 262 261
f 254 255 263
f 254 263 262
f 255 256 264
f 255 264 263
f 256 249 257
f 256 257 264
f 257 258 266
f 257 266 265
f 258 259 267
f 258 267 266
f 259 260 268
f 259 268 267
f 260 261 269
f 260 269 268
f 261 262 270
f 261 270 269
f 262 263 271
f 262 271 270
f 263 264 272
f 263 272 271
f 264 257 265
f 264 265 272
f 265 266 274
f 265 274 273
f 266 267 275
f 266 275 274
f 267 268 276
f 267 276 275
f 268 269 277
f 268 277 276
f 269 270 278
f 269 278 277
f 270 271 279
f 270 279 278
f 271 272 280
f 271 280 279
f 272 265 273
f 272 273 280
f 273 274 282
f 273 282 281
f 274 275 283
f 274 283 282
f 275 276 284
f 275 284 283
f 276 277 285
f 276 285 284
f 277 278 286
f 277 286 285
f 278 279 287
f 278 287 286
f 279 280 288
f 279 288 287
f 280 273 281
f 280 281 288
f 281 282 290
f 281 290 289
f 282 283 291
f 282 291 290
f 283 284 292
f 283 292 291
f 284 285 293
f 284 293 292
f 285 286 294
f 285 294 293
f 286 287 295
f 286 295 294
f 287 288 296
f 287 296 295
f 288 281 289
f 288 289 296
f 289 290 298
f 289 298 297
f 290 291 299
f 290 299 298
f 291 292 300
f 291 300 299
f 292 293 301
f 292 301 300
f 293 294 302
f 293 302 301
f 294 295 303
f 294 303 302
f 295 296 304
f 295 304 303
f 296 289 297
f 296 297 304
f 297 298 306
f 297 306 305
f 298 299 307
f 298 307 306
f 299 300 308
f 299 308 307
f 300 301 309
f 300 309 308
f 301 302 310
f 301 310 309
f 302 303 311
f 302 311 310
f 303 304 312
f 303 312 311
f 304 297 305
f 304 305 312
f 305 306 314
f 305 314 313
f 306 307 315
f 306 315 314
f 307 308 316
f 307 316 315
f 308 309 317
f 308 317 316
f 309 310 318
f 309 318 317
f 310 311 319
f 310 319 318
f 311 312 320
f 311 320 319
f 312 305 313
f 312 313 320
f 313 314 322
f 313 322 321
f 314 315 323
f 314 323 322
f 315 316 324
f 315 324 323
f 316 317 325
f 316 325 324
f 317 318 326
f 317 326 325
f 318 319 327
f 318 327 326
f 319 320 328
f 319 328 327
f 320 313 321
f 320 321 328
f 321 322 330
f 321 330 329
f 322 323 331
f 322 331 330
f 323 324 332
f 323 332 331
f 324 325 333
f 324 333 332
f 325 326 334
f 325 334 333
f 326 327 335
f 326 335 334
f 327 328 336
f 327 336 335
f 328 321 329
f 328 329 336
f 329 330 338
f 329 338 337
f 330 331 339
f 330 339 338
f 331 332 340
f 331 340 339
f 332 333 341
f 332 341 340
f 333 334 342
f 333 342 341
f 334 335 343
f 334 343 342
f 335 336 344
f 335 344 343
f 336 329 337
f 336 337 344
f 337 338 346
f 337 346 345
f 338 339 347
f 338 347 346
f 339 340 348
f 339 348 347
f 340 341 349
f 340 349 348
f 341 342 350
f 341 350 349
f 342 343 351
f 342 351 350
f 343 344 352
f 343 352 351
f 344 337 345
f 344 345 352
f 345 346 354
f 345 354 353
f 346 347 355
f 346 355 354
f 347 348 356
f 347 356 355
f 348 349 357
f 348 357 356
f 349 350 358
f 349 358 357
f 350 351 359
f 350 359 358
f 351 352 360
f 351 360 359
f 352 345 353
f 352 353 360
f 353 354 362
f 353 362 361
f 354 355 363
f 354 363 362
f 355 356 364
f 355 364 363
f 356 357 365
f 356 365 364
f 357 358 366
f 357 366 365
f 358 359 367
f 358 367 366
f 359 360 368
f 359 368 367
f 360 353 361
f 360 361 368
f 361 362 370
f 361 370 369
f 362 363 371
f 362 371 370
f 363 364 372
f 363 372 371
f 364 365 373
f 364 373 372
f 365 366 374
f 365 374 373
f 366 367 375
f 366 375 374
f 367 368 376
f 367 376 375
f 368 361 369
f 368 369 376
f 369 370 378
f 369 378 377
f 370 371 379
f 370 379 378
f 371 372 380
f 371 380 379
f 372 373 381
f 372 381 380
f 373 374 382
f 373 382 381
f 374 375 383
f 374 383 382
f 375 376 384
f 375 384 383
f 376 369 377
f 376 377 384
f 377 378 386
f 377 386 385
f 378 379 387
f 378 387 386
f 379 380 388
f 379 388 387
f 380 381 389
f 380 389 388
f 381 382 390
f 381 390 389
f 382 383 391
f 382 391 390
f 383 384 392
f 383 392 391
f 384 377 385
f 384 385 392
f 385 386 394
f 385 394 393
f 386 387 395
f 386 395 394
f 387 388 396
f 387 396 395
f 388 389 397
f 388 397 396
f 389 390 398
f 389 398 397
f 390 391 399
f 390 399 398
f 391 392 400
f 391 400 399
f 392 385 393
f 392 393 400
f 393 394 402
f 393 402 401
f 394 395 403
f 394 403 402
f 395 396 404
f 395 404 403
f 396 397 405
f 396 405 404
f 397 398 406
f 397 406 405
f 398 399 407
f 398 407 406
f 399 400 408
f 399 408 407
f 400 393 401
f 400 401 408
f 401 402 410
f 401 410 409
f 402 403 411
f 402 411 410
f 403 404 412
f 403 412 411
f 404 405 413
f 404 413 412
f 405 406 414
f 405 414 413
f 406 407 415
f 406 415 414
f 407 408 416
f 407 416 415
f 408 401 409
f 408 409 416
f 409 410 418
f 409 418 417
f 410 411 419
f 410 419 418
f 411 412 420
f 411 420 419
f 412 413 421
f 412 421 420
f 413 414 422
f 413 422 421
f 414 415 423
f 414 423 422
f 415 416 424
f 415 424 423
f 416 409 417
f 416 417 424
f 417 418 426
f 417 426 425
f 418 419 427
f 418 427 426
f 419 420 428
f 419 428 427
f 420 421 429
f 420 429 428
f 421 422 430
f 421 430 429
f 422 423 431
f 422 431 430
f 423 424 432
f 423 432 431
f 424 417 425
f 424 425 432
f 425 426 434
f 425 434 433
f 426 427 435
f 426 435 434
f 427 428 436
f 427 436 435
f 428 429 437
f 428 437 436
f 429 430 438
f 429 438 437
f 430 431 439
f 430 439 438
f 431 432 440
f 431 440 439
f 432 425 433
f 432 433 440
f 433 434 442
f 433 442 441
f 434 435 443
f 434 443 442
f 435 436 444
f 435 444 443
f 436 437 445
f 436 445 444
f 437 438 446
f 437 446 445
f 438 439 447
f 438 447 446
f 439 440 448
f 439 448 447
f 440 433 441
f 440 441 448
f 441 442 450
f 441 450 449
f 442 443 451
f 442 451 450
f 443 444 452
f 443 452 451
f 444 445 453
f 444 453 452
f 445 446 454
f 445 454 453
f 446 447 455
f 446 455 454
f 447 448 456
f 447 456 455
f 448 441 449
f 448 449 456
f 449 450 458
f 449 458 457
f 450 451 459
f 450 459 458
f 451 452 460
f 451 460 459
f 452 453 461
f 452 461 460
f 453 454 462
f 453 462 461
f 454 455 463
f 454 463 462
f 455 456 464
f 455 464 463
f 456 449 457
f 456 457 464
f 457 458 466
f 457 466 465
f 458 459 467
f 458 467 466
f 459 460 468
f 459 468 467
f 460 461 469
f 460 469 468
f 461 462 470
f 461 470 469
f 462 463 471
f 462 471 470
f 463 464 472
f 463 472 471
f 464 457 465
f 464 465 472
f 465 466 474
f 465 474 473
f 466 467 475
f 466 475 474
f 467 468 476
f 467 476 475
f 468 469 477
f 468 477 476
f 469 470 478
f 469 478 477
f 470 471 479
f 470 479 478
f 471 472 480
f 471 480 479
f 472 465 473
f 472 473 480
f 473 474 482
f 473 482 481
f 474 475 483
f 474 483 482
f 475 476 484
f 475 484 483
f 476 477 485
f 476 485 484
f 477 478 486
f 477 486 485
f 478 479 487
f 478 487 486
f 479 480 488
f 479 488 487
f 480 473 481
f 480 481 488
f 481 482 490
f 481 490 489
f 482 483 491
f 482 491 490
f 483 484 492
f 483 492 491
f 484 485 493
f 484 493 492
f 485 486 494
f 485 494 493
f 486 487 495
f 486 495 494
f 487 488 496
f 487 496 495
f 488 481 489
f 488 489 496
f 489 490 498
f 489 498 497
f 490 491 499
f 490 499 498
f 491 492 500
f 491 500 499
f 492 493 501
f 492 501 500
f 493 494 502
f 493 502 501
f 494 495 503
f 494 503 502
f 495 496 504
f 495 504 503
f 496 489 497
f 496 497 504
f 497 498 506
f 497 506 505
f 498 499 507
f 498 507 506
f 499 500 508
f 499 508 507
f 500 501 509
f 500 509 508
f 501 502 510
f 501 510 509
f 502 503 511
f 502 511 510
f 503 504 512
f 503 512 511
f 504 497 505
f 504 505 512
f 505 506 514
f 505 514 513
f 506 507 515
f 506 515 514
f 507 508 516
f 507 516 515
f 508 509 517
f 508 517 516
f 509 510 518
f 509 518 517
f 510 511 519
f 510 519 518
f 511 512 520
f 511 520 519
f 512 505 513
f 512 513 520
f 513 514 522
f 513 522 521
f 514 515 523
f 514 523 522
f 515 516 524
f 515 524 523
f 516 517 525
f 516 525 524
f 517 518 526
f 517 526 525
f 518 519 527
f 518 527 526
f 519 520 528
f 519 528 527
f 520 513 521
f 520 521 528
f 521 522 530
f 521 530 529
f 522 523 531
f 522 531 530
f 523 524 532
f 523 532 531
f 524 525 533
f 524 533 532
f 525 526 534
f 525 534 533
f 526 527 535
f 526 535 534
f 527 528 536
f 527 536 535
f 528 521 529
f 528 529 536
f 529 530 538
f 529 538 537
f 530 531 539
f 530 539 538
f 531 532 540
f 531 540 539
f 532 533 541
f 532 541 540
f 533 534 542
f 533 542 541
f 534 535 543
f 534 543 542
f 535 536 544
f 535 544 543
f 536 529 537
f 536 537 544
f 537 538 546
f 537 546 545
f 538 539 547
f 538 547 546
f 539 540 548
f 539 548 547
f 540 541 549
f 540 549 548
f 541 542 550
f 541 550 549
f 542 543 551
f 542 551 550
f 543 544 552
f 543 552 551
f 544 537 545
f 544 545 552
f 545 546 554
f 545 554 553
f 546 547 555
f 546 555 554
f 547 548 556
f 547 556 555
f 548 549 557
f 548 557 556
f 549 550 558
f 549 558 557
f 550 551 559
f 550 559 558
f 551 552 560
f 551 560 559
f 552 545 553
f 552 553 560
f 553 554 562
f 553 562 561
f 554 555 563
f 554 563 562
f 555 556 564
f 555 564 563
f 556 557 565
f 556 565 564
f 557 558 566
f 557 566 565
f 558 559 567
f 558 567 566
f 559 560 568
f 559 568 567
f 560 553 561
f 560 561 568
f 561 562 570
f 561 570 569
f 562 563 571
f 562 571 570
f 563 564 572
f 563 572 571
f 564 565 573
f 564 573 572
f 565 566 574
f 565 574 573
f 566 567 575
f 566 575 574
f 567 568 576
f 567 576 575
f 568 561 569
f 568 569 576
f 569 570 578
f 569 578 577
f 570 571 579
f 570 579 578
f 571 572 580
f 571 580 579
f 572 573 581
f 572 581 580
f 573 574 582
f 573 582 581
f 574 575 583
f 574 583 582
f 575 576 584
f 575 584 583
f 576 569 577
f 576 577 584
f 585 2 1
f 586 577 578
f 585 3 2
f 586 578 579
f 585 4 3
f 586 579 580
f 585 5 4
f 586 580 581
f 585 6 5
f 586 581 582
f 585 7 6
f 586 582 583
f 585 8 7
f 586 583 584
f 585 1 8
f 586 584 577
f 587 589 588
f 593 594 595
f 587 590 589
f 593 595 596
f 587 591 590
f 593 596 597
f 587 592 591
f 593 597 598
f 587 588 594
f 587 594 593
f 588 589 595
f 588 595 594
f 589 590 596
f 589 596 595
f 590 591 597
f 590 597 596
f 591 592 598
f 591 598 597
f 592 587 593
f 592 593 598
f 599 601 600
f 603 604 605
f 599 602 601
f 603 605 606
f 599 600 604
f 599 604 603
f 600 601 605
f 600 605 604
f 601 602 606
f 601 606 605
f 602 599 603
f 602 603 606
f 607 609 608
f 611 612 613
f 607 610 609
f 611 613 614
f 607 608 612
f 607 612 611
f 608 609 613
f 608 613 612
f 609 610 614
f 609 614 613
f 610 607 611
f 610 611 614
f 615 617 616
f 619 620 621
f 615 618 617
f 619 621 622
f 615 616 620
f 615 620 619
f 616 617 621
f 616 621 620
f 617 618 622
f 617 622 621
f 618 615 619
f 618 619 622
f 623 625 624
f 627 628 629
f 623 626 625
f 627 629 630
f 623 624 628
f 623 628 627
f 624 625 629
f 624 629 628
f 625 626 630
f 625 630 629
f 626 623 627
f 626 627 630
f 631 633 632
f 635 636 637
f 631 634 633
f 635 637 638
f 631 632 636
f 631 636 635
f 632 633 637
f 632 637 636
f 633 634 638
f 633 638 637
f 634 631 635
f 634 635 638
f 639 641 640
f 643 644 645
f 639 642 641
f 643 645 646
f 639 640 644
f 639 644 643
f 640 641 645
f 640 645 644
f 641 642 646
f 641 646 645
f 642 639 643
f 642 643 646
f 647 649 648
f 651 652 653
f 647 650 649
f 651 653 654
f 647 648 652
f 647 652 651
f 648 649 653
f 648 653 652
f 649 650 654
f 649 654 653
f 650 647 651
f 650 651 654
f 655 657 656
f 659 660 661
f 655 658 657
f 659 661 662
f 655 656 660
f 655 660 659
f 656 657 661
f 656 661 660
f 657 658 662
f 657 662 661
f 658 655 659
f 658 659 662
f 663 665 664
f 667 668 669
f 663 666 665
f 667 669 670
f 663 664 668
f 663 668 667
f 664 665 669
f 664 669 668
f 665 666 670
f 665 670 669
f 666 663 667
f 666 667 670
f 671 673 672
f 675 676 677
f 671 674 673
f 675 677 678
f 671 672 676
f 671 676 675
f 672 673 677
f 672 677 676
f 673 674 678
f 673 678 677
f 674 671 675
f 674 675 678
f 679 681 680
f 683 684 685
f 679 682 681
f 683 685 686
f 679 680 684
f 679 684 683
f 680 681 685
f 680 685 684
f 681 682 686
f 681 686 685
f 682 679 683
f 682 683 686
f 687 689 688
f 691 692 693
f 687 690 689
f 691 693 694
f 687 688 692
f 687 692 691
f 688 689 693
f 688 693 692
f 689 690 694
f 689 694 693
f 690 687 691
f 690 691 694
f 695 697 696
f 699 700 701
f 695 698 697
f 699 701 702
f 695 696 700
f 695 700 699
f 696 697 701
f 696 701 700
f 697 698 702
f 697 702 701
f 698 695 699
f 698 699 702
f 703 705 704
f 707 708 709
f 703 706 705
f 707 709 710
f 703 704 708
f 703 708 707
f 704 705 709
f 704 709 708
f 705 706 710
f 705 710 709
f 706 703 707
f 706 707 710
f 711 713 712
f 715 716 717
f 711 714 713
f 715 717 718
f 711 712 716
f 711 716 715
f 712 713 717
f 712 717 716
f 713 714 718
f 713 718 717
f 714 711 715
f 714 715 718
f 719 721 720
f 723 724 725
f 719 722 721
f 723 725 726
f 719 720 724
f 719 724 723
f 720 721 725
f 720 725 724
f 721 722 726
f 721 726 725
f 722 719 723
f 722 723 726
f 727 729 728
f 733 734 735
f 727 730 729
f 733 735 736
f 727 731 730
f 733 736 737
f 727 732 731
f 733 737 738
f 727 728 734
f 727 734 733
f 728 729 735
f 728 735 734
f 729 730 736
f 729 736 735
f 730 731 737
f 730 737 736
f 731 732 738
f 731 738 737
f 732 727 733
f 732 733 738
f 739 741 740
f 743 744 745
f 739 742 741
f 743 745 746
f 739 740 744
f 739 744 743
f 740 741 745
f 740 745 744
f 741 742 746
f 741 746 745
f 742 739 743
f 742 743 746
f 747 749 748
f 751 752 753
f 747 750 749
f 751 753 754
f 747 748 752
f 747 752 751
f 748 749 753
f 748 753 752
f 749 750 754
f 749 754 753
f 750 747 751
f 750 751 754
f 755 757 756
f 759 760 761
f 755 758 757
f 759 761 762
f 755 756 760
f 755 760 759
f 756 757 761
f 756 761 760
f 757 758 762
f 757 762 761
f 758 755 759
f 758 759 762
f 763 765 764
f 767 768 769
f 763 766 765
f 767 769 770
f 763 764 768
f 763 768 767
f 764 765 769
f 764 769 768
f 765 766 770
f 765 770 769
f 766 763 767
f 766 767 770
f 771 773 772
f 775 776 777
f 771 774 773
f 775 777 778
f 771 772 776
f 771 776 775
f 772 773 777
f 772 777 776
f 773 774 778
f 773 778 777
f 774 771 775
f 774 775 778
f 779 781 780
f 783 784 785
f 779 782 781
f 783 785 786
f 779 780 784
f 779 784 783
f 780 781 785
f 780 785 784
f 781 782 786
f 781 786 785
f 782 779 783
f 782 783 786
f 787 789 788
f 791 792 793
f 787 790 789
f 791 793 794
f 787 788 792
f 787 792 791
f 788 789 793
f 788 793 792
f 789 790 794
f 789 794 793
f 790 787 791
f 790 791 794
f 795 797 796
f 799 800 801
f 795 798 797
f 799 801 802
f 795 796 800
f 795 800 799
f 796 797 801
f 796 801 800
f 797 798 802
f 797 802 801
f 798 795 799
f 798 799 802
f 803 805 804
f 807 808 809
f 803 806 805
f 807 809 810
f 803 804 808
f 803 808 807
f 804 805 809
f 804 809 808
f 805 806 810
f 805 810 809
f 806 803 807
f 806 807 810
f 811 813 812
f 815 816 817
f 811 814 813
f 815 817 818
f 811 812 816
f 811 816 815
f 812 813 817
f 812 817 816
f 813 814 818
f 813 818 817
f 814 811 815
f 814 815 818
f 819 821 820
f 823 824 825
f 819 822 821
f 823 825 826
f 819 820 824
f 819 824 823
f 820 821 825
f 820 825 824
f 821 822 826
f 821 826 825
f 822 819 823
f 822 823 826
f 827 829 828
f 831 832 833
f 827 830 829
f 831 833 834
f 827 828 832
f 827 832 831
f 828 829 833
f 828 833 832
f 829 830 834
f 829 834 833
f 830 827 831
f 830 831 834
f 835 837 836
f 839 840 841
f 835 838 837
f 839 841 842
f 835 836 840
f 835 840 839
f 836 837 841
f 836 841 840
f 837 838 842
f 837 842 841
f 838 835 839
f 838 839 842
f 843 845 844
f 847 848 849
f 843 846 845
f 847 849 850
f 843 844 848
f 843 848 847
f 844 845 849
f 844 849 848
f 845 846 850
f 845 850 849
f 846 843 847
f 846 847 850
f 851 853 852
f 855 856 857
f 851 854 853
f 855 857 858
f 851 852 856
f 851 856 855
f 852 853 857
f 852 857 856
f 853 854 858
f 853 858 857
f 854 851 855
f 854 855 858
f 859 861 860
f 863 864 865
f 859 862 861
f 863 865 866
f 859 860 864
f 859 864 863
f 860 861 865
f 860 865 864
f 861 862 866
f 861 866 865
f 862 859 863
f 862 863 866
