o feelingmosaic_open_embrace_ring_18.5mm
v -6.78981 9.34537 -2.70000
v -8.37683 11.52972 -2.70000
v -8.70011 11.97468 -2.15000
v -8.70011 11.97468 2.15000
v -8.37683 11.52972 2.70000
v -6.78981 9.34537 2.70000
v -6.46653 8.90041 2.15000
v -6.46653 8.90041 -2.15000
v -7.58921 8.88582 -2.76299
v -9.34060 10.93644 -2.63051
v -9.67984 11.33364 -2.05418
v -9.54281 11.17320 2.24064
v -9.16852 10.73496 2.76299
v -7.41712 8.68434 2.63051
v -7.07788 8.28714 2.05418
v -7.21491 8.44758 -2.24064
v -8.35988 8.35988 -2.81932
v -10.25988 10.25988 -2.55468
v -10.60880 10.60880 -1.95341
v -10.31077 10.31077 2.32588
v -9.88561 9.88561 2.81932
v -7.98562 7.98562 2.55468
v -7.63670 7.63670 1.95341
v -7.93473 7.93473 -2.32588
v -9.09620 7.76889 -2.86886
v -11.12708 9.50342 -2.47269
v -11.47941 9.80434 -1.84794
v -10.99964 9.39458 2.40552
v -10.52457 8.98884 2.86886
v -8.49370 7.25430 2.47269
v -8.14137 6.95339 1.84794
v -8.62114 7.36315 -2.40552
v -9.79250 7.11467 -2.91149
v -11.93488 8.67120 -2.38475
v -12.28448 8.92520 -1.73802
v -11.60580 8.43211 2.47936
v -11.08259 8.05197 2.91149
v -8.94021 6.49544 2.38475
v -8.59061 6.24144 1.73802
v -9.26929 6.73453 -2.47936
v -10.44315 6.39957 -2.94711
v -12.67629 7.76804 -2.29106
v -13.01724 7.97698 -1.62390
v -12.12639 7.43106 2.54723
v -11.55755 7.08247 2.94711
v -9.32441 5.71401 2.29106
v -8.98346 5.50507 1.62390
v -9.87431 6.05098 -2.54723
v -11.04261 5.62649 -2.97562
v -13.34474 6.79949 -2.19185
v -13.67144 6.96595 -1.50588
v -12.55926 6.39926 2.60896
v -11.94806 6.08784 2.97562
v -9.64593 4.91485 2.19185
v -9.31923 4.74838 1.50588
v -10.43141 5.31507 -2.60896
v -11.58548 4.79886 -2.99697
v -13.93414 5.77171 -2.08737
v -14.24138 5.89897 -1.38423
v -12.90303 5.34461 2.66441
v -12.25341 5.07553 2.99697
v -9.90475 4.10268 2.08737
v -9.59751 3.97542 1.38423
v -10.93586 4.52978 -2.66441
v -12.06655 3.92066 -3.01110
v -14.43894 4.69150 -1.97785
v -14.72203 4.78348 -1.25924
v -13.15703 4.27498 2.71344
v -12.47359 4.05291 3.01110
v -10.10120 3.28208 1.97785
v -9.81811 3.19010 1.25924
v -11.38311 3.69860 -2.71344
v -12.48088 2.99639 -3.01797
v -14.85421 3.56618 -1.86357
v -15.10901 3.62735 -1.13122
v -13.32132 3.19817 2.75593
v -12.60921 3.02720 3.01797
v -10.23588 2.45742 1.86357
v -9.98108 2.39624 1.13122
v -11.76877 2.82543 -2.75593
v -12.82384 2.03110 -3.01757
v -15.17571 2.40360 -1.74480
v -15.39872 2.43892 -1.00048
v -13.39667 2.12182 2.79178
v -12.66151 2.00539 3.01757
v -10.30964 1.63289 1.74480
v -10.08663 1.59757 1.00048
v -12.08868 1.91466 -2.79178
v -13.09118 1.03030 -3.00991
v -15.39991 1.21200 -1.62183
v -15.58832 1.22683 -0.86732
v -13.38449 1.05338 2.82091
v -12.63231 0.99418 3.00991
v -10.32358 0.81248 1.62183
v -10.13517 0.79766 0.86732
v -12.33900 0.97110 -2.82091
v -13.27907 0.00000 -2.99499
v -15.52404 0.00000 -1.49495
v -15.67578 0.00000 -0.73208
v -13.28683 0.00000 2.84324
v -12.52396 0.00000 2.99499
v -10.27899 0.00000 1.49495
v -10.12725 0.00000 0.73208
v -12.51620 0.00000 -2.84324
v -13.38419 -1.05336 -2.97285
v -15.54616 -1.22351 -1.36447
v -15.65994 -1.23246 -0.59507
v -13.10633 -1.03149 2.85872
v -12.33930 -0.97112 2.97285
v -10.17733 -0.80097 1.36447
v -10.06355 -0.79202 0.59507
v -12.61716 -0.99299 -2.85872
v -13.40373 -2.12294 -2.94356
v -15.46517 -2.44944 -1.23070
v -15.54047 -2.46137 -0.45663
v -12.84616 -2.03463 2.86732
v -12.08162 -1.91354 2.94356
v -10.02019 -1.58704 1.23070
v -9.94489 -1.57512 0.45663
v -12.63919 -2.00185 -2.86732
v -13.33551 -3.20157 -2.90717
v -15.28080 -3.66860 -1.09396
v -15.31791 -3.67751 -0.31708
v -12.51000 -3.00338 2.86901
v -11.75458 -2.82203 2.90717
v -9.80929 -2.35500 1.09396
v -9.77218 -2.34609 0.31708
v -12.58009 -3.02021 -2.86901
v -13.17794 -4.28177 -2.86378
v -14.99369 -4.87174 -0.95459
v -14.99369 -4.87174 -0.17678
v -12.10195 -3.93216 2.86378
v -11.36220 -3.69180 2.86378
v -9.54645 -3.10183 0.95459
v -9.54645 -3.10183 0.17678
v -12.43819 -4.04141 -2.86378
v -12.93014 -5.35584 -2.81349
v -14.60532 -6.04972 -0.81293
v -14.57006 -6.03512 -0.03604
v -11.62650 -4.81585 2.85166
v -10.90876 -4.51855 2.81349
v -9.23357 -3.82467 0.81293
v -9.26883 -3.83927 0.03604
v -12.21239 -5.05854 -2.85166
v -12.59189 -6.41589 -2.75643
v -14.11806 -7.19351 -0.66930
v -14.05013 -7.15890 0.10477
v -11.08848 -5.64986 2.83267
v -10.39877 -5.29844 2.75643
v -8.87260 -4.52082 0.66930
v -8.94053 -4.55543 -0.10477
v -11.90219 -6.06447 -2.83267
v -12.16375 -7.45395 -2.69272
v -13.53512 -8.29434 -0.52406
v -13.43781 -8.23470 0.24534
v -10.49297 -6.43010 2.80685
v -9.83695 -6.02809 2.69272
v -8.46557 -5.18771 0.52406
v -8.56289 -5.24734 -0.24534
v -11.50773 -7.05194 -2.80685
v -11.64698 -8.46203 -2.62252
v -12.86054 -9.34373 -0.37756
v -12.73778 -9.25454 0.38532
v -9.84528 -7.15302 2.77427
v -9.22811 -6.70461 2.62252
v -8.01455 -5.82291 0.37756
v -8.13731 -5.91210 -0.38532
v -11.02981 -8.01362 -2.77427
v -11.04364 -9.43216 -2.54601
v -12.09914 -10.33364 -0.23014
v -11.95543 -10.21090 0.52436
v -9.15087 -7.81558 2.73501
v -8.57714 -7.32557 2.54601
v -7.52164 -6.42409 0.23014
v -7.66535 -6.54683 -0.52436
v -10.46991 -8.94214 -2.73501
v -10.35651 -10.35651 -2.46336
v -11.25649 -11.25649 -0.08218
v -11.09684 -11.09684 0.66215
v -8.41530 -8.41530 2.68915
v -7.88899 -7.88899 2.46336
v -6.98900 -6.98900 0.08218
v -7.14866 -7.14866 -0.66215
v -9.83019 -9.83019 -2.68915
v -9.58916 -11.22746 -2.37478
v -10.33888 -12.10527 0.06599
v -10.16870 -11.90602 0.79834
v -7.64419 -8.95020 2.63682
v -7.16857 -8.39332 2.37478
v -6.41885 -7.51551 -0.06599
v -6.58903 -7.71476 -0.79834
v -9.11353 -10.67058 -2.63682
v -8.74587 -12.03766 -2.28048
v -9.35320 -12.87357 0.21399
v -9.17824 -12.63276 0.93260
v -6.84316 -9.41880 2.57814
v -6.42077 -8.83743 2.28048
v -5.81344 -8.00152 -0.21399
v -5.98840 -8.24233 -0.93260
v -8.32348 -11.45629 -2.57814
v -7.83167 -12.78012 -2.18069
v -8.30694 -13.55569 0.36148
v -8.13317 -13.27213 1.06462
v -6.01777 -9.82010 2.51325
v -5.65038 -9.22058 2.18069
v -5.17511 -8.44501 -0.36148
v -5.34887 -8.72857 -1.06462
v -7.46428 -12.18060 -2.51325
v -6.85225 -13.44829 -2.07564
v -7.20807 -14.14663 0.50810
v -7.04161 -13.81994 1.19407
v -5.17351 -10.15358 2.44230
v -4.86208 -9.54238 2.07564
v -4.50626 -8.84403 -0.50810
v -4.67272 -9.17073 -1.19407
v -6.54082 -12.83708 -2.44230
v -5.81395 -14.03611 -1.96559
v -6.06501 -14.64222 0.65350
v -5.91198 -14.27278 1.32065
v -4.31575 -10.41915 2.36547
v -4.06044 -9.80278 1.96559
v -3.80939 -9.19667 -0.65350
v -3.96241 -9.56611 -1.32065
v -5.55864 -13.41974 -2.36547
v -4.72372 -14.53810 -1.85080
v -4.88649 -15.03906 0.79732
v -4.75295 -14.62808 1.44405
v -3.44971 -10.61712 2.28294
v -3.24986 -10.00204 1.85080
v -3.08709 -9.50108 -0.79732
v -3.22062 -9.91206 -1.44405
v -4.52386 -13.92302 -2.28294
v -3.58904 -14.94941 -1.73156
v -3.68152 -15.33464 0.93922
v -3.57336 -14.88410 1.56396
v -2.58041 -10.74816 2.19491
v -2.43456 -10.14068 1.73156
v -2.34208 -9.75545 -0.93922
v -2.45024 -10.20599 -1.56396
v -3.44319 -14.34193 -2.19491
v -2.41788 -15.26590 -1.60815
v -2.45928 -15.52729 1.07885
v -2.38209 -15.03992 1.68011
v -1.71266 -10.81331 2.10159
v -1.61860 -10.21945 1.60815
v -1.57720 -9.95806 -1.07885
v -1.65439 -10.44543 -1.68011
v -2.32382 -14.67204 -2.10159
v -1.21863 -15.48414 -1.48086
v -1.22902 -15.61622 1.21589
v -1.18804 -15.09548 1.79222
v -0.85107 -10.81389 2.00321
v -0.80585 -10.23935 1.48086
v -0.79546 -10.10727 -1.21589
v -0.83644 -10.62801 -1.79222
v -1.17341 -14.90959 -2.00321
v -0.00000 -15.60151 -1.35000
v -0.00000 -15.60151 1.35000
v -0.00000 -15.05151 1.90000
v -0.00000 -10.75151 1.90000
v -0.00000 -10.20151 1.35000
v -0.00000 -10.20151 -1.35000
v -0.00000 -10.75151 -1.90000
v -0.00000 -15.05151 -1.90000
v 1.22902 -15.61622 -1.21589
v 1.21863 -15.48414 1.48086
v 1.17341 -14.90959 2.00321
v 0.83644 -10.62801 1.79222
v 0.79546 -10.10727 1.21589
v 0.80585 -10.23935 -1.48086
v 0.85107 -10.81389 -2.00321
v 1.18804 -15.09548 -1.79222
v 2.45928 -15.52729 -1.07885
v 2.41788 -15.26590 1.60815
v 2.32382 -14.67204 2.10159
v 1.65439 -10.44543 1.68011
v 1.57720 -9.95806 1.07885
v 1.61860 -10.21945 -1.60815
v 1.71266 -10.81331 -2.10159
v 2.38209 -15.03992 -1.68011
v 3.68152 -15.33464 -0.93922
v 3.58904 -14.94941 1.73156
v 3.44319 -14.34193 2.19491
v 2.45024 -10.20599 1.56396
v 2.34208 -9.75545 0.93922
v 2.43456 -10.14068 -1.73156
v 2.58041 -10.74816 -2.19491
v 3.57336 -14.88410 -1.56396
v 4.88649 -15.03906 -0.79732
v 4.72372 -14.53810 1.85080
v 4.52386 -13.92302 2.28294
v 3.22062 -9.91206 1.44405
v 3.08709 -9.50108 0.79732
v 3.24986 -10.00204 -1.85080
v 3.44971 -10.61712 -2.28294
v 4.75295 -14.62808 -1.44405
v 6.06501 -14.64222 -0.65350
v 5.81395 -14.03611 1.96559
v 5.55864 -13.41974 2.36547
v 3.96241 -9.56611 1.32065
v 3.80939 -9.19667 0.65350
v 4.06044 -9.80278 -1.96559
v 4.31575 -10.41915 -2.36547
v 5.91198 -14.27278 -1.32065
v 7.20807 -14.14663 -0.50810
v 6.85225 -13.44829 2.07564
v 6.54082 -12.83708 2.44230
v 4.67272 -9.17073 1.19407
v 4.50626 -8.84403 0.50810
v 4.86208 -9.54238 -2.07564
v 5.17351 -10.15358 -2.44230
v 7.04161 -13.81994 -1.19407
v 8.30694 -13.55569 -0.36148
v 7.83167 -12.78012 2.18069
v 7.46428 -12.18060 2.51325
v 5.34887 -8.72857 1.06462
v 5.17511 -8.44501 0.36148
v 5.65038 -9.22058 -2.18069
v 6.01777 -9.82010 -2.51325
v 8.13317 -13.27213 -1.06462
v 9.35320 -12.87357 -0.21399
v 8.74587 -12.03766 2.28048
v 8.32348 -11.45629 2.57814
v 5.98840 -8.24233 0.93260
v 5.81344 -8.00152 0.21399
v 6.42077 -8.83743 -2.28048
v 6.84316 -9.41880 -2.57814
v 9.17824 -12.63276 -0.93260
v 10.33888 -12.10527 -0.06599
v 9.58916 -11.22746 2.37478
v 9.11353 -10.67058 2.63682
v 6.58903 -7.71476 0.79834
v 6.41885 -7.51551 0.06599
v 7.16857 -8.39332 -2.37478
v 7.64419 -8.95020 -2.63682
v 10.16870 -11.90602 -0.79834
v 11.25649 -11.25649 0.08218
v 10.35651 -10.35651 2.46336
v 9.83019 -9.83019 2.68915
v 7.14866 -7.14866 0.66215
v 6.98900 -6.98900 -0.08218
v 7.88899 -7.88899 -2.46336
v 8.41530 -8.41530 -2.68915
v 11.09684 -11.09684 -0.66215
v 12.09914 -10.33364 0.23014
v 11.04364 -9.43216 2.54601
v 10.46991 -8.94214 2.73501
v 7.66535 -6.54683 0.52436
v 7.52164 -6.42409 -0.23014
v 8.57714 -7.32557 -2.54601
v 9.15087 -7.81558 -2.73501
v 11.95543 -10.21090 -0.52436
v 12.86054 -9.34373 0.37756
v 11.64698 -8.46203 2.62252
v 11.02981 -8.01362 2.77427
v 8.13731 -5.91210 0.38532
v 8.01455 -5.82291 -0.37756
v 9.22811 -6.70461 -2.62252
v 9.84528 -7.15302 -2.77427
v 12.73778 -9.25454 -0.38532
v 13.53512 -8.29434 0.52406
v 12.16375 -7.45395 2.69272
v 11.50773 -7.05194 2.80685
v 8.56289 -5.24734 0.24534
v 8.46557 -5.18771 -0.52406
v 9.83695 -6.02809 -2.69272
v 10.49297 -6.43010 -2.80685
v 13.43781 -8.23470 -0.24534
v 14.11806 -7.19351 0.66930
v 12.59189 -6.41589 2.75643
v 11.90219 -6.06447 2.83267
v 8.94053 -4.55543 0.10477
v 8.87260 -4.52082 -0.66930
v 10.39877 -5.29844 -2.75643
v 11.08848 -5.64986 -2.83267
v 14.05013 -7.15890 -0.10477
v 14.60532 -6.04972 0.81293
v 12.93014 -5.35584 2.81349
v 12.21239 -5.05854 2.85166
v 9.26883 -3.83927 -0.03604
v 9.23357 -3.82467 -0.81293
v 10.90876 -4.51855 -2.81349
v 11.62650 -4.81585 -2.85166
v 14.57006 -6.03512 0.03604
v 14.99369 -4.87174 0.95459
v 13.17794 -4.28177 2.86378
v 12.43819 -4.04141 2.86378
v 9.54645 -3.10183 -0.17678
v 9.54645 -3.10183 -0.95459
v 11.36220 -3.69180 -2.86378
v 12.10195 -3.93216 -2.86378
v 14.99369 -4.87174 0.17678
v 15.28080 -3.66860 1.09396
v 13.33551 -3.20157 2.90717
v 12.58009 -3.02021 2.86901
v 9.77218 -2.34609 -0.31708
v 9.80929 -2.35500 -1.09396
v 11.75458 -2.82203 -2.90717
v 12.51000 -3.00338 -2.86901
v 15.31791 -3.67751 0.31708
v 15.46517 -2.44944 1.23070
v 13.40373 -2.12294 2.94356
v 12.63919 -2.00185 2.86732
v 9.94489 -1.57512 -0.45663
v 10.02019 -1.58704 -1.23070
v 12.08162 -1.91354 -2.94356
v 12.84616 -2.03463 -2.86732
v 15.54047 -2.46137 0.45663
v 15.54616 -1.22351 1.36447
v 13.38419 -1.05336 2.97285
v 12.61716 -0.99299 2.85872
v 10.06355 -0.79202 -0.59507
v 10.17733 -0.80097 -1.36447
v 12.33930 -0.97112 -2.97285
v 13.10633 -1.03149 -2.85872
v 15.65994 -1.23246 0.59507
v 15.52404 -0.00000 1.49495
v 13.27907 -0.00000 2.99499
v 12.51620 -0.00000 2.84324
v 10.12725 -0.00000 -0.73208
v 10.27899 -0.00000 -1.49495
v 12.52396 -0.00000 -2.99499
v 13.28683 -0.00000 -2.84324
v 15.67578 -0.00000 0.73208
v 15.39991 1.21200 1.62183
v 13.09118 1.03030 3.00991
v 12.33900 0.97110 2.82091
v 10.13517 0.79766 -0.86732
v 10.32358 0.81248 -1.62183
v 12.63231 0.99418 -3.00991
v 13.38449 1.05338 -2.82091
v 15.58832 1.22683 0.86732
v 15.17571 2.40360 1.74480
v 12.82384 2.03110 3.01757
v 12.08868 1.91466 2.79178
v 10.08663 1.59757 -1.00048
v 10.30964 1.63289 -1.74480
v 12.66151 2.00539 -3.01757
v 13.39667 2.12182 -2.79178
v 15.39872 2.43892 1.00048
v 14.85421 3.56618 1.86357
v 12.48088 2.99639 3.01797
v 11.76877 2.82543 2.75593
v 9.98108 2.39624 -1.13122
v 10.23588 2.45742 -1.86357
v 12.60921 3.02720 -3.01797
v 13.32132 3.19817 -2.75593
v 15.10901 3.62735 1.13122
v 14.43894 4.69150 1.97785
v 12.06655 3.92066 3.01110
v 11.38311 3.69860 2.71344
v 9.81811 3.19010 -1.25924
v 10.10120 3.28208 -1.97785
v 12.47359 4.05291 -3.01110
v 13.15703 4.27498 -2.71344
v 14.72203 4.78348 1.25924
v 13.93414 5.77171 2.08737
v 11.58548 4.79886 2.99697
v 10.93586 4.52978 2.66441
v 9.59751 3.97542 -1.38423
v 9.90475 4.10268 -2.08737
v 12.25341 5.07553 -2.99697
v 12.90303 5.34461 -2.66441
v 14.24138 5.89897 1.38423
v 13.34474 6.79949 2.19185
v 11.04261 5.62649 2.97562
v 10.43141 5.31507 2.60896
v 9.31923 4.74838 -1.50588
v 9.64593 4.91485 -2.19185
v 11.94806 6.08784 -2.97562
v 12.55926 6.39926 -2.60896
v 13.67144 6.96595 1.50588
v 12.67629 7.76804 2.29106
v 10.44315 6.39957 2.94711
v 9.87431 6.05098 2.54723
v 8.98346 5.50507 -1.62390
v 9.32441 5.71401 -2.29106
v 11.55755 7.08247 -2.94711
v 12.12639 7.43106 -2.54723
v 13.01724 7.97698 1.62390
v 11.93488 8.67120 2.38475
v 9.79250 7.11467 2.91149
v 9.26929 6.73453 2.47936
v 8.59061 6.24144 -1.73802
v 8.94021 6.49544 -2.38475
v 11.08259 8.05197 -2.91149
v 11.60580 8.43211 -2.47936
v 12.28448 8.92520 1.73802
v 11.12708 9.50342 2.47269
v 9.09620 7.76889 2.86886
v 8.62114 7.36315 2.40552
v 8.14137 6.95339 -1.84794
v 8.49370 7.25430 -2.47269
v 10.52457 8.98884 -2.86886
v 10.99964 9.39458 -2.40552
v 11.47941 9.80434 1.84794
v 10.25988 10.25988 2.55468
v 8.35988 8.35988 2.81932
v 7.93473 7.93473 2.32588
v 7.63670 7.63670 -1.95341
v 7.98562 7.98562 -2.55468
v 9.88561 9.88561 -2.81932
v 10.31077 10.31077 -2.32588
v 10.60880 10.60880 1.95341
v 9.34060 10.93644 2.63051
v 7.58921 8.88582 2.76299
v 7.21491 8.44758 2.24064
v 7.07788 8.28714 -2.05418
v 7.41712 8.68434 -2.63051
v 9.16852 10.73496 -2.76299
v 9.54281 11.17320 -2.24064
v 9.67984 11.33364 2.05418
v 8.37683 11.52972 2.70000
v 6.78981 9.34537 2.70000
v 6.46653 8.90041 2.15000
v 6.46653 8.90041 -2.15000
v 6.78981 9.34537 -2.70000
v 8.37683 11.52972 -2.70000
v 8.70011 11.97468 -2.15000
v 8.70011 11.97468 2.15000
v -7.58332 10.43754 0.00000
v 7.58332 10.43754 0.00000
v -8.72371 12.71833 -2.70000
v -7.00011 13.02112 -2.70000
v -5.16653 9.35397 -2.70000
v -6.44293 8.15676 -2.70000
v -8.72371 12.71833 2.70000
v -7.00011 13.02112 2.70000
v -5.16653 9.35397 2.70000
v -6.44293 8.15676 2.70000
v -6.98332 9.28754 -2.35000
v -3.88332 9.83754 -2.35000
v -3.33332 11.28754 -2.35000
v -4.43332 13.18754 -2.35000
v -7.08332 12.68754 -2.35000
v -6.98332 9.28754 2.35000
v -3.88332 9.83754 2.35000
v -3.33332 11.28754 2.35000
v -4.43332 13.18754 2.35000
v -7.08332 12.68754 2.35000
v -4.52450 10.63183 -1.75000
v -2.98883 14.27315 -1.75000
v -2.31117 14.02988 -1.75000
v -3.44214 10.24326 -1.75000
v -4.52450 10.63183 1.75000
v -2.98883 14.27315 1.75000
v -2.31117 14.02988 1.75000
v -3.44214 10.24326 1.75000
v -4.05017 11.42967 -1.52000
v -3.13472 15.51118 -1.52000
v -2.46528 15.39185 -1.52000
v -3.01647 11.24542 -1.52000
v -4.05017 11.42967 1.52000
v -3.13472 15.51118 1.52000
v -2.46528 15.39185 1.52000
v -3.01647 11.24542 1.52000
v -4.57838 12.35351 -1.28000
v -2.74983 16.81333 -1.28000
v -2.15017 16.58970 -1.28000
v -3.68826 12.02158 -1.28000
v -4.57838 12.35351 1.28000
v -2.74983 16.81333 1.28000
v -2.15017 16.58970 1.28000
v -3.68826 12.02158 1.28000
v -5.40373 10.12326 -1.90000
v -3.64506 13.60820 -1.90000
v -2.85494 13.29483 -1.90000
v -3.96291 9.55183 -1.90000
v -5.40373 10.12326 1.90000
v -3.64506 13.60820 1.90000
v -2.85494 13.29483 1.90000
v -3.96291 9.55183 1.90000
v -5.67094 12.70904 -1.35000
v -3.86840 17.02949 -1.35000
v -3.13160 16.77354 -1.35000
v -4.39570 12.26605 -1.35000
v -5.67094 12.70904 1.35000
v -3.86840 17.02949 1.35000
v -3.13160 16.77354 1.35000
v -4.39570 12.26605 1.35000
v 6.44293 8.15676 -2.70000
v 5.16653 9.35397 -2.70000
v 7.00011 13.02112 -2.70000
v 8.72371 12.71833 -2.70000
v 6.44293 8.15676 2.70000
v 5.16653 9.35397 2.70000
v 7.00011 13.02112 2.70000
v 8.72371 12.71833 2.70000
v 6.98332 9.28754 -2.35000
v 3.88332 9.83754 -2.35000
v 3.33332 11.28754 -2.35000
v 4.43332 13.18754 -2.35000
v 7.08332 12.68754 -2.35000
v 6.98332 9.28754 2.35000
v 3.88332 9.83754 2.35000
v 3.33332 11.28754 2.35000
v 4.43332 13.18754 2.35000
v 7.08332 12.68754 2.35000
v 3.44214 10.24326 -1.75000
v 2.31117 14.02988 -1.75000
v 2.98883 14.27315 -1.75000
v 4.52450 10.63183 -1.75000
v 3.44214 10.24326 1.75000
v 2.31117 14.02988 1.75000
v 2.98883 14.27315 1.75000
v 4.52450 10.63183 1.75000
v 3.01647 11.24542 -1.52000
v 2.46528 15.39185 -1.52000
v 3.13472 15.51118 -1.52000
v 4.05017 11.42967 -1.52000
v 3.01647 11.24542 1.52000
v 2.46528 15.39185 1.52000
v 3.13472 15.51118 1.52000
v 4.05017 11.42967 1.52000
v 3.68826 12.02158 -1.28000
v 2.15017 16.58970 -1.28000
v 2.74983 16.81333 -1.28000
v 4.57838 12.35351 -1.28000
v 3.68826 12.02158 1.28000
v 2.15017 16.58970 1.28000
v 2.74983 16.81333 1.28000
v 4.57838 12.35351 1.28000
v 3.96291 9.55183 -1.90000
v 2.85494 13.29483 -1.90000
v 3.64506 13.60820 -1.90000
v 5.40373 10.12326 -1.90000
v 3.96291 9.55183 1.90000
v 2.85494 13.29483 1.90000
v 3.64506 13.60820 1.90000
v 5.40373 10.12326 1.90000
v 4.39570 12.26605 -1.35000
v 3.13160 16.77354 -1.35000
v 3.86840 17.02949 -1.35000
v 5.67094 12.70904 -1.35000
v 4.39570 12.26605 1.35000
v 3.13160 16.77354 1.35000
v 3.86840 17.02949 1.35000
v 5.67094 12.70904 1.35000
f 1 2 10
f 1 10 9
f 2 3 11
f 2 11 10
f 3 4 12
f 3 12 11
f 4 5 13
f 4 13 12
f 5 6 14
f 5 14 13
f 6 7 15
f 6 15 14
f 7 8 16
f 7 16 15
f 8 1 9
f 8 9 16
f 9 10 18
f 9 18 17
f 10 11 19
f 10 19 18
f 11 12 20
f 11 20 19
f 12 13 21
f 12 21 20
f 13 14 22
f 13 22 21
f 14 15 23
f 14 23 22
f 15 16 24
f 15 24 23
f 16 9 17
f 16 17 24
f 17 18 26
f 17 26 25
f 18 19 27
f 18 27 26
f 19 20 28
f 19 28 27
f 20 21 29
f 20 29 28
f 21 22 30
f 21 30 29
f 22 23 31
f 22 31 30
f 23 24 32
f 23 32 31
f 24 17 25
f 24 25 32
f 25 26 34
f 25 34 33
f 26 27 35
f 26 35 34
f 27 28 36
f 27 36 35
f 28 29 37
f 28 37 36
f 29 30 38
f 29 38 37
f 30 31 39
f 30 39 38
f 31 32 40
f 31 40 39
f 32 25 33
f 32 33 40
f 33 34 42
f 33 42 41
f 34 35 43
f 34 43 42
f 35 36 44
f 35 44 43
f 36 37 45
f 36 45 44
f 37 38 46
f 37 46 45
f 38 39 47
f 38 47 46
f 39 40 48
f 39 48 47
f 40 33 41
f 40 41 48
f 41 42 50
f 41 50 49
f 42 43 51
f 42 51 50
f 43 44 52
f 43 52 51
f 44 45 53
f 44 53 52
f 45 46 54
f 45 54 53
f 46 47 55
f 46 55 54
f 47 48 56
f 47 56 55
f 48 41 49
f 48 49 56
f 49 50 58
f 49 58 57
f 50 51 59
f 50 59 58
f 51 52 60
f 51 60 59
f 52 53 61
f 52 61 60
f 53 54 62
f 53 62 61
f 54 55 63
f 54 63 62
f 55 56 64
f 55 64 63
f 56 49 57
f 56 57 64
f 57 58 66
f 57 66 65
f 58 59 67
f 58 67 66
f 59 60 68
f 59 68 67
f 60 61 69
f 60 69 68
f 61 62 70
f 61 70 69
f 62 63 71
f 62 71 70
f 63 64 72
f 63 72 71
f 64 57 65
f 64 65 72
f 65 66 74
f 65 74 73
f 66 67 75
f 66 75 74
f 67 68 76
f 67 76 75
f 68 69 77
f 68 77 76
f 69 70 78
f 69 78 77
f 70 71 79
f 70 79 78
f 71 72 80
f 71 80 79
f 72 65 73
f 72 73 80
f 73 74 82
f 73 82 81
f 74 75 83
f 74 83 82
f 75 76 84
f 75 84 83
f 76 77 85
f 76 85 84
f 77 78 86
f 77 86 85
f 78 79 87
f 78 87 86
f 79 80 88
f 79 88 87
f 80 73 81
f 80 81 88
f 81 82 90
f 81 90 89
f 82 83 91
f 82 91 90
f 83 84 92
f 83 92 91
f 84 85 93
f 84 93 92
f 85 86 94
f 85 94 93
f 86 87 95
f 86 95 94
f 87 88 96
f 87 96 95
f 88 81 89
f 88 89 96
f 89 90 98
f 89 98 97
f 90 91 99
f 90 99 98
f 91 92 100
f 91 100 99
f 92 93 101
f 92 101 100
f 93 94 102
f 93 102 101
f 94 95 103
f 94 103 102
f 95 96 104
f 95 104 103
f 96 89 97
f 96 97 104
f 97 98 106
f 97 106 105
f 98 99 107
f 98 107 106
f 99 100 108
f 99 108 107
f 100 101 109
f 100 109 108
f 101 102 110
f 101 110 109
f 102 103 111
f 102 111 110
f 103 104 112
f 103 112 111
f 104 97 105
f 104 105 112
f 105 106 114
f 105 114 113
f 106 107 115
f 106 115 114
f 107 108 116
f 107 116 115
f 108 109 117
f 108 117 116
f 109 110 118
f 109 118 117
f 110 111 119
f 110 119 118
f 111 112 120
f 111 120 119
f 112 105 113
f 112 113 120
f 113 114 122
f 113 122 121
f 114 115 123
f 114 123 122
f 115 116 124
f 115 124 123
f 116 117 125
f 116 125 124
f 117 118 126
f 117 126 125
f 118 119 127
f 118 127 126
f 119 120 128
f 119 128 127
f 120 113 121
f 120 121 128
f 121 122 130
f 121 130 129
f 122 123 131
f 122 131 130
f 123 124 132
f 123 132 131
f 124 125 133
f 124 133 132
f 125 126 134
f 125 134 133
f 126 127 135
f 126 135 134
f 127 128 136
f 127 136 135
f 128 121 129
f 128 129 136
f 129 130 138
f 129 138 137
f 130 131 139
f 130 139 138
f 131 132 140
f 131 140 139
f 132 133 141
f 132 141 140
f 133 134 142
f 133 142 141
f 134 135 143
f 134 143 142
f 135 136 144
f 135 144 143
f 136 129 137
f 136 137 144
f 137 138 146
f 137 146 145
f 138 139 147
f 138 147 146
f 139 140 148
f 139 148 147
f 140 141 149
f 140 149 148
f 141 142 150
f 141 150 149
f 142 143 151
f 142 151 150
f 143 144 152
f 143 152 151
f 144 137 145
f 144 145 152
f 145 146 154
f 145 154 153
f 146 147 155
f 146 155 154
f 147 148 156
f 147 156 155
f 148 149 157
f 148 157 156
f 149 150 158
f 149 158 157
f 150 151 159
f 150 159 158
f 151 152 160
f 151 160 159
f 152 145 153
f 152 153 160
f 153 154 162
f 153 162 161
f 154 155 163
f 154 163 162
f 155 156 164
f 155 164 163
f 156 157 165
f 156 165 164
f 157 158 166
f 157 166 165
f 158 159 167
f 158 167 166
f 159 160 168
f 159 168 167
f 160 153 161
f 160 161 168
f 161 162 170
f 161 170 169
f 162 163 171
f 162 171 170
f 163 164 172
f 163 172 171
f 164 165 173
f 164 173 172
f 165 166 174
f 165 174 173
f 166 167 175
f 166 175 174
f 167 168 176
f 167 176 175
f 168 161 169
f 168 169 176
f 169 170 178
f 169 178 177
f 170 171 179
f 170 179 178
f 171 172 180
f 171 180 179
f 172 173 181
f 172 181 180
f 173 174 182
f 173 182 181
f 174 175 183
f 174 183 182
f 175 176 184
f 175 184 183
f 176 169 177
f 176 177 184
f 177 178 186
f 177 186 185
f 178 179 187
f 178 187 186
f 179 180 188
f 179 188 187
f 180 181 189
f 180 189 188
f 181 182 190
f 181 190 189
f 182 183 191
f 182 191 190
f 183 184 192
f 183 192 191
f 184 177 185
f 184 185 192
f 185 186 194
f 185 194 193
f 186 187 195
f 186 195 194
f 187 188 196
f 187 196 195
f 188 189 197
f 188 197 196
f 189 190 198
f 189 198 197
f 190 191 199
f 190 199 198
f 191 192 200
f 191 200 199
f 192 185 193
f 192 193 200
f 193 194 202
f 193 202 201
f 194 195 203
f 194 203 202
f 195 196 204
f 195 204 203
f 196 197 205
f 196 205 204
f 197 198 206
f 197 206 205
f 198 199 207
f 198 207 206
f 199 200 208
f 199 208 207
f 200 193 201
f 200 201 208
f 201 202 210
f 201 210 209
f 202 203 211
f 202 211 210
f 203 204 212
f 203 212 211
f 204 205 213
f 204 213 212
f 205 206 214
f 205 214 213
f 206 207 215
f 206 215 214
f 207 208 216
f 207 216 215
f 208 201 209
f 208 209 216
f 209 210 218
f 209 218 217
f 210 211 219
f 210 219 218
f 211 212 220
f 211 220 219
f 212 213 221
f 212 221 220
f 213 214 222
f 213 222 221
f 214 215 223
f 214 223 222
f 215 216 224
f 215 224 223
f 216 209 217
f 216 217 224
f 217 218 226
f 217 226 225
f 218 219 227
f 218 227 226
f 219 220 228
f 219 228 227
f 220 221 229
f 220 229 228
f 221 222 230
f 221 230 229
f 222 223 231
f 222 231 230
f 223 224 232
f 223 232 231
f 224 217 225
f 224 225 232
f 225 226 234
f 225 234 233
f 226 227 235
f 226 235 234
f 227 228 236
f 227 236 235
f 228 229 237
f 228 237 236
f 229 230 238
f 229 238 237
f 230 231 239
f 230 239 238
f 231 232 240
f 231 240 239
f 232 225 233
f 232 233 240
f 233 234 242
f 233 242 241
f 234 235 243
f 234 243 242
f 235 236 244
f 235 244 243
f 236 237 245
f 236 245 244
f 237 238 246
f 237 246 245
f 238 239 247
f 238 247 246
f 239 240 248
f 239 248 247
f 240 233 241
f 240 241 248
f 241 242 250
f 241 250 249
f 242 243 251
f 242 251 250
f 243 244 252
f 243 252 251
f 244 245 253
f 244 253 252
f 245 246 254
f 245 254 253
f 246 247 255
f 246 255 254
f 247 248 256
f 247 256 255
f 248 241 249
f 248 249 256
f 249 250 258
f 249 258 257
f 250 251 259
f 250 259 258
f 251 252 260
f 251 260 259
f 252 253 261
f 252 261 260
f 253 254 262
f 253 262 261
f 254 255 263
f 254 263 262
f 255 256 264
f 255 264 263
f 256 249 257
f 256 257 264
f 257 258 266
f 257 266 265
f 258 259 267
f 258 267 266
f 259 260 268
f 259 268 267
f 260 261 269
f 260 269 268
f 261 262 270
f 261 270 269
f 262 263 271
f 262 271 270
f 263 264 272
f 263 272 271
f 264 257 265
f 264 265 272
f 265 266 274
f 265 274 273
f 266 267 275
f 266 275 274
f 267 268 276
f 267 276 275
f 268 269 277
f 268 277 276
f 269 270 278
f 269 278 277
f 270 271 279
f 270 279 278
f 271 272 280
f 271 280 279
f 272 265 273
f 272 273 280
f 273 274 282
f 273 282 281
f 274 275 283
f 274 283 282
f 275 276 284
f 275 284 283
f 276 277 285
f 276 285 284
f 277 278 286
f 277 286 285
f 278 279 287
f 278 287 286
f 279 280 288
f 279 288 287
f 280 273 281
f 280 281 288
f 281 282 290
f 281 290 289
f 282 283 291
f 282 291 290
f 283 284 292
f 283 292 291
f 284 285 293
f 284 293 292
f 285 286 294
f 285 294 293
f 286 287 295
f 286 295 294
f 287 288 296
f 287 296 295
f 288 281 289
f 288 289 296
f 289 290 298
f 289 298 297
f 290 291 299
f 290 299 298
f 291 292 300
f 291 300 299
f 292 293 301
f 292 301 300
f 293 294 302
f 293 302 301
f 294 295 303
f 294 303 302
f 295 296 304
f 295 304 303
f 296 289 297
f 296 297 304
f 297 298 306
f 297 306 305
f 298 299 307
f 298 307 306
f 299 300 308
f 299 308 307
f 300 301 309
f 300 309 308
f 301 302 310
f 301 310 309
f 302 303 311
f 302 311 310
f 303 304 312
f 303 312 311
f 304 297 305
f 304 305 312
f 305 306 314
f 305 314 313
f 306 307 315
f 306 315 314
f 307 308 316
f 307 316 315
f 308 309 317
f 308 317 316
f 309 310 318
f 309 318 317
f 310 311 319
f 310 319 318
f 311 312 320
f 311 320 319
f 312 305 313
f 312 313 320
f 313 314 322
f 313 322 321
f 314 315 323
f 314 323 322
f 315 316 324
f 315 324 323
f 316 317 325
f 316 325 324
f 317 318 326
f 317 326 325
f 318 319 327
f 318 327 326
f 319 320 328
f 319 328 327
f 320 313 321
f 320 321 328
f 321 322 330
f 321 330 329
f 322 323 331
f 322 331 330
f 323 324 332
f 323 332 331
f 324 325 333
f 324 333 332
f 325 326 334
f 325 334 333
f 326 327 335
f 326 335 334
f 327 328 336
f 327 336 335
f 328 321 329
f 328 329 336
f 329 330 338
f 329 338 337
f 330 331 339
f 330 339 338
f 331 332 340
f 331 340 339
f 332 333 341
f 332 341 340
f 333 334 342
f 333 342 341
f 334 335 343
f 334 343 342
f 335 336 344
f 335 344 343
f 336 329 337
f 336 337 344
f 337 338 346
f 337 346 345
f 338 339 347
f 338 347 346
f 339 340 348
f 339 348 347
f 340 341 349
f 340 349 348
f 341 342 350
f 341 350 349
f 342 343 351
f 342 351 350
f 343 344 352
f 343 352 351
f 344 337 345
f 344 345 352
f 345 346 354
f 345 354 353
f 346 347 355
f 346 355 354
f 347 348 356
f 347 356 355
f 348 349 357
f 348 357 356
f 349 350 358
f 349 358 357
f 350 351 359
f 350 359 358
f 351 352 360
f 351 360 359
f 352 345 353
f 352 353 360
f 353 354 362
f 353 362 361
f 354 355 363
f 354 363 362
f 355 356 364
f 355 364 363
f 356 357 365
f 356 365 364
f 357 358 366
f 357 366 365
f 358 359 367
f 358 367 366
f 359 360 368
f 359 368 367
f 360 353 361
f 360 361 368
f 361 362 370
f 361 370 369
f 362 363 371
f 362 371 370
f 363 364 372
f 363 372 371
f 364 365 373
f 364 373 372
f 365 366 374
f 365 374 373
f 366 367 375
f 366 375 374
f 367 368 376
f 367 376 375
f 368 361 369
f 368 369 376
f 369 370 378
f 369 378 377
f 370 371 379
f 370 379 378
f 371 372 380
f 371 380 379
f 372 373 381
f 372 381 380
f 373 374 382
f 373 382 381
f 374 375 383
f 374 383 382
f 375 376 384
f 375 384 383
f 376 369 377
f 376 377 384
f 377 378 386
f 377 386 385
f 378 379 387
f 378 387 386
f 379 380 388
f 379 388 387
f 380 381 389
f 380 389 388
f 381 382 390
f 381 390 389
f 382 383 391
f 382 391 390
f 383 384 392
f 383 392 391
f 384 377 385
f 384 385 392
f 385 386 394
f 385 394 393
f 386 387 395
f 386 395 394
f 387 388 396
f 387 396 395
f 388 389 397
f 388 397 396
f 389 390 398
f 389 398 397
f 390 391 399
f 390 399 398
f 391 392 400
f 391 400 399
f 392 385 393
f 392 393 400
f 393 394 402
f 393 402 401
f 394 395 403
f 394 403 402
f 395 396 404
f 395 404 403
f 396 397 405
f 396 405 404
f 397 398 406
f 397 406 405
f 398 399 407
f 398 407 406
f 399 400 408
f 399 408 407
f 400 393 401
f 400 401 408
f 401 402 410
f 401 410 409
f 402 403 411
f 402 411 410
f 403 404 412
f 403 412 411
f 404 405 413
f 404 413 412
f 405 406 414
f 405 414 413
f 406 407 415
f 406 415 414
f 407 408 416
f 407 416 415
f 408 401 409
f 408 409 416
f 409 410 418
f 409 418 417
f 410 411 419
f 410 419 418
f 411 412 420
f 411 420 419
f 412 413 421
f 412 421 420
f 413 414 422
f 413 422 421
f 414 415 423
f 414 423 422
f 415 416 424
f 415 424 423
f 416 409 417
f 416 417 424
f 417 418 426
f 417 426 425
f 418 419 427
f 418 427 426
f 419 420 428
f 419 428 427
f 420 421 429
f 420 429 428
f 421 422 430
f 421 430 429
f 422 423 431
f 422 431 430
f 423 424 432
f 423 432 431
f 424 417 425
f 424 425 432
f 425 426 434
f 425 434 433
f 426 427 435
f 426 435 434
f 427 428 436
f 427 436 435
f 428 429 437
f 428 437 436
f 429 430 438
f 429 438 437
f 430 431 439
f 430 439 438
f 431 432 440
f 431 440 439
f 432 425 433
f 432 433 440
f 433 434 442
f 433 442 441
f 434 435 443
f 434 443 442
f 435 436 444
f 435 444 443
f 436 437 445
f 436 445 444
f 437 438 446
f 437 446 445
f 438 439 447
f 438 447 446
f 439 440 448
f 439 448 447
f 440 433 441
f 440 441 448
f 441 442 450
f 441 450 449
f 442 443 451
f 442 451 450
f 443 444 452
f 443 452 451
f 444 445 453
f 444 453 452
f 445 446 454
f 445 454 453
f 446 447 455
f 446 455 454
f 447 448 456
f 447 456 455
f 448 441 449
f 448 449 456
f 449 450 458
f 449 458 457
f 450 451 459
f 450 459 458
f 451 452 460
f 451 460 459
f 452 453 461
f 452 461 460
f 453 454 462
f 453 462 461
f 454 455 463
f 454 463 462
f 455 456 464
f 455 464 463
f 456 449 457
f 456 457 464
f 457 458 466
f 457 466 465
f 458 459 467
f 458 467 466
f 459 460 468
f 459 468 467
f 460 461 469
f 460 469 468
f 461 462 470
f 461 470 469
f 462 463 471
f 462 471 470
f 463 464 472
f 463 472 471
f 464 457 465
f 464 465 472
f 465 466 474
f 465 474 473
f 466 467 475
f 466 475 474
f 467 468 476
f 467 476 475
f 468 469 477
f 468 477 476
f 469 470 478
f 469 478 477
f 470 471 479
f 470 479 478
f 471 472 480
f 471 480 479
f 472 465 473
f 472 473 480
f 473 474 482
f 473 482 481
f 474 475 483
f 474 483 482
f 475 476 484
f 475 484 483
f 476 477 485
f 476 485 484
f 477 478 486
f 477 486 485
f 478 479 487
f 478 487 486
f 479 480 488
f 479 488 487
f 480 473 481
f 480 481 488
f 481 482 490
f 481 490 489
f 482 483 491
f 482 491 490
f 483 484 492
f 483 492 491
f 484 485 493
f 484 493 492
f 485 486 494
f 485 494 493
f 486 487 495
f 486 495 494
f 487 488 496
f 487 496 495
f 488 481 489
f 488 489 496
f 489 490 498
f 489 498 497
f 490 491 499
f 490 499 498
f 491 492 500
f 491 500 499
f 492 493 501
f 492 501 500
f 493 494 502
f 493 502 501
f 494 495 503
f 494 503 502
f 495 496 504
f 495 504 503
f 496 489 497
f 496 497 504
f 497 498 506
f 497 506 505
f 498 499 507
f 498 507 506
f 499 500 508
f 499 508 507
f 500 501 509
f 500 509 508
f 501 502 510
f 501 510 509
f 502 503 511
f 502 511 510
f 503 504 512
f 503 512 511
f 504 497 505
f 504 505 512
f 505 506 514
f 505 514 513
f 506 507 515
f 506 515 514
f 507 508 516
f 507 516 515
f 508 509 517
f 508 517 516
f 509 510 518
f 509 518 517
f 510 511 519
f 510 519 518
f 511 512 520
f 511 520 519
f 512 505 513
f 512 513 520
f 521 2 1
f 522 513 514
f 521 3 2
f 522 514 515
f 521 4 3
f 522 515 516
f 521 5 4
f 522 516 517
f 521 6 5
f 522 517 518
f 521 7 6
f 522 518 519
f 521 8 7
f 522 519 520
f 521 1 8
f 522 520 513
f 523 525 524
f 527 528 529
f 523 526 525
f 527 529 530
f 523 524 528
f 523 528 527
f 524 525 529
f 524 529 528
f 525 526 530
f 525 530 529
f 526 523 527
f 526 527 530
f 531 533 532
f 536 537 538
f 531 534 533
f 536 538 539
f 531 535 534
f 536 539 540
f 531 532 537
f 531 537 536
f 532 533 538
f 532 538 537
f 533 534 539
f 533 539 538
f 534 535 540
f 534 540 539
f 535 531 536
f 535 536 540
f 541 543 542
f 545 546 547
f 541 544 543
f 545 547 548
f 541 542 546
f 541 546 545
f 542 543 547
f 542 547 546
f 543 544 548
f 543 548 547
f 544 541 545
f 544 545 548
f 549 551 550
f 553 554 555
f 549 552 551
f 553 555 556
f 549 550 554
f 549 554 553
f 550 551 555
f 550 555 554
f 551 552 556
f 551 556 555
f 552 549 553
f 552 553 556
f 557 559 558
f 561 562 563
f 557 560 559
f 561 563 564
f 557 558 562
f 557 562 561
f 558 559 563
f 558 563 562
f 559 560 564
f 559 564 563
f 560 557 561
f 560 561 564
f 565 567 566
f 569 570 571
f 565 568 567
f 569 571 572
f 565 566 570
f 565 570 569
f 566 567 571
f 566 571 570
f 567 568 572
f 567 572 571
f 568 565 569
f 568 569 572
f 573 575 574
f 577 578 579
f 573 576 575
f 577 579 580
f 573 574 578
f 573 578 577
f 574 575 579
f 574 579 578
f 575 576 580
f 575 580 579
f 576 573 577
f 576 577 580
f 581 583 582
f 585 586 587
f 581 584 583
f 585 587 588
f 581 582 586
f 581 586 585
f 582 583 587
f 582 587 586
f 583 584 588
f 583 588 587
f 584 581 585
f 584 585 588
f 589 591 590
f 594 595 596
f 589 592 591
f 594 596 597
f 589 593 592
f 594 597 598
f 589 590 595
f 589 595 594
f 590 591 596
f 590 596 595
f 591 592 597
f 591 597 596
f 592 593 598
f 592 598 597
f 593 589 594
f 593 594 598
f 599 601 600
f 603 604 605
f 599 602 601
f 603 605 606
f 599 600 604
f 599 604 603
f 600 601 605
f 600 605 604
f 601 602 606
f 601 606 605
f 602 599 603
f 602 603 606
f 607 609 608
f 611 612 613
f 607 610 609
f 611 613 614
f 607 608 612
f 607 612 611
f 608 609 613
f 608 613 612
f 609 610 614
f 609 614 613
f 610 607 611
f 610 611 614
f 615 617 616
f 619 620 621
f 615 618 617
f 619 621 622
f 615 616 620
f 615 620 619
f 616 617 621
f 616 621 620
f 617 618 622
f 617 622 621
f 618 615 619
f 618 619 622
f 623 625 624
f 627 628 629
f 623 626 625
f 627 629 630
f 623 624 628
f 623 628 627
f 624 625 629
f 624 629 628
f 625 626 630
f 625 630 629
f 626 623 627
f 626 627 630
f 631 633 632
f 635 636 637
f 631 634 633
f 635 637 638
f 631 632 636
f 631 636 635
f 632 633 637
f 632 637 636
f 633 634 638
f 633 638 637
f 634 631 635
f 634 635 638
