o electronics_tray_140x95
v 70.00000 29.50000 0.00000
v 69.65414 33.01163 0.00000
v 68.62983 36.38830 0.00000
v 66.96645 39.50026 0.00000
v 64.72792 42.22792 0.00000
v 62.00026 44.46645 0.00000
v 58.88830 46.12983 0.00000
v 55.51163 47.15414 0.00000
v 52.00000 47.50000 0.00000
v -52.00000 47.50000 0.00000
v -55.51163 47.15414 0.00000
v -58.88830 46.12983 0.00000
v -62.00026 44.46645 0.00000
v -64.72792 42.22792 0.00000
v -66.96645 39.50026 0.00000
v -68.62983 36.38830 0.00000
v -69.65414 33.01163 0.00000
v -70.00000 29.50000 0.00000
v -70.00000 -29.50000 0.00000
v -69.65414 -33.01163 0.00000
v -68.62983 -36.38830 0.00000
v -66.96645 -39.50026 0.00000
v -64.72792 -42.22792 0.00000
v -62.00026 -44.46645 0.00000
v -58.88830 -46.12983 0.00000
v -55.51163 -47.15414 0.00000
v -52.00000 -47.50000 0.00000
v 52.00000 -47.50000 0.00000
v 55.51163 -47.15414 0.00000
v 58.88830 -46.12983 0.00000
v 62.00026 -44.46645 0.00000
v 64.72792 -42.22792 0.00000
v 66.96645 -39.50026 0.00000
v 68.62983 -36.38830 0.00000
v 69.65414 -33.01163 0.00000
v 70.00000 -29.50000 0.00000
v 70.00000 29.50000 2.80000
v 69.65414 33.01163 2.80000
v 68.62983 36.38830 2.80000
v 66.96645 39.50026 2.80000
v 64.72792 42.22792 2.80000
v 62.00026 44.46645 2.80000
v 58.88830 46.12983 2.80000
v 55.51163 47.15414 2.80000
v 52.00000 47.50000 2.80000
v -52.00000 47.50000 2.80000
v -55.51163 47.15414 2.80000
v -58.88830 46.12983 2.80000
v -62.00026 44.46645 2.80000
v -64.72792 42.22792 2.80000
v -66.96645 39.50026 2.80000
v -68.62983 36.38830 2.80000
v -69.65414 33.01163 2.80000
v -70.00000 29.50000 2.80000
v -70.00000 -29.50000 2.80000
v -69.65414 -33.01163 2.80000
v -68.62983 -36.38830 2.80000
v -66.96645 -39.50026 2.80000
v -64.72792 -42.22792 2.80000
v -62.00026 -44.46645 2.80000
v -58.88830 -46.12983 2.80000
v -55.51163 -47.15414 2.80000
v -52.00000 -47.50000 2.80000
v 52.00000 -47.50000 2.80000
v 55.51163 -47.15414 2.80000
v 58.88830 -46.12983 2.80000
v 62.00026 -44.46645 2.80000
v 64.72792 -42.22792 2.80000
v 66.96645 -39.50026 2.80000
v 68.62983 -36.38830 2.80000
v 69.65414 -33.01163 2.80000
v 70.00000 -29.50000 2.80000
v 62.00000 -46.10000 0.00000
v 61.97694 -45.86589 0.00000
v 61.90866 -45.64078 0.00000
v 61.79776 -45.43332 0.00000
v 61.64853 -45.25147 0.00000
v 61.46668 -45.10224 0.00000
v 61.25922 -44.99134 0.00000
v 61.03411 -44.92306 0.00000
v 60.80000 -44.90000 0.00000
v -60.80000 -44.90000 0.00000
v -61.03411 -44.92306 0.00000
v -61.25922 -44.99134 0.00000
v -61.46668 -45.10224 0.00000
v -61.64853 -45.25147 0.00000
v -61.79776 -45.43332 0.00000
v -61.90866 -45.64078 0.00000
v -61.97694 -45.86589 0.00000
v -62.00000 -46.10000 0.00000
v -62.00000 -46.30000 0.00000
v -61.97694 -46.53411 0.00000
v -61.90866 -46.75922 0.00000
v -61.79776 -46.96668 0.00000
v -61.64853 -47.14853 0.00000
v -61.46668 -47.29776 0.00000
v -61.25922 -47.40866 0.00000
v -61.03411 -47.47694 0.00000
v -60.80000 -47.50000 0.00000
v 60.80000 -47.50000 0.00000
v 61.03411 -47.47694 0.00000
v 61.25922 -47.40866 0.00000
v 61.46668 -47.29776 0.00000
v 61.64853 -47.14853 0.00000
v 61.79776 -46.96668 0.00000
v 61.90866 -46.75922 0.00000
v 61.97694 -46.53411 0.00000
v 62.00000 -46.30000 0.00000
v 62.00000 -46.10000 12.00000
v 61.97694 -45.86589 12.00000
v 61.90866 -45.64078 12.00000
v 61.79776 -45.43332 12.00000
v 61.64853 -45.25147 12.00000
v 61.46668 -45.10224 12.00000
v 61.25922 -44.99134 12.00000
v 61.03411 -44.92306 12.00000
v 60.80000 -44.90000 12.00000
v -60.80000 -44.90000 12.00000
v -61.03411 -44.92306 12.00000
v -61.25922 -44.99134 12.00000
v -61.46668 -45.10224 12.00000
v -61.64853 -45.25147 12.00000
v -61.79776 -45.43332 12.00000
v -61.90866 -45.64078 12.00000
v -61.97694 -45.86589 12.00000
v -62.00000 -46.10000 12.00000
v -62.00000 -46.30000 12.00000
v -61.97694 -46.53411 12.00000
v -61.90866 -46.75922 12.00000
v -61.79776 -46.96668 12.00000
v -61.64853 -47.14853 12.00000
v -61.46668 -47.29776 12.00000
v -61.25922 -47.40866 12.00000
v -61.03411 -47.47694 12.00000
v -60.80000 -47.50000 12.00000
v 60.80000 -47.50000 12.00000
v 61.03411 -47.47694 12.00000
v 61.25922 -47.40866 12.00000
v 61.46668 -47.29776 12.00000
v 61.64853 -47.14853 12.00000
v 61.79776 -46.96668 12.00000
v 61.90866 -46.75922 12.00000
v 61.97694 -46.53411 12.00000
v 62.00000 -46.30000 12.00000
v 62.00000 46.30000 0.00000
v 61.97694 46.53411 0.00000
v 61.90866 46.75922 0.00000
v 61.79776 46.96668 0.00000
v 61.64853 47.14853 0.00000
v 61.46668 47.29776 0.00000
v 61.25922 47.40866 0.00000
v 61.03411 47.47694 0.00000
v 60.80000 47.50000 0.00000
v -60.80000 47.50000 0.00000
v -61.03411 47.47694 0.00000
v -61.25922 47.40866 0.00000
v -61.46668 47.29776 0.00000
v -61.64853 47.14853 0.00000
v -61.79776 46.96668 0.00000
v -61.90866 46.75922 0.00000
v -61.97694 46.53411 0.00000
v -62.00000 46.30000 0.00000
v -62.00000 46.10000 0.00000
v -61.97694 45.86589 0.00000
v -61.90866 45.64078 0.00000
v -61.79776 45.43332 0.00000
v -61.64853 45.25147 0.00000
v -61.46668 45.10224 0.00000
v -61.25922 44.99134 0.00000
v -61.03411 44.92306 0.00000
v -60.80000 44.90000 0.00000
v 60.80000 44.90000 0.00000
v 61.03411 44.92306 0.00000
v 61.25922 44.99134 0.00000
v 61.46668 45.10224 0.00000
v 61.64853 45.25147 0.00000
v 61.79776 45.43332 0.00000
v 61.90866 45.64078 0.00000
v 61.97694 45.86589 0.00000
v 62.00000 46.10000 0.00000
v 62.00000 46.30000 12.00000
v 61.97694 46.53411 12.00000
v 61.90866 46.75922 12.00000
v 61.79776 46.96668 12.00000
v 61.64853 47.14853 12.00000
v 61.46668 47.29776 12.00000
v 61.25922 47.40866 12.00000
v 61.03411 47.47694 12.00000
v 60.80000 47.50000 12.00000
v -60.80000 47.50000 12.00000
v -61.03411 47.47694 12.00000
v -61.25922 47.40866 12.00000
v -61.46668 47.29776 12.00000
v -61.64853 47.14853 12.00000
v -61.79776 46.96668 12.00000
v -61.90866 46.75922 12.00000
v -61.97694 46.53411 12.00000
v -62.00000 46.30000 12.00000
v -62.00000 46.10000 12.00000
v -61.97694 45.86589 12.00000
v -61.90866 45.64078 12.00000
v -61.79776 45.43332 12.00000
v -61.64853 45.25147 12.00000
v -61.46668 45.10224 12.00000
v -61.25922 44.99134 12.00000
v -61.03411 44.92306 12.00000
v -60.80000 44.90000 12.00000
v 60.80000 44.90000 12.00000
v 61.03411 44.92306 12.00000
v 61.25922 44.99134 12.00000
v 61.46668 45.10224 12.00000
v 61.64853 45.25147 12.00000
v 61.79776 45.43332 12.00000
v 61.90866 45.64078 12.00000
v 61.97694 45.86589 12.00000
v 62.00000 46.10000 12.00000
v -67.40000 36.80000 0.00000
v -67.42306 37.03411 0.00000
v -67.49134 37.25922 0.00000
v -67.60224 37.46668 0.00000
v -67.75147 37.64853 0.00000
v -67.93332 37.79776 0.00000
v -68.14078 37.90866 0.00000
v -68.36589 37.97694 0.00000
v -68.60000 38.00000 0.00000
v -68.80000 38.00000 0.00000
v -69.03411 37.97694 0.00000
v -69.25922 37.90866 0.00000
v -69.46668 37.79776 0.00000
v -69.64853 37.64853 0.00000
v -69.79776 37.46668 0.00000
v -69.90866 37.25922 0.00000
v -69.97694 37.03411 0.00000
v -70.00000 36.80000 0.00000
v -70.00000 -36.80000 0.00000
v -69.97694 -37.03411 0.00000
v -69.90866 -37.25922 0.00000
v -69.79776 -37.46668 0.00000
v -69.64853 -37.64853 0.00000
v -69.46668 -37.79776 0.00000
v -69.25922 -37.90866 0.00000
v -69.03411 -37.97694 0.00000
v -68.80000 -38.00000 0.00000
v -68.60000 -38.00000 0.00000
v -68.36589 -37.97694 0.00000
v -68.14078 -37.90866 0.00000
v -67.93332 -37.79776 0.00000
v -67.75147 -37.64853 0.00000
v -67.60224 -37.46668 0.00000
v -67.49134 -37.25922 0.00000
v -67.42306 -37.03411 0.00000
v -67.40000 -36.80000 0.00000
v -67.40000 36.80000 12.00000
v -67.42306 37.03411 12.00000
v -67.49134 37.25922 12.00000
v -67.60224 37.46668 12.00000
v -67.75147 37.64853 12.00000
v -67.93332 37.79776 12.00000
v -68.14078 37.90866 12.00000
v -68.36589 37.97694 12.00000
v -68.60000 38.00000 12.00000
v -68.80000 38.00000 12.00000
v -69.03411 37.97694 12.00000
v -69.25922 37.90866 12.00000
v -69.46668 37.79776 12.00000
v -69.64853 37.64853 12.00000
v -69.79776 37.46668 12.00000
v -69.90866 37.25922 12.00000
v -69.97694 37.03411 12.00000
v -70.00000 36.80000 12.00000
v -70.00000 -36.80000 12.00000
v -69.97694 -37.03411 12.00000
v -69.90866 -37.25922 12.00000
v -69.79776 -37.46668 12.00000
v -69.64853 -37.64853 12.00000
v -69.46668 -37.79776 12.00000
v -69.25922 -37.90866 12.00000
v -69.03411 -37.97694 12.00000
v -68.80000 -38.00000 12.00000
v -68.60000 -38.00000 12.00000
v -68.36589 -37.97694 12.00000
v -68.14078 -37.90866 12.00000
v -67.93332 -37.79776 12.00000
v -67.75147 -37.64853 12.00000
v -67.60224 -37.46668 12.00000
v -67.49134 -37.25922 12.00000
v -67.42306 -37.03411 12.00000
v -67.40000 -36.80000 12.00000
v 70.00000 36.80000 0.00000
v 69.97694 37.03411 0.00000
v 69.90866 37.25922 0.00000
v 69.79776 37.46668 0.00000
v 69.64853 37.64853 0.00000
v 69.46668 37.79776 0.00000
v 69.25922 37.90866 0.00000
v 69.03411 37.97694 0.00000
v 68.80000 38.00000 0.00000
v 68.60000 38.00000 0.00000
v 68.36589 37.97694 0.00000
v 68.14078 37.90866 0.00000
v 67.93332 37.79776 0.00000
v 67.75147 37.64853 0.00000
v 67.60224 37.46668 0.00000
v 67.49134 37.25922 0.00000
v 67.42306 37.03411 0.00000
v 67.40000 36.80000 0.00000
v 67.40000 -36.80000 0.00000
v 67.42306 -37.03411 0.00000
v 67.49134 -37.25922 0.00000
v 67.60224 -37.46668 0.00000
v 67.75147 -37.64853 0.00000
v 67.93332 -37.79776 0.00000
v 68.14078 -37.90866 0.00000
v 68.36589 -37.97694 0.00000
v 68.60000 -38.00000 0.00000
v 68.80000 -38.00000 0.00000
v 69.03411 -37.97694 0.00000
v 69.25922 -37.90866 0.00000
v 69.46668 -37.79776 0.00000
v 69.64853 -37.64853 0.00000
v 69.79776 -37.46668 0.00000
v 69.90866 -37.25922 0.00000
v 69.97694 -37.03411 0.00000
v 70.00000 -36.80000 0.00000
v 70.00000 36.80000 12.00000
v 69.97694 37.03411 12.00000
v 69.90866 37.25922 12.00000
v 69.79776 37.46668 12.00000
v 69.64853 37.64853 12.00000
v 69.46668 37.79776 12.00000
v 69.25922 37.90866 12.00000
v 69.03411 37.97694 12.00000
v 68.80000 38.00000 12.00000
v 68.60000 38.00000 12.00000
v 68.36589 37.97694 12.00000
v 68.14078 37.90866 12.00000
v 67.93332 37.79776 12.00000
v 67.75147 37.64853 12.00000
v 67.60224 37.46668 12.00000
v 67.49134 37.25922 12.00000
v 67.42306 37.03411 12.00000
v 67.40000 36.80000 12.00000
v 67.40000 -36.80000 12.00000
v 67.42306 -37.03411 12.00000
v 67.49134 -37.25922 12.00000
v 67.60224 -37.46668 12.00000
v 67.75147 -37.64853 12.00000
v 67.93332 -37.79776 12.00000
v 68.14078 -37.90866 12.00000
v 68.36589 -37.97694 12.00000
v 68.60000 -38.00000 12.00000
v 68.80000 -38.00000 12.00000
v 69.03411 -37.97694 12.00000
v 69.25922 -37.90866 12.00000
v 69.46668 -37.79776 12.00000
v 69.64853 -37.64853 12.00000
v 69.79776 -37.46668 12.00000
v 69.90866 -37.25922 12.00000
v 69.97694 -37.03411 12.00000
v 70.00000 -36.80000 12.00000
v -40.00000 31.50000 2.80000
v -40.01921 31.69509 2.80000
v -40.07612 31.88268 2.80000
v -40.16853 32.05557 2.80000
v -40.29289 32.20711 2.80000
v -40.44443 32.33147 2.80000
v -40.61732 32.42388 2.80000
v -40.80491 32.48079 2.80000
v -41.00000 32.50000 2.80000
v -43.00000 32.50000 2.80000
v -43.19509 32.48079 2.80000
v -43.38268 32.42388 2.80000
v -43.55557 32.33147 2.80000
v -43.70711 32.20711 2.80000
v -43.83147 32.05557 2.80000
v -43.92388 31.88268 2.80000
v -43.98079 31.69509 2.80000
v -44.00000 31.50000 2.80000
v -44.00000 -31.50000 2.80000
v -43.98079 -31.69509 2.80000
v -43.92388 -31.88268 2.80000
v -43.83147 -32.05557 2.80000
v -43.70711 -32.20711 2.80000
v -43.55557 -32.33147 2.80000
v -43.38268 -32.42388 2.80000
v -43.19509 -32.48079 2.80000
v -43.00000 -32.50000 2.80000
v -41.00000 -32.50000 2.80000
v -40.80491 -32.48079 2.80000
v -40.61732 -32.42388 2.80000
v -40.44443 -32.33147 2.80000
v -40.29289 -32.20711 2.80000
v -40.16853 -32.05557 2.80000
v -40.07612 -31.88268 2.80000
v -40.01921 -31.69509 2.80000
v -40.00000 -31.50000 2.80000
v -40.00000 31.50000 5.80000
v -40.01921 31.69509 5.80000
v -40.07612 31.88268 5.80000
v -40.16853 32.05557 5.80000
v -40.29289 32.20711 5.80000
v -40.44443 32.33147 5.80000
v -40.61732 32.42388 5.80000
v -40.80491 32.48079 5.80000
v -41.00000 32.50000 5.80000
v -43.00000 32.50000 5.80000
v -43.19509 32.48079 5.80000
v -43.38268 32.42388 5.80000
v -43.55557 32.33147 5.80000
v -43.70711 32.20711 5.80000
v -43.83147 32.05557 5.80000
v -43.92388 31.88268 5.80000
v -43.98079 31.69509 5.80000
v -44.00000 31.50000 5.80000
v -44.00000 -31.50000 5.80000
v -43.98079 -31.69509 5.80000
v -43.92388 -31.88268 5.80000
v -43.83147 -32.05557 5.80000
v -43.70711 -32.20711 5.80000
v -43.55557 -32.33147 5.80000
v -43.38268 -32.42388 5.80000
v -43.19509 -32.48079 5.80000
v -43.00000 -32.50000 5.80000
v -41.00000 -32.50000 5.80000
v -40.80491 -32.48079 5.80000
v -40.61732 -32.42388 5.80000
v -40.44443 -32.33147 5.80000
v -40.29289 -32.20711 5.80000
v -40.16853 -32.05557 5.80000
v -40.07612 -31.88268 5.80000
v -40.01921 -31.69509 5.80000
v -40.00000 -31.50000 5.80000
v 44.00000 31.50000 2.80000
v 43.98079 31.69509 2.80000
v 43.92388 31.88268 2.80000
v 43.83147 32.05557 2.80000
v 43.70711 32.20711 2.80000
v 43.55557 32.33147 2.80000
v 43.38268 32.42388 2.80000
v 43.19509 32.48079 2.80000
v 43.00000 32.50000 2.80000
v 41.00000 32.50000 2.80000
v 40.80491 32.48079 2.80000
v 40.61732 32.42388 2.80000
v 40.44443 32.33147 2.80000
v 40.29289 32.20711 2.80000
v 40.16853 32.05557 2.80000
v 40.07612 31.88268 2.80000
v 40.01921 31.69509 2.80000
v 40.00000 31.50000 2.80000
v 40.00000 -31.50000 2.80000
v 40.01921 -31.69509 2.80000
v 40.07612 -31.88268 2.80000
v 40.16853 -32.05557 2.80000
v 40.29289 -32.20711 2.80000
v 40.44443 -32.33147 2.80000
v 40.61732 -32.42388 2.80000
v 40.80491 -32.48079 2.80000
v 41.00000 -32.50000 2.80000
v 43.00000 -32.50000 2.80000
v 43.19509 -32.48079 2.80000
v 43.38268 -32.42388 2.80000
v 43.55557 -32.33147 2.80000
v 43.70711 -32.20711 2.80000
v 43.83147 -32.05557 2.80000
v 43.92388 -31.88268 2.80000
v 43.98079 -31.69509 2.80000
v 44.00000 -31.50000 2.80000
v 44.00000 31.50000 5.80000
v 43.98079 31.69509 5.80000
v 43.92388 31.88268 5.80000
v 43.83147 32.05557 5.80000
v 43.70711 32.20711 5.80000
v 43.55557 32.33147 5.80000
v 43.38268 32.42388 5.80000
v 43.19509 32.48079 5.80000
v 43.00000 32.50000 5.80000
v 41.00000 32.50000 5.80000
v 40.80491 32.48079 5.80000
v 40.61732 32.42388 5.80000
v 40.44443 32.33147 5.80000
v 40.29289 32.20711 5.80000
v 40.16853 32.05557 5.80000
v 40.07612 31.88268 5.80000
v 40.01921 31.69509 5.80000
v 40.00000 31.50000 5.80000
v 40.00000 -31.50000 5.80000
v 40.01921 -31.69509 5.80000
v 40.07612 -31.88268 5.80000
v 40.16853 -32.05557 5.80000
v 40.29289 -32.20711 5.80000
v 40.44443 -32.33147 5.80000
v 40.61732 -32.42388 5.80000
v 40.80491 -32.48079 5.80000
v 41.00000 -32.50000 5.80000
v 43.00000 -32.50000 5.80000
v 43.19509 -32.48079 5.80000
v 43.38268 -32.42388 5.80000
v 43.55557 -32.33147 5.80000
v 43.70711 -32.20711 5.80000
v 43.83147 -32.05557 5.80000
v 43.92388 -31.88268 5.80000
v 43.98079 -31.69509 5.80000
v 44.00000 -31.50000 5.80000
f 1 3 2
f 37 38 39
f 1 4 3
f 37 39 40
f 1 5 4
f 37 40 41
f 1 6 5
f 37 41 42
f 1 7 6
f 37 42 43
f 1 8 7
f 37 43 44
f 1 9 8
f 37 44 45
f 1 10 9
f 37 45 46
f 1 11 10
f 37 46 47
f 1 12 11
f 37 47 48
f 1 13 12
f 37 48 49
f 1 14 13
f 37 49 50
f 1 15 14
f 37 50 51
f 1 16 15
f 37 51 52
f 1 17 16
f 37 52 53
f 1 18 17
f 37 53 54
f 1 19 18
f 37 54 55
f 1 20 19
f 37 55 56
f 1 21 20
f 37 56 57
f 1 22 21
f 37 57 58
f 1 23 22
f 37 58 59
f 1 24 23
f 37 59 60
f 1 25 24
f 37 60 61
f 1 26 25
f 37 61 62
f 1 27 26
f 37 62 63
f 1 28 27
f 37 63 64
f 1 29 28
f 37 64 65
f 1 30 29
f 37 65 66
f 1 31 30
f 37 66 67
f 1 32 31
f 37 67 68
f 1 33 32
f 37 68 69
f 1 34 33
f 37 69 70
f 1 35 34
f 37 70 71
f 1 36 35
f 37 71 72
f 1 2 38
f 1 38 37
f 2 3 39
f 2 39 38
f 3 4 40
f 3 40 39
f 4 5 41
f 4 41 40
f 5 6 42
f 5 42 41
f 6 7 43
f 6 43 42
f 7 8 44
f 7 44 43
f 8 9 45
f 8 45 44
f 9 10 46
f 9 46 45
f 10 11 47
f 10 47 46
f 11 12 48
f 11 48 47
f 12 13 49
f 12 49 48
f 13 14 50
f 13 50 49
f 14 15 51
f 14 51 50
f 15 16 52
f 15 52 51
f 16 17 53
f 16 53 52
f 17 18 54
f 17 54 53
f 18 19 55
f 18 55 54
f 19 20 56
f 19 56 55
f 20 21 57
f 20 57 56
f 21 22 58
f 21 58 57
f 22 23 59
f 22 59 58
f 23 24 60
f 23 60 59
f 24 25 61
f 24 61 60
f 25 26 62
f 25 62 61
f 26 27 63
f 26 63 62
f 27 28 64
f 27 64 63
f 28 29 65
f 28 65 64
f 29 30 66
f 29 66 65
f 30 31 67
f 30 67 66
f 31 32 68
f 31 68 67
f 32 33 69
f 32 69 68
f 33 34 70
f 33 70 69
f 34 35 71
f 34 71 70
f 35 36 72
f 35 72 71
f 36 1 37
f 36 37 72
f 73 75 74
f 109 110 111
f 73 76 75
f 109 111 112
f 73 77 76
f 109 112 113
f 73 78 77
f 109 113 114
f 73 79 78
f 109 114 115
f 73 80 79
f 109 115 116
f 73 81 80
f 109 116 117
f 73 82 81
f 109 117 118
f 73 83 82
f 109 118 119
f 73 84 83
f 109 119 120
f 73 85 84
f 109 120 121
f 73 86 85
f 109 121 122
f 73 87 86
f 109 122 123
f 73 88 87
f 109 123 124
f 73 89 88
f 109 124 125
f 73 90 89
f 109 125 126
f 73 91 90
f 109 126 127
f 73 92 91
f 109 127 128
f 73 93 92
f 109 128 129
f 73 94 93
f 109 129 130
f 73 95 94
f 109 130 131
f 73 96 95
f 109 131 132
f 73 97 96
f 109 132 133
f 73 98 97
f 109 133 134
f 73 99 98
f 109 134 135
f 73 100 99
f 109 135 136
f 73 101 100
f 109 136 137
f 73 102 101
f 109 137 138
f 73 103 102
f 109 138 139
f 73 104 103
f 109 139 140
f 73 105 104
f 109 140 141
f 73 106 105
f 109 141 142
f 73 107 106
f 109 142 143
f 73 108 107
f 109 143 144
f 73 74 110
f 73 110 109
f 74 75 111
f 74 111 110
f 75 76 112
f 75 112 111
f 76 77 113
f 76 113 112
f 77 78 114
f 77 114 113
f 78 79 115
f 78 115 114
f 79 80 116
f 79 116 115
f 80 81 117
f 80 117 116
f 81 82 118
f 81 118 117
f 82 83 119
f 82 119 118
f 83 84 120
f 83 120 119
f 84 85 121
f 84 121 120
f 85 86 122
f 85 122 121
f 86 87 123
f 86 123 122
f 87 88 124
f 87 124 123
f 88 89 125
f 88 125 124
f 89 90 126
f 89 126 125
f 90 91 127
f 90 127 126
f 91 92 128
f 91 128 127
f 92 93 129
f 92 129 128
f 93 94 130
f 93 130 129
f 94 95 131
f 94 131 130
f 95 96 132
f 95 132 131
f 96 97 133
f 96 133 132
f 97 98 134
f 97 134 133
f 98 99 135
f 98 135 134
f 99 100 136
f 99 136 135
f 100 101 137
f 100 137 136
f 101 102 138
f 101 138 137
f 102 103 139
f 102 139 138
f 103 104 140
f 103 140 139
f 104 105 141
f 104 141 140
f 105 106 142
f 105 142 141
f 106 107 143
f 106 143 142
f 107 108 144
f 107 144 143
f 108 73 109
f 108 109 144
f 145 147 146
f 181 182 183
f 145 148 147
f 181 183 184
f 145 149 148
f 181 184 185
f 145 150 149
f 181 185 186
f 145 151 150
f 181 186 187
f 145 152 151
f 181 187 188
f 145 153 152
f 181 188 189
f 145 154 153
f 181 189 190
f 145 155 154
f 181 190 191
f 145 156 155
f 181 191 192
f 145 157 156
f 181 192 193
f 145 158 157
f 181 193 194
f 145 159 158
f 181 194 195
f 145 160 159
f 181 195 196
f 145 161 160
f 181 196 197
f 145 162 161
f 181 197 198
f 145 163 162
f 181 198 199
f 145 164 163
f 181 199 200
f 145 165 164
f 181 200 201
f 145 166 165
f 181 201 202
f 145 167 166
f 181 202 203
f 145 168 167
f 181 203 204
f 145 169 168
f 181 204 205
f 145 170 169
f 181 205 206
f 145 171 170
f 181 206 207
f 145 172 171
f 181 207 208
f 145 173 172
f 181 208 209
f 145 174 173
f 181 209 210
f 145 175 174
f 181 210 211
f 145 176 175
f 181 211 212
f 145 177 176
f 181 212 213
f 145 178 177
f 181 213 214
f 145 179 178
f 181 214 215
f 145 180 179
f 181 215 216
f 145 146 182
f 145 182 181
f 146 147 183
f 146 183 182
f 147 148 184
f 147 184 183
f 148 149 185
f 148 185 184
f 149 150 186
f 149 186 185
f 150 151 187
f 150 187 186
f 151 152 188
f 151 188 187
f 152 153 189
f 152 189 188
f 153 154 190
f 153 190 189
f 154 155 191
f 154 191 190
f 155 156 192
f 155 192 191
f 156 157 193
f 156 193 192
f 157 158 194
f 157 194 193
f 158 159 195
f 158 195 194
f 159 160 196
f 159 196 195
f 160 161 197
f 160 197 196
f 161 162 198
f 161 198 197
f 162 163 199
f 162 199 198
f 163 164 200
f 163 200 199
f 164 165 201
f 164 201 200
f 165 166 202
f 165 202 201
f 166 167 203
f 166 203 202
f 167 168 204
f 167 204 203
f 168 169 205
f 168 205 204
f 169 170 206
f 169 206 205
f 170 171 207
f 170 207 206
f 171 172 208
f 171 208 207
f 172 173 209
f 172 209 208
f 173 174 210
f 173 210 209
f 174 175 211
f 174 211 210
f 175 176 212
f 175 212 211
f 176 177 213
f 176 213 212
f 177 178 214
f 177 214 213
f 178 179 215
f 178 215 214
f 179 180 216
f 179 216 215
f 180 145 181
f 180 181 216
f 217 219 218
f 253 254 255
f 217 220 219
f 253 255 256
f 217 221 220
f 253 256 257
f 217 222 221
f 253 257 258
f 217 223 222
f 253 258 259
f 217 224 223
f 253 259 260
f 217 225 224
f 253 260 261
f 217 226 225
f 253 261 262
f 217 227 226
f 253 262 263
f 217 228 227
f 253 263 264
f 217 229 228
f 253 264 265
f 217 230 229
f 253 265 266
f 217 231 230
f 253 266 267
f 217 232 231
f 253 267 268
f 217 233 232
f 253 268 269
f 217 234 233
f 253 269 270
f 217 235 234
f 253 270 271
f 217 236 235
f 253 271 272
f 217 237 236
f 253 272 273
f 217 238 237
f 253 273 274
f 217 239 238
f 253 274 275
f 217 240 239
f 253 275 276
f 217 241 240
f 253 276 277
f 217 242 241
f 253 277 278
f 217 243 242
f 253 278 279
f 217 244 243
f 253 279 280
f 217 245 244
f 253 280 281
f 217 246 245
f 253 281 282
f 217 247 246
f 253 282 283
f 217 248 247
f 253 283 284
f 217 249 248
f 253 284 285
f 217 250 249
f 253 285 286
f 217 251 250
f 253 286 287
f 217 252 251
f 253 287 288
f 217 218 254
f 217 254 253
f 218 219 255
f 218 255 254
f 219 220 256
f 219 256 255
f 220 221 257
f 220 257 256
f 221 222 258
f 221 258 257
f 222 223 259
f 222 259 258
f 223 224 260
f 223 260 259
f 224 225 261
f 224 261 260
f 225 226 262
f 225 262 261
f 226 227 263
f 226 263 262
f 227 228 264
f 227 264 263
f 228 229 265
f 228 265 264
f 229 230 266
f 229 266 265
f 230 231 267
f 230 267 266
f 231 232 268
f 231 268 267
f 232 233 269
f 232 269 268
f 233 234 270
f 233 270 269
f 234 235 271
f 234 271 270
f 235 236 272
f 235 272 271
f 236 237 273
f 236 273 272
f 237 238 274
f 237 274 273
f 238 239 275
f 238 275 274
f 239 240 276
f 239 276 275
f 240 241 277
f 240 277 276
f 241 242 278
f 241 278 277
f 242 243 279
f 242 279 278
f 243 244 280
f 243 280 279
f 244 245 281
f 244 281 280
f 245 246 282
f 245 282 281
f 246 247 283
f 246 283 282
f 247 248 284
f 247 284 283
f 248 249 285
f 248 285 284
f 249 250 286
f 249 286 285
f 250 251 287
f 250 287 286
f 251 252 288
f 251 288 287
f 252 217 253
f 252 253 288
f 289 291 290
f 325 326 327
f 289 292 291
f 325 327 328
f 289 293 292
f 325 328 329
f 289 294 293
f 325 329 330
f 289 295 294
f 325 330 331
f 289 296 295
f 325 331 332
f 289 297 296
f 325 332 333
f 289 298 297
f 325 333 334
f 289 299 298
f 325 334 335
f 289 300 299
f 325 335 336
f 289 301 300
f 325 336 337
f 289 302 301
f 325 337 338
f 289 303 302
f 325 338 339
f 289 304 303
f 325 339 340
f 289 305 304
f 325 340 341
f 289 306 305
f 325 341 342
f 289 307 306
f 325 342 343
f 289 308 307
f 325 343 344
f 289 309 308
f 325 344 345
f 289 310 309
f 325 345 346
f 289 311 310
f 325 346 347
f 289 312 311
f 325 347 348
f 289 313 312
f 325 348 349
f 289 314 313
f 325 349 350
f 289 315 314
f 325 350 351
f 289 316 315
f 325 351 352
f 289 317 316
f 325 352 353
f 289 318 317
f 325 353 354
f 289 319 318
f 325 354 355
f 289 320 319
f 325 355 356
f 289 321 320
f 325 356 357
f 289 322 321
f 325 357 358
f 289 323 322
f 325 358 359
f 289 324 323
f 325 359 360
f 289 290 326
f 289 326 325
f 290 291 327
f 290 327 326
f 291 292 328
f 291 328 327
f 292 293 329
f 292 329 328
f 293 294 330
f 293 330 329
f 294 295 331
f 294 331 330
f 295 296 332
f 295 332 331
f 296 297 333
f 296 333 332
f 297 298 334
f 297 334 333
f 298 299 335
f 298 335 334
f 299 300 336
f 299 336 335
f 300 301 337
f 300 337 336
f 301 302 338
f 301 338 337
f 302 303 339
f 302 339 338
f 303 304 340
f 303 340 339
f 304 305 341
f 304 341 340
f 305 306 342
f 305 342 341
f 306 307 343
f 306 343 342
f 307 308 344
f 307 344 343
f 308 309 345
f 308 345 344
f 309 310 346
f 309 346 345
f 310 311 347
f 310 347 346
f 311 312 348
f 311 348 347
f 312 313 349
f 312 349 348
f 313 314 350
f 313 350 349
f 314 315 351
f 314 351 350
f 315 316 352
f 315 352 351
f 316 317 353
f 316 353 352
f 317 318 354
f 317 354 353
f 318 319 355
f 318 355 354
f 319 320 356
f 319 356 355
f 320 321 357
f 320 357 356
f 321 322 358
f 321 358 357
f 322 323 359
f 322 359 358
f 323 324 360
f 323 360 359
f 324 289 325
f 324 325 360
f 361 363 362
f 397 398 399
f 361 364 363
f 397 399 400
f 361 365 364
f 397 400 401
f 361 366 365
f 397 401 402
f 361 367 366
f 397 402 403
f 361 368 367
f 397 403 404
f 361 369 368
f 397 404 405
f 361 370 369
f 397 405 406
f 361 371 370
f 397 406 407
f 361 372 371
f 397 407 408
f 361 373 372
f 397 408 409
f 361 374 373
f 397 409 410
f 361 375 374
f 397 410 411
f 361 376 375
f 397 411 412
f 361 377 376
f 397 412 413
f 361 378 377
f 397 413 414
f 361 379 378
f 397 414 415
f 361 380 379
f 397 415 416
f 361 381 380
f 397 416 417
f 361 382 381
f 397 417 418
f 361 383 382
f 397 418 419
f 361 384 383
f 397 419 420
f 361 385 384
f 397 420 421
f 361 386 385
f 397 421 422
f 361 387 386
f 397 422 423
f 361 388 387
f 397 423 424
f 361 389 388
f 397 424 425
f 361 390 389
f 397 425 426
f 361 391 390
f 397 426 427
f 361 392 391
f 397 427 428
f 361 393 392
f 397 428 429
f 361 394 393
f 397 429 430
f 361 395 394
f 397 430 431
f 361 396 395
f 397 431 432
f 361 362 398
f 361 398 397
f 362 363 399
f 362 399 398
f 363 364 400
f 363 400 399
f 364 365 401
f 364 401 400
f 365 366 402
f 365 402 401
f 366 367 403
f 366 403 402
f 367 368 404
f 367 404 403
f 368 369 405
f 368 405 404
f 369 370 406
f 369 406 405
f 370 371 407
f 370 407 406
f 371 372 408
f 371 408 407
f 372 373 409
f 372 409 408
f 373 374 410
f 373 410 409
f 374 375 411
f 374 411 410
f 375 376 412
f 375 412 411
f 376 377 413
f 376 413 412
f 377 378 414
f 377 414 413
f 378 379 415
f 378 415 414
f 379 380 416
f 379 416 415
f 380 381 417
f 380 417 416
f 381 382 418
f 381 418 417
f 382 383 419
f 382 419 418
f 383 384 420
f 383 420 419
f 384 385 421
f 384 421 420
f 385 386 422
f 385 422 421
f 386 387 423
f 386 423 422
f 387 388 424
f 387 424 423
f 388 389 425
f 388 425 424
f 389 390 426
f 389 426 425
f 390 391 427
f 390 427 426
f 391 392 428
f 391 428 427
f 392 393 429
f 392 429 428
f 393 394 430
f 393 430 429
f 394 395 431
f 394 431 430
f 395 396 432
f 395 432 431
f 396 361 397
f 396 397 432
f 433 435 434
f 469 470 471
f 433 436 435
f 469 471 472
f 433 437 436
f 469 472 473
f 433 438 437
f 469 473 474
f 433 439 438
f 469 474 475
f 433 440 439
f 469 475 476
f 433 441 440
f 469 476 477
f 433 442 441
f 469 477 478
f 433 443 442
f 469 478 479
f 433 444 443
f 469 479 480
f 433 445 444
f 469 480 481
f 433 446 445
f 469 481 482
f 433 447 446
f 469 482 483
f 433 448 447
f 469 483 484
f 433 449 448
f 469 484 485
f 433 450 449
f 469 485 486
f 433 451 450
f 469 486 487
f 433 452 451
f 469 487 488
f 433 453 452
f 469 488 489
f 433 454 453
f 469 489 490
f 433 455 454
f 469 490 491
f 433 456 455
f 469 491 492
f 433 457 456
f 469 492 493
f 433 458 457
f 469 493 494
f 433 459 458
f 469 494 495
f 433 460 459
f 469 495 496
f 433 461 460
f 469 496 497
f 433 462 461
f 469 497 498
f 433 463 462
f 469 498 499
f 433 464 463
f 469 499 500
f 433 465 464
f 469 500 501
f 433 466 465
f 469 501 502
f 433 467 466
f 469 502 503
f 433 468 467
f 469 503 504
f 433 434 470
f 433 470 469
f 434 435 471
f 434 471 470
f 435 436 472
f 435 472 471
f 436 437 473
f 436 473 472
f 437 438 474
f 437 474 473
f 438 439 475
f 438 475 474
f 439 440 476
f 439 476 475
f 440 441 477
f 440 477 476
f 441 442 478
f 441 478 477
f 442 443 479
f 442 479 478
f 443 444 480
f 443 480 479
f 444 445 481
f 444 481 480
f 445 446 482
f 445 482 481
f 446 447 483
f 446 483 482
f 447 448 484
f 447 484 483
f 448 449 485
f 448 485 484
f 449 450 486
f 449 486 485
f 450 451 487
f 450 487 486
f 451 452 488
f 451 488 487
f 452 453 489
f 452 489 488
f 453 454 490
f 453 490 489
f 454 455 491
f 454 491 490
f 455 456 492
f 455 492 491
f 456 457 493
f 456 493 492
f 457 458 494
f 457 494 493
f 458 459 495
f 458 495 494
f 459 460 496
f 459 496 495
f 460 461 497
f 460 497 496
f 461 462 498
f 461 498 497
f 462 463 499
f 462 499 498
f 463 464 500
f 463 500 499
f 464 465 501
f 464 501 500
f 465 466 502
f 465 502 501
f 466 467 503
f 466 503 502
f 467 468 504
f 467 504 503
f 468 433 469
f 468 469 504
