o opaque_emotion_island_lid
v 70.00000 29.50000 0.00000
v 69.65414 33.01163 0.00000
v 68.62983 36.38830 0.00000
v 66.96645 39.50026 0.00000
v 64.72792 42.22792 0.00000
v 62.00026 44.46645 0.00000
v 58.88830 46.12983 0.00000
v 55.51163 47.15414 0.00000
v 52.00000 47.50000 0.00000
v -52.00000 47.50000 0.00000
v -55.51163 47.15414 0.00000
v -58.88830 46.12983 0.00000
v -62.00026 44.46645 0.00000
v -64.72792 42.22792 0.00000
v -66.96645 39.50026 0.00000
v -68.62983 36.38830 0.00000
v -69.65414 33.01163 0.00000
v -70.00000 29.50000 0.00000
v -70.00000 -29.50000 0.00000
v -69.65414 -33.01163 0.00000
v -68.62983 -36.38830 0.00000
v -66.96645 -39.50026 0.00000
v -64.72792 -42.22792 0.00000
v -62.00026 -44.46645 0.00000
v -58.88830 -46.12983 0.00000
v -55.51163 -47.15414 0.00000
v -52.00000 -47.50000 0.00000
v 52.00000 -47.50000 0.00000
v 55.51163 -47.15414 0.00000
v 58.88830 -46.12983 0.00000
v 62.00026 -44.46645 0.00000
v 64.72792 -42.22792 0.00000
v 66.96645 -39.50026 0.00000
v 68.62983 -36.38830 0.00000
v 69.65414 -33.01163 0.00000
v 70.00000 -29.50000 0.00000
v 70.00000 29.50000 4.60000
v 69.65414 33.01163 4.60000
v 68.62983 36.38830 4.60000
v 66.96645 39.50026 4.60000
v 64.72792 42.22792 4.60000
v 62.00026 44.46645 4.60000
v 58.88830 46.12983 4.60000
v 55.51163 47.15414 4.60000
v 52.00000 47.50000 4.60000
v -52.00000 47.50000 4.60000
v -55.51163 47.15414 4.60000
v -58.88830 46.12983 4.60000
v -62.00026 44.46645 4.60000
v -64.72792 42.22792 4.60000
v -66.96645 39.50026 4.60000
v -68.62983 36.38830 4.60000
v -69.65414 33.01163 4.60000
v -70.00000 29.50000 4.60000
v -70.00000 -29.50000 4.60000
v -69.65414 -33.01163 4.60000
v -68.62983 -36.38830 4.60000
v -66.96645 -39.50026 4.60000
v -64.72792 -42.22792 4.60000
v -62.00026 -44.46645 4.60000
v -58.88830 -46.12983 4.60000
v -55.51163 -47.15414 4.60000
v -52.00000 -47.50000 4.60000
v 52.00000 -47.50000 4.60000
v 55.51163 -47.15414 4.60000
v 58.88830 -46.12983 4.60000
v 62.00026 -44.46645 4.60000
v 64.72792 -42.22792 4.60000
v 66.96645 -39.50026 4.60000
v 68.62983 -36.38830 4.60000
v 69.65414 -33.01163 4.60000
v 70.00000 -29.50000 4.60000
v 32.00000 8.00000 7.20000
v 38.50562 8.00000 7.04776
v 38.01041 9.46447 7.04776
v 36.60017 10.70598 7.04776
v 34.48959 11.53553 7.04776
v 32.00000 11.82683 7.04776
v 29.51041 11.53553 7.04776
v 27.39983 10.70598 7.04776
v 25.98959 9.46447 7.04776
v 25.49438 8.00000 7.04776
v 25.98959 6.53553 7.04776
v 27.39983 5.29402 7.04776
v 29.51041 4.46447 7.04776
v 32.00000 4.17317 7.04776
v 34.48959 4.46447 7.04776
v 36.60017 5.29402 7.04776
v 38.01041 6.53553 7.04776
v 44.02082 8.00000 6.61421
v 43.10579 10.70598 6.61421
v 40.50000 13.00000 6.61421
v 36.60017 14.53281 6.61421
v 32.00000 15.07107 6.61421
v 27.39983 14.53281 6.61421
v 23.50000 13.00000 6.61421
v 20.89421 10.70598 6.61421
v 19.97918 8.00000 6.61421
v 20.89421 5.29402 6.61421
v 23.50000 3.00000 6.61421
v 27.39983 1.46719 6.61421
v 32.00000 0.92893 6.61421
v 36.60017 1.46719 6.61421
v 40.50000 3.00000 6.61421
v 43.10579 5.29402 6.61421
v 47.70595 8.00000 5.96537
v 46.51041 11.53553 5.96537
v 43.10579 14.53281 5.96537
v 38.01041 16.53553 5.96537
v 32.00000 17.23880 5.96537
v 25.98959 16.53553 5.96537
v 20.89421 14.53281 5.96537
v 17.48959 11.53553 5.96537
v 16.29405 8.00000 5.96537
v 17.48959 4.46447 5.96537
v 20.89421 1.46719 5.96537
v 25.98959 -0.53553 5.96537
v 32.00000 -1.23880 5.96537
v 38.01041 -0.53553 5.96537
v 43.10579 1.46719 5.96537
v 46.51041 4.46447 5.96537
v 49.00000 8.00000 5.20000
v 47.70595 11.82683 5.20000
v 44.02082 15.07107 5.20000
v 38.50562 17.23880 5.20000
v 32.00000 18.00000 5.20000
v 25.49438 17.23880 5.20000
v 19.97918 15.07107 5.20000
v 16.29405 11.82683 5.20000
v 15.00000 8.00000 5.20000
v 16.29405 4.17317 5.20000
v 19.97918 0.92893 5.20000
v 25.49438 -1.23880 5.20000
v 32.00000 -2.00000 5.20000
v 38.50562 -1.23880 5.20000
v 44.02082 0.92893 5.20000
v 47.70595 4.17317 5.20000
v 47.70595 8.00000 4.43463
v 46.51041 11.53553 4.43463
v 43.10579 14.53281 4.43463
v 38.01041 16.53553 4.43463
v 32.00000 17.23880 4.43463
v 25.98959 16.53553 4.43463
v 20.89421 14.53281 4.43463
v 17.48959 11.53553 4.43463
v 16.29405 8.00000 4.43463
v 17.48959 4.46447 4.43463
v 20.89421 1.46719 4.43463
v 25.98959 -0.53553 4.43463
v 32.00000 -1.23880 4.43463
v 38.01041 -0.53553 4.43463
v 43.10579 1.46719 4.43463
v 46.51041 4.46447 4.43463
v 44.02082 8.00000 3.78579
v 43.10579 10.70598 3.78579
v 40.50000 13.00000 3.78579
v 36.60017 14.53281 3.78579
v 32.00000 15.07107 3.78579
v 27.39983 14.53281 3.78579
v 23.50000 13.00000 3.78579
v 20.89421 10.70598 3.78579
v 19.97918 8.00000 3.78579
v 20.89421 5.29402 3.78579
v 23.50000 3.00000 3.78579
v 27.39983 1.46719 3.78579
v 32.00000 0.92893 3.78579
v 36.60017 1.46719 3.78579
v 40.50000 3.00000 3.78579
v 43.10579 5.29402 3.78579
v 38.50562 8.00000 3.35224
v 38.01041 9.46447 3.35224
v 36.60017 10.70598 3.35224
v 34.48959 11.53553 3.35224
v 32.00000 11.82683 3.35224
v 29.51041 11.53553 3.35224
v 27.39983 10.70598 3.35224
v 25.98959 9.46447 3.35224
v 25.49438 8.00000 3.35224
v 25.98959 6.53553 3.35224
v 27.39983 5.29402 3.35224
v 29.51041 4.46447 3.35224
v 32.00000 4.17317 3.35224
v 34.48959 4.46447 3.35224
v 36.60017 5.29402 3.35224
v 38.01041 6.53553 3.35224
v 32.00000 8.00000 3.20000
v 16.00000 27.91858 7.20000
v 22.50562 27.91858 7.04776
v 22.01041 29.38305 7.04776
v 20.60017 30.62456 7.04776
v 18.48959 31.45412 7.04776
v 16.00000 31.74542 7.04776
v 13.51041 31.45412 7.04776
v 11.39983 30.62456 7.04776
v 9.98959 29.38305 7.04776
v 9.49438 27.91858 7.04776
v 9.98959 26.45412 7.04776
v 11.39983 25.21260 7.04776
v 13.51041 24.38305 7.04776
v 16.00000 24.09175 7.04776
v 18.48959 24.38305 7.04776
v 20.60017 25.21260 7.04776
v 22.01041 26.45412 7.04776
v 28.02082 27.91858 6.61421
v 27.10579 30.62456 6.61421
v 24.50000 32.91858 6.61421
v 20.60017 34.45140 6.61421
v 16.00000 34.98965 6.61421
v 11.39983 34.45140 6.61421
v 7.50000 32.91858 6.61421
v 4.89421 30.62456 6.61421
v 3.97918 27.91858 6.61421
v 4.89421 25.21260 6.61421
v 7.50000 22.91858 6.61421
v 11.39983 21.38577 6.61421
v 16.00000 20.84752 6.61421
v 20.60017 21.38577 6.61421
v 24.50000 22.91858 6.61421
v 27.10579 25.21260 6.61421
v 31.70595 27.91858 5.96537
v 30.51041 31.45412 5.96537
v 27.10579 34.45140 5.96537
v 22.01041 36.45412 5.96537
v 16.00000 37.15738 5.96537
v 9.98959 36.45412 5.96537
v 4.89421 34.45140 5.96537
v 1.48959 31.45412 5.96537
v 0.29405 27.91858 5.96537
v 1.48959 24.38305 5.96537
v 4.89421 21.38577 5.96537
v 9.98959 19.38305 5.96537
v 16.00000 18.67979 5.96537
v 22.01041 19.38305 5.96537
v 27.10579 21.38577 5.96537
v 30.51041 24.38305 5.96537
v 33.00000 27.91858 5.20000
v 31.70595 31.74542 5.20000
v 28.02082 34.98965 5.20000
v 22.50562 37.15738 5.20000
v 16.00000 37.91858 5.20000
v 9.49438 37.15738 5.20000
v 3.97918 34.98965 5.20000
v 0.29405 31.74542 5.20000
v -1.00000 27.91858 5.20000
v 0.29405 24.09175 5.20000
v 3.97918 20.84752 5.20000
v 9.49438 18.67979 5.20000
v 16.00000 17.91858 5.20000
v 22.50562 18.67979 5.20000
v 28.02082 20.84752 5.20000
v 31.70595 24.09175 5.20000
v 31.70595 27.91858 4.43463
v 30.51041 31.45412 4.43463
v 27.10579 34.45140 4.43463
v 22.01041 36.45412 4.43463
v 16.00000 37.15738 4.43463
v 9.98959 36.45412 4.43463
v 4.89421 34.45140 4.43463
v 1.48959 31.45412 4.43463
v 0.29405 27.91858 4.43463
v 1.48959 24.38305 4.43463
v 4.89421 21.38577 4.43463
v 9.98959 19.38305 4.43463
v 16.00000 18.67979 4.43463
v 22.01041 19.38305 4.43463
v 27.10579 21.38577 4.43463
v 30.51041 24.38305 4.43463
v 28.02082 27.91858 3.78579
v 27.10579 30.62456 3.78579
v 24.50000 32.91858 3.78579
v 20.60017 34.45140 3.78579
v 16.00000 34.98965 3.78579
v 11.39983 34.45140 3.78579
v 7.50000 32.91858 3.78579
v 4.89421 30.62456 3.78579
v 3.97918 27.91858 3.78579
v 4.89421 25.21260 3.78579
v 7.50000 22.91858 3.78579
v 11.39983 21.38577 3.78579
v 16.00000 20.84752 3.78579
v 20.60017 21.38577 3.78579
v 24.50000 22.91858 3.78579
v 27.10579 25.21260 3.78579
v 22.50562 27.91858 3.35224
v 22.01041 29.38305 3.35224
v 20.60017 30.62456 3.35224
v 18.48959 31.45412 3.35224
v 16.00000 31.74542 3.35224
v 13.51041 31.45412 3.35224
v 11.39983 30.62456 3.35224
v 9.98959 29.38305 3.35224
v 9.49438 27.91858 3.35224
v 9.98959 26.45412 3.35224
v 11.39983 25.21260 3.35224
v 13.51041 24.38305 3.35224
v 16.00000 24.09175 3.35224
v 18.48959 24.38305 3.35224
v 20.60017 25.21260 3.35224
v 22.01041 26.45412 3.35224
v 16.00000 27.91858 3.20000
v -16.00000 27.91858 7.20000
v -9.49438 27.91858 7.04776
v -9.98959 29.38305 7.04776
v -11.39983 30.62456 7.04776
v -13.51041 31.45412 7.04776
v -16.00000 31.74542 7.04776
v -18.48959 31.45412 7.04776
v -20.60017 30.62456 7.04776
v -22.01041 29.38305 7.04776
v -22.50562 27.91858 7.04776
v -22.01041 26.45412 7.04776
v -20.60017 25.21260 7.04776
v -18.48959 24.38305 7.04776
v -16.00000 24.09175 7.04776
v -13.51041 24.38305 7.04776
v -11.39983 25.21260 7.04776
v -9.98959 26.45412 7.04776
v -3.97918 27.91858 6.61421
v -4.89421 30.62456 6.61421
v -7.50000 32.91858 6.61421
v -11.39983 34.45140 6.61421
v -16.00000 34.98965 6.61421
v -20.60017 34.45140 6.61421
v -24.50000 32.91858 6.61421
v -27.10579 30.62456 6.61421
v -28.02082 27.91858 6.61421
v -27.10579 25.21260 6.61421
v -24.50000 22.91858 6.61421
v -20.60017 21.38577 6.61421
v -16.00000 20.84752 6.61421
v -11.39983 21.38577 6.61421
v -7.50000 22.91858 6.61421
v -4.89421 25.21260 6.61421
v -0.29405 27.91858 5.96537
v -1.48959 31.45412 5.96537
v -4.89421 34.45140 5.96537
v -9.98959 36.45412 5.96537
v -16.00000 37.15738 5.96537
v -22.01041 36.45412 5.96537
v -27.10579 34.45140 5.96537
v -30.51041 31.45412 5.96537
v -31.70595 27.91858 5.96537
v -30.51041 24.38305 5.96537
v -27.10579 21.38577 5.96537
v -22.01041 19.38305 5.96537
v -16.00000 18.67979 5.96537
v -9.98959 19.38305 5.96537
v -4.89421 21.38577 5.96537
v -1.48959 24.38305 5.96537
v 1.00000 27.91858 5.20000
v -0.29405 31.74542 5.20000
v -3.97918 34.98965 5.20000
v -9.49438 37.15738 5.20000
v -16.00000 37.91858 5.20000
v -22.50562 37.15738 5.20000
v -28.02082 34.98965 5.20000
v -31.70595 31.74542 5.20000
v -33.00000 27.91858 5.20000
v -31.70595 24.09175 5.20000
v -28.02082 20.84752 5.20000
v -22.50562 18.67979 5.20000
v -16.00000 17.91858 5.20000
v -9.49438 18.67979 5.20000
v -3.97918 20.84752 5.20000
v -0.29405 24.09175 5.20000
v -0.29405 27.91858 4.43463
v -1.48959 31.45412 4.43463
v -4.89421 34.45140 4.43463
v -9.98959 36.45412 4.43463
v -16.00000 37.15738 4.43463
v -22.01041 36.45412 4.43463
v -27.10579 34.45140 4.43463
v -30.51041 31.45412 4.43463
v -31.70595 27.91858 4.43463
v -30.51041 24.38305 4.43463
v -27.10579 21.38577 4.43463
v -22.01041 19.38305 4.43463
v -16.00000 18.67979 4.43463
v -9.98959 19.38305 4.43463
v -4.89421 21.38577 4.43463
v -1.48959 24.38305 4.43463
v -3.97918 27.91858 3.78579
v -4.89421 30.62456 3.78579
v -7.50000 32.91858 3.78579
v -11.39983 34.45140 3.78579
v -16.00000 34.98965 3.78579
v -20.60017 34.45140 3.78579
v -24.50000 32.91858 3.78579
v -27.10579 30.62456 3.78579
v -28.02082 27.91858 3.78579
v -27.10579 25.21260 3.78579
v -24.50000 22.91858 3.78579
v -20.60017 21.38577 3.78579
v -16.00000 20.84752 3.78579
v -11.39983 21.38577 3.78579
v -7.50000 22.91858 3.78579
v -4.89421 25.21260 3.78579
v -9.49438 27.91858 3.35224
v -9.98959 29.38305 3.35224
v -11.39983 30.62456 3.35224
v -13.51041 31.45412 3.35224
v -16.00000 31.74542 3.35224
v -18.48959 31.45412 3.35224
v -20.60017 30.62456 3.35224
v -22.01041 29.38305 3.35224
v -22.50562 27.91858 3.35224
v -22.01041 26.45412 3.35224
v -20.60017 25.21260 3.35224
v -18.48959 24.38305 3.35224
v -16.00000 24.09175 3.35224
v -13.51041 24.38305 3.35224
v -11.39983 25.21260 3.35224
v -9.98959 26.45412 3.35224
v -16.00000 27.91858 3.20000
v -32.00000 8.00000 7.20000
v -25.49438 8.00000 7.04776
v -25.98959 9.46447 7.04776
v -27.39983 10.70598 7.04776
v -29.51041 11.53553 7.04776
v -32.00000 11.82683 7.04776
v -34.48959 11.53553 7.04776
v -36.60017 10.70598 7.04776
v -38.01041 9.46447 7.04776
v -38.50562 8.00000 7.04776
v -38.01041 6.53553 7.04776
v -36.60017 5.29402 7.04776
v -34.48959 4.46447 7.04776
v -32.00000 4.17317 7.04776
v -29.51041 4.46447 7.04776
v -27.39983 5.29402 7.04776
v -25.98959 6.53553 7.04776
v -19.97918 8.00000 6.61421
v -20.89421 10.70598 6.61421
v -23.50000 13.00000 6.61421
v -27.39983 14.53281 6.61421
v -32.00000 15.07107 6.61421
v -36.60017 14.53281 6.61421
v -40.50000 13.00000 6.61421
v -43.10579 10.70598 6.61421
v -44.02082 8.00000 6.61421
v -43.10579 5.29402 6.61421
v -40.50000 3.00000 6.61421
v -36.60017 1.46719 6.61421
v -32.00000 0.92893 6.61421
v -27.39983 1.46719 6.61421
v -23.50000 3.00000 6.61421
v -20.89421 5.29402 6.61421
v -16.29405 8.00000 5.96537
v -17.48959 11.53553 5.96537
v -20.89421 14.53281 5.96537
v -25.98959 16.53553 5.96537
v -32.00000 17.23880 5.96537
v -38.01041 16.53553 5.96537
v -43.10579 14.53281 5.96537
v -46.51041 11.53553 5.96537
v -47.70595 8.00000 5.96537
v -46.51041 4.46447 5.96537
v -43.10579 1.46719 5.96537
v -38.01041 -0.53553 5.96537
v -32.00000 -1.23880 5.96537
v -25.98959 -0.53553 5.96537
v -20.89421 1.46719 5.96537
v -17.48959 4.46447 5.96537
v -15.00000 8.00000 5.20000
v -16.29405 11.82683 5.20000
v -19.97918 15.07107 5.20000
v -25.49438 17.23880 5.20000
v -32.00000 18.00000 5.20000
v -38.50562 17.23880 5.20000
v -44.02082 15.07107 5.20000
v -47.70595 11.82683 5.20000
v -49.00000 8.00000 5.20000
v -47.70595 4.17317 5.20000
v -44.02082 0.92893 5.20000
v -38.50562 -1.23880 5.20000
v -32.00000 -2.00000 5.20000
v -25.49438 -1.23880 5.20000
v -19.97918 0.92893 5.20000
v -16.29405 4.17317 5.20000
v -16.29405 8.00000 4.43463
v -17.48959 11.53553 4.43463
v -20.89421 14.53281 4.43463
v -25.98959 16.53553 4.43463
v -32.00000 17.23880 4.43463
v -38.01041 16.53553 4.43463
v -43.10579 14.53281 4.43463
v -46.51041 11.53553 4.43463
v -47.70595 8.00000 4.43463
v -46.51041 4.46447 4.43463
v -43.10579 1.46719 4.43463
v -38.01041 -0.53553 4.43463
v -32.00000 -1.23880 4.43463
v -25.98959 -0.53553 4.43463
v -20.89421 1.46719 4.43463
v -17.48959 4.46447 4.43463
v -19.97918 8.00000 3.78579
v -20.89421 10.70598 3.78579
v -23.50000 13.00000 3.78579
v -27.39983 14.53281 3.78579
v -32.00000 15.07107 3.78579
v -36.60017 14.53281 3.78579
v -40.50000 13.00000 3.78579
v -43.10579 10.70598 3.78579
v -44.02082 8.00000 3.78579
v -43.10579 5.29402 3.78579
v -40.50000 3.00000 3.78579
v -36.60017 1.46719 3.78579
v -32.00000 0.92893 3.78579
v -27.39983 1.46719 3.78579
v -23.50000 3.00000 3.78579
v -20.89421 5.29402 3.78579
v -25.49438 8.00000 3.35224
v -25.98959 9.46447 3.35224
v -27.39983 10.70598 3.35224
v -29.51041 11.53553 3.35224
v -32.00000 11.82683 3.35224
v -34.48959 11.53553 3.35224
v -36.60017 10.70598 3.35224
v -38.01041 9.46447 3.35224
v -38.50562 8.00000 3.35224
v -38.01041 6.53553 3.35224
v -36.60017 5.29402 3.35224
v -34.48959 4.46447 3.35224
v -32.00000 4.17317 3.35224
v -29.51041 4.46447 3.35224
v -27.39983 5.29402 3.35224
v -25.98959 6.53553 3.35224
v -32.00000 8.00000 3.20000
v -16.00000 -11.91858 7.20000
v -9.49438 -11.91858 7.04776
v -9.98959 -10.45412 7.04776
v -11.39983 -9.21260 7.04776
v -13.51041 -8.38305 7.04776
v -16.00000 -8.09175 7.04776
v -18.48959 -8.38305 7.04776
v -20.60017 -9.21260 7.04776
v -22.01041 -10.45412 7.04776
v -22.50562 -11.91858 7.04776
v -22.01041 -13.38305 7.04776
v -20.60017 -14.62456 7.04776
v -18.48959 -15.45412 7.04776
v -16.00000 -15.74542 7.04776
v -13.51041 -15.45412 7.04776
v -11.39983 -14.62456 7.04776
v -9.98959 -13.38305 7.04776
v -3.97918 -11.91858 6.61421
v -4.89421 -9.21260 6.61421
v -7.50000 -6.91858 6.61421
v -11.39983 -5.38577 6.61421
v -16.00000 -4.84752 6.61421
v -20.60017 -5.38577 6.61421
v -24.50000 -6.91858 6.61421
v -27.10579 -9.21260 6.61421
v -28.02082 -11.91858 6.61421
v -27.10579 -14.62456 6.61421
v -24.50000 -16.91858 6.61421
v -20.60017 -18.45140 6.61421
v -16.00000 -18.98965 6.61421
v -11.39983 -18.45140 6.61421
v -7.50000 -16.91858 6.61421
v -4.89421 -14.62456 6.61421
v -0.29405 -11.91858 5.96537
v -1.48959 -8.38305 5.96537
v -4.89421 -5.38577 5.96537
v -9.98959 -3.38305 5.96537
v -16.00000 -2.67979 5.96537
v -22.01041 -3.38305 5.96537
v -27.10579 -5.38577 5.96537
v -30.51041 -8.38305 5.96537
v -31.70595 -11.91858 5.96537
v -30.51041 -15.45412 5.96537
v -27.10579 -18.45140 5.96537
v -22.01041 -20.45412 5.96537
v -16.00000 -21.15738 5.96537
v -9.98959 -20.45412 5.96537
v -4.89421 -18.45140 5.96537
v -1.48959 -15.45412 5.96537
v 1.00000 -11.91858 5.20000
v -0.29405 -8.09175 5.20000
v -3.97918 -4.84752 5.20000
v -9.49438 -2.67979 5.20000
v -16.00000 -1.91858 5.20000
v -22.50562 -2.67979 5.20000
v -28.02082 -4.84752 5.20000
v -31.70595 -8.09175 5.20000
v -33.00000 -11.91858 5.20000
v -31.70595 -15.74542 5.20000
v -28.02082 -18.98965 5.20000
v -22.50562 -21.15738 5.20000
v -16.00000 -21.91858 5.20000
v -9.49438 -21.15738 5.20000
v -3.97918 -18.98965 5.20000
v -0.29405 -15.74542 5.20000
v -0.29405 -11.91858 4.43463
v -1.48959 -8.38305 4.43463
v -4.89421 -5.38577 4.43463
v -9.98959 -3.38305 4.43463
v -16.00000 -2.67979 4.43463
v -22.01041 -3.38305 4.43463
v -27.10579 -5.38577 4.43463
v -30.51041 -8.38305 4.43463
v -31.70595 -11.91858 4.43463
v -30.51041 -15.45412 4.43463
v -27.10579 -18.45140 4.43463
v -22.01041 -20.45412 4.43463
v -16.00000 -21.15738 4.43463
v -9.98959 -20.45412 4.43463
v -4.89421 -18.45140 4.43463
v -1.48959 -15.45412 4.43463
v -3.97918 -11.91858 3.78579
v -4.89421 -9.21260 3.78579
v -7.50000 -6.91858 3.78579
v -11.39983 -5.38577 3.78579
v -16.00000 -4.84752 3.78579
v -20.60017 -5.38577 3.78579
v -24.50000 -6.91858 3.78579
v -27.10579 -9.21260 3.78579
v -28.02082 -11.91858 3.78579
v -27.10579 -14.62456 3.78579
v -24.50000 -16.91858 3.78579
v -20.60017 -18.45140 3.78579
v -16.00000 -18.98965 3.78579
v -11.39983 -18.45140 3.78579
v -7.50000 -16.91858 3.78579
v -4.89421 -14.62456 3.78579
v -9.49438 -11.91858 3.35224
v -9.98959 -10.45412 3.35224
v -11.39983 -9.21260 3.35224
v -13.51041 -8.38305 3.35224
v -16.00000 -8.09175 3.35224
v -18.48959 -8.38305 3.35224
v -20.60017 -9.21260 3.35224
v -22.01041 -10.45412 3.35224
v -22.50562 -11.91858 3.35224
v -22.01041 -13.38305 3.35224
v -20.60017 -14.62456 3.35224
v -18.48959 -15.45412 3.35224
v -16.00000 -15.74542 3.35224
v -13.51041 -15.45412 3.35224
v -11.39983 -14.62456 3.35224
v -9.98959 -13.38305 3.35224
v -16.00000 -11.91858 3.20000
v 16.00000 -11.91858 7.20000
v 22.50562 -11.91858 7.04776
v 22.01041 -10.45412 7.04776
v 20.60017 -9.21260 7.04776
v 18.48959 -8.38305 7.04776
v 16.00000 -8.09175 7.04776
v 13.51041 -8.38305 7.04776
v 11.39983 -9.21260 7.04776
v 9.98959 -10.45412 7.04776
v 9.49438 -11.91858 7.04776
v 9.98959 -13.38305 7.04776
v 11.39983 -14.62456 7.04776
v 13.51041 -15.45412 7.04776
v 16.00000 -15.74542 7.04776
v 18.48959 -15.45412 7.04776
v 20.60017 -14.62456 7.04776
v 22.01041 -13.38305 7.04776
v 28.02082 -11.91858 6.61421
v 27.10579 -9.21260 6.61421
v 24.50000 -6.91858 6.61421
v 20.60017 -5.38577 6.61421
v 16.00000 -4.84752 6.61421
v 11.39983 -5.38577 6.61421
v 7.50000 -6.91858 6.61421
v 4.89421 -9.21260 6.61421
v 3.97918 -11.91858 6.61421
v 4.89421 -14.62456 6.61421
v 7.50000 -16.91858 6.61421
v 11.39983 -18.45140 6.61421
v 16.00000 -18.98965 6.61421
v 20.60017 -18.45140 6.61421
v 24.50000 -16.91858 6.61421
v 27.10579 -14.62456 6.61421
v 31.70595 -11.91858 5.96537
v 30.51041 -8.38305 5.96537
v 27.10579 -5.38577 5.96537
v 22.01041 -3.38305 5.96537
v 16.00000 -2.67979 5.96537
v 9.98959 -3.38305 5.96537
v 4.89421 -5.38577 5.96537
v 1.48959 -8.38305 5.96537
v 0.29405 -11.91858 5.96537
v 1.48959 -15.45412 5.96537
v 4.89421 -18.45140 5.96537
v 9.98959 -20.45412 5.96537
v 16.00000 -21.15738 5.96537
v 22.01041 -20.45412 5.96537
v 27.10579 -18.45140 5.96537
v 30.51041 -15.45412 5.96537
v 33.00000 -11.91858 5.20000
v 31.70595 -8.09175 5.20000
v 28.02082 -4.84752 5.20000
v 22.50562 -2.67979 5.20000
v 16.00000 -1.91858 5.20000
v 9.49438 -2.67979 5.20000
v 3.97918 -4.84752 5.20000
v 0.29405 -8.09175 5.20000
v -1.00000 -11.91858 5.20000
v 0.29405 -15.74542 5.20000
v 3.97918 -18.98965 5.20000
v 9.49438 -21.15738 5.20000
v 16.00000 -21.91858 5.20000
v 22.50562 -21.15738 5.20000
v 28.02082 -18.98965 5.20000
v 31.70595 -15.74542 5.20000
v 31.70595 -11.91858 4.43463
v 30.51041 -8.38305 4.43463
v 27.10579 -5.38577 4.43463
v 22.01041 -3.38305 4.43463
v 16.00000 -2.67979 4.43463
v 9.98959 -3.38305 4.43463
v 4.89421 -5.38577 4.43463
v 1.48959 -8.38305 4.43463
v 0.29405 -11.91858 4.43463
v 1.48959 -15.45412 4.43463
v 4.89421 -18.45140 4.43463
v 9.98959 -20.45412 4.43463
v 16.00000 -21.15738 4.43463
v 22.01041 -20.45412 4.43463
v 27.10579 -18.45140 4.43463
v 30.51041 -15.45412 4.43463
v 28.02082 -11.91858 3.78579
v 27.10579 -9.21260 3.78579
v 24.50000 -6.91858 3.78579
v 20.60017 -5.38577 3.78579
v 16.00000 -4.84752 3.78579
v 11.39983 -5.38577 3.78579
v 7.50000 -6.91858 3.78579
v 4.89421 -9.21260 3.78579
v 3.97918 -11.91858 3.78579
v 4.89421 -14.62456 3.78579
v 7.50000 -16.91858 3.78579
v 11.39983 -18.45140 3.78579
v 16.00000 -18.98965 3.78579
v 20.60017 -18.45140 3.78579
v 24.50000 -16.91858 3.78579
v 27.10579 -14.62456 3.78579
v 22.50562 -11.91858 3.35224
v 22.01041 -10.45412 3.35224
v 20.60017 -9.21260 3.35224
v 18.48959 -8.38305 3.35224
v 16.00000 -8.09175 3.35224
v 13.51041 -8.38305 3.35224
v 11.39983 -9.21260 3.35224
v 9.98959 -10.45412 3.35224
v 9.49438 -11.91858 3.35224
v 9.98959 -13.38305 3.35224
v 11.39983 -14.62456 3.35224
v 13.51041 -15.45412 3.35224
v 16.00000 -15.74542 3.35224
v 18.48959 -15.45412 3.35224
v 20.60017 -14.62456 3.35224
v 22.01041 -13.38305 3.35224
v 16.00000 -11.91858 3.20000
v 22.00000 25.00000 4.60000
v 21.86550 26.36563 4.60000
v 21.46716 27.67878 4.60000
v 20.82029 28.88899 4.60000
v 19.94975 29.94975 4.60000
v 18.88899 30.82029 4.60000
v 17.67878 31.46716 4.60000
v 16.36563 31.86550 4.60000
v 15.00000 32.00000 4.60000
v -15.00000 32.00000 4.60000
v -16.36563 31.86550 4.60000
v -17.67878 31.46716 4.60000
v -18.88899 30.82029 4.60000
v -19.94975 29.94975 4.60000
v -20.82029 28.88899 4.60000
v -21.46716 27.67878 4.60000
v -21.86550 26.36563 4.60000
v -22.00000 25.00000 4.60000
v -22.00000 11.00000 4.60000
v -21.86550 9.63437 4.60000
v -21.46716 8.32122 4.60000
v -20.82029 7.11101 4.60000
v -19.94975 6.05025 4.60000
v -18.88899 5.17971 4.60000
v -17.67878 4.53284 4.60000
v -16.36563 4.13450 4.60000
v -15.00000 4.00000 4.60000
v 15.00000 4.00000 4.60000
v 16.36563 4.13450 4.60000
v 17.67878 4.53284 4.60000
v 18.88899 5.17971 4.60000
v 19.94975 6.05025 4.60000
v 20.82029 7.11101 4.60000
v 21.46716 8.32122 4.60000
v 21.86550 9.63437 4.60000
v 22.00000 11.00000 4.60000
v 22.00000 25.00000 10.60000
v 21.86550 26.36563 10.60000
v 21.46716 27.67878 10.60000
v 20.82029 28.88899 10.60000
v 19.94975 29.94975 10.60000
v 18.88899 30.82029 10.60000
v 17.67878 31.46716 10.60000
v 16.36563 31.86550 10.60000
v 15.00000 32.00000 10.60000
v -15.00000 32.00000 10.60000
v -16.36563 31.86550 10.60000
v -17.67878 31.46716 10.60000
v -18.88899 30.82029 10.60000
v -19.94975 29.94975 10.60000
v -20.82029 28.88899 10.60000
v -21.46716 27.67878 10.60000
v -21.86550 26.36563 10.60000
v -22.00000 25.00000 10.60000
v -22.00000 11.00000 10.60000
v -21.86550 9.63437 10.60000
v -21.46716 8.32122 10.60000
v -20.82029 7.11101 10.60000
v -19.94975 6.05025 10.60000
v -18.88899 5.17971 10.60000
v -17.67878 4.53284 10.60000
v -16.36563 4.13450 10.60000
v -15.00000 4.00000 10.60000
v 15.00000 4.00000 10.60000
v 16.36563 4.13450 10.60000
v 17.67878 4.53284 10.60000
v 18.88899 5.17971 10.60000
v 19.94975 6.05025 10.60000
v 20.82029 7.11101 10.60000
v 21.46716 8.32122 10.60000
v 21.86550 9.63437 10.60000
v 22.00000 11.00000 10.60000
v -13.47177 18.00000 10.01057
v -13.17747 16.69835 9.96991
v -12.35287 15.65451 9.85599
v -11.16128 15.07522 9.69136
v -9.83872 15.07522 9.50864
v -8.64713 15.65451 9.34401
v -7.82253 16.69835 9.23009
v -7.52823 18.00000 9.18943
v -7.82253 19.30165 9.23009
v -8.64713 20.34549 9.34401
v -9.83872 20.92478 9.50864
v -11.16128 20.92478 9.69136
v -12.35287 20.34549 9.85599
v -13.17747 19.30165 9.96991
v -10.84677 18.00000 29.01057
v -10.55247 16.69835 28.96991
v -9.72787 15.65451 28.85599
v -8.53628 15.07522 28.69136
v -7.21372 15.07522 28.50864
v -6.02213 15.65451 28.34401
v -5.19753 16.69835 28.23009
v -4.90323 18.00000 28.18943
v -5.19753 19.30165 28.23009
v -6.02213 20.34549 28.34401
v -7.21372 20.92478 28.50864
v -8.53628 20.92478 28.69136
v -9.72787 20.34549 28.85599
v -10.55247 19.30165 28.96991
v -10.50000 18.00000 9.60000
v -7.87500 18.00000 28.60000
v -10.50000 18.00000 12.60000
v -9.35195 18.00000 12.37164
v -9.46564 18.49812 12.37164
v -9.78420 18.89758 12.37164
v -10.24453 19.11927 12.37164
v -10.75547 19.11927 12.37164
v -11.21580 18.89758 12.37164
v -11.53436 18.49812 12.37164
v -11.64805 18.00000 12.37164
v -11.53436 17.50188 12.37164
v -11.21580 17.10242 12.37164
v -10.75547 16.88073 12.37164
v -10.24453 16.88073 12.37164
v -9.78420 17.10242 12.37164
v -9.46564 17.50188 12.37164
v -8.37868 18.00000 11.72132
v -8.58876 18.92041 11.72132
v -9.17738 19.65852 11.72132
v -10.02796 20.06813 11.72132
v -10.97204 20.06813 11.72132
v -11.82262 19.65852 11.72132
v -12.41124 18.92041 11.72132
v -12.62132 18.00000 11.72132
v -12.41124 17.07959 11.72132
v -11.82262 16.34148 11.72132
v -10.97204 15.93187 11.72132
v -10.02796 15.93187 11.72132
v -9.17738 16.34148 11.72132
v -8.58876 17.07959 11.72132
v -7.72836 18.00000 10.74805
v -8.00284 19.20257 10.74805
v -8.77191 20.16695 10.74805
v -9.88325 20.70215 10.74805
v -11.11675 20.70215 10.74805
v -12.22809 20.16695 10.74805
v -12.99716 19.20257 10.74805
v -13.27164 18.00000 10.74805
v -12.99716 16.79743 10.74805
v -12.22809 15.83305 10.74805
v -11.11675 15.29785 10.74805
v -9.88325 15.29785 10.74805
v -8.77191 15.83305 10.74805
v -8.00284 16.79743 10.74805
v -7.50000 18.00000 9.60000
v -7.79709 19.30165 9.60000
v -8.62953 20.34549 9.60000
v -9.83244 20.92478 9.60000
v -11.16756 20.92478 9.60000
v -12.37047 20.34549 9.60000
v -13.20291 19.30165 9.60000
v -13.50000 18.00000 9.60000
v -13.20291 16.69835 9.60000
v -12.37047 15.65451 9.60000
v -11.16756 15.07522 9.60000
v -9.83244 15.07522 9.60000
v -8.62953 15.65451 9.60000
v -7.79709 16.69835 9.60000
v -7.72836 18.00000 8.45195
v -8.00284 19.20257 8.45195
v -8.77191 20.16695 8.45195
v -9.88325 20.70215 8.45195
v -11.11675 20.70215 8.45195
v -12.22809 20.16695 8.45195
v -12.99716 19.20257 8.45195
v -13.27164 18.00000 8.45195
v -12.99716 16.79743 8.45195
v -12.22809 15.83305 8.45195
v -11.11675 15.29785 8.45195
v -9.88325 15.29785 8.45195
v -8.77191 15.83305 8.45195
v -8.00284 16.79743 8.45195
v -8.37868 18.00000 7.47868
v -8.58876 18.92041 7.47868
v -9.17738 19.65852 7.47868
v -10.02796 20.06813 7.47868
v -10.97204 20.06813 7.47868
v -11.82262 19.65852 7.47868
v -12.41124 18.92041 7.47868
v -12.62132 18.00000 7.47868
v -12.41124 17.07959 7.47868
v -11.82262 16.34148 7.47868
v -10.97204 15.93187 7.47868
v -10.02796 15.93187 7.47868
v -9.17738 16.34148 7.47868
v -8.58876 17.07959 7.47868
v -9.35195 18.00000 6.82836
v -9.46564 18.49812 6.82836
v -9.78420 18.89758 6.82836
v -10.24453 19.11927 6.82836
v -10.75547 19.11927 6.82836
v -11.21580 18.89758 6.82836
v -11.53436 18.49812 6.82836
v -11.64805 18.00000 6.82836
v -11.53436 17.50188 6.82836
v -11.21580 17.10242 6.82836
v -10.75547 16.88073 6.82836
v -10.24453 16.88073 6.82836
v -9.78420 17.10242 6.82836
v -9.46564 17.50188 6.82836
v -10.50000 18.00000 6.60000
v -7.87500 18.00000 31.60000
v -6.72695 18.00000 31.37164
v -6.84064 18.49812 31.37164
v -7.15920 18.89758 31.37164
v -7.61953 19.11927 31.37164
v -8.13047 19.11927 31.37164
v -8.59080 18.89758 31.37164
v -8.90936 18.49812 31.37164
v -9.02305 18.00000 31.37164
v -8.90936 17.50188 31.37164
v -8.59080 17.10242 31.37164
v -8.13047 16.88073 31.37164
v -7.61953 16.88073 31.37164
v -7.15920 17.10242 31.37164
v -6.84064 17.50188 31.37164
v -5.75368 18.00000 30.72132
v -5.96376 18.92041 30.72132
v -6.55238 19.65852 30.72132
v -7.40296 20.06813 30.72132
v -8.34704 20.06813 30.72132
v -9.19762 19.65852 30.72132
v -9.78624 18.92041 30.72132
v -9.99632 18.00000 30.72132
v -9.78624 17.07959 30.72132
v -9.19762 16.34148 30.72132
v -8.34704 15.93187 30.72132
v -7.40296 15.93187 30.72132
v -6.55238 16.34148 30.72132
v -5.96376 17.07959 30.72132
v -5.10336 18.00000 29.74805
v -5.37784 19.20257 29.74805
v -6.14691 20.16695 29.74805
v -7.25825 20.70215 29.74805
v -8.49175 20.70215 29.74805
v -9.60309 20.16695 29.74805
v -10.37216 19.20257 29.74805
v -10.64664 18.00000 29.74805
v -10.37216 16.79743 29.74805
v -9.60309 15.83305 29.74805
v -8.49175 15.29785 29.74805
v -7.25825 15.29785 29.74805
v -6.14691 15.83305 29.74805
v -5.37784 16.79743 29.74805
v -4.87500 18.00000 28.60000
v -5.17209 19.30165 28.60000
v -6.00453 20.34549 28.60000
v -7.20744 20.92478 28.60000
v -8.54256 20.92478 28.60000
v -9.74547 20.34549 28.60000
v -10.57791 19.30165 28.60000
v -10.87500 18.00000 28.60000
v -10.57791 16.69835 28.60000
v -9.74547 15.65451 28.60000
v -8.54256 15.07522 28.60000
v -7.20744 15.07522 28.60000
v -6.00453 15.65451 28.60000
v -5.17209 16.69835 28.60000
v -5.10336 18.00000 27.45195
v -5.37784 19.20257 27.45195
v -6.14691 20.16695 27.45195
v -7.25825 20.70215 27.45195
v -8.49175 20.70215 27.45195
v -9.60309 20.16695 27.45195
v -10.37216 19.20257 27.45195
v -10.64664 18.00000 27.45195
v -10.37216 16.79743 27.45195
v -9.60309 15.83305 27.45195
v -8.49175 15.29785 27.45195
v -7.25825 15.29785 27.45195
v -6.14691 15.83305 27.45195
v -5.37784 16.79743 27.45195
v -5.75368 18.00000 26.47868
v -5.96376 18.92041 26.47868
v -6.55238 19.65852 26.47868
v -7.40296 20.06813 26.47868
v -8.34704 20.06813 26.47868
v -9.19762 19.65852 26.47868
v -9.78624 18.92041 26.47868
v -9.99632 18.00000 26.47868
v -9.78624 17.07959 26.47868
v -9.19762 16.34148 26.47868
v -8.34704 15.93187 26.47868
v -7.40296 15.93187 26.47868
v -6.55238 16.34148 26.47868
v -5.96376 17.07959 26.47868
v -6.72695 18.00000 25.82836
v -6.84064 18.49812 25.82836
v -7.15920 18.89758 25.82836
v -7.61953 19.11927 25.82836
v -8.13047 19.11927 25.82836
v -8.59080 18.89758 25.82836
v -8.90936 18.49812 25.82836
v -9.02305 18.00000 25.82836
v -8.90936 17.50188 25.82836
v -8.59080 17.10242 25.82836
v -8.13047 16.88073 25.82836
v -7.61953 16.88073 25.82836
v -7.15920 17.10242 25.82836
v -6.84064 17.50188 25.82836
v -7.87500 18.00000 25.60000
v 7.52823 18.00000 9.18943
v 7.82253 16.69835 9.23009
v 8.64713 15.65451 9.34401
v 9.83872 15.07522 9.50864
v 11.16128 15.07522 9.69136
v 12.35287 15.65451 9.85599
v 13.17747 16.69835 9.96991
v 13.47177 18.00000 10.01057
v 13.17747 19.30165 9.96991
v 12.35287 20.34549 9.85599
v 11.16128 20.92478 9.69136
v 9.83872 20.92478 9.50864
v 8.64713 20.34549 9.34401
v 7.82253 19.30165 9.23009
v 4.90323 18.00000 28.18943
v 5.19753 16.69835 28.23009
v 6.02213 15.65451 28.34401
v 7.21372 15.07522 28.50864
v 8.53628 15.07522 28.69136
v 9.72787 15.65451 28.85599
v 10.55247 16.69835 28.96991
v 10.84677 18.00000 29.01057
v 10.55247 19.30165 28.96991
v 9.72787 20.34549 28.85599
v 8.53628 20.92478 28.69136
v 7.21372 20.92478 28.50864
v 6.02213 20.34549 28.34401
v 5.19753 19.30165 28.23009
v 10.50000 18.00000 9.60000
v 7.87500 18.00000 28.60000
v 10.50000 18.00000 12.60000
v 11.64805 18.00000 12.37164
v 11.53436 18.49812 12.37164
v 11.21580 18.89758 12.37164
v 10.75547 19.11927 12.37164
v 10.24453 19.11927 12.37164
v 9.78420 18.89758 12.37164
v 9.46564 18.49812 12.37164
v 9.35195 18.00000 12.37164
v 9.46564 17.50188 12.37164
v 9.78420 17.10242 12.37164
v 10.24453 16.88073 12.37164
v 10.75547 16.88073 12.37164
v 11.21580 17.10242 12.37164
v 11.53436 17.50188 12.37164
v 12.62132 18.00000 11.72132
v 12.41124 18.92041 11.72132
v 11.82262 19.65852 11.72132
v 10.97204 20.06813 11.72132
v 10.02796 20.06813 11.72132
v 9.17738 19.65852 11.72132
v 8.58876 18.92041 11.72132
v 8.37868 18.00000 11.72132
v 8.58876 17.07959 11.72132
v 9.17738 16.34148 11.72132
v 10.02796 15.93187 11.72132
v 10.97204 15.93187 11.72132
v 11.82262 16.34148 11.72132
v 12.41124 17.07959 11.72132
v 13.27164 18.00000 10.74805
v 12.99716 19.20257 10.74805
v 12.22809 20.16695 10.74805
v 11.11675 20.70215 10.74805
v 9.88325 20.70215 10.74805
v 8.77191 20.16695 10.74805
v 8.00284 19.20257 10.74805
v 7.72836 18.00000 10.74805
v 8.00284 16.79743 10.74805
v 8.77191 15.83305 10.74805
v 9.88325 15.29785 10.74805
v 11.11675 15.29785 10.74805
v 12.22809 15.83305 10.74805
v 12.99716 16.79743 10.74805
v 13.50000 18.00000 9.60000
v 13.20291 19.30165 9.60000
v 12.37047 20.34549 9.60000
v 11.16756 20.92478 9.60000
v 9.83244 20.92478 9.60000
v 8.62953 20.34549 9.60000
v 7.79709 19.30165 9.60000
v 7.50000 18.00000 9.60000
v 7.79709 16.69835 9.60000
v 8.62953 15.65451 9.60000
v 9.83244 15.07522 9.60000
v 11.16756 15.07522 9.60000
v 12.37047 15.65451 9.60000
v 13.20291 16.69835 9.60000
v 13.27164 18.00000 8.45195
v 12.99716 19.20257 8.45195
v 12.22809 20.16695 8.45195
v 11.11675 20.70215 8.45195
v 9.88325 20.70215 8.45195
v 8.77191 20.16695 8.45195
v 8.00284 19.20257 8.45195
v 7.72836 18.00000 8.45195
v 8.00284 16.79743 8.45195
v 8.77191 15.83305 8.45195
v 9.88325 15.29785 8.45195
v 11.11675 15.29785 8.45195
v 12.22809 15.83305 8.45195
v 12.99716 16.79743 8.45195
v 12.62132 18.00000 7.47868
v 12.41124 18.92041 7.47868
v 11.82262 19.65852 7.47868
v 10.97204 20.06813 7.47868
v 10.02796 20.06813 7.47868
v 9.17738 19.65852 7.47868
v 8.58876 18.92041 7.47868
v 8.37868 18.00000 7.47868
v 8.58876 17.07959 7.47868
v 9.17738 16.34148 7.47868
v 10.02796 15.93187 7.47868
v 10.97204 15.93187 7.47868
v 11.82262 16.34148 7.47868
v 12.41124 17.07959 7.47868
v 11.64805 18.00000 6.82836
v 11.53436 18.49812 6.82836
v 11.21580 18.89758 6.82836
v 10.75547 19.11927 6.82836
v 10.24453 19.11927 6.82836
v 9.78420 18.89758 6.82836
v 9.46564 18.49812 6.82836
v 9.35195 18.00000 6.82836
v 9.46564 17.50188 6.82836
v 9.78420 17.10242 6.82836
v 10.24453 16.88073 6.82836
v 10.75547 16.88073 6.82836
v 11.21580 17.10242 6.82836
v 11.53436 17.50188 6.82836
v 10.50000 18.00000 6.60000
v 7.87500 18.00000 31.60000
v 9.02305 18.00000 31.37164
v 8.90936 18.49812 31.37164
v 8.59080 18.89758 31.37164
v 8.13047 19.11927 31.37164
v 7.61953 19.11927 31.37164
v 7.15920 18.89758 31.37164
v 6.84064 18.49812 31.37164
v 6.72695 18.00000 31.37164
v 6.84064 17.50188 31.37164
v 7.15920 17.10242 31.37164
v 7.61953 16.88073 31.37164
v 8.13047 16.88073 31.37164
v 8.59080 17.10242 31.37164
v 8.90936 17.50188 31.37164
v 9.99632 18.00000 30.72132
v 9.78624 18.92041 30.72132
v 9.19762 19.65852 30.72132
v 8.34704 20.06813 30.72132
v 7.40296 20.06813 30.72132
v 6.55238 19.65852 30.72132
v 5.96376 18.92041 30.72132
v 5.75368 18.00000 30.72132
v 5.96376 17.07959 30.72132
v 6.55238 16.34148 30.72132
v 7.40296 15.93187 30.72132
v 8.34704 15.93187 30.72132
v 9.19762 16.34148 30.72132
v 9.78624 17.07959 30.72132
v 10.64664 18.00000 29.74805
v 10.37216 19.20257 29.74805
v 9.60309 20.16695 29.74805
v 8.49175 20.70215 29.74805
v 7.25825 20.70215 29.74805
v 6.14691 20.16695 29.74805
v 5.37784 19.20257 29.74805
v 5.10336 18.00000 29.74805
v 5.37784 16.79743 29.74805
v 6.14691 15.83305 29.74805
v 7.25825 15.29785 29.74805
v 8.49175 15.29785 29.74805
v 9.60309 15.83305 29.74805
v 10.37216 16.79743 29.74805
v 10.87500 18.00000 28.60000
v 10.57791 19.30165 28.60000
v 9.74547 20.34549 28.60000
v 8.54256 20.92478 28.60000
v 7.20744 20.92478 28.60000
v 6.00453 20.34549 28.60000
v 5.17209 19.30165 28.60000
v 4.87500 18.00000 28.60000
v 5.17209 16.69835 28.60000
v 6.00453 15.65451 28.60000
v 7.20744 15.07522 28.60000
v 8.54256 15.07522 28.60000
v 9.74547 15.65451 28.60000
v 10.57791 16.69835 28.60000
v 10.64664 18.00000 27.45195
v 10.37216 19.20257 27.45195
v 9.60309 20.16695 27.45195
v 8.49175 20.70215 27.45195
v 7.25825 20.70215 27.45195
v 6.14691 20.16695 27.45195
v 5.37784 19.20257 27.45195
v 5.10336 18.00000 27.45195
v 5.37784 16.79743 27.45195
v 6.14691 15.83305 27.45195
v 7.25825 15.29785 27.45195
v 8.49175 15.29785 27.45195
v 9.60309 15.83305 27.45195
v 10.37216 16.79743 27.45195
v 9.99632 18.00000 26.47868
v 9.78624 18.92041 26.47868
v 9.19762 19.65852 26.47868
v 8.34704 20.06813 26.47868
v 7.40296 20.06813 26.47868
v 6.55238 19.65852 26.47868
v 5.96376 18.92041 26.47868
v 5.75368 18.00000 26.47868
v 5.96376 17.07959 26.47868
v 6.55238 16.34148 26.47868
v 7.40296 15.93187 26.47868
v 8.34704 15.93187 26.47868
v 9.19762 16.34148 26.47868
v 9.78624 17.07959 26.47868
v 9.02305 18.00000 25.82836
v 8.90936 18.49812 25.82836
v 8.59080 18.89758 25.82836
v 8.13047 19.11927 25.82836
v 7.61953 19.11927 25.82836
v 7.15920 18.89758 25.82836
v 6.84064 18.49812 25.82836
v 6.72695 18.00000 25.82836
v 6.84064 17.50188 25.82836
v 7.15920 17.10242 25.82836
v 7.61953 16.88073 25.82836
v 8.13047 16.88073 25.82836
v 8.59080 17.10242 25.82836
v 8.90936 17.50188 25.82836
v 7.87500 18.00000 25.60000
v -8.00000 15.80000 26.60000
v -8.00000 16.01787 25.64546
v -8.00000 16.62832 24.87997
v -8.00000 17.51045 24.45516
v -8.00000 18.48955 24.45516
v -8.00000 19.37168 24.87997
v -8.00000 19.98213 25.64546
v -8.00000 20.20000 26.60000
v -8.00000 19.98213 27.55454
v -8.00000 19.37168 28.32003
v -8.00000 18.48955 28.74484
v -8.00000 17.51045 28.74484
v -8.00000 16.62832 28.32003
v -8.00000 16.01787 27.55454
v 8.00000 15.80000 26.60000
v 8.00000 16.01787 25.64546
v 8.00000 16.62832 24.87997
v 8.00000 17.51045 24.45516
v 8.00000 18.48955 24.45516
v 8.00000 19.37168 24.87997
v 8.00000 19.98213 25.64546
v 8.00000 20.20000 26.60000
v 8.00000 19.98213 27.55454
v 8.00000 19.37168 28.32003
v 8.00000 18.48955 28.74484
v 8.00000 17.51045 28.74484
v 8.00000 16.62832 28.32003
v 8.00000 16.01787 27.55454
v -8.00000 18.00000 26.60000
v 8.00000 18.00000 26.60000
v -8.00000 18.00000 28.80000
v -7.15810 18.00000 28.63253
v -7.24147 18.36529 28.63253
v -7.47508 18.65823 28.63253
v -7.81266 18.82080 28.63253
v -8.18734 18.82080 28.63253
v -8.52492 18.65823 28.63253
v -8.75853 18.36529 28.63253
v -8.84190 18.00000 28.63253
v -8.75853 17.63471 28.63253
v -8.52492 17.34177 28.63253
v -8.18734 17.17920 28.63253
v -7.81266 17.17920 28.63253
v -7.47508 17.34177 28.63253
v -7.24147 17.63471 28.63253
v -6.44437 18.00000 28.15563
v -6.59842 18.67496 28.15563
v -7.03008 19.21624 28.15563
v -7.65384 19.51663 28.15563
v -8.34616 19.51663 28.15563
v -8.96992 19.21624 28.15563
v -9.40158 18.67496 28.15563
v -9.55563 18.00000 28.15563
v -9.40158 17.32504 28.15563
v -8.96992 16.78376 28.15563
v -8.34616 16.48337 28.15563
v -7.65384 16.48337 28.15563
v -7.03008 16.78376 28.15563
v -6.59842 17.32504 28.15563
v -5.96747 18.00000 27.44190
v -6.16875 18.88188 27.44190
v -6.73274 19.58910 27.44190
v -7.54772 19.98158 27.44190
v -8.45228 19.98158 27.44190
v -9.26726 19.58910 27.44190
v -9.83125 18.88188 27.44190
v -10.03253 18.00000 27.44190
v -9.83125 17.11812 27.44190
v -9.26726 16.41090 27.44190
v -8.45228 16.01842 27.44190
v -7.54772 16.01842 27.44190
v -6.73274 16.41090 27.44190
v -6.16875 17.11812 27.44190
v -5.80000 18.00000 26.60000
v -6.01787 18.95454 26.60000
v -6.62832 19.72003 26.60000
v -7.51045 20.14484 26.60000
v -8.48955 20.14484 26.60000
v -9.37168 19.72003 26.60000
v -9.98213 18.95454 26.60000
v -10.20000 18.00000 26.60000
v -9.98213 17.04546 26.60000
v -9.37168 16.27997 26.60000
v -8.48955 15.85516 26.60000
v -7.51045 15.85516 26.60000
v -6.62832 16.27997 26.60000
v -6.01787 17.04546 26.60000
v -5.96747 18.00000 25.75810
v -6.16875 18.88188 25.75810
v -6.73274 19.58910 25.75810
v -7.54772 19.98158 25.75810
v -8.45228 19.98158 25.75810
v -9.26726 19.58910 25.75810
v -9.83125 18.88188 25.75810
v -10.03253 18.00000 25.75810
v -9.83125 17.11812 25.75810
v -9.26726 16.41090 25.75810
v -8.45228 16.01842 25.75810
v -7.54772 16.01842 25.75810
v -6.73274 16.41090 25.75810
v -6.16875 17.11812 25.75810
v -6.44437 18.00000 25.04437
v -6.59842 18.67496 25.04437
v -7.03008 19.21624 25.04437
v -7.65384 19.51663 25.04437
v -8.34616 19.51663 25.04437
v -8.96992 19.21624 25.04437
v -9.40158 18.67496 25.04437
v -9.55563 18.00000 25.04437
v -9.40158 17.32504 25.04437
v -8.96992 16.78376 25.04437
v -8.34616 16.48337 25.04437
v -7.65384 16.48337 25.04437
v -7.03008 16.78376 25.04437
v -6.59842 17.32504 25.04437
v -7.15810 18.00000 24.56747
v -7.24147 18.36529 24.56747
v -7.47508 18.65823 24.56747
v -7.81266 18.82080 24.56747
v -8.18734 18.82080 24.56747
v -8.52492 18.65823 24.56747
v -8.75853 18.36529 24.56747
v -8.84190 18.00000 24.56747
v -8.75853 17.63471 24.56747
v -8.52492 17.34177 24.56747
v -8.18734 17.17920 24.56747
v -7.81266 17.17920 24.56747
v -7.47508 17.34177 24.56747
v -7.24147 17.63471 24.56747
v -8.00000 18.00000 24.40000
v 8.00000 18.00000 28.80000
v 8.84190 18.00000 28.63253
v 8.75853 18.36529 28.63253
v 8.52492 18.65823 28.63253
v 8.18734 18.82080 28.63253
v 7.81266 18.82080 28.63253
v 7.47508 18.65823 28.63253
v 7.24147 18.36529 28.63253
v 7.15810 18.00000 28.63253
v 7.24147 17.63471 28.63253
v 7.47508 17.34177 28.63253
v 7.81266 17.17920 28.63253
v 8.18734 17.17920 28.63253
v 8.52492 17.34177 28.63253
v 8.75853 17.63471 28.63253
v 9.55563 18.00000 28.15563
v 9.40158 18.67496 28.15563
v 8.96992 19.21624 28.15563
v 8.34616 19.51663 28.15563
v 7.65384 19.51663 28.15563
v 7.03008 19.21624 28.15563
v 6.59842 18.67496 28.15563
v 6.44437 18.00000 28.15563
v 6.59842 17.32504 28.15563
v 7.03008 16.78376 28.15563
v 7.65384 16.48337 28.15563
v 8.34616 16.48337 28.15563
v 8.96992 16.78376 28.15563
v 9.40158 17.32504 28.15563
v 10.03253 18.00000 27.44190
v 9.83125 18.88188 27.44190
v 9.26726 19.58910 27.44190
v 8.45228 19.98158 27.44190
v 7.54772 19.98158 27.44190
v 6.73274 19.58910 27.44190
v 6.16875 18.88188 27.44190
v 5.96747 18.00000 27.44190
v 6.16875 17.11812 27.44190
v 6.73274 16.41090 27.44190
v 7.54772 16.01842 27.44190
v 8.45228 16.01842 27.44190
v 9.26726 16.41090 27.44190
v 9.83125 17.11812 27.44190
v 10.20000 18.00000 26.60000
v 9.98213 18.95454 26.60000
v 9.37168 19.72003 26.60000
v 8.48955 20.14484 26.60000
v 7.51045 20.14484 26.60000
v 6.62832 19.72003 26.60000
v 6.01787 18.95454 26.60000
v 5.80000 18.00000 26.60000
v 6.01787 17.04546 26.60000
v 6.62832 16.27997 26.60000
v 7.51045 15.85516 26.60000
v 8.48955 15.85516 26.60000
v 9.37168 16.27997 26.60000
v 9.98213 17.04546 26.60000
v 10.03253 18.00000 25.75810
v 9.83125 18.88188 25.75810
v 9.26726 19.58910 25.75810
v 8.45228 19.98158 25.75810
v 7.54772 19.98158 25.75810
v 6.73274 19.58910 25.75810
v 6.16875 18.88188 25.75810
v 5.96747 18.00000 25.75810
v 6.16875 17.11812 25.75810
v 6.73274 16.41090 25.75810
v 7.54772 16.01842 25.75810
v 8.45228 16.01842 25.75810
v 9.26726 16.41090 25.75810
v 9.83125 17.11812 25.75810
v 9.55563 18.00000 25.04437
v 9.40158 18.67496 25.04437
v 8.96992 19.21624 25.04437
v 8.34616 19.51663 25.04437
v 7.65384 19.51663 25.04437
v 7.03008 19.21624 25.04437
v 6.59842 18.67496 25.04437
v 6.44437 18.00000 25.04437
v 6.59842 17.32504 25.04437
v 7.03008 16.78376 25.04437
v 7.65384 16.48337 25.04437
v 8.34616 16.48337 25.04437
v 8.96992 16.78376 25.04437
v 9.40158 17.32504 25.04437
v 8.84190 18.00000 24.56747
v 8.75853 18.36529 24.56747
v 8.52492 18.65823 24.56747
v 8.18734 18.82080 24.56747
v 7.81266 18.82080 24.56747
v 7.47508 18.65823 24.56747
v 7.24147 18.36529 24.56747
v 7.15810 18.00000 24.56747
v 7.24147 17.63471 24.56747
v 7.47508 17.34177 24.56747
v 7.81266 17.17920 24.56747
v 8.18734 17.17920 24.56747
v 8.52492 17.34177 24.56747
v 8.75853 17.63471 24.56747
v 8.00000 18.00000 24.40000
v 12.00000 44.50000 4.50000
v 11.97118 44.79264 4.50000
v 11.88582 45.07403 4.50000
v 11.74720 45.33336 4.50000
v 11.56066 45.56066 4.50000
v 11.33336 45.74720 4.50000
v 11.07403 45.88582 4.50000
v 10.79264 45.97118 4.50000
v 10.50000 46.00000 4.50000
v -10.50000 46.00000 4.50000
v -10.79264 45.97118 4.50000
v -11.07403 45.88582 4.50000
v -11.33336 45.74720 4.50000
v -11.56066 45.56066 4.50000
v -11.74720 45.33336 4.50000
v -11.88582 45.07403 4.50000
v -11.97118 44.79264 4.50000
v -12.00000 44.50000 4.50000
v -12.00000 43.50000 4.50000
v -11.97118 43.20736 4.50000
v -11.88582 42.92597 4.50000
v -11.74720 42.66664 4.50000
v -11.56066 42.43934 4.50000
v -11.33336 42.25280 4.50000
v -11.07403 42.11418 4.50000
v -10.79264 42.02882 4.50000
v -10.50000 42.00000 4.50000
v 10.50000 42.00000 4.50000
v 10.79264 42.02882 4.50000
v 11.07403 42.11418 4.50000
v 11.33336 42.25280 4.50000
v 11.56066 42.43934 4.50000
v 11.74720 42.66664 4.50000
v 11.88582 42.92597 4.50000
v 11.97118 43.20736 4.50000
v 12.00000 43.50000 4.50000
v 12.00000 44.50000 9.50000
v 11.97118 44.79264 9.50000
v 11.88582 45.07403 9.50000
v 11.74720 45.33336 9.50000
v 11.56066 45.56066 9.50000
v 11.33336 45.74720 9.50000
v 11.07403 45.88582 9.50000
v 10.79264 45.97118 9.50000
v 10.50000 46.00000 9.50000
v -10.50000 46.00000 9.50000
v -10.79264 45.97118 9.50000
v -11.07403 45.88582 9.50000
v -11.33336 45.74720 9.50000
v -11.56066 45.56066 9.50000
v -11.74720 45.33336 9.50000
v -11.88582 45.07403 9.50000
v -11.97118 44.79264 9.50000
v -12.00000 44.50000 9.50000
v -12.00000 43.50000 9.50000
v -11.97118 43.20736 9.50000
v -11.88582 42.92597 9.50000
v -11.74720 42.66664 9.50000
v -11.56066 42.43934 9.50000
v -11.33336 42.25280 9.50000
v -11.07403 42.11418 9.50000
v -10.79264 42.02882 9.50000
v -10.50000 42.00000 9.50000
v 10.50000 42.00000 9.50000
v 10.79264 42.02882 9.50000
v 11.07403 42.11418 9.50000
v 11.33336 42.25280 9.50000
v 11.56066 42.43934 9.50000
v 11.74720 42.66664 9.50000
v 11.88582 42.92597 9.50000
v 11.97118 43.20736 9.50000
v 12.00000 43.50000 9.50000
f 1 3 2
f 37 38 39
f 1 4 3
f 37 39 40
f 1 5 4
f 37 40 41
f 1 6 5
f 37 41 42
f 1 7 6
f 37 42 43
f 1 8 7
f 37 43 44
f 1 9 8
f 37 44 45
f 1 10 9
f 37 45 46
f 1 11 10
f 37 46 47
f 1 12 11
f 37 47 48
f 1 13 12
f 37 48 49
f 1 14 13
f 37 49 50
f 1 15 14
f 37 50 51
f 1 16 15
f 37 51 52
f 1 17 16
f 37 52 53
f 1 18 17
f 37 53 54
f 1 19 18
f 37 54 55
f 1 20 19
f 37 55 56
f 1 21 20
f 37 56 57
f 1 22 21
f 37 57 58
f 1 23 22
f 37 58 59
f 1 24 23
f 37 59 60
f 1 25 24
f 37 60 61
f 1 26 25
f 37 61 62
f 1 27 26
f 37 62 63
f 1 28 27
f 37 63 64
f 1 29 28
f 37 64 65
f 1 30 29
f 37 65 66
f 1 31 30
f 37 66 67
f 1 32 31
f 37 67 68
f 1 33 32
f 37 68 69
f 1 34 33
f 37 69 70
f 1 35 34
f 37 70 71
f 1 36 35
f 37 71 72
f 1 2 38
f 1 38 37
f 2 3 39
f 2 39 38
f 3 4 40
f 3 40 39
f 4 5 41
f 4 41 40
f 5 6 42
f 5 42 41
f 6 7 43
f 6 43 42
f 7 8 44
f 7 44 43
f 8 9 45
f 8 45 44
f 9 10 46
f 9 46 45
f 10 11 47
f 10 47 46
f 11 12 48
f 11 48 47
f 12 13 49
f 12 49 48
f 13 14 50
f 13 50 49
f 14 15 51
f 14 51 50
f 15 16 52
f 15 52 51
f 16 17 53
f 16 53 52
f 17 18 54
f 17 54 53
f 18 19 55
f 18 55 54
f 19 20 56
f 19 56 55
f 20 21 57
f 20 57 56
f 21 22 58
f 21 58 57
f 22 23 59
f 22 59 58
f 23 24 60
f 23 60 59
f 24 25 61
f 24 61 60
f 25 26 62
f 25 62 61
f 26 27 63
f 26 63 62
f 27 28 64
f 27 64 63
f 28 29 65
f 28 65 64
f 29 30 66
f 29 66 65
f 30 31 67
f 30 67 66
f 31 32 68
f 31 68 67
f 32 33 69
f 32 69 68
f 33 34 70
f 33 70 69
f 34 35 71
f 34 71 70
f 35 36 72
f 35 72 71
f 36 1 37
f 36 37 72
f 73 75 74
f 73 76 75
f 73 77 76
f 73 78 77
f 73 79 78
f 73 80 79
f 73 81 80
f 73 82 81
f 73 83 82
f 73 84 83
f 73 85 84
f 73 86 85
f 73 87 86
f 73 88 87
f 73 89 88
f 73 74 89
f 74 75 91
f 74 91 90
f 75 76 92
f 75 92 91
f 76 77 93
f 76 93 92
f 77 78 94
f 77 94 93
f 78 79 95
f 78 95 94
f 79 80 96
f 79 96 95
f 80 81 97
f 80 97 96
f 81 82 98
f 81 98 97
f 82 83 99
f 82 99 98
f 83 84 100
f 83 100 99
f 84 85 101
f 84 101 100
f 85 86 102
f 85 102 101
f 86 87 103
f 86 103 102
f 87 88 104
f 87 104 103
f 88 89 105
f 88 105 104
f 89 74 90
f 89 90 105
f 90 91 107
f 90 107 106
f 91 92 108
f 91 108 107
f 92 93 109
f 92 109 108
f 93 94 110
f 93 110 109
f 94 95 111
f 94 111 110
f 95 96 112
f 95 112 111
f 96 97 113
f 96 113 112
f 97 98 114
f 97 114 113
f 98 99 115
f 98 115 114
f 99 100 116
f 99 116 115
f 100 101 117
f 100 117 116
f 101 102 118
f 101 118 117
f 102 103 119
f 102 119 118
f 103 104 120
f 103 120 119
f 104 105 121
f 104 121 120
f 105 90 106
f 105 106 121
f 106 107 123
f 106 123 122
f 107 108 124
f 107 124 123
f 108 109 125
f 108 125 124
f 109 110 126
f 109 126 125
f 110 111 127
f 110 127 126
f 111 112 128
f 111 128 127
f 112 113 129
f 112 129 128
f 113 114 130
f 113 130 129
f 114 115 131
f 114 131 130
f 115 116 132
f 115 132 131
f 116 117 133
f 116 133 132
f 117 118 134
f 117 134 133
f 118 119 135
f 118 135 134
f 119 120 136
f 119 136 135
f 120 121 137
f 120 137 136
f 121 106 122
f 121 122 137
f 122 123 139
f 122 139 138
f 123 124 140
f 123 140 139
f 124 125 141
f 124 141 140
f 125 126 142
f 125 142 141
f 126 127 143
f 126 143 142
f 127 128 144
f 127 144 143
f 128 129 145
f 128 145 144
f 129 130 146
f 129 146 145
f 130 131 147
f 130 147 146
f 131 132 148
f 131 148 147
f 132 133 149
f 132 149 148
f 133 134 150
f 133 150 149
f 134 135 151
f 134 151 150
f 135 136 152
f 135 152 151
f 136 137 153
f 136 153 152
f 137 122 138
f 137 138 153
f 138 139 155
f 138 155 154
f 139 140 156
f 139 156 155
f 140 141 157
f 140 157 156
f 141 142 158
f 141 158 157
f 142 143 159
f 142 159 158
f 143 144 160
f 143 160 159
f 144 145 161
f 144 161 160
f 145 146 162
f 145 162 161
f 146 147 163
f 146 163 162
f 147 148 164
f 147 164 163
f 148 149 165
f 148 165 164
f 149 150 166
f 149 166 165
f 150 151 167
f 150 167 166
f 151 152 168
f 151 168 167
f 152 153 169
f 152 169 168
f 153 138 154
f 153 154 169
f 154 155 171
f 154 171 170
f 155 156 172
f 155 172 171
f 156 157 173
f 156 173 172
f 157 158 174
f 157 174 173
f 158 159 175
f 158 175 174
f 159 160 176
f 159 176 175
f 160 161 177
f 160 177 176
f 161 162 178
f 161 178 177
f 162 163 179
f 162 179 178
f 163 164 180
f 163 180 179
f 164 165 181
f 164 181 180
f 165 166 182
f 165 182 181
f 166 167 183
f 166 183 182
f 167 168 184
f 167 184 183
f 168 169 185
f 168 185 184
f 169 154 170
f 169 170 185
f 170 171 186
f 171 172 186
f 172 173 186
f 173 174 186
f 174 175 186
f 175 176 186
f 176 177 186
f 177 178 186
f 178 179 186
f 179 180 186
f 180 181 186
f 181 182 186
f 182 183 186
f 183 184 186
f 184 185 186
f 185 170 186
f 187 189 188
f 187 190 189
f 187 191 190
f 187 192 191
f 187 193 192
f 187 194 193
f 187 195 194
f 187 196 195
f 187 197 196
f 187 198 197
f 187 199 198
f 187 200 199
f 187 201 200
f 187 202 201
f 187 203 202
f 187 188 203
f 188 189 205
f 188 205 204
f 189 190 206
f 189 206 205
f 190 191 207
f 190 207 206
f 191 192 208
f 191 208 207
f 192 193 209
f 192 209 208
f 193 194 210
f 193 210 209
f 194 195 211
f 194 211 210
f 195 196 212
f 195 212 211
f 196 197 213
f 196 213 212
f 197 198 214
f 197 214 213
f 198 199 215
f 198 215 214
f 199 200 216
f 199 216 215
f 200 201 217
f 200 217 216
f 201 202 218
f 201 218 217
f 202 203 219
f 202 219 218
f 203 188 204
f 203 204 219
f 204 205 221
f 204 221 220
f 205 206 222
f 205 222 221
f 206 207 223
f 206 223 222
f 207 208 224
f 207 224 223
f 208 209 225
f 208 225 224
f 209 210 226
f 209 226 225
f 210 211 227
f 210 227 226
f 211 212 228
f 211 228 227
f 212 213 229
f 212 229 228
f 213 214 230
f 213 230 229
f 214 215 231
f 214 231 230
f 215 216 232
f 215 232 231
f 216 217 233
f 216 233 232
f 217 218 234
f 217 234 233
f 218 219 235
f 218 235 234
f 219 204 220
f 219 220 235
f 220 221 237
f 220 237 236
f 221 222 238
f 221 238 237
f 222 223 239
f 222 239 238
f 223 224 240
f 223 240 239
f 224 225 241
f 224 241 240
f 225 226 242
f 225 242 241
f 226 227 243
f 226 243 242
f 227 228 244
f 227 244 243
f 228 229 245
f 228 245 244
f 229 230 246
f 229 246 245
f 230 231 247
f 230 247 246
f 231 232 248
f 231 248 247
f 232 233 249
f 232 249 248
f 233 234 250
f 233 250 249
f 234 235 251
f 234 251 250
f 235 220 236
f 235 236 251
f 236 237 253
f 236 253 252
f 237 238 254
f 237 254 253
f 238 239 255
f 238 255 254
f 239 240 256
f 239 256 255
f 240 241 257
f 240 257 256
f 241 242 258
f 241 258 257
f 242 243 259
f 242 259 258
f 243 244 260
f 243 260 259
f 244 245 261
f 244 261 260
f 245 246 262
f 245 262 261
f 246 247 263
f 246 263 262
f 247 248 264
f 247 264 263
f 248 249 265
f 248 265 264
f 249 250 266
f 249 266 265
f 250 251 267
f 250 267 266
f 251 236 252
f 251 252 267
f 252 253 269
f 252 269 268
f 253 254 270
f 253 270 269
f 254 255 271
f 254 271 270
f 255 256 272
f 255 272 271
f 256 257 273
f 256 273 272
f 257 258 274
f 257 274 273
f 258 259 275
f 258 275 274
f 259 260 276
f 259 276 275
f 260 261 277
f 260 277 276
f 261 262 278
f 261 278 277
f 262 263 279
f 262 279 278
f 263 264 280
f 263 280 279
f 264 265 281
f 264 281 280
f 265 266 282
f 265 282 281
f 266 267 283
f 266 283 282
f 267 252 268
f 267 268 283
f 268 269 285
f 268 285 284
f 269 270 286
f 269 286 285
f 270 271 287
f 270 287 286
f 271 272 288
f 271 288 287
f 272 273 289
f 272 289 288
f 273 274 290
f 273 290 289
f 274 275 291
f 274 291 290
f 275 276 292
f 275 292 291
f 276 277 293
f 276 293 292
f 277 278 294
f 277 294 293
f 278 279 295
f 278 295 294
f 279 280 296
f 279 296 295
f 280 281 297
f 280 297 296
f 281 282 298
f 281 298 297
f 282 283 299
f 282 299 298
f 283 268 284
f 283 284 299
f 284 285 300
f 285 286 300
f 286 287 300
f 287 288 300
f 288 289 300
f 289 290 300
f 290 291 300
f 291 292 300
f 292 293 300
f 293 294 300
f 294 295 300
f 295 296 300
f 296 297 300
f 297 298 300
f 298 299 300
f 299 284 300
f 301 303 302
f 301 304 303
f 301 305 304
f 301 306 305
f 301 307 306
f 301 308 307
f 301 309 308
f 301 310 309
f 301 311 310
f 301 312 311
f 301 313 312
f 301 314 313
f 301 315 314
f 301 316 315
f 301 317 316
f 301 302 317
f 302 303 319
f 302 319 318
f 303 304 320
f 303 320 319
f 304 305 321
f 304 321 320
f 305 306 322
f 305 322 321
f 306 307 323
f 306 323 322
f 307 308 324
f 307 324 323
f 308 309 325
f 308 325 324
f 309 310 326
f 309 326 325
f 310 311 327
f 310 327 326
f 311 312 328
f 311 328 327
f 312 313 329
f 312 329 328
f 313 314 330
f 313 330 329
f 314 315 331
f 314 331 330
f 315 316 332
f 315 332 331
f 316 317 333
f 316 333 332
f 317 302 318
f 317 318 333
f 318 319 335
f 318 335 334
f 319 320 336
f 319 336 335
f 320 321 337
f 320 337 336
f 321 322 338
f 321 338 337
f 322 323 339
f 322 339 338
f 323 324 340
f 323 340 339
f 324 325 341
f 324 341 340
f 325 326 342
f 325 342 341
f 326 327 343
f 326 343 342
f 327 328 344
f 327 344 343
f 328 329 345
f 328 345 344
f 329 330 346
f 329 346 345
f 330 331 347
f 330 347 346
f 331 332 348
f 331 348 347
f 332 333 349
f 332 349 348
f 333 318 334
f 333 334 349
f 334 335 351
f 334 351 350
f 335 336 352
f 335 352 351
f 336 337 353
f 336 353 352
f 337 338 354
f 337 354 353
f 338 339 355
f 338 355 354
f 339 340 356
f 339 356 355
f 340 341 357
f 340 357 356
f 341 342 358
f 341 358 357
f 342 343 359
f 342 359 358
f 343 344 360
f 343 360 359
f 344 345 361
f 344 361 360
f 345 346 362
f 345 362 361
f 346 347 363
f 346 363 362
f 347 348 364
f 347 364 363
f 348 349 365
f 348 365 364
f 349 334 350
f 349 350 365
f 350 351 367
f 350 367 366
f 351 352 368
f 351 368 367
f 352 353 369
f 352 369 368
f 353 354 370
f 353 370 369
f 354 355 371
f 354 371 370
f 355 356 372
f 355 372 371
f 356 357 373
f 356 373 372
f 357 358 374
f 357 374 373
f 358 359 375
f 358 375 374
f 359 360 376
f 359 376 375
f 360 361 377
f 360 377 376
f 361 362 378
f 361 378 377
f 362 363 379
f 362 379 378
f 363 364 380
f 363 380 379
f 364 365 381
f 364 381 380
f 365 350 366
f 365 366 381
f 366 367 383
f 366 383 382
f 367 368 384
f 367 384 383
f 368 369 385
f 368 385 384
f 369 370 386
f 369 386 385
f 370 371 387
f 370 387 386
f 371 372 388
f 371 388 387
f 372 373 389
f 372 389 388
f 373 374 390
f 373 390 389
f 374 375 391
f 374 391 390
f 375 376 392
f 375 392 391
f 376 377 393
f 376 393 392
f 377 378 394
f 377 394 393
f 378 379 395
f 378 395 394
f 379 380 396
f 379 396 395
f 380 381 397
f 380 397 396
f 381 366 382
f 381 382 397
f 382 383 399
f 382 399 398
f 383 384 400
f 383 400 399
f 384 385 401
f 384 401 400
f 385 386 402
f 385 402 401
f 386 387 403
f 386 403 402
f 387 388 404
f 387 404 403
f 388 389 405
f 388 405 404
f 389 390 406
f 389 406 405
f 390 391 407
f 390 407 406
f 391 392 408
f 391 408 407
f 392 393 409
f 392 409 408
f 393 394 410
f 393 410 409
f 394 395 411
f 394 411 410
f 395 396 412
f 395 412 411
f 396 397 413
f 396 413 412
f 397 382 398
f 397 398 413
f 398 399 414
f 399 400 414
f 400 401 414
f 401 402 414
f 402 403 414
f 403 404 414
f 404 405 414
f 405 406 414
f 406 407 414
f 407 408 414
f 408 409 414
f 409 410 414
f 410 411 414
f 411 412 414
f 412 413 414
f 413 398 414
f 415 417 416
f 415 418 417
f 415 419 418
f 415 420 419
f 415 421 420
f 415 422 421
f 415 423 422
f 415 424 423
f 415 425 424
f 415 426 425
f 415 427 426
f 415 428 427
f 415 429 428
f 415 430 429
f 415 431 430
f 415 416 431
f 416 417 433
f 416 433 432
f 417 418 434
f 417 434 433
f 418 419 435
f 418 435 434
f 419 420 436
f 419 436 435
f 420 421 437
f 420 437 436
f 421 422 438
f 421 438 437
f 422 423 439
f 422 439 438
f 423 424 440
f 423 440 439
f 424 425 441
f 424 441 440
f 425 426 442
f 425 442 441
f 426 427 443
f 426 443 442
f 427 428 444
f 427 444 443
f 428 429 445
f 428 445 444
f 429 430 446
f 429 446 445
f 430 431 447
f 430 447 446
f 431 416 432
f 431 432 447
f 432 433 449
f 432 449 448
f 433 434 450
f 433 450 449
f 434 435 451
f 434 451 450
f 435 436 452
f 435 452 451
f 436 437 453
f 436 453 452
f 437 438 454
f 437 454 453
f 438 439 455
f 438 455 454
f 439 440 456
f 439 456 455
f 440 441 457
f 440 457 456
f 441 442 458
f 441 458 457
f 442 443 459
f 442 459 458
f 443 444 460
f 443 460 459
f 444 445 461
f 444 461 460
f 445 446 462
f 445 462 461
f 446 447 463
f 446 463 462
f 447 432 448
f 447 448 463
f 448 449 465
f 448 465 464
f 449 450 466
f 449 466 465
f 450 451 467
f 450 467 466
f 451 452 468
f 451 468 467
f 452 453 469
f 452 469 468
f 453 454 470
f 453 470 469
f 454 455 471
f 454 471 470
f 455 456 472
f 455 472 471
f 456 457 473
f 456 473 472
f 457 458 474
f 457 474 473
f 458 459 475
f 458 475 474
f 459 460 476
f 459 476 475
f 460 461 477
f 460 477 476
f 461 462 478
f 461 478 477
f 462 463 479
f 462 479 478
f 463 448 464
f 463 464 479
f 464 465 481
f 464 481 480
f 465 466 482
f 465 482 481
f 466 467 483
f 466 483 482
f 467 468 484
f 467 484 483
f 468 469 485
f 468 485 484
f 469 470 486
f 469 486 485
f 470 471 487
f 470 487 486
f 471 472 488
f 471 488 487
f 472 473 489
f 472 489 488
f 473 474 490
f 473 490 489
f 474 475 491
f 474 491 490
f 475 476 492
f 475 492 491
f 476 477 493
f 476 493 492
f 477 478 494
f 477 494 493
f 478 479 495
f 478 495 494
f 479 464 480
f 479 480 495
f 480 481 497
f 480 497 496
f 481 482 498
f 481 498 497
f 482 483 499
f 482 499 498
f 483 484 500
f 483 500 499
f 484 485 501
f 484 501 500
f 485 486 502
f 485 502 501
f 486 487 503
f 486 503 502
f 487 488 504
f 487 504 503
f 488 489 505
f 488 505 504
f 489 490 506
f 489 506 505
f 490 491 507
f 490 507 506
f 491 492 508
f 491 508 507
f 492 493 509
f 492 509 508
f 493 494 510
f 493 510 509
f 494 495 511
f 494 511 510
f 495 480 496
f 495 496 511
f 496 497 513
f 496 513 512
f 497 498 514
f 497 514 513
f 498 499 515
f 498 515 514
f 499 500 516
f 499 516 515
f 500 501 517
f 500 517 516
f 501 502 518
f 501 518 517
f 502 503 519
f 502 519 518
f 503 504 520
f 503 520 519
f 504 505 521
f 504 521 520
f 505 506 522
f 505 522 521
f 506 507 523
f 506 523 522
f 507 508 524
f 507 524 523
f 508 509 525
f 508 525 524
f 509 510 526
f 509 526 525
f 510 511 527
f 510 527 526
f 511 496 512
f 511 512 527
f 512 513 528
f 513 514 528
f 514 515 528
f 515 516 528
f 516 517 528
f 517 518 528
f 518 519 528
f 519 520 528
f 520 521 528
f 521 522 528
f 522 523 528
f 523 524 528
f 524 525 528
f 525 526 528
f 526 527 528
f 527 512 528
f 529 531 530
f 529 532 531
f 529 533 532
f 529 534 533
f 529 535 534
f 529 536 535
f 529 537 536
f 529 538 537
f 529 539 538
f 529 540 539
f 529 541 540
f 529 542 541
f 529 543 542
f 529 544 543
f 529 545 544
f 529 530 545
f 530 531 547
f 530 547 546
f 531 532 548
f 531 548 547
f 532 533 549
f 532 549 548
f 533 534 550
f 533 550 549
f 534 535 551
f 534 551 550
f 535 536 552
f 535 552 551
f 536 537 553
f 536 553 552
f 537 538 554
f 537 554 553
f 538 539 555
f 538 555 554
f 539 540 556
f 539 556 555
f 540 541 557
f 540 557 556
f 541 542 558
f 541 558 557
f 542 543 559
f 542 559 558
f 543 544 560
f 543 560 559
f 544 545 561
f 544 561 560
f 545 530 546
f 545 546 561
f 546 547 563
f 546 563 562
f 547 548 564
f 547 564 563
f 548 549 565
f 548 565 564
f 549 550 566
f 549 566 565
f 550 551 567
f 550 567 566
f 551 552 568
f 551 568 567
f 552 553 569
f 552 569 568
f 553 554 570
f 553 570 569
f 554 555 571
f 554 571 570
f 555 556 572
f 555 572 571
f 556 557 573
f 556 573 572
f 557 558 574
f 557 574 573
f 558 559 575
f 558 575 574
f 559 560 576
f 559 576 575
f 560 561 577
f 560 577 576
f 561 546 562
f 561 562 577
f 562 563 579
f 562 579 578
f 563 564 580
f 563 580 579
f 564 565 581
f 564 581 580
f 565 566 582
f 565 582 581
f 566 567 583
f 566 583 582
f 567 568 584
f 567 584 583
f 568 569 585
f 568 585 584
f 569 570 586
f 569 586 585
f 570 571 587
f 570 587 586
f 571 572 588
f 571 588 587
f 572 573 589
f 572 589 588
f 573 574 590
f 573 590 589
f 574 575 591
f 574 591 590
f 575 576 592
f 575 592 591
f 576 577 593
f 576 593 592
f 577 562 578
f 577 578 593
f 578 579 595
f 578 595 594
f 579 580 596
f 579 596 595
f 580 581 597
f 580 597 596
f 581 582 598
f 581 598 597
f 582 583 599
f 582 599 598
f 583 584 600
f 583 600 599
f 584 585 601
f 584 601 600
f 585 586 602
f 585 602 601
f 586 587 603
f 586 603 602
f 587 588 604
f 587 604 603
f 588 589 605
f 588 605 604
f 589 590 606
f 589 606 605
f 590 591 607
f 590 607 606
f 591 592 608
f 591 608 607
f 592 593 609
f 592 609 608
f 593 578 594
f 593 594 609
f 594 595 611
f 594 611 610
f 595 596 612
f 595 612 611
f 596 597 613
f 596 613 612
f 597 598 614
f 597 614 613
f 598 599 615
f 598 615 614
f 599 600 616
f 599 616 615
f 600 601 617
f 600 617 616
f 601 602 618
f 601 618 617
f 602 603 619
f 602 619 618
f 603 604 620
f 603 620 619
f 604 605 621
f 604 621 620
f 605 606 622
f 605 622 621
f 606 607 623
f 606 623 622
f 607 608 624
f 607 624 623
f 608 609 625
f 608 625 624
f 609 594 610
f 609 610 625
f 610 611 627
f 610 627 626
f 611 612 628
f 611 628 627
f 612 613 629
f 612 629 628
f 613 614 630
f 613 630 629
f 614 615 631
f 614 631 630
f 615 616 632
f 615 632 631
f 616 617 633
f 616 633 632
f 617 618 634
f 617 634 633
f 618 619 635
f 618 635 634
f 619 620 636
f 619 636 635
f 620 621 637
f 620 637 636
f 621 622 638
f 621 638 637
f 622 623 639
f 622 639 638
f 623 624 640
f 623 640 639
f 624 625 641
f 624 641 640
f 625 610 626
f 625 626 641
f 626 627 642
f 627 628 642
f 628 629 642
f 629 630 642
f 630 631 642
f 631 632 642
f 632 633 642
f 633 634 642
f 634 635 642
f 635 636 642
f 636 637 642
f 637 638 642
f 638 639 642
f 639 640 642
f 640 641 642
f 641 626 642
f 643 645 644
f 643 646 645
f 643 647 646
f 643 648 647
f 643 649 648
f 643 650 649
f 643 651 650
f 643 652 651
f 643 653 652
f 643 654 653
f 643 655 654
f 643 656 655
f 643 657 656
f 643 658 657
f 643 659 658
f 643 644 659
f 644 645 661
f 644 661 660
f 645 646 662
f 645 662 661
f 646 647 663
f 646 663 662
f 647 648 664
f 647 664 663
f 648 649 665
f 648 665 664
f 649 650 666
f 649 666 665
f 650 651 667
f 650 667 666
f 651 652 668
f 651 668 667
f 652 653 669
f 652 669 668
f 653 654 670
f 653 670 669
f 654 655 671
f 654 671 670
f 655 656 672
f 655 672 671
f 656 657 673
f 656 673 672
f 657 658 674
f 657 674 673
f 658 659 675
f 658 675 674
f 659 644 660
f 659 660 675
f 660 661 677
f 660 677 676
f 661 662 678
f 661 678 677
f 662 663 679
f 662 679 678
f 663 664 680
f 663 680 679
f 664 665 681
f 664 681 680
f 665 666 682
f 665 682 681
f 666 667 683
f 666 683 682
f 667 668 684
f 667 684 683
f 668 669 685
f 668 685 684
f 669 670 686
f 669 686 685
f 670 671 687
f 670 687 686
f 671 672 688
f 671 688 687
f 672 673 689
f 672 689 688
f 673 674 690
f 673 690 689
f 674 675 691
f 674 691 690
f 675 660 676
f 675 676 691
f 676 677 693
f 676 693 692
f 677 678 694
f 677 694 693
f 678 679 695
f 678 695 694
f 679 680 696
f 679 696 695
f 680 681 697
f 680 697 696
f 681 682 698
f 681 698 697
f 682 683 699
f 682 699 698
f 683 684 700
f 683 700 699
f 684 685 701
f 684 701 700
f 685 686 702
f 685 702 701
f 686 687 703
f 686 703 702
f 687 688 704
f 687 704 703
f 688 689 705
f 688 705 704
f 689 690 706
f 689 706 705
f 690 691 707
f 690 707 706
f 691 676 692
f 691 692 707
f 692 693 709
f 692 709 708
f 693 694 710
f 693 710 709
f 694 695 711
f 694 711 710
f 695 696 712
f 695 712 711
f 696 697 713
f 696 713 712
f 697 698 714
f 697 714 713
f 698 699 715
f 698 715 714
f 699 700 716
f 699 716 715
f 700 701 717
f 700 717 716
f 701 702 718
f 701 718 717
f 702 703 719
f 702 719 718
f 703 704 720
f 703 720 719
f 704 705 721
f 704 721 720
f 705 706 722
f 705 722 721
f 706 707 723
f 706 723 722
f 707 692 708
f 707 708 723
f 708 709 725
f 708 725 724
f 709 710 726
f 709 726 725
f 710 711 727
f 710 727 726
f 711 712 728
f 711 728 727
f 712 713 729
f 712 729 728
f 713 714 730
f 713 730 729
f 714 715 731
f 714 731 730
f 715 716 732
f 715 732 731
f 716 717 733
f 716 733 732
f 717 718 734
f 717 734 733
f 718 719 735
f 718 735 734
f 719 720 736
f 719 736 735
f 720 721 737
f 720 737 736
f 721 722 738
f 721 738 737
f 722 723 739
f 722 739 738
f 723 708 724
f 723 724 739
f 724 725 741
f 724 741 740
f 725 726 742
f 725 742 741
f 726 727 743
f 726 743 742
f 727 728 744
f 727 744 743
f 728 729 745
f 728 745 744
f 729 730 746
f 729 746 745
f 730 731 747
f 730 747 746
f 731 732 748
f 731 748 747
f 732 733 749
f 732 749 748
f 733 734 750
f 733 750 749
f 734 735 751
f 734 751 750
f 735 736 752
f 735 752 751
f 736 737 753
f 736 753 752
f 737 738 754
f 737 754 753
f 738 739 755
f 738 755 754
f 739 724 740
f 739 740 755
f 740 741 756
f 741 742 756
f 742 743 756
f 743 744 756
f 744 745 756
f 745 746 756
f 746 747 756
f 747 748 756
f 748 749 756
f 749 750 756
f 750 751 756
f 751 752 756
f 752 753 756
f 753 754 756
f 754 755 756
f 755 740 756
f 757 759 758
f 793 794 795
f 757 760 759
f 793 795 796
f 757 761 760
f 793 796 797
f 757 762 761
f 793 797 798
f 757 763 762
f 793 798 799
f 757 764 763
f 793 799 800
f 757 765 764
f 793 800 801
f 757 766 765
f 793 801 802
f 757 767 766
f 793 802 803
f 757 768 767
f 793 803 804
f 757 769 768
f 793 804 805
f 757 770 769
f 793 805 806
f 757 771 770
f 793 806 807
f 757 772 771
f 793 807 808
f 757 773 772
f 793 808 809
f 757 774 773
f 793 809 810
f 757 775 774
f 793 810 811
f 757 776 775
f 793 811 812
f 757 777 776
f 793 812 813
f 757 778 777
f 793 813 814
f 757 779 778
f 793 814 815
f 757 780 779
f 793 815 816
f 757 781 780
f 793 816 817
f 757 782 781
f 793 817 818
f 757 783 782
f 793 818 819
f 757 784 783
f 793 819 820
f 757 785 784
f 793 820 821
f 757 786 785
f 793 821 822
f 757 787 786
f 793 822 823
f 757 788 787
f 793 823 824
f 757 789 788
f 793 824 825
f 757 790 789
f 793 825 826
f 757 791 790
f 793 826 827
f 757 792 791
f 793 827 828
f 757 758 794
f 757 794 793
f 758 759 795
f 758 795 794
f 759 760 796
f 759 796 795
f 760 761 797
f 760 797 796
f 761 762 798
f 761 798 797
f 762 763 799
f 762 799 798
f 763 764 800
f 763 800 799
f 764 765 801
f 764 801 800
f 765 766 802
f 765 802 801
f 766 767 803
f 766 803 802
f 767 768 804
f 767 804 803
f 768 769 805
f 768 805 804
f 769 770 806
f 769 806 805
f 770 771 807
f 770 807 806
f 771 772 808
f 771 808 807
f 772 773 809
f 772 809 808
f 773 774 810
f 773 810 809
f 774 775 811
f 774 811 810
f 775 776 812
f 775 812 811
f 776 777 813
f 776 813 812
f 777 778 814
f 777 814 813
f 778 779 815
f 778 815 814
f 779 780 816
f 779 816 815
f 780 781 817
f 780 817 816
f 781 782 818
f 781 818 817
f 782 783 819
f 782 819 818
f 783 784 820
f 783 820 819
f 784 785 821
f 784 821 820
f 785 786 822
f 785 822 821
f 786 787 823
f 786 823 822
f 787 788 824
f 787 824 823
f 788 789 825
f 788 825 824
f 789 790 826
f 789 826 825
f 790 791 827
f 790 827 826
f 791 792 828
f 791 828 827
f 792 757 793
f 792 793 828
f 829 830 844
f 829 844 843
f 857 830 829
f 858 843 844
f 830 831 845
f 830 845 844
f 857 831 830
f 858 844 845
f 831 832 846
f 831 846 845
f 857 832 831
f 858 845 846
f 832 833 847
f 832 847 846
f 857 833 832
f 858 846 847
f 833 834 848
f 833 848 847
f 857 834 833
f 858 847 848
f 834 835 849
f 834 849 848
f 857 835 834
f 858 848 849
f 835 836 850
f 835 850 849
f 857 836 835
f 858 849 850
f 836 837 851
f 836 851 850
f 857 837 836
f 858 850 851
f 837 838 852
f 837 852 851
f 857 838 837
f 858 851 852
f 838 839 853
f 838 853 852
f 857 839 838
f 858 852 853
f 839 840 854
f 839 854 853
f 857 840 839
f 858 853 854
f 840 841 855
f 840 855 854
f 857 841 840
f 858 854 855
f 841 842 856
f 841 856 855
f 857 842 841
f 858 855 856
f 842 829 843
f 842 843 856
f 857 829 842
f 858 856 843
f 859 861 860
f 859 862 861
f 859 863 862
f 859 864 863
f 859 865 864
f 859 866 865
f 859 867 866
f 859 868 867
f 859 869 868
f 859 870 869
f 859 871 870
f 859 872 871
f 859 873 872
f 859 860 873
f 860 861 875
f 860 875 874
f 861 862 876
f 861 876 875
f 862 863 877
f 862 877 876
f 863 864 878
f 863 878 877
f 864 865 879
f 864 879 878
f 865 866 880
f 865 880 879
f 866 867 881
f 866 881 880
f 867 868 882
f 867 882 881
f 868 869 883
f 868 883 882
f 869 870 884
f 869 884 883
f 870 871 885
f 870 885 884
f 871 872 886
f 871 886 885
f 872 873 887
f 872 887 886
f 873 860 874
f 873 874 887
f 874 875 889
f 874 889 888
f 875 876 890
f 875 890 889
f 876 877 891
f 876 891 890
f 877 878 892
f 877 892 891
f 878 879 893
f 878 893 892
f 879 880 894
f 879 894 893
f 880 881 895
f 880 895 894
f 881 882 896
f 881 896 895
f 882 883 897
f 882 897 896
f 883 884 898
f 883 898 897
f 884 885 899
f 884 899 898
f 885 886 900
f 885 900 899
f 886 887 901
f 886 901 900
f 887 874 888
f 887 888 901
f 888 889 903
f 888 903 902
f 889 890 904
f 889 904 903
f 890 891 905
f 890 905 904
f 891 892 906
f 891 906 905
f 892 893 907
f 892 907 906
f 893 894 908
f 893 908 907
f 894 895 909
f 894 909 908
f 895 896 910
f 895 910 909
f 896 897 911
f 896 911 910
f 897 898 912
f 897 912 911
f 898 899 913
f 898 913 912
f 899 900 914
f 899 914 913
f 900 901 915
f 900 915 914
f 901 888 902
f 901 902 915
f 902 903 917
f 902 917 916
f 903 904 918
f 903 918 917
f 904 905 919
f 904 919 918
f 905 906 920
f 905 920 919
f 906 907 921
f 906 921 920
f 907 908 922
f 907 922 921
f 908 909 923
f 908 923 922
f 909 910 924
f 909 924 923
f 910 911 925
f 910 925 924
f 911 912 926
f 911 926 925
f 912 913 927
f 912 927 926
f 913 914 928
f 913 928 927
f 914 915 929
f 914 929 928
f 915 902 916
f 915 916 929
f 916 917 931
f 916 931 930
f 917 918 932
f 917 932 931
f 918 919 933
f 918 933 932
f 919 920 934
f 919 934 933
f 920 921 935
f 920 935 934
f 921 922 936
f 921 936 935
f 922 923 937
f 922 937 936
f 923 924 938
f 923 938 937
f 924 925 939
f 924 939 938
f 925 926 940
f 925 940 939
f 926 927 941
f 926 941 940
f 927 928 942
f 927 942 941
f 928 929 943
f 928 943 942
f 929 916 930
f 929 930 943
f 930 931 945
f 930 945 944
f 931 932 946
f 931 946 945
f 932 933 947
f 932 947 946
f 933 934 948
f 933 948 947
f 934 935 949
f 934 949 948
f 935 936 950
f 935 950 949
f 936 937 951
f 936 951 950
f 937 938 952
f 937 952 951
f 938 939 953
f 938 953 952
f 939 940 954
f 939 954 953
f 940 941 955
f 940 955 954
f 941 942 956
f 941 956 955
f 942 943 957
f 942 957 956
f 943 930 944
f 943 944 957
f 944 945 958
f 945 946 958
f 946 947 958
f 947 948 958
f 948 949 958
f 949 950 958
f 950 951 958
f 951 952 958
f 952 953 958
f 953 954 958
f 954 955 958
f 955 956 958
f 956 957 958
f 957 944 958
f 959 961 960
f 959 962 961
f 959 963 962
f 959 964 963
f 959 965 964
f 959 966 965
f 959 967 966
f 959 968 967
f 959 969 968
f 959 970 969
f 959 971 970
f 959 972 971
f 959 973 972
f 959 960 973
f 960 961 975
f 960 975 974
f 961 962 976
f 961 976 975
f 962 963 977
f 962 977 976
f 963 964 978
f 963 978 977
f 964 965 979
f 964 979 978
f 965 966 980
f 965 980 979
f 966 967 981
f 966 981 980
f 967 968 982
f 967 982 981
f 968 969 983
f 968 983 982
f 969 970 984
f 969 984 983
f 970 971 985
f 970 985 984
f 971 972 986
f 971 986 985
f 972 973 987
f 972 987 986
f 973 960 974
f 973 974 987
f 974 975 989
f 974 989 988
f 975 976 990
f 975 990 989
f 976 977 991
f 976 991 990
f 977 978 992
f 977 992 991
f 978 979 993
f 978 993 992
f 979 980 994
f 979 994 993
f 980 981 995
f 980 995 994
f 981 982 996
f 981 996 995
f 982 983 997
f 982 997 996
f 983 984 998
f 983 998 997
f 984 985 999
f 984 999 998
f 985 986 1000
f 985 1000 999
f 986 987 1001
f 986 1001 1000
f 987 974 988
f 987 988 1001
f 988 989 1003
f 988 1003 1002
f 989 990 1004
f 989 1004 1003
f 990 991 1005
f 990 1005 1004
f 991 992 1006
f 991 1006 1005
f 992 993 1007
f 992 1007 1006
f 993 994 1008
f 993 1008 1007
f 994 995 1009
f 994 1009 1008
f 995 996 1010
f 995 1010 1009
f 996 997 1011
f 996 1011 1010
f 997 998 1012
f 997 1012 1011
f 998 999 1013
f 998 1013 1012
f 999 1000 1014
f 999 1014 1013
f 1000 1001 1015
f 1000 1015 1014
f 1001 988 1002
f 1001 1002 1015
f 1002 1003 1017
f 1002 1017 1016
f 1003 1004 1018
f 1003 1018 1017
f 1004 1005 1019
f 1004 1019 1018
f 1005 1006 1020
f 1005 1020 1019
f 1006 1007 1021
f 1006 1021 1020
f 1007 1008 1022
f 1007 1022 1021
f 1008 1009 1023
f 1008 1023 1022
f 1009 1010 1024
f 1009 1024 1023
f 1010 1011 1025
f 1010 1025 1024
f 1011 1012 1026
f 1011 1026 1025
f 1012 1013 1027
f 1012 1027 1026
f 1013 1014 1028
f 1013 1028 1027
f 1014 1015 1029
f 1014 1029 1028
f 1015 1002 1016
f 1015 1016 1029
f 1016 1017 1031
f 1016 1031 1030
f 1017 1018 1032
f 1017 1032 1031
f 1018 1019 1033
f 1018 1033 1032
f 1019 1020 1034
f 1019 1034 1033
f 1020 1021 1035
f 1020 1035 1034
f 1021 1022 1036
f 1021 1036 1035
f 1022 1023 1037
f 1022 1037 1036
f 1023 1024 1038
f 1023 1038 1037
f 1024 1025 1039
f 1024 1039 1038
f 1025 1026 1040
f 1025 1040 1039
f 1026 1027 1041
f 1026 1041 1040
f 1027 1028 1042
f 1027 1042 1041
f 1028 1029 1043
f 1028 1043 1042
f 1029 1016 1030
f 1029 1030 1043
f 1030 1031 1045
f 1030 1045 1044
f 1031 1032 1046
f 1031 1046 1045
f 1032 1033 1047
f 1032 1047 1046
f 1033 1034 1048
f 1033 1048 1047
f 1034 1035 1049
f 1034 1049 1048
f 1035 1036 1050
f 1035 1050 1049
f 1036 1037 1051
f 1036 1051 1050
f 1037 1038 1052
f 1037 1052 1051
f 1038 1039 1053
f 1038 1053 1052
f 1039 1040 1054
f 1039 1054 1053
f 1040 1041 1055
f 1040 1055 1054
f 1041 1042 1056
f 1041 1056 1055
f 1042 1043 1057
f 1042 1057 1056
f 1043 1030 1044
f 1043 1044 1057
f 1044 1045 1058
f 1045 1046 1058
f 1046 1047 1058
f 1047 1048 1058
f 1048 1049 1058
f 1049 1050 1058
f 1050 1051 1058
f 1051 1052 1058
f 1052 1053 1058
f 1053 1054 1058
f 1054 1055 1058
f 1055 1056 1058
f 1056 1057 1058
f 1057 1044 1058
f 1059 1060 1074
f 1059 1074 1073
f 1087 1060 1059
f 1088 1073 1074
f 1060 1061 1075
f 1060 1075 1074
f 1087 1061 1060
f 1088 1074 1075
f 1061 1062 1076
f 1061 1076 1075
f 1087 1062 1061
f 1088 1075 1076
f 1062 1063 1077
f 1062 1077 1076
f 1087 1063 1062
f 1088 1076 1077
f 1063 1064 1078
f 1063 1078 1077
f 1087 1064 1063
f 1088 1077 1078
f 1064 1065 1079
f 1064 1079 1078
f 1087 1065 1064
f 1088 1078 1079
f 1065 1066 1080
f 1065 1080 1079
f 1087 1066 1065
f 1088 1079 1080
f 1066 1067 1081
f 1066 1081 1080
f 1087 1067 1066
f 1088 1080 1081
f 1067 1068 1082
f 1067 1082 1081
f 1087 1068 1067
f 1088 1081 1082
f 1068 1069 1083
f 1068 1083 1082
f 1087 1069 1068
f 1088 1082 1083
f 1069 1070 1084
f 1069 1084 1083
f 1087 1070 1069
f 1088 1083 1084
f 1070 1071 1085
f 1070 1085 1084
f 1087 1071 1070
f 1088 1084 1085
f 1071 1072 1086
f 1071 1086 1085
f 1087 1072 1071
f 1088 1085 1086
f 1072 1059 1073
f 1072 1073 1086
f 1087 1059 1072
f 1088 1086 1073
f 1089 1091 1090
f 1089 1092 1091
f 1089 1093 1092
f 1089 1094 1093
f 1089 1095 1094
f 1089 1096 1095
f 1089 1097 1096
f 1089 1098 1097
f 1089 1099 1098
f 1089 1100 1099
f 1089 1101 1100
f 1089 1102 1101
f 1089 1103 1102
f 1089 1090 1103
f 1090 1091 1105
f 1090 1105 1104
f 1091 1092 1106
f 1091 1106 1105
f 1092 1093 1107
f 1092 1107 1106
f 1093 1094 1108
f 1093 1108 1107
f 1094 1095 1109
f 1094 1109 1108
f 1095 1096 1110
f 1095 1110 1109
f 1096 1097 1111
f 1096 1111 1110
f 1097 1098 1112
f 1097 1112 1111
f 1098 1099 1113
f 1098 1113 1112
f 1099 1100 1114
f 1099 1114 1113
f 1100 1101 1115
f 1100 1115 1114
f 1101 1102 1116
f 1101 1116 1115
f 1102 1103 1117
f 1102 1117 1116
f 1103 1090 1104
f 1103 1104 1117
f 1104 1105 1119
f 1104 1119 1118
f 1105 1106 1120
f 1105 1120 1119
f 1106 1107 1121
f 1106 1121 1120
f 1107 1108 1122
f 1107 1122 1121
f 1108 1109 1123
f 1108 1123 1122
f 1109 1110 1124
f 1109 1124 1123
f 1110 1111 1125
f 1110 1125 1124
f 1111 1112 1126
f 1111 1126 1125
f 1112 1113 1127
f 1112 1127 1126
f 1113 1114 1128
f 1113 1128 1127
f 1114 1115 1129
f 1114 1129 1128
f 1115 1116 1130
f 1115 1130 1129
f 1116 1117 1131
f 1116 1131 1130
f 1117 1104 1118
f 1117 1118 1131
f 1118 1119 1133
f 1118 1133 1132
f 1119 1120 1134
f 1119 1134 1133
f 1120 1121 1135
f 1120 1135 1134
f 1121 1122 1136
f 1121 1136 1135
f 1122 1123 1137
f 1122 1137 1136
f 1123 1124 1138
f 1123 1138 1137
f 1124 1125 1139
f 1124 1139 1138
f 1125 1126 1140
f 1125 1140 1139
f 1126 1127 1141
f 1126 1141 1140
f 1127 1128 1142
f 1127 1142 1141
f 1128 1129 1143
f 1128 1143 1142
f 1129 1130 1144
f 1129 1144 1143
f 1130 1131 1145
f 1130 1145 1144
f 1131 1118 1132
f 1131 1132 1145
f 1132 1133 1147
f 1132 1147 1146
f 1133 1134 1148
f 1133 1148 1147
f 1134 1135 1149
f 1134 1149 1148
f 1135 1136 1150
f 1135 1150 1149
f 1136 1137 1151
f 1136 1151 1150
f 1137 1138 1152
f 1137 1152 1151
f 1138 1139 1153
f 1138 1153 1152
f 1139 1140 1154
f 1139 1154 1153
f 1140 1141 1155
f 1140 1155 1154
f 1141 1142 1156
f 1141 1156 1155
f 1142 1143 1157
f 1142 1157 1156
f 1143 1144 1158
f 1143 1158 1157
f 1144 1145 1159
f 1144 1159 1158
f 1145 1132 1146
f 1145 1146 1159
f 1146 1147 1161
f 1146 1161 1160
f 1147 1148 1162
f 1147 1162 1161
f 1148 1149 1163
f 1148 1163 1162
f 1149 1150 1164
f 1149 1164 1163
f 1150 1151 1165
f 1150 1165 1164
f 1151 1152 1166
f 1151 1166 1165
f 1152 1153 1167
f 1152 1167 1166
f 1153 1154 1168
f 1153 1168 1167
f 1154 1155 1169
f 1154 1169 1168
f 1155 1156 1170
f 1155 1170 1169
f 1156 1157 1171
f 1156 1171 1170
f 1157 1158 1172
f 1157 1172 1171
f 1158 1159 1173
f 1158 1173 1172
f 1159 1146 1160
f 1159 1160 1173
f 1160 1161 1175
f 1160 1175 1174
f 1161 1162 1176
f 1161 1176 1175
f 1162 1163 1177
f 1162 1177 1176
f 1163 1164 1178
f 1163 1178 1177
f 1164 1165 1179
f 1164 1179 1178
f 1165 1166 1180
f 1165 1180 1179
f 1166 1167 1181
f 1166 1181 1180
f 1167 1168 1182
f 1167 1182 1181
f 1168 1169 1183
f 1168 1183 1182
f 1169 1170 1184
f 1169 1184 1183
f 1170 1171 1185
f 1170 1185 1184
f 1171 1172 1186
f 1171 1186 1185
f 1172 1173 1187
f 1172 1187 1186
f 1173 1160 1174
f 1173 1174 1187
f 1174 1175 1188
f 1175 1176 1188
f 1176 1177 1188
f 1177 1178 1188
f 1178 1179 1188
f 1179 1180 1188
f 1180 1181 1188
f 1181 1182 1188
f 1182 1183 1188
f 1183 1184 1188
f 1184 1185 1188
f 1185 1186 1188
f 1186 1187 1188
f 1187 1174 1188
f 1189 1191 1190
f 1189 1192 1191
f 1189 1193 1192
f 1189 1194 1193
f 1189 1195 1194
f 1189 1196 1195
f 1189 1197 1196
f 1189 1198 1197
f 1189 1199 1198
f 1189 1200 1199
f 1189 1201 1200
f 1189 1202 1201
f 1189 1203 1202
f 1189 1190 1203
f 1190 1191 1205
f 1190 1205 1204
f 1191 1192 1206
f 1191 1206 1205
f 1192 1193 1207
f 1192 1207 1206
f 1193 1194 1208
f 1193 1208 1207
f 1194 1195 1209
f 1194 1209 1208
f 1195 1196 1210
f 1195 1210 1209
f 1196 1197 1211
f 1196 1211 1210
f 1197 1198 1212
f 1197 1212 1211
f 1198 1199 1213
f 1198 1213 1212
f 1199 1200 1214
f 1199 1214 1213
f 1200 1201 1215
f 1200 1215 1214
f 1201 1202 1216
f 1201 1216 1215
f 1202 1203 1217
f 1202 1217 1216
f 1203 1190 1204
f 1203 1204 1217
f 1204 1205 1219
f 1204 1219 1218
f 1205 1206 1220
f 1205 1220 1219
f 1206 1207 1221
f 1206 1221 1220
f 1207 1208 1222
f 1207 1222 1221
f 1208 1209 1223
f 1208 1223 1222
f 1209 1210 1224
f 1209 1224 1223
f 1210 1211 1225
f 1210 1225 1224
f 1211 1212 1226
f 1211 1226 1225
f 1212 1213 1227
f 1212 1227 1226
f 1213 1214 1228
f 1213 1228 1227
f 1214 1215 1229
f 1214 1229 1228
f 1215 1216 1230
f 1215 1230 1229
f 1216 1217 1231
f 1216 1231 1230
f 1217 1204 1218
f 1217 1218 1231
f 1218 1219 1233
f 1218 1233 1232
f 1219 1220 1234
f 1219 1234 1233
f 1220 1221 1235
f 1220 1235 1234
f 1221 1222 1236
f 1221 1236 1235
f 1222 1223 1237
f 1222 1237 1236
f 1223 1224 1238
f 1223 1238 1237
f 1224 1225 1239
f 1224 1239 1238
f 1225 1226 1240
f 1225 1240 1239
f 1226 1227 1241
f 1226 1241 1240
f 1227 1228 1242
f 1227 1242 1241
f 1228 1229 1243
f 1228 1243 1242
f 1229 1230 1244
f 1229 1244 1243
f 1230 1231 1245
f 1230 1245 1244
f 1231 1218 1232
f 1231 1232 1245
f 1232 1233 1247
f 1232 1247 1246
f 1233 1234 1248
f 1233 1248 1247
f 1234 1235 1249
f 1234 1249 1248
f 1235 1236 1250
f 1235 1250 1249
f 1236 1237 1251
f 1236 1251 1250
f 1237 1238 1252
f 1237 1252 1251
f 1238 1239 1253
f 1238 1253 1252
f 1239 1240 1254
f 1239 1254 1253
f 1240 1241 1255
f 1240 1255 1254
f 1241 1242 1256
f 1241 1256 1255
f 1242 1243 1257
f 1242 1257 1256
f 1243 1244 1258
f 1243 1258 1257
f 1244 1245 1259
f 1244 1259 1258
f 1245 1232 1246
f 1245 1246 1259
f 1246 1247 1261
f 1246 1261 1260
f 1247 1248 1262
f 1247 1262 1261
f 1248 1249 1263
f 1248 1263 1262
f 1249 1250 1264
f 1249 1264 1263
f 1250 1251 1265
f 1250 1265 1264
f 1251 1252 1266
f 1251 1266 1265
f 1252 1253 1267
f 1252 1267 1266
f 1253 1254 1268
f 1253 1268 1267
f 1254 1255 1269
f 1254 1269 1268
f 1255 1256 1270
f 1255 1270 1269
f 1256 1257 1271
f 1256 1271 1270
f 1257 1258 1272
f 1257 1272 1271
f 1258 1259 1273
f 1258 1273 1272
f 1259 1246 1260
f 1259 1260 1273
f 1260 1261 1275
f 1260 1275 1274
f 1261 1262 1276
f 1261 1276 1275
f 1262 1263 1277
f 1262 1277 1276
f 1263 1264 1278
f 1263 1278 1277
f 1264 1265 1279
f 1264 1279 1278
f 1265 1266 1280
f 1265 1280 1279
f 1266 1267 1281
f 1266 1281 1280
f 1267 1268 1282
f 1267 1282 1281
f 1268 1269 1283
f 1268 1283 1282
f 1269 1270 1284
f 1269 1284 1283
f 1270 1271 1285
f 1270 1285 1284
f 1271 1272 1286
f 1271 1286 1285
f 1272 1273 1287
f 1272 1287 1286
f 1273 1260 1274
f 1273 1274 1287
f 1274 1275 1288
f 1275 1276 1288
f 1276 1277 1288
f 1277 1278 1288
f 1278 1279 1288
f 1279 1280 1288
f 1280 1281 1288
f 1281 1282 1288
f 1282 1283 1288
f 1283 1284 1288
f 1284 1285 1288
f 1285 1286 1288
f 1286 1287 1288
f 1287 1274 1288
f 1289 1290 1304
f 1289 1304 1303
f 1317 1290 1289
f 1318 1303 1304
f 1290 1291 1305
f 1290 1305 1304
f 1317 1291 1290
f 1318 1304 1305
f 1291 1292 1306
f 1291 1306 1305
f 1317 1292 1291
f 1318 1305 1306
f 1292 1293 1307
f 1292 1307 1306
f 1317 1293 1292
f 1318 1306 1307
f 1293 1294 1308
f 1293 1308 1307
f 1317 1294 1293
f 1318 1307 1308
f 1294 1295 1309
f 1294 1309 1308
f 1317 1295 1294
f 1318 1308 1309
f 1295 1296 1310
f 1295 1310 1309
f 1317 1296 1295
f 1318 1309 1310
f 1296 1297 1311
f 1296 1311 1310
f 1317 1297 1296
f 1318 1310 1311
f 1297 1298 1312
f 1297 1312 1311
f 1317 1298 1297
f 1318 1311 1312
f 1298 1299 1313
f 1298 1313 1312
f 1317 1299 1298
f 1318 1312 1313
f 1299 1300 1314
f 1299 1314 1313
f 1317 1300 1299
f 1318 1313 1314
f 1300 1301 1315
f 1300 1315 1314
f 1317 1301 1300
f 1318 1314 1315
f 1301 1302 1316
f 1301 1316 1315
f 1317 1302 1301
f 1318 1315 1316
f 1302 1289 1303
f 1302 1303 1316
f 1317 1289 1302
f 1318 1316 1303
f 1319 1321 1320
f 1319 1322 1321
f 1319 1323 1322
f 1319 1324 1323
f 1319 1325 1324
f 1319 1326 1325
f 1319 1327 1326
f 1319 1328 1327
f 1319 1329 1328
f 1319 1330 1329
f 1319 1331 1330
f 1319 1332 1331
f 1319 1333 1332
f 1319 1320 1333
f 1320 1321 1335
f 1320 1335 1334
f 1321 1322 1336
f 1321 1336 1335
f 1322 1323 1337
f 1322 1337 1336
f 1323 1324 1338
f 1323 1338 1337
f 1324 1325 1339
f 1324 1339 1338
f 1325 1326 1340
f 1325 1340 1339
f 1326 1327 1341
f 1326 1341 1340
f 1327 1328 1342
f 1327 1342 1341
f 1328 1329 1343
f 1328 1343 1342
f 1329 1330 1344
f 1329 1344 1343
f 1330 1331 1345
f 1330 1345 1344
f 1331 1332 1346
f 1331 1346 1345
f 1332 1333 1347
f 1332 1347 1346
f 1333 1320 1334
f 1333 1334 1347
f 1334 1335 1349
f 1334 1349 1348
f 1335 1336 1350
f 1335 1350 1349
f 1336 1337 1351
f 1336 1351 1350
f 1337 1338 1352
f 1337 1352 1351
f 1338 1339 1353
f 1338 1353 1352
f 1339 1340 1354
f 1339 1354 1353
f 1340 1341 1355
f 1340 1355 1354
f 1341 1342 1356
f 1341 1356 1355
f 1342 1343 1357
f 1342 1357 1356
f 1343 1344 1358
f 1343 1358 1357
f 1344 1345 1359
f 1344 1359 1358
f 1345 1346 1360
f 1345 1360 1359
f 1346 1347 1361
f 1346 1361 1360
f 1347 1334 1348
f 1347 1348 1361
f 1348 1349 1363
f 1348 1363 1362
f 1349 1350 1364
f 1349 1364 1363
f 1350 1351 1365
f 1350 1365 1364
f 1351 1352 1366
f 1351 1366 1365
f 1352 1353 1367
f 1352 1367 1366
f 1353 1354 1368
f 1353 1368 1367
f 1354 1355 1369
f 1354 1369 1368
f 1355 1356 1370
f 1355 1370 1369
f 1356 1357 1371
f 1356 1371 1370
f 1357 1358 1372
f 1357 1372 1371
f 1358 1359 1373
f 1358 1373 1372
f 1359 1360 1374
f 1359 1374 1373
f 1360 1361 1375
f 1360 1375 1374
f 1361 1348 1362
f 1361 1362 1375
f 1362 1363 1377
f 1362 1377 1376
f 1363 1364 1378
f 1363 1378 1377
f 1364 1365 1379
f 1364 1379 1378
f 1365 1366 1380
f 1365 1380 1379
f 1366 1367 1381
f 1366 1381 1380
f 1367 1368 1382
f 1367 1382 1381
f 1368 1369 1383
f 1368 1383 1382
f 1369 1370 1384
f 1369 1384 1383
f 1370 1371 1385
f 1370 1385 1384
f 1371 1372 1386
f 1371 1386 1385
f 1372 1373 1387
f 1372 1387 1386
f 1373 1374 1388
f 1373 1388 1387
f 1374 1375 1389
f 1374 1389 1388
f 1375 1362 1376
f 1375 1376 1389
f 1376 1377 1391
f 1376 1391 1390
f 1377 1378 1392
f 1377 1392 1391
f 1378 1379 1393
f 1378 1393 1392
f 1379 1380 1394
f 1379 1394 1393
f 1380 1381 1395
f 1380 1395 1394
f 1381 1382 1396
f 1381 1396 1395
f 1382 1383 1397
f 1382 1397 1396
f 1383 1384 1398
f 1383 1398 1397
f 1384 1385 1399
f 1384 1399 1398
f 1385 1386 1400
f 1385 1400 1399
f 1386 1387 1401
f 1386 1401 1400
f 1387 1388 1402
f 1387 1402 1401
f 1388 1389 1403
f 1388 1403 1402
f 1389 1376 1390
f 1389 1390 1403
f 1390 1391 1405
f 1390 1405 1404
f 1391 1392 1406
f 1391 1406 1405
f 1392 1393 1407
f 1392 1407 1406
f 1393 1394 1408
f 1393 1408 1407
f 1394 1395 1409
f 1394 1409 1408
f 1395 1396 1410
f 1395 1410 1409
f 1396 1397 1411
f 1396 1411 1410
f 1397 1398 1412
f 1397 1412 1411
f 1398 1399 1413
f 1398 1413 1412
f 1399 1400 1414
f 1399 1414 1413
f 1400 1401 1415
f 1400 1415 1414
f 1401 1402 1416
f 1401 1416 1415
f 1402 1403 1417
f 1402 1417 1416
f 1403 1390 1404
f 1403 1404 1417
f 1404 1405 1418
f 1405 1406 1418
f 1406 1407 1418
f 1407 1408 1418
f 1408 1409 1418
f 1409 1410 1418
f 1410 1411 1418
f 1411 1412 1418
f 1412 1413 1418
f 1413 1414 1418
f 1414 1415 1418
f 1415 1416 1418
f 1416 1417 1418
f 1417 1404 1418
f 1419 1421 1420
f 1419 1422 1421
f 1419 1423 1422
f 1419 1424 1423
f 1419 1425 1424
f 1419 1426 1425
f 1419 1427 1426
f 1419 1428 1427
f 1419 1429 1428
f 1419 1430 1429
f 1419 1431 1430
f 1419 1432 1431
f 1419 1433 1432
f 1419 1420 1433
f 1420 1421 1435
f 1420 1435 1434
f 1421 1422 1436
f 1421 1436 1435
f 1422 1423 1437
f 1422 1437 1436
f 1423 1424 1438
f 1423 1438 1437
f 1424 1425 1439
f 1424 1439 1438
f 1425 1426 1440
f 1425 1440 1439
f 1426 1427 1441
f 1426 1441 1440
f 1427 1428 1442
f 1427 1442 1441
f 1428 1429 1443
f 1428 1443 1442
f 1429 1430 1444
f 1429 1444 1443
f 1430 1431 1445
f 1430 1445 1444
f 1431 1432 1446
f 1431 1446 1445
f 1432 1433 1447
f 1432 1447 1446
f 1433 1420 1434
f 1433 1434 1447
f 1434 1435 1449
f 1434 1449 1448
f 1435 1436 1450
f 1435 1450 1449
f 1436 1437 1451
f 1436 1451 1450
f 1437 1438 1452
f 1437 1452 1451
f 1438 1439 1453
f 1438 1453 1452
f 1439 1440 1454
f 1439 1454 1453
f 1440 1441 1455
f 1440 1455 1454
f 1441 1442 1456
f 1441 1456 1455
f 1442 1443 1457
f 1442 1457 1456
f 1443 1444 1458
f 1443 1458 1457
f 1444 1445 1459
f 1444 1459 1458
f 1445 1446 1460
f 1445 1460 1459
f 1446 1447 1461
f 1446 1461 1460
f 1447 1434 1448
f 1447 1448 1461
f 1448 1449 1463
f 1448 1463 1462
f 1449 1450 1464
f 1449 1464 1463
f 1450 1451 1465
f 1450 1465 1464
f 1451 1452 1466
f 1451 1466 1465
f 1452 1453 1467
f 1452 1467 1466
f 1453 1454 1468
f 1453 1468 1467
f 1454 1455 1469
f 1454 1469 1468
f 1455 1456 1470
f 1455 1470 1469
f 1456 1457 1471
f 1456 1471 1470
f 1457 1458 1472
f 1457 1472 1471
f 1458 1459 1473
f 1458 1473 1472
f 1459 1460 1474
f 1459 1474 1473
f 1460 1461 1475
f 1460 1475 1474
f 1461 1448 1462
f 1461 1462 1475
f 1462 1463 1477
f 1462 1477 1476
f 1463 1464 1478
f 1463 1478 1477
f 1464 1465 1479
f 1464 1479 1478
f 1465 1466 1480
f 1465 1480 1479
f 1466 1467 1481
f 1466 1481 1480
f 1467 1468 1482
f 1467 1482 1481
f 1468 1469 1483
f 1468 1483 1482
f 1469 1470 1484
f 1469 1484 1483
f 1470 1471 1485
f 1470 1485 1484
f 1471 1472 1486
f 1471 1486 1485
f 1472 1473 1487
f 1472 1487 1486
f 1473 1474 1488
f 1473 1488 1487
f 1474 1475 1489
f 1474 1489 1488
f 1475 1462 1476
f 1475 1476 1489
f 1476 1477 1491
f 1476 1491 1490
f 1477 1478 1492
f 1477 1492 1491
f 1478 1479 1493
f 1478 1493 1492
f 1479 1480 1494
f 1479 1494 1493
f 1480 1481 1495
f 1480 1495 1494
f 1481 1482 1496
f 1481 1496 1495
f 1482 1483 1497
f 1482 1497 1496
f 1483 1484 1498
f 1483 1498 1497
f 1484 1485 1499
f 1484 1499 1498
f 1485 1486 1500
f 1485 1500 1499
f 1486 1487 1501
f 1486 1501 1500
f 1487 1488 1502
f 1487 1502 1501
f 1488 1489 1503
f 1488 1503 1502
f 1489 1476 1490
f 1489 1490 1503
f 1490 1491 1505
f 1490 1505 1504
f 1491 1492 1506
f 1491 1506 1505
f 1492 1493 1507
f 1492 1507 1506
f 1493 1494 1508
f 1493 1508 1507
f 1494 1495 1509
f 1494 1509 1508
f 1495 1496 1510
f 1495 1510 1509
f 1496 1497 1511
f 1496 1511 1510
f 1497 1498 1512
f 1497 1512 1511
f 1498 1499 1513
f 1498 1513 1512
f 1499 1500 1514
f 1499 1514 1513
f 1500 1501 1515
f 1500 1515 1514
f 1501 1502 1516
f 1501 1516 1515
f 1502 1503 1517
f 1502 1517 1516
f 1503 1490 1504
f 1503 1504 1517
f 1504 1505 1518
f 1505 1506 1518
f 1506 1507 1518
f 1507 1508 1518
f 1508 1509 1518
f 1509 1510 1518
f 1510 1511 1518
f 1511 1512 1518
f 1512 1513 1518
f 1513 1514 1518
f 1514 1515 1518
f 1515 1516 1518
f 1516 1517 1518
f 1517 1504 1518
f 1519 1521 1520
f 1555 1556 1557
f 1519 1522 1521
f 1555 1557 1558
f 1519 1523 1522
f 1555 1558 1559
f 1519 1524 1523
f 1555 1559 1560
f 1519 1525 1524
f 1555 1560 1561
f 1519 1526 1525
f 1555 1561 1562
f 1519 1527 1526
f 1555 1562 1563
f 1519 1528 1527
f 1555 1563 1564
f 1519 1529 1528
f 1555 1564 1565
f 1519 1530 1529
f 1555 1565 1566
f 1519 1531 1530
f 1555 1566 1567
f 1519 1532 1531
f 1555 1567 1568
f 1519 1533 1532
f 1555 1568 1569
f 1519 1534 1533
f 1555 1569 1570
f 1519 1535 1534
f 1555 1570 1571
f 1519 1536 1535
f 1555 1571 1572
f 1519 1537 1536
f 1555 1572 1573
f 1519 1538 1537
f 1555 1573 1574
f 1519 1539 1538
f 1555 1574 1575
f 1519 1540 1539
f 1555 1575 1576
f 1519 1541 1540
f 1555 1576 1577
f 1519 1542 1541
f 1555 1577 1578
f 1519 1543 1542
f 1555 1578 1579
f 1519 1544 1543
f 1555 1579 1580
f 1519 1545 1544
f 1555 1580 1581
f 1519 1546 1545
f 1555 1581 1582
f 1519 1547 1546
f 1555 1582 1583
f 1519 1548 1547
f 1555 1583 1584
f 1519 1549 1548
f 1555 1584 1585
f 1519 1550 1549
f 1555 1585 1586
f 1519 1551 1550
f 1555 1586 1587
f 1519 1552 1551
f 1555 1587 1588
f 1519 1553 1552
f 1555 1588 1589
f 1519 1554 1553
f 1555 1589 1590
f 1519 1520 1556
f 1519 1556 1555
f 1520 1521 1557
f 1520 1557 1556
f 1521 1522 1558
f 1521 1558 1557
f 1522 1523 1559
f 1522 1559 1558
f 1523 1524 1560
f 1523 1560 1559
f 1524 1525 1561
f 1524 1561 1560
f 1525 1526 1562
f 1525 1562 1561
f 1526 1527 1563
f 1526 1563 1562
f 1527 1528 1564
f 1527 1564 1563
f 1528 1529 1565
f 1528 1565 1564
f 1529 1530 1566
f 1529 1566 1565
f 1530 1531 1567
f 1530 1567 1566
f 1531 1532 1568
f 1531 1568 1567
f 1532 1533 1569
f 1532 1569 1568
f 1533 1534 1570
f 1533 1570 1569
f 1534 1535 1571
f 1534 1571 1570
f 1535 1536 1572
f 1535 1572 1571
f 1536 1537 1573
f 1536 1573 1572
f 1537 1538 1574
f 1537 1574 1573
f 1538 1539 1575
f 1538 1575 1574
f 1539 1540 1576
f 1539 1576 1575
f 1540 1541 1577
f 1540 1577 1576
f 1541 1542 1578
f 1541 1578 1577
f 1542 1543 1579
f 1542 1579 1578
f 1543 1544 1580
f 1543 1580 1579
f 1544 1545 1581
f 1544 1581 1580
f 1545 1546 1582
f 1545 1582 1581
f 1546 1547 1583
f 1546 1583 1582
f 1547 1548 1584
f 1547 1584 1583
f 1548 1549 1585
f 1548 1585 1584
f 1549 1550 1586
f 1549 1586 1585
f 1550 1551 1587
f 1550 1587 1586
f 1551 1552 1588
f 1551 1588 1587
f 1552 1553 1589
f 1552 1589 1588
f 1553 1554 1590
f 1553 1590 1589
f 1554 1519 1555
f 1554 1555 1590
