o open_clear_panel_frame
v 60.00000 -42.50000 27.50000
v 59.96157 -42.10982 27.50000
v 59.84776 -41.73463 27.50000
v 59.66294 -41.38886 27.50000
v 59.41421 -41.08579 27.50000
v 59.11114 -40.83706 27.50000
v 58.76537 -40.65224 27.50000
v 58.39018 -40.53843 27.50000
v 58.00000 -40.50000 27.50000
v -58.00000 -40.50000 27.50000
v -58.39018 -40.53843 27.50000
v -58.76537 -40.65224 27.50000
v -59.11114 -40.83706 27.50000
v -59.41421 -41.08579 27.50000
v -59.66294 -41.38886 27.50000
v -59.84776 -41.73463 27.50000
v -59.96157 -42.10982 27.50000
v -60.00000 -42.50000 27.50000
v -60.00000 -43.50000 27.50000
v -59.96157 -43.89018 27.50000
v -59.84776 -44.26537 27.50000
v -59.66294 -44.61114 27.50000
v -59.41421 -44.91421 27.50000
v -59.11114 -45.16294 27.50000
v -58.76537 -45.34776 27.50000
v -58.39018 -45.46157 27.50000
v -58.00000 -45.50000 27.50000
v 58.00000 -45.50000 27.50000
v 58.39018 -45.46157 27.50000
v 58.76537 -45.34776 27.50000
v 59.11114 -45.16294 27.50000
v 59.41421 -44.91421 27.50000
v 59.66294 -44.61114 27.50000
v 59.84776 -44.26537 27.50000
v 59.96157 -43.89018 27.50000
v 60.00000 -43.50000 27.50000
v 60.00000 -42.50000 32.50000
v 59.96157 -42.10982 32.50000
v 59.84776 -41.73463 32.50000
v 59.66294 -41.38886 32.50000
v 59.41421 -41.08579 32.50000
v 59.11114 -40.83706 32.50000
v 58.76537 -40.65224 32.50000
v 58.39018 -40.53843 32.50000
v 58.00000 -40.50000 32.50000
v -58.00000 -40.50000 32.50000
v -58.39018 -40.53843 32.50000
v -58.76537 -40.65224 32.50000
v -59.11114 -40.83706 32.50000
v -59.41421 -41.08579 32.50000
v -59.66294 -41.38886 32.50000
v -59.84776 -41.73463 32.50000
v -59.96157 -42.10982 32.50000
v -60.00000 -42.50000 32.50000
v -60.00000 -43.50000 32.50000
v -59.96157 -43.89018 32.50000
v -59.84776 -44.26537 32.50000
v -59.66294 -44.61114 32.50000
v -59.41421 -44.91421 32.50000
v -59.11114 -45.16294 32.50000
v -58.76537 -45.34776 32.50000
v -58.39018 -45.46157 32.50000
v -58.00000 -45.50000 32.50000
v 58.00000 -45.50000 32.50000
v 58.39018 -45.46157 32.50000
v 58.76537 -45.34776 32.50000
v 59.11114 -45.16294 32.50000
v 59.41421 -44.91421 32.50000
v 59.66294 -44.61114 32.50000
v 59.84776 -44.26537 32.50000
v 59.96157 -43.89018 32.50000
v 60.00000 -43.50000 32.50000
v 60.00000 43.50000 27.50000
v 59.96157 43.89018 27.50000
v 59.84776 44.26537 27.50000
v 59.66294 44.61114 27.50000
v 59.41421 44.91421 27.50000
v 59.11114 45.16294 27.50000
v 58.76537 45.34776 27.50000
v 58.39018 45.46157 27.50000
v 58.00000 45.50000 27.50000
v -58.00000 45.50000 27.50000
v -58.39018 45.46157 27.50000
v -58.76537 45.34776 27.50000
v -59.11114 45.16294 27.50000
v -59.41421 44.91421 27.50000
v -59.66294 44.61114 27.50000
v -59.84776 44.26537 27.50000
v -59.96157 43.89018 27.50000
v -60.00000 43.50000 27.50000
v -60.00000 42.50000 27.50000
v -59.96157 42.10982 27.50000
v -59.84776 41.73463 27.50000
v -59.66294 41.38886 27.50000
v -59.41421 41.08579 27.50000
v -59.11114 40.83706 27.50000
v -58.76537 40.65224 27.50000
v -58.39018 40.53843 27.50000
v -58.00000 40.50000 27.50000
v 58.00000 40.50000 27.50000
v 58.39018 40.53843 27.50000
v 58.76537 40.65224 27.50000
v 59.11114 40.83706 27.50000
v 59.41421 41.08579 27.50000
v 59.66294 41.38886 27.50000
v 59.84776 41.73463 27.50000
v 59.96157 42.10982 27.50000
v 60.00000 42.50000 27.50000
v 60.00000 43.50000 32.50000
v 59.96157 43.89018 32.50000
v 59.84776 44.26537 32.50000
v 59.66294 44.61114 32.50000
v 59.41421 44.91421 32.50000
v 59.11114 45.16294 32.50000
v 58.76537 45.34776 32.50000
v 58.39018 45.46157 32.50000
v 58.00000 45.50000 32.50000
v -58.00000 45.50000 32.50000
v -58.39018 45.46157 32.50000
v -58.76537 45.34776 32.50000
v -59.11114 45.16294 32.50000
v -59.41421 44.91421 32.50000
v -59.66294 44.61114 32.50000
v -59.84776 44.26537 32.50000
v -59.96157 43.89018 32.50000
v -60.00000 43.50000 32.50000
v -60.00000 42.50000 32.50000
v -59.96157 42.10982 32.50000
v -59.84776 41.73463 32.50000
v -59.66294 41.38886 32.50000
v -59.41421 41.08579 32.50000
v -59.11114 40.83706 32.50000
v -58.76537 40.65224 32.50000
v -58.39018 40.53843 32.50000
v -58.00000 40.50000 32.50000
v 58.00000 40.50000 32.50000
v 58.39018 40.53843 32.50000
v 58.76537 40.65224 32.50000
v 59.11114 40.83706 32.50000
v 59.41421 41.08579 32.50000
v 59.66294 41.38886 32.50000
v 59.84776 41.73463 32.50000
v 59.96157 42.10982 32.50000
v 60.00000 42.50000 32.50000
v -63.50000 37.00000 27.50000
v -63.53843 37.39018 27.50000
v -63.65224 37.76537 27.50000
v -63.83706 38.11114 27.50000
v -64.08579 38.41421 27.50000
v -64.38886 38.66294 27.50000
v -64.73463 38.84776 27.50000
v -65.10982 38.96157 27.50000
v -65.50000 39.00000 27.50000
v -66.50000 39.00000 27.50000
v -66.89018 38.96157 27.50000
v -67.26537 38.84776 27.50000
v -67.61114 38.66294 27.50000
v -67.91421 38.41421 27.50000
v -68.16294 38.11114 27.50000
v -68.34776 37.76537 27.50000
v -68.46157 37.39018 27.50000
v -68.50000 37.00000 27.50000
v -68.50000 -37.00000 27.50000
v -68.46157 -37.39018 27.50000
v -68.34776 -37.76537 27.50000
v -68.16294 -38.11114 27.50000
v -67.91421 -38.41421 27.50000
v -67.61114 -38.66294 27.50000
v -67.26537 -38.84776 27.50000
v -66.89018 -38.96157 27.50000
v -66.50000 -39.00000 27.50000
v -65.50000 -39.00000 27.50000
v -65.10982 -38.96157 27.50000
v -64.73463 -38.84776 27.50000
v -64.38886 -38.66294 27.50000
v -64.08579 -38.41421 27.50000
v -63.83706 -38.11114 27.50000
v -63.65224 -37.76537 27.50000
v -63.53843 -37.39018 27.50000
v -63.50000 -37.00000 27.50000
v -63.50000 37.00000 32.50000
v -63.53843 37.39018 32.50000
v -63.65224 37.76537 32.50000
v -63.83706 38.11114 32.50000
v -64.08579 38.41421 32.50000
v -64.38886 38.66294 32.50000
v -64.73463 38.84776 32.50000
v -65.10982 38.96157 32.50000
v -65.50000 39.00000 32.50000
v -66.50000 39.00000 32.50000
v -66.89018 38.96157 32.50000
v -67.26537 38.84776 32.50000
v -67.61114 38.66294 32.50000
v -67.91421 38.41421 32.50000
v -68.16294 38.11114 32.50000
v -68.34776 37.76537 32.50000
v -68.46157 37.39018 32.50000
v -68.50000 37.00000 32.50000
v -68.50000 -37.00000 32.50000
v -68.46157 -37.39018 32.50000
v -68.34776 -37.76537 32.50000
v -68.16294 -38.11114 32.50000
v -67.91421 -38.41421 32.50000
v -67.61114 -38.66294 32.50000
v -67.26537 -38.84776 32.50000
v -66.89018 -38.96157 32.50000
v -66.50000 -39.00000 32.50000
v -65.50000 -39.00000 32.50000
v -65.10982 -38.96157 32.50000
v -64.73463 -38.84776 32.50000
v -64.38886 -38.66294 32.50000
v -64.08579 -38.41421 32.50000
v -63.83706 -38.11114 32.50000
v -63.65224 -37.76537 32.50000
v -63.53843 -37.39018 32.50000
v -63.50000 -37.00000 32.50000
v 68.50000 37.00000 27.50000
v 68.46157 37.39018 27.50000
v 68.34776 37.76537 27.50000
v 68.16294 38.11114 27.50000
v 67.91421 38.41421 27.50000
v 67.61114 38.66294 27.50000
v 67.26537 38.84776 27.50000
v 66.89018 38.96157 27.50000
v 66.50000 39.00000 27.50000
v 65.50000 39.00000 27.50000
v 65.10982 38.96157 27.50000
v 64.73463 38.84776 27.50000
v 64.38886 38.66294 27.50000
v 64.08579 38.41421 27.50000
v 63.83706 38.11114 27.50000
v 63.65224 37.76537 27.50000
v 63.53843 37.39018 27.50000
v 63.50000 37.00000 27.50000
v 63.50000 -37.00000 27.50000
v 63.53843 -37.39018 27.50000
v 63.65224 -37.76537 27.50000
v 63.83706 -38.11114 27.50000
v 64.08579 -38.41421 27.50000
v 64.38886 -38.66294 27.50000
v 64.73463 -38.84776 27.50000
v 65.10982 -38.96157 27.50000
v 65.50000 -39.00000 27.50000
v 66.50000 -39.00000 27.50000
v 66.89018 -38.96157 27.50000
v 67.26537 -38.84776 27.50000
v 67.61114 -38.66294 27.50000
v 67.91421 -38.41421 27.50000
v 68.16294 -38.11114 27.50000
v 68.34776 -37.76537 27.50000
v 68.46157 -37.39018 27.50000
v 68.50000 -37.00000 27.50000
v 68.50000 37.00000 32.50000
v 68.46157 37.39018 32.50000
v 68.34776 37.76537 32.50000
v 68.16294 38.11114 32.50000
v 67.91421 38.41421 32.50000
v 67.61114 38.66294 32.50000
v 67.26537 38.84776 32.50000
v 66.89018 38.96157 32.50000
v 66.50000 39.00000 32.50000
v 65.50000 39.00000 32.50000
v 65.10982 38.96157 32.50000
v 64.73463 38.84776 32.50000
v 64.38886 38.66294 32.50000
v 64.08579 38.41421 32.50000
v 63.83706 38.11114 32.50000
v 63.65224 37.76537 32.50000
v 63.53843 37.39018 32.50000
v 63.50000 37.00000 32.50000
v 63.50000 -37.00000 32.50000
v 63.53843 -37.39018 32.50000
v 63.65224 -37.76537 32.50000
v 63.83706 -38.11114 32.50000
v 64.08579 -38.41421 32.50000
v 64.38886 -38.66294 32.50000
v 64.73463 -38.84776 32.50000
v 65.10982 -38.96157 32.50000
v 65.50000 -39.00000 32.50000
v 66.50000 -39.00000 32.50000
v 66.89018 -38.96157 32.50000
v 67.26537 -38.84776 32.50000
v 67.61114 -38.66294 32.50000
v 67.91421 -38.41421 32.50000
v 68.16294 -38.11114 32.50000
v 68.34776 -37.76537 32.50000
v 68.46157 -37.39018 32.50000
v 68.50000 -37.00000 32.50000
v -62.50000 -41.50000 2.00000
v -62.53843 -41.10982 2.00000
v -62.65224 -40.73463 2.00000
v -62.83706 -40.38886 2.00000
v -63.08579 -40.08579 2.00000
v -63.38886 -39.83706 2.00000
v -63.73463 -39.65224 2.00000
v -64.10982 -39.53843 2.00000
v -64.50000 -39.50000 2.00000
v -67.50000 -39.50000 2.00000
v -67.89018 -39.53843 2.00000
v -68.26537 -39.65224 2.00000
v -68.61114 -39.83706 2.00000
v -68.91421 -40.08579 2.00000
v -69.16294 -40.38886 2.00000
v -69.34776 -40.73463 2.00000
v -69.46157 -41.10982 2.00000
v -69.50000 -41.50000 2.00000
v -69.50000 -44.50000 2.00000
v -69.46157 -44.89018 2.00000
v -69.34776 -45.26537 2.00000
v -69.16294 -45.61114 2.00000
v -68.91421 -45.91421 2.00000
v -68.61114 -46.16294 2.00000
v -68.26537 -46.34776 2.00000
v -67.89018 -46.46157 2.00000
v -67.50000 -46.50000 2.00000
v -64.50000 -46.50000 2.00000
v -64.10982 -46.46157 2.00000
v -63.73463 -46.34776 2.00000
v -63.38886 -46.16294 2.00000
v -63.08579 -45.91421 2.00000
v -62.83706 -45.61114 2.00000
v -62.65224 -45.26537 2.00000
v -62.53843 -44.89018 2.00000
v -62.50000 -44.50000 2.00000
v -62.50000 -41.50000 30.00000
v -62.53843 -41.10982 30.00000
v -62.65224 -40.73463 30.00000
v -62.83706 -40.38886 30.00000
v -63.08579 -40.08579 30.00000
v -63.38886 -39.83706 30.00000
v -63.73463 -39.65224 30.00000
v -64.10982 -39.53843 30.00000
v -64.50000 -39.50000 30.00000
v -67.50000 -39.50000 30.00000
v -67.89018 -39.53843 30.00000
v -68.26537 -39.65224 30.00000
v -68.61114 -39.83706 30.00000
v -68.91421 -40.08579 30.00000
v -69.16294 -40.38886 30.00000
v -69.34776 -40.73463 30.00000
v -69.46157 -41.10982 30.00000
v -69.50000 -41.50000 30.00000
v -69.50000 -44.50000 30.00000
v -69.46157 -44.89018 30.00000
v -69.34776 -45.26537 30.00000
v -69.16294 -45.61114 30.00000
v -68.91421 -45.91421 30.00000
v -68.61114 -46.16294 30.00000
v -68.26537 -46.34776 30.00000
v -67.89018 -46.46157 30.00000
v -67.50000 -46.50000 30.00000
v -64.50000 -46.50000 30.00000
v -64.10982 -46.46157 30.00000
v -63.73463 -46.34776 30.00000
v -63.38886 -46.16294 30.00000
v -63.08579 -45.91421 30.00000
v -62.83706 -45.61114 30.00000
v -62.65224 -45.26537 30.00000
v -62.53843 -44.89018 30.00000
v -62.50000 -44.50000 30.00000
v -62.50000 44.50000 2.00000
v -62.53843 44.89018 2.00000
v -62.65224 45.26537 2.00000
v -62.83706 45.61114 2.00000
v -63.08579 45.91421 2.00000
v -63.38886 46.16294 2.00000
v -63.73463 46.34776 2.00000
v -64.10982 46.46157 2.00000
v -64.50000 46.50000 2.00000
v -67.50000 46.50000 2.00000
v -67.89018 46.46157 2.00000
v -68.26537 46.34776 2.00000
v -68.61114 46.16294 2.00000
v -68.91421 45.91421 2.00000
v -69.16294 45.61114 2.00000
v -69.34776 45.26537 2.00000
v -69.46157 44.89018 2.00000
v -69.50000 44.50000 2.00000
v -69.50000 41.50000 2.00000
v -69.46157 41.10982 2.00000
v -69.34776 40.73463 2.00000
v -69.16294 40.38886 2.00000
v -68.91421 40.08579 2.00000
v -68.61114 39.83706 2.00000
v -68.26537 39.65224 2.00000
v -67.89018 39.53843 2.00000
v -67.50000 39.50000 2.00000
v -64.50000 39.50000 2.00000
v -64.10982 39.53843 2.00000
v -63.73463 39.65224 2.00000
v -63.38886 39.83706 2.00000
v -63.08579 40.08579 2.00000
v -62.83706 40.38886 2.00000
v -62.65224 40.73463 2.00000
v -62.53843 41.10982 2.00000
v -62.50000 41.50000 2.00000
v -62.50000 44.50000 30.00000
v -62.53843 44.89018 30.00000
v -62.65224 45.26537 30.00000
v -62.83706 45.61114 30.00000
v -63.08579 45.91421 30.00000
v -63.38886 46.16294 30.00000
v -63.73463 46.34776 30.00000
v -64.10982 46.46157 30.00000
v -64.50000 46.50000 30.00000
v -67.50000 46.50000 30.00000
v -67.89018 46.46157 30.00000
v -68.26537 46.34776 30.00000
v -68.61114 46.16294 30.00000
v -68.91421 45.91421 30.00000
v -69.16294 45.61114 30.00000
v -69.34776 45.26537 30.00000
v -69.46157 44.89018 30.00000
v -69.50000 44.50000 30.00000
v -69.50000 41.50000 30.00000
v -69.46157 41.10982 30.00000
v -69.34776 40.73463 30.00000
v -69.16294 40.38886 30.00000
v -68.91421 40.08579 30.00000
v -68.61114 39.83706 30.00000
v -68.26537 39.65224 30.00000
v -67.89018 39.53843 30.00000
v -67.50000 39.50000 30.00000
v -64.50000 39.50000 30.00000
v -64.10982 39.53843 30.00000
v -63.73463 39.65224 30.00000
v -63.38886 39.83706 30.00000
v -63.08579 40.08579 30.00000
v -62.83706 40.38886 30.00000
v -62.65224 40.73463 30.00000
v -62.53843 41.10982 30.00000
v -62.50000 41.50000 30.00000
v 69.50000 -41.50000 2.00000
v 69.46157 -41.10982 2.00000
v 69.34776 -40.73463 2.00000
v 69.16294 -40.38886 2.00000
v 68.91421 -40.08579 2.00000
v 68.61114 -39.83706 2.00000
v 68.26537 -39.65224 2.00000
v 67.89018 -39.53843 2.00000
v 67.50000 -39.50000 2.00000
v 64.50000 -39.50000 2.00000
v 64.10982 -39.53843 2.00000
v 63.73463 -39.65224 2.00000
v 63.38886 -39.83706 2.00000
v 63.08579 -40.08579 2.00000
v 62.83706 -40.38886 2.00000
v 62.65224 -40.73463 2.00000
v 62.53843 -41.10982 2.00000
v 62.50000 -41.50000 2.00000
v 62.50000 -44.50000 2.00000
v 62.53843 -44.89018 2.00000
v 62.65224 -45.26537 2.00000
v 62.83706 -45.61114 2.00000
v 63.08579 -45.91421 2.00000
v 63.38886 -46.16294 2.00000
v 63.73463 -46.34776 2.00000
v 64.10982 -46.46157 2.00000
v 64.50000 -46.50000 2.00000
v 67.50000 -46.50000 2.00000
v 67.89018 -46.46157 2.00000
v 68.26537 -46.34776 2.00000
v 68.61114 -46.16294 2.00000
v 68.91421 -45.91421 2.00000
v 69.16294 -45.61114 2.00000
v 69.34776 -45.26537 2.00000
v 69.46157 -44.89018 2.00000
v 69.50000 -44.50000 2.00000
v 69.50000 -41.50000 30.00000
v 69.46157 -41.10982 30.00000
v 69.34776 -40.73463 30.00000
v 69.16294 -40.38886 30.00000
v 68.91421 -40.08579 30.00000
v 68.61114 -39.83706 30.00000
v 68.26537 -39.65224 30.00000
v 67.89018 -39.53843 30.00000
v 67.50000 -39.50000 30.00000
v 64.50000 -39.50000 30.00000
v 64.10982 -39.53843 30.00000
v 63.73463 -39.65224 30.00000
v 63.38886 -39.83706 30.00000
v 63.08579 -40.08579 30.00000
v 62.83706 -40.38886 30.00000
v 62.65224 -40.73463 30.00000
v 62.53843 -41.10982 30.00000
v 62.50000 -41.50000 30.00000
v 62.50000 -44.50000 30.00000
v 62.53843 -44.89018 30.00000
v 62.65224 -45.26537 30.00000
v 62.83706 -45.61114 30.00000
v 63.08579 -45.91421 30.00000
v 63.38886 -46.16294 30.00000
v 63.73463 -46.34776 30.00000
v 64.10982 -46.46157 30.00000
v 64.50000 -46.50000 30.00000
v 67.50000 -46.50000 30.00000
v 67.89018 -46.46157 30.00000
v 68.26537 -46.34776 30.00000
v 68.61114 -46.16294 30.00000
v 68.91421 -45.91421 30.00000
v 69.16294 -45.61114 30.00000
v 69.34776 -45.26537 30.00000
v 69.46157 -44.89018 30.00000
v 69.50000 -44.50000 30.00000
v 69.50000 44.50000 2.00000
v 69.46157 44.89018 2.00000
v 69.34776 45.26537 2.00000
v 69.16294 45.61114 2.00000
v 68.91421 45.91421 2.00000
v 68.61114 46.16294 2.00000
v 68.26537 46.34776 2.00000
v 67.89018 46.46157 2.00000
v 67.50000 46.50000 2.00000
v 64.50000 46.50000 2.00000
v 64.10982 46.46157 2.00000
v 63.73463 46.34776 2.00000
v 63.38886 46.16294 2.00000
v 63.08579 45.91421 2.00000
v 62.83706 45.61114 2.00000
v 62.65224 45.26537 2.00000
v 62.53843 44.89018 2.00000
v 62.50000 44.50000 2.00000
v 62.50000 41.50000 2.00000
v 62.53843 41.10982 2.00000
v 62.65224 40.73463 2.00000
v 62.83706 40.38886 2.00000
v 63.08579 40.08579 2.00000
v 63.38886 39.83706 2.00000
v 63.73463 39.65224 2.00000
v 64.10982 39.53843 2.00000
v 64.50000 39.50000 2.00000
v 67.50000 39.50000 2.00000
v 67.89018 39.53843 2.00000
v 68.26537 39.65224 2.00000
v 68.61114 39.83706 2.00000
v 68.91421 40.08579 2.00000
v 69.16294 40.38886 2.00000
v 69.34776 40.73463 2.00000
v 69.46157 41.10982 2.00000
v 69.50000 41.50000 2.00000
v 69.50000 44.50000 30.00000
v 69.46157 44.89018 30.00000
v 69.34776 45.26537 30.00000
v 69.16294 45.61114 30.00000
v 68.91421 45.91421 30.00000
v 68.61114 46.16294 30.00000
v 68.26537 46.34776 30.00000
v 67.89018 46.46157 30.00000
v 67.50000 46.50000 30.00000
v 64.50000 46.50000 30.00000
v 64.10982 46.46157 30.00000
v 63.73463 46.34776 30.00000
v 63.38886 46.16294 30.00000
v 63.08579 45.91421 30.00000
v 62.83706 45.61114 30.00000
v 62.65224 45.26537 30.00000
v 62.53843 44.89018 30.00000
v 62.50000 44.50000 30.00000
v 62.50000 41.50000 30.00000
v 62.53843 41.10982 30.00000
v 62.65224 40.73463 30.00000
v 62.83706 40.38886 30.00000
v 63.08579 40.08579 30.00000
v 63.38886 39.83706 30.00000
v 63.73463 39.65224 30.00000
v 64.10982 39.53843 30.00000
v 64.50000 39.50000 30.00000
v 67.50000 39.50000 30.00000
v 67.89018 39.53843 30.00000
v 68.26537 39.65224 30.00000
v 68.61114 39.83706 30.00000
v 68.91421 40.08579 30.00000
v 69.16294 40.38886 30.00000
v 69.34776 40.73463 30.00000
v 69.46157 41.10982 30.00000
v 69.50000 41.50000 30.00000
v 22.00000 25.00000 30.00000
v 21.86550 26.36563 30.00000
v 21.46716 27.67878 30.00000
v 20.82029 28.88899 30.00000
v 19.94975 29.94975 30.00000
v 18.88899 30.82029 30.00000
v 17.67878 31.46716 30.00000
v 16.36563 31.86550 30.00000
v 15.00000 32.00000 30.00000
v -15.00000 32.00000 30.00000
v -16.36563 31.86550 30.00000
v -17.67878 31.46716 30.00000
v -18.88899 30.82029 30.00000
v -19.94975 29.94975 30.00000
v -20.82029 28.88899 30.00000
v -21.46716 27.67878 30.00000
v -21.86550 26.36563 30.00000
v -22.00000 25.00000 30.00000
v -22.00000 11.00000 30.00000
v -21.86550 9.63437 30.00000
v -21.46716 8.32122 30.00000
v -20.82029 7.11101 30.00000
v -19.94975 6.05025 30.00000
v -18.88899 5.17971 30.00000
v -17.67878 4.53284 30.00000
v -16.36563 4.13450 30.00000
v -15.00000 4.00000 30.00000
v 15.00000 4.00000 30.00000
v 16.36563 4.13450 30.00000
v 17.67878 4.53284 30.00000
v 18.88899 5.17971 30.00000
v 19.94975 6.05025 30.00000
v 20.82029 7.11101 30.00000
v 21.46716 8.32122 30.00000
v 21.86550 9.63437 30.00000
v 22.00000 11.00000 30.00000
v 22.00000 25.00000 36.00000
v 21.86550 26.36563 36.00000
v 21.46716 27.67878 36.00000
v 20.82029 28.88899 36.00000
v 19.94975 29.94975 36.00000
v 18.88899 30.82029 36.00000
v 17.67878 31.46716 36.00000
v 16.36563 31.86550 36.00000
v 15.00000 32.00000 36.00000
v -15.00000 32.00000 36.00000
v -16.36563 31.86550 36.00000
v -17.67878 31.46716 36.00000
v -18.88899 30.82029 36.00000
v -19.94975 29.94975 36.00000
v -20.82029 28.88899 36.00000
v -21.46716 27.67878 36.00000
v -21.86550 26.36563 36.00000
v -22.00000 25.00000 36.00000
v -22.00000 11.00000 36.00000
v -21.86550 9.63437 36.00000
v -21.46716 8.32122 36.00000
v -20.82029 7.11101 36.00000
v -19.94975 6.05025 36.00000
v -18.88899 5.17971 36.00000
v -17.67878 4.53284 36.00000
v -16.36563 4.13450 36.00000
v -15.00000 4.00000 36.00000
v 15.00000 4.00000 36.00000
v 16.36563 4.13450 36.00000
v 17.67878 4.53284 36.00000
v 18.88899 5.17971 36.00000
v 19.94975 6.05025 36.00000
v 20.82029 7.11101 36.00000
v 21.46716 8.32122 36.00000
v 21.86550 9.63437 36.00000
v 22.00000 11.00000 36.00000
v -13.47177 18.00000 35.41057
v -13.17747 16.69835 35.36991
v -12.35287 15.65451 35.25599
v -11.16128 15.07522 35.09136
v -9.83872 15.07522 34.90864
v -8.64713 15.65451 34.74401
v -7.82253 16.69835 34.63009
v -7.52823 18.00000 34.58943
v -7.82253 19.30165 34.63009
v -8.64713 20.34549 34.74401
v -9.83872 20.92478 34.90864
v -11.16128 20.92478 35.09136
v -12.35287 20.34549 35.25599
v -13.17747 19.30165 35.36991
v -10.84677 18.00000 54.41057
v -10.55247 16.69835 54.36991
v -9.72787 15.65451 54.25599
v -8.53628 15.07522 54.09136
v -7.21372 15.07522 53.90864
v -6.02213 15.65451 53.74401
v -5.19753 16.69835 53.63009
v -4.90323 18.00000 53.58943
v -5.19753 19.30165 53.63009
v -6.02213 20.34549 53.74401
v -7.21372 20.92478 53.90864
v -8.53628 20.92478 54.09136
v -9.72787 20.34549 54.25599
v -10.55247 19.30165 54.36991
v -10.50000 18.00000 35.00000
v -7.87500 18.00000 54.00000
v -10.50000 18.00000 38.00000
v -9.35195 18.00000 37.77164
v -9.46564 18.49812 37.77164
v -9.78420 18.89758 37.77164
v -10.24453 19.11927 37.77164
v -10.75547 19.11927 37.77164
v -11.21580 18.89758 37.77164
v -11.53436 18.49812 37.77164
v -11.64805 18.00000 37.77164
v -11.53436 17.50188 37.77164
v -11.21580 17.10242 37.77164
v -10.75547 16.88073 37.77164
v -10.24453 16.88073 37.77164
v -9.78420 17.10242 37.77164
v -9.46564 17.50188 37.77164
v -8.37868 18.00000 37.12132
v -8.58876 18.92041 37.12132
v -9.17738 19.65852 37.12132
v -10.02796 20.06813 37.12132
v -10.97204 20.06813 37.12132
v -11.82262 19.65852 37.12132
v -12.41124 18.92041 37.12132
v -12.62132 18.00000 37.12132
v -12.41124 17.07959 37.12132
v -11.82262 16.34148 37.12132
v -10.97204 15.93187 37.12132
v -10.02796 15.93187 37.12132
v -9.17738 16.34148 37.12132
v -8.58876 17.07959 37.12132
v -7.72836 18.00000 36.14805
v -8.00284 19.20257 36.14805
v -8.77191 20.16695 36.14805
v -9.88325 20.70215 36.14805
v -11.11675 20.70215 36.14805
v -12.22809 20.16695 36.14805
v -12.99716 19.20257 36.14805
v -13.27164 18.00000 36.14805
v -12.99716 16.79743 36.14805
v -12.22809 15.83305 36.14805
v -11.11675 15.29785 36.14805
v -9.88325 15.29785 36.14805
v -8.77191 15.83305 36.14805
v -8.00284 16.79743 36.14805
v -7.50000 18.00000 35.00000
v -7.79709 19.30165 35.00000
v -8.62953 20.34549 35.00000
v -9.83244 20.92478 35.00000
v -11.16756 20.92478 35.00000
v -12.37047 20.34549 35.00000
v -13.20291 19.30165 35.00000
v -13.50000 18.00000 35.00000
v -13.20291 16.69835 35.00000
v -12.37047 15.65451 35.00000
v -11.16756 15.07522 35.00000
v -9.83244 15.07522 35.00000
v -8.62953 15.65451 35.00000
v -7.79709 16.69835 35.00000
v -7.72836 18.00000 33.85195
v -8.00284 19.20257 33.85195
v -8.77191 20.16695 33.85195
v -9.88325 20.70215 33.85195
v -11.11675 20.70215 33.85195
v -12.22809 20.16695 33.85195
v -12.99716 19.20257 33.85195
v -13.27164 18.00000 33.85195
v -12.99716 16.79743 33.85195
v -12.22809 15.83305 33.85195
v -11.11675 15.29785 33.85195
v -9.88325 15.29785 33.85195
v -8.77191 15.83305 33.85195
v -8.00284 16.79743 33.85195
v -8.37868 18.00000 32.87868
v -8.58876 18.92041 32.87868
v -9.17738 19.65852 32.87868
v -10.02796 20.06813 32.87868
v -10.97204 20.06813 32.87868
v -11.82262 19.65852 32.87868
v -12.41124 18.92041 32.87868
v -12.62132 18.00000 32.87868
v -12.41124 17.07959 32.87868
v -11.82262 16.34148 32.87868
v -10.97204 15.93187 32.87868
v -10.02796 15.93187 32.87868
v -9.17738 16.34148 32.87868
v -8.58876 17.07959 32.87868
v -9.35195 18.00000 32.22836
v -9.46564 18.49812 32.22836
v -9.78420 18.89758 32.22836
v -10.24453 19.11927 32.22836
v -10.75547 19.11927 32.22836
v -11.21580 18.89758 32.22836
v -11.53436 18.49812 32.22836
v -11.64805 18.00000 32.22836
v -11.53436 17.50188 32.22836
v -11.21580 17.10242 32.22836
v -10.75547 16.88073 32.22836
v -10.24453 16.88073 32.22836
v -9.78420 17.10242 32.22836
v -9.46564 17.50188 32.22836
v -10.50000 18.00000 32.00000
v -7.87500 18.00000 57.00000
v -6.72695 18.00000 56.77164
v -6.84064 18.49812 56.77164
v -7.15920 18.89758 56.77164
v -7.61953 19.11927 56.77164
v -8.13047 19.11927 56.77164
v -8.59080 18.89758 56.77164
v -8.90936 18.49812 56.77164
v -9.02305 18.00000 56.77164
v -8.90936 17.50188 56.77164
v -8.59080 17.10242 56.77164
v -8.13047 16.88073 56.77164
v -7.61953 16.88073 56.77164
v -7.15920 17.10242 56.77164
v -6.84064 17.50188 56.77164
v -5.75368 18.00000 56.12132
v -5.96376 18.92041 56.12132
v -6.55238 19.65852 56.12132
v -7.40296 20.06813 56.12132
v -8.34704 20.06813 56.12132
v -9.19762 19.65852 56.12132
v -9.78624 18.92041 56.12132
v -9.99632 18.00000 56.12132
v -9.78624 17.07959 56.12132
v -9.19762 16.34148 56.12132
v -8.34704 15.93187 56.12132
v -7.40296 15.93187 56.12132
v -6.55238 16.34148 56.12132
v -5.96376 17.07959 56.12132
v -5.10336 18.00000 55.14805
v -5.37784 19.20257 55.14805
v -6.14691 20.16695 55.14805
v -7.25825 20.70215 55.14805
v -8.49175 20.70215 55.14805
v -9.60309 20.16695 55.14805
v -10.37216 19.20257 55.14805
v -10.64664 18.00000 55.14805
v -10.37216 16.79743 55.14805
v -9.60309 15.83305 55.14805
v -8.49175 15.29785 55.14805
v -7.25825 15.29785 55.14805
v -6.14691 15.83305 55.14805
v -5.37784 16.79743 55.14805
v -4.87500 18.00000 54.00000
v -5.17209 19.30165 54.00000
v -6.00453 20.34549 54.00000
v -7.20744 20.92478 54.00000
v -8.54256 20.92478 54.00000
v -9.74547 20.34549 54.00000
v -10.57791 19.30165 54.00000
v -10.87500 18.00000 54.00000
v -10.57791 16.69835 54.00000
v -9.74547 15.65451 54.00000
v -8.54256 15.07522 54.00000
v -7.20744 15.07522 54.00000
v -6.00453 15.65451 54.00000
v -5.17209 16.69835 54.00000
v -5.10336 18.00000 52.85195
v -5.37784 19.20257 52.85195
v -6.14691 20.16695 52.85195
v -7.25825 20.70215 52.85195
v -8.49175 20.70215 52.85195
v -9.60309 20.16695 52.85195
v -10.37216 19.20257 52.85195
v -10.64664 18.00000 52.85195
v -10.37216 16.79743 52.85195
v -9.60309 15.83305 52.85195
v -8.49175 15.29785 52.85195
v -7.25825 15.29785 52.85195
v -6.14691 15.83305 52.85195
v -5.37784 16.79743 52.85195
v -5.75368 18.00000 51.87868
v -5.96376 18.92041 51.87868
v -6.55238 19.65852 51.87868
v -7.40296 20.06813 51.87868
v -8.34704 20.06813 51.87868
v -9.19762 19.65852 51.87868
v -9.78624 18.92041 51.87868
v -9.99632 18.00000 51.87868
v -9.78624 17.07959 51.87868
v -9.19762 16.34148 51.87868
v -8.34704 15.93187 51.87868
v -7.40296 15.93187 51.87868
v -6.55238 16.34148 51.87868
v -5.96376 17.07959 51.87868
v -6.72695 18.00000 51.22836
v -6.84064 18.49812 51.22836
v -7.15920 18.89758 51.22836
v -7.61953 19.11927 51.22836
v -8.13047 19.11927 51.22836
v -8.59080 18.89758 51.22836
v -8.90936 18.49812 51.22836
v -9.02305 18.00000 51.22836
v -8.90936 17.50188 51.22836
v -8.59080 17.10242 51.22836
v -8.13047 16.88073 51.22836
v -7.61953 16.88073 51.22836
v -7.15920 17.10242 51.22836
v -6.84064 17.50188 51.22836
v -7.87500 18.00000 51.00000
v 7.52823 18.00000 34.58943
v 7.82253 16.69835 34.63009
v 8.64713 15.65451 34.74401
v 9.83872 15.07522 34.90864
v 11.16128 15.07522 35.09136
v 12.35287 15.65451 35.25599
v 13.17747 16.69835 35.36991
v 13.47177 18.00000 35.41057
v 13.17747 19.30165 35.36991
v 12.35287 20.34549 35.25599
v 11.16128 20.92478 35.09136
v 9.83872 20.92478 34.90864
v 8.64713 20.34549 34.74401
v 7.82253 19.30165 34.63009
v 4.90323 18.00000 53.58943
v 5.19753 16.69835 53.63009
v 6.02213 15.65451 53.74401
v 7.21372 15.07522 53.90864
v 8.53628 15.07522 54.09136
v 9.72787 15.65451 54.25599
v 10.55247 16.69835 54.36991
v 10.84677 18.00000 54.41057
v 10.55247 19.30165 54.36991
v 9.72787 20.34549 54.25599
v 8.53628 20.92478 54.09136
v 7.21372 20.92478 53.90864
v 6.02213 20.34549 53.74401
v 5.19753 19.30165 53.63009
v 10.50000 18.00000 35.00000
v 7.87500 18.00000 54.00000
v 10.50000 18.00000 38.00000
v 11.64805 18.00000 37.77164
v 11.53436 18.49812 37.77164
v 11.21580 18.89758 37.77164
v 10.75547 19.11927 37.77164
v 10.24453 19.11927 37.77164
v 9.78420 18.89758 37.77164
v 9.46564 18.49812 37.77164
v 9.35195 18.00000 37.77164
v 9.46564 17.50188 37.77164
v 9.78420 17.10242 37.77164
v 10.24453 16.88073 37.77164
v 10.75547 16.88073 37.77164
v 11.21580 17.10242 37.77164
v 11.53436 17.50188 37.77164
v 12.62132 18.00000 37.12132
v 12.41124 18.92041 37.12132
v 11.82262 19.65852 37.12132
v 10.97204 20.06813 37.12132
v 10.02796 20.06813 37.12132
v 9.17738 19.65852 37.12132
v 8.58876 18.92041 37.12132
v 8.37868 18.00000 37.12132
v 8.58876 17.07959 37.12132
v 9.17738 16.34148 37.12132
v 10.02796 15.93187 37.12132
v 10.97204 15.93187 37.12132
v 11.82262 16.34148 37.12132
v 12.41124 17.07959 37.12132
v 13.27164 18.00000 36.14805
v 12.99716 19.20257 36.14805
v 12.22809 20.16695 36.14805
v 11.11675 20.70215 36.14805
v 9.88325 20.70215 36.14805
v 8.77191 20.16695 36.14805
v 8.00284 19.20257 36.14805
v 7.72836 18.00000 36.14805
v 8.00284 16.79743 36.14805
v 8.77191 15.83305 36.14805
v 9.88325 15.29785 36.14805
v 11.11675 15.29785 36.14805
v 12.22809 15.83305 36.14805
v 12.99716 16.79743 36.14805
v 13.50000 18.00000 35.00000
v 13.20291 19.30165 35.00000
v 12.37047 20.34549 35.00000
v 11.16756 20.92478 35.00000
v 9.83244 20.92478 35.00000
v 8.62953 20.34549 35.00000
v 7.79709 19.30165 35.00000
v 7.50000 18.00000 35.00000
v 7.79709 16.69835 35.00000
v 8.62953 15.65451 35.00000
v 9.83244 15.07522 35.00000
v 11.16756 15.07522 35.00000
v 12.37047 15.65451 35.00000
v 13.20291 16.69835 35.00000
v 13.27164 18.00000 33.85195
v 12.99716 19.20257 33.85195
v 12.22809 20.16695 33.85195
v 11.11675 20.70215 33.85195
v 9.88325 20.70215 33.85195
v 8.77191 20.16695 33.85195
v 8.00284 19.20257 33.85195
v 7.72836 18.00000 33.85195
v 8.00284 16.79743 33.85195
v 8.77191 15.83305 33.85195
v 9.88325 15.29785 33.85195
v 11.11675 15.29785 33.85195
v 12.22809 15.83305 33.85195
v 12.99716 16.79743 33.85195
v 12.62132 18.00000 32.87868
v 12.41124 18.92041 32.87868
v 11.82262 19.65852 32.87868
v 10.97204 20.06813 32.87868
v 10.02796 20.06813 32.87868
v 9.17738 19.65852 32.87868
v 8.58876 18.92041 32.87868
v 8.37868 18.00000 32.87868
v 8.58876 17.07959 32.87868
v 9.17738 16.34148 32.87868
v 10.02796 15.93187 32.87868
v 10.97204 15.93187 32.87868
v 11.82262 16.34148 32.87868
v 12.41124 17.07959 32.87868
v 11.64805 18.00000 32.22836
v 11.53436 18.49812 32.22836
v 11.21580 18.89758 32.22836
v 10.75547 19.11927 32.22836
v 10.24453 19.11927 32.22836
v 9.78420 18.89758 32.22836
v 9.46564 18.49812 32.22836
v 9.35195 18.00000 32.22836
v 9.46564 17.50188 32.22836
v 9.78420 17.10242 32.22836
v 10.24453 16.88073 32.22836
v 10.75547 16.88073 32.22836
v 11.21580 17.10242 32.22836
v 11.53436 17.50188 32.22836
v 10.50000 18.00000 32.00000
v 7.87500 18.00000 57.00000
v 9.02305 18.00000 56.77164
v 8.90936 18.49812 56.77164
v 8.59080 18.89758 56.77164
v 8.13047 19.11927 56.77164
v 7.61953 19.11927 56.77164
v 7.15920 18.89758 56.77164
v 6.84064 18.49812 56.77164
v 6.72695 18.00000 56.77164
v 6.84064 17.50188 56.77164
v 7.15920 17.10242 56.77164
v 7.61953 16.88073 56.77164
v 8.13047 16.88073 56.77164
v 8.59080 17.10242 56.77164
v 8.90936 17.50188 56.77164
v 9.99632 18.00000 56.12132
v 9.78624 18.92041 56.12132
v 9.19762 19.65852 56.12132
v 8.34704 20.06813 56.12132
v 7.40296 20.06813 56.12132
v 6.55238 19.65852 56.12132
v 5.96376 18.92041 56.12132
v 5.75368 18.00000 56.12132
v 5.96376 17.07959 56.12132
v 6.55238 16.34148 56.12132
v 7.40296 15.93187 56.12132
v 8.34704 15.93187 56.12132
v 9.19762 16.34148 56.12132
v 9.78624 17.07959 56.12132
v 10.64664 18.00000 55.14805
v 10.37216 19.20257 55.14805
v 9.60309 20.16695 55.14805
v 8.49175 20.70215 55.14805
v 7.25825 20.70215 55.14805
v 6.14691 20.16695 55.14805
v 5.37784 19.20257 55.14805
v 5.10336 18.00000 55.14805
v 5.37784 16.79743 55.14805
v 6.14691 15.83305 55.14805
v 7.25825 15.29785 55.14805
v 8.49175 15.29785 55.14805
v 9.60309 15.83305 55.14805
v 10.37216 16.79743 55.14805
v 10.87500 18.00000 54.00000
v 10.57791 19.30165 54.00000
v 9.74547 20.34549 54.00000
v 8.54256 20.92478 54.00000
v 7.20744 20.92478 54.00000
v 6.00453 20.34549 54.00000
v 5.17209 19.30165 54.00000
v 4.87500 18.00000 54.00000
v 5.17209 16.69835 54.00000
v 6.00453 15.65451 54.00000
v 7.20744 15.07522 54.00000
v 8.54256 15.07522 54.00000
v 9.74547 15.65451 54.00000
v 10.57791 16.69835 54.00000
v 10.64664 18.00000 52.85195
v 10.37216 19.20257 52.85195
v 9.60309 20.16695 52.85195
v 8.49175 20.70215 52.85195
v 7.25825 20.70215 52.85195
v 6.14691 20.16695 52.85195
v 5.37784 19.20257 52.85195
v 5.10336 18.00000 52.85195
v 5.37784 16.79743 52.85195
v 6.14691 15.83305 52.85195
v 7.25825 15.29785 52.85195
v 8.49175 15.29785 52.85195
v 9.60309 15.83305 52.85195
v 10.37216 16.79743 52.85195
v 9.99632 18.00000 51.87868
v 9.78624 18.92041 51.87868
v 9.19762 19.65852 51.87868
v 8.34704 20.06813 51.87868
v 7.40296 20.06813 51.87868
v 6.55238 19.65852 51.87868
v 5.96376 18.92041 51.87868
v 5.75368 18.00000 51.87868
v 5.96376 17.07959 51.87868
v 6.55238 16.34148 51.87868
v 7.40296 15.93187 51.87868
v 8.34704 15.93187 51.87868
v 9.19762 16.34148 51.87868
v 9.78624 17.07959 51.87868
v 9.02305 18.00000 51.22836
v 8.90936 18.49812 51.22836
v 8.59080 18.89758 51.22836
v 8.13047 19.11927 51.22836
v 7.61953 19.11927 51.22836
v 7.15920 18.89758 51.22836
v 6.84064 18.49812 51.22836
v 6.72695 18.00000 51.22836
v 6.84064 17.50188 51.22836
v 7.15920 17.10242 51.22836
v 7.61953 16.88073 51.22836
v 8.13047 16.88073 51.22836
v 8.59080 17.10242 51.22836
v 8.90936 17.50188 51.22836
v 7.87500 18.00000 51.00000
v -8.00000 15.80000 52.00000
v -8.00000 16.01787 51.04546
v -8.00000 16.62832 50.27997
v -8.00000 17.51045 49.85516
v -8.00000 18.48955 49.85516
v -8.00000 19.37168 50.27997
v -8.00000 19.98213 51.04546
v -8.00000 20.20000 52.00000
v -8.00000 19.98213 52.95454
v -8.00000 19.37168 53.72003
v -8.00000 18.48955 54.14484
v -8.00000 17.51045 54.14484
v -8.00000 16.62832 53.72003
v -8.00000 16.01787 52.95454
v 8.00000 15.80000 52.00000
v 8.00000 16.01787 51.04546
v 8.00000 16.62832 50.27997
v 8.00000 17.51045 49.85516
v 8.00000 18.48955 49.85516
v 8.00000 19.37168 50.27997
v 8.00000 19.98213 51.04546
v 8.00000 20.20000 52.00000
v 8.00000 19.98213 52.95454
v 8.00000 19.37168 53.72003
v 8.00000 18.48955 54.14484
v 8.00000 17.51045 54.14484
v 8.00000 16.62832 53.72003
v 8.00000 16.01787 52.95454
v -8.00000 18.00000 52.00000
v 8.00000 18.00000 52.00000
v -8.00000 18.00000 54.20000
v -7.15810 18.00000 54.03253
v -7.24147 18.36529 54.03253
v -7.47508 18.65823 54.03253
v -7.81266 18.82080 54.03253
v -8.18734 18.82080 54.03253
v -8.52492 18.65823 54.03253
v -8.75853 18.36529 54.03253
v -8.84190 18.00000 54.03253
v -8.75853 17.63471 54.03253
v -8.52492 17.34177 54.03253
v -8.18734 17.17920 54.03253
v -7.81266 17.17920 54.03253
v -7.47508 17.34177 54.03253
v -7.24147 17.63471 54.03253
v -6.44437 18.00000 53.55563
v -6.59842 18.67496 53.55563
v -7.03008 19.21624 53.55563
v -7.65384 19.51663 53.55563
v -8.34616 19.51663 53.55563
v -8.96992 19.21624 53.55563
v -9.40158 18.67496 53.55563
v -9.55563 18.00000 53.55563
v -9.40158 17.32504 53.55563
v -8.96992 16.78376 53.55563
v -8.34616 16.48337 53.55563
v -7.65384 16.48337 53.55563
v -7.03008 16.78376 53.55563
v -6.59842 17.32504 53.55563
v -5.96747 18.00000 52.84190
v -6.16875 18.88188 52.84190
v -6.73274 19.58910 52.84190
v -7.54772 19.98158 52.84190
v -8.45228 19.98158 52.84190
v -9.26726 19.58910 52.84190
v -9.83125 18.88188 52.84190
v -10.03253 18.00000 52.84190
v -9.83125 17.11812 52.84190
v -9.26726 16.41090 52.84190
v -8.45228 16.01842 52.84190
v -7.54772 16.01842 52.84190
v -6.73274 16.41090 52.84190
v -6.16875 17.11812 52.84190
v -5.80000 18.00000 52.00000
v -6.01787 18.95454 52.00000
v -6.62832 19.72003 52.00000
v -7.51045 20.14484 52.00000
v -8.48955 20.14484 52.00000
v -9.37168 19.72003 52.00000
v -9.98213 18.95454 52.00000
v -10.20000 18.00000 52.00000
v -9.98213 17.04546 52.00000
v -9.37168 16.27997 52.00000
v -8.48955 15.85516 52.00000
v -7.51045 15.85516 52.00000
v -6.62832 16.27997 52.00000
v -6.01787 17.04546 52.00000
v -5.96747 18.00000 51.15810
v -6.16875 18.88188 51.15810
v -6.73274 19.58910 51.15810
v -7.54772 19.98158 51.15810
v -8.45228 19.98158 51.15810
v -9.26726 19.58910 51.15810
v -9.83125 18.88188 51.15810
v -10.03253 18.00000 51.15810
v -9.83125 17.11812 51.15810
v -9.26726 16.41090 51.15810
v -8.45228 16.01842 51.15810
v -7.54772 16.01842 51.15810
v -6.73274 16.41090 51.15810
v -6.16875 17.11812 51.15810
v -6.44437 18.00000 50.44437
v -6.59842 18.67496 50.44437
v -7.03008 19.21624 50.44437
v -7.65384 19.51663 50.44437
v -8.34616 19.51663 50.44437
v -8.96992 19.21624 50.44437
v -9.40158 18.67496 50.44437
v -9.55563 18.00000 50.44437
v -9.40158 17.32504 50.44437
v -8.96992 16.78376 50.44437
v -8.34616 16.48337 50.44437
v -7.65384 16.48337 50.44437
v -7.03008 16.78376 50.44437
v -6.59842 17.32504 50.44437
v -7.15810 18.00000 49.96747
v -7.24147 18.36529 49.96747
v -7.47508 18.65823 49.96747
v -7.81266 18.82080 49.96747
v -8.18734 18.82080 49.96747
v -8.52492 18.65823 49.96747
v -8.75853 18.36529 49.96747
v -8.84190 18.00000 49.96747
v -8.75853 17.63471 49.96747
v -8.52492 17.34177 49.96747
v -8.18734 17.17920 49.96747
v -7.81266 17.17920 49.96747
v -7.47508 17.34177 49.96747
v -7.24147 17.63471 49.96747
v -8.00000 18.00000 49.80000
v 8.00000 18.00000 54.20000
v 8.84190 18.00000 54.03253
v 8.75853 18.36529 54.03253
v 8.52492 18.65823 54.03253
v 8.18734 18.82080 54.03253
v 7.81266 18.82080 54.03253
v 7.47508 18.65823 54.03253
v 7.24147 18.36529 54.03253
v 7.15810 18.00000 54.03253
v 7.24147 17.63471 54.03253
v 7.47508 17.34177 54.03253
v 7.81266 17.17920 54.03253
v 8.18734 17.17920 54.03253
v 8.52492 17.34177 54.03253
v 8.75853 17.63471 54.03253
v 9.55563 18.00000 53.55563
v 9.40158 18.67496 53.55563
v 8.96992 19.21624 53.55563
v 8.34616 19.51663 53.55563
v 7.65384 19.51663 53.55563
v 7.03008 19.21624 53.55563
v 6.59842 18.67496 53.55563
v 6.44437 18.00000 53.55563
v 6.59842 17.32504 53.55563
v 7.03008 16.78376 53.55563
v 7.65384 16.48337 53.55563
v 8.34616 16.48337 53.55563
v 8.96992 16.78376 53.55563
v 9.40158 17.32504 53.55563
v 10.03253 18.00000 52.84190
v 9.83125 18.88188 52.84190
v 9.26726 19.58910 52.84190
v 8.45228 19.98158 52.84190
v 7.54772 19.98158 52.84190
v 6.73274 19.58910 52.84190
v 6.16875 18.88188 52.84190
v 5.96747 18.00000 52.84190
v 6.16875 17.11812 52.84190
v 6.73274 16.41090 52.84190
v 7.54772 16.01842 52.84190
v 8.45228 16.01842 52.84190
v 9.26726 16.41090 52.84190
v 9.83125 17.11812 52.84190
v 10.20000 18.00000 52.00000
v 9.98213 18.95454 52.00000
v 9.37168 19.72003 52.00000
v 8.48955 20.14484 52.00000
v 7.51045 20.14484 52.00000
v 6.62832 19.72003 52.00000
v 6.01787 18.95454 52.00000
v 5.80000 18.00000 52.00000
v 6.01787 17.04546 52.00000
v 6.62832 16.27997 52.00000
v 7.51045 15.85516 52.00000
v 8.48955 15.85516 52.00000
v 9.37168 16.27997 52.00000
v 9.98213 17.04546 52.00000
v 10.03253 18.00000 51.15810
v 9.83125 18.88188 51.15810
v 9.26726 19.58910 51.15810
v 8.45228 19.98158 51.15810
v 7.54772 19.98158 51.15810
v 6.73274 19.58910 51.15810
v 6.16875 18.88188 51.15810
v 5.96747 18.00000 51.15810
v 6.16875 17.11812 51.15810
v 6.73274 16.41090 51.15810
v 7.54772 16.01842 51.15810
v 8.45228 16.01842 51.15810
v 9.26726 16.41090 51.15810
v 9.83125 17.11812 51.15810
v 9.55563 18.00000 50.44437
v 9.40158 18.67496 50.44437
v 8.96992 19.21624 50.44437
v 8.34616 19.51663 50.44437
v 7.65384 19.51663 50.44437
v 7.03008 19.21624 50.44437
v 6.59842 18.67496 50.44437
v 6.44437 18.00000 50.44437
v 6.59842 17.32504 50.44437
v 7.03008 16.78376 50.44437
v 7.65384 16.48337 50.44437
v 8.34616 16.48337 50.44437
v 8.96992 16.78376 50.44437
v 9.40158 17.32504 50.44437
v 8.84190 18.00000 49.96747
v 8.75853 18.36529 49.96747
v 8.52492 18.65823 49.96747
v 8.18734 18.82080 49.96747
v 7.81266 18.82080 49.96747
v 7.47508 18.65823 49.96747
v 7.24147 18.36529 49.96747
v 7.15810 18.00000 49.96747
v 7.24147 17.63471 49.96747
v 7.47508 17.34177 49.96747
v 7.81266 17.17920 49.96747
v 8.18734 17.17920 49.96747
v 8.52492 17.34177 49.96747
v 8.75853 17.63471 49.96747
v 8.00000 18.00000 49.80000
v 59.00000 -40.30000 6.00000
v 58.98463 -40.14393 6.00000
v 58.93910 -39.99385 6.00000
v 58.86518 -39.85554 6.00000
v 58.76569 -39.73431 6.00000
v 58.64446 -39.63482 6.00000
v 58.50615 -39.56090 6.00000
v 58.35607 -39.51537 6.00000
v 58.20000 -39.50000 6.00000
v -58.20000 -39.50000 6.00000
v -58.35607 -39.51537 6.00000
v -58.50615 -39.56090 6.00000
v -58.64446 -39.63482 6.00000
v -58.76569 -39.73431 6.00000
v -58.86518 -39.85554 6.00000
v -58.93910 -39.99385 6.00000
v -58.98463 -40.14393 6.00000
v -59.00000 -40.30000 6.00000
v -59.00000 -40.70000 6.00000
v -58.98463 -40.85607 6.00000
v -58.93910 -41.00615 6.00000
v -58.86518 -41.14446 6.00000
v -58.76569 -41.26569 6.00000
v -58.64446 -41.36518 6.00000
v -58.50615 -41.43910 6.00000
v -58.35607 -41.48463 6.00000
v -58.20000 -41.50000 6.00000
v 58.20000 -41.50000 6.00000
v 58.35607 -41.48463 6.00000
v 58.50615 -41.43910 6.00000
v 58.64446 -41.36518 6.00000
v 58.76569 -41.26569 6.00000
v 58.86518 -41.14446 6.00000
v 58.93910 -41.00615 6.00000
v 58.98463 -40.85607 6.00000
v 59.00000 -40.70000 6.00000
v 59.00000 -40.30000 10.00000
v 58.98463 -40.14393 10.00000
v 58.93910 -39.99385 10.00000
v 58.86518 -39.85554 10.00000
v 58.76569 -39.73431 10.00000
v 58.64446 -39.63482 10.00000
v 58.50615 -39.56090 10.00000
v 58.35607 -39.51537 10.00000
v 58.20000 -39.50000 10.00000
v -58.20000 -39.50000 10.00000
v -58.35607 -39.51537 10.00000
v -58.50615 -39.56090 10.00000
v -58.64446 -39.63482 10.00000
v -58.76569 -39.73431 10.00000
v -58.86518 -39.85554 10.00000
v -58.93910 -39.99385 10.00000
v -58.98463 -40.14393 10.00000
v -59.00000 -40.30000 10.00000
v -59.00000 -40.70000 10.00000
v -58.98463 -40.85607 10.00000
v -58.93910 -41.00615 10.00000
v -58.86518 -41.14446 10.00000
v -58.76569 -41.26569 10.00000
v -58.64446 -41.36518 10.00000
v -58.50615 -41.43910 10.00000
v -58.35607 -41.48463 10.00000
v -58.20000 -41.50000 10.00000
v 58.20000 -41.50000 10.00000
v 58.35607 -41.48463 10.00000
v 58.50615 -41.43910 10.00000
v 58.64446 -41.36518 10.00000
v 58.76569 -41.26569 10.00000
v 58.86518 -41.14446 10.00000
v 58.93910 -41.00615 10.00000
v 58.98463 -40.85607 10.00000
v 59.00000 -40.70000 10.00000
v 59.00000 40.70000 6.00000
v 58.98463 40.85607 6.00000
v 58.93910 41.00615 6.00000
v 58.86518 41.14446 6.00000
v 58.76569 41.26569 6.00000
v 58.64446 41.36518 6.00000
v 58.50615 41.43910 6.00000
v 58.35607 41.48463 6.00000
v 58.20000 41.50000 6.00000
v -58.20000 41.50000 6.00000
v -58.35607 41.48463 6.00000
v -58.50615 41.43910 6.00000
v -58.64446 41.36518 6.00000
v -58.76569 41.26569 6.00000
v -58.86518 41.14446 6.00000
v -58.93910 41.00615 6.00000
v -58.98463 40.85607 6.00000
v -59.00000 40.70000 6.00000
v -59.00000 40.30000 6.00000
v -58.98463 40.14393 6.00000
v -58.93910 39.99385 6.00000
v -58.86518 39.85554 6.00000
v -58.76569 39.73431 6.00000
v -58.64446 39.63482 6.00000
v -58.50615 39.56090 6.00000
v -58.35607 39.51537 6.00000
v -58.20000 39.50000 6.00000
v 58.20000 39.50000 6.00000
v 58.35607 39.51537 6.00000
v 58.50615 39.56090 6.00000
v 58.64446 39.63482 6.00000
v 58.76569 39.73431 6.00000
v 58.86518 39.85554 6.00000
v 58.93910 39.99385 6.00000
v 58.98463 40.14393 6.00000
v 59.00000 40.30000 6.00000
v 59.00000 40.70000 10.00000
v 58.98463 40.85607 10.00000
v 58.93910 41.00615 10.00000
v 58.86518 41.14446 10.00000
v 58.76569 41.26569 10.00000
v 58.64446 41.36518 10.00000
v 58.50615 41.43910 10.00000
v 58.35607 41.48463 10.00000
v 58.20000 41.50000 10.00000
v -58.20000 41.50000 10.00000
v -58.35607 41.48463 10.00000
v -58.50615 41.43910 10.00000
v -58.64446 41.36518 10.00000
v -58.76569 41.26569 10.00000
v -58.86518 41.14446 10.00000
v -58.93910 41.00615 10.00000
v -58.98463 40.85607 10.00000
v -59.00000 40.70000 10.00000
v -59.00000 40.30000 10.00000
v -58.98463 40.14393 10.00000
v -58.93910 39.99385 10.00000
v -58.86518 39.85554 10.00000
v -58.76569 39.73431 10.00000
v -58.64446 39.63482 10.00000
v -58.50615 39.56090 10.00000
v -58.35607 39.51537 10.00000
v -58.20000 39.50000 10.00000
v 58.20000 39.50000 10.00000
v 58.35607 39.51537 10.00000
v 58.50615 39.56090 10.00000
v 58.64446 39.63482 10.00000
v 58.76569 39.73431 10.00000
v 58.86518 39.85554 10.00000
v 58.93910 39.99385 10.00000
v 58.98463 40.14393 10.00000
v 59.00000 40.30000 10.00000
f 1 3 2
f 37 38 39
f 1 4 3
f 37 39 40
f 1 5 4
f 37 40 41
f 1 6 5
f 37 41 42
f 1 7 6
f 37 42 43
f 1 8 7
f 37 43 44
f 1 9 8
f 37 44 45
f 1 10 9
f 37 45 46
f 1 11 10
f 37 46 47
f 1 12 11
f 37 47 48
f 1 13 12
f 37 48 49
f 1 14 13
f 37 49 50
f 1 15 14
f 37 50 51
f 1 16 15
f 37 51 52
f 1 17 16
f 37 52 53
f 1 18 17
f 37 53 54
f 1 19 18
f 37 54 55
f 1 20 19
f 37 55 56
f 1 21 20
f 37 56 57
f 1 22 21
f 37 57 58
f 1 23 22
f 37 58 59
f 1 24 23
f 37 59 60
f 1 25 24
f 37 60 61
f 1 26 25
f 37 61 62
f 1 27 26
f 37 62 63
f 1 28 27
f 37 63 64
f 1 29 28
f 37 64 65
f 1 30 29
f 37 65 66
f 1 31 30
f 37 66 67
f 1 32 31
f 37 67 68
f 1 33 32
f 37 68 69
f 1 34 33
f 37 69 70
f 1 35 34
f 37 70 71
f 1 36 35
f 37 71 72
f 1 2 38
f 1 38 37
f 2 3 39
f 2 39 38
f 3 4 40
f 3 40 39
f 4 5 41
f 4 41 40
f 5 6 42
f 5 42 41
f 6 7 43
f 6 43 42
f 7 8 44
f 7 44 43
f 8 9 45
f 8 45 44
f 9 10 46
f 9 46 45
f 10 11 47
f 10 47 46
f 11 12 48
f 11 48 47
f 12 13 49
f 12 49 48
f 13 14 50
f 13 50 49
f 14 15 51
f 14 51 50
f 15 16 52
f 15 52 51
f 16 17 53
f 16 53 52
f 17 18 54
f 17 54 53
f 18 19 55
f 18 55 54
f 19 20 56
f 19 56 55
f 20 21 57
f 20 57 56
f 21 22 58
f 21 58 57
f 22 23 59
f 22 59 58
f 23 24 60
f 23 60 59
f 24 25 61
f 24 61 60
f 25 26 62
f 25 62 61
f 26 27 63
f 26 63 62
f 27 28 64
f 27 64 63
f 28 29 65
f 28 65 64
f 29 30 66
f 29 66 65
f 30 31 67
f 30 67 66
f 31 32 68
f 31 68 67
f 32 33 69
f 32 69 68
f 33 34 70
f 33 70 69
f 34 35 71
f 34 71 70
f 35 36 72
f 35 72 71
f 36 1 37
f 36 37 72
f 73 75 74
f 109 110 111
f 73 76 75
f 109 111 112
f 73 77 76
f 109 112 113
f 73 78 77
f 109 113 114
f 73 79 78
f 109 114 115
f 73 80 79
f 109 115 116
f 73 81 80
f 109 116 117
f 73 82 81
f 109 117 118
f 73 83 82
f 109 118 119
f 73 84 83
f 109 119 120
f 73 85 84
f 109 120 121
f 73 86 85
f 109 121 122
f 73 87 86
f 109 122 123
f 73 88 87
f 109 123 124
f 73 89 88
f 109 124 125
f 73 90 89
f 109 125 126
f 73 91 90
f 109 126 127
f 73 92 91
f 109 127 128
f 73 93 92
f 109 128 129
f 73 94 93
f 109 129 130
f 73 95 94
f 109 130 131
f 73 96 95
f 109 131 132
f 73 97 96
f 109 132 133
f 73 98 97
f 109 133 134
f 73 99 98
f 109 134 135
f 73 100 99
f 109 135 136
f 73 101 100
f 109 136 137
f 73 102 101
f 109 137 138
f 73 103 102
f 109 138 139
f 73 104 103
f 109 139 140
f 73 105 104
f 109 140 141
f 73 106 105
f 109 141 142
f 73 107 106
f 109 142 143
f 73 108 107
f 109 143 144
f 73 74 110
f 73 110 109
f 74 75 111
f 74 111 110
f 75 76 112
f 75 112 111
f 76 77 113
f 76 113 112
f 77 78 114
f 77 114 113
f 78 79 115
f 78 115 114
f 79 80 116
f 79 116 115
f 80 81 117
f 80 117 116
f 81 82 118
f 81 118 117
f 82 83 119
f 82 119 118
f 83 84 120
f 83 120 119
f 84 85 121
f 84 121 120
f 85 86 122
f 85 122 121
f 86 87 123
f 86 123 122
f 87 88 124
f 87 124 123
f 88 89 125
f 88 125 124
f 89 90 126
f 89 126 125
f 90 91 127
f 90 127 126
f 91 92 128
f 91 128 127
f 92 93 129
f 92 129 128
f 93 94 130
f 93 130 129
f 94 95 131
f 94 131 130
f 95 96 132
f 95 132 131
f 96 97 133
f 96 133 132
f 97 98 134
f 97 134 133
f 98 99 135
f 98 135 134
f 99 100 136
f 99 136 135
f 100 101 137
f 100 137 136
f 101 102 138
f 101 138 137
f 102 103 139
f 102 139 138
f 103 104 140
f 103 140 139
f 104 105 141
f 104 141 140
f 105 106 142
f 105 142 141
f 106 107 143
f 106 143 142
f 107 108 144
f 107 144 143
f 108 73 109
f 108 109 144
f 145 147 146
f 181 182 183
f 145 148 147
f 181 183 184
f 145 149 148
f 181 184 185
f 145 150 149
f 181 185 186
f 145 151 150
f 181 186 187
f 145 152 151
f 181 187 188
f 145 153 152
f 181 188 189
f 145 154 153
f 181 189 190
f 145 155 154
f 181 190 191
f 145 156 155
f 181 191 192
f 145 157 156
f 181 192 193
f 145 158 157
f 181 193 194
f 145 159 158
f 181 194 195
f 145 160 159
f 181 195 196
f 145 161 160
f 181 196 197
f 145 162 161
f 181 197 198
f 145 163 162
f 181 198 199
f 145 164 163
f 181 199 200
f 145 165 164
f 181 200 201
f 145 166 165
f 181 201 202
f 145 167 166
f 181 202 203
f 145 168 167
f 181 203 204
f 145 169 168
f 181 204 205
f 145 170 169
f 181 205 206
f 145 171 170
f 181 206 207
f 145 172 171
f 181 207 208
f 145 173 172
f 181 208 209
f 145 174 173
f 181 209 210
f 145 175 174
f 181 210 211
f 145 176 175
f 181 211 212
f 145 177 176
f 181 212 213
f 145 178 177
f 181 213 214
f 145 179 178
f 181 214 215
f 145 180 179
f 181 215 216
f 145 146 182
f 145 182 181
f 146 147 183
f 146 183 182
f 147 148 184
f 147 184 183
f 148 149 185
f 148 185 184
f 149 150 186
f 149 186 185
f 150 151 187
f 150 187 186
f 151 152 188
f 151 188 187
f 152 153 189
f 152 189 188
f 153 154 190
f 153 190 189
f 154 155 191
f 154 191 190
f 155 156 192
f 155 192 191
f 156 157 193
f 156 193 192
f 157 158 194
f 157 194 193
f 158 159 195
f 158 195 194
f 159 160 196
f 159 196 195
f 160 161 197
f 160 197 196
f 161 162 198
f 161 198 197
f 162 163 199
f 162 199 198
f 163 164 200
f 163 200 199
f 164 165 201
f 164 201 200
f 165 166 202
f 165 202 201
f 166 167 203
f 166 203 202
f 167 168 204
f 167 204 203
f 168 169 205
f 168 205 204
f 169 170 206
f 169 206 205
f 170 171 207
f 170 207 206
f 171 172 208
f 171 208 207
f 172 173 209
f 172 209 208
f 173 174 210
f 173 210 209
f 174 175 211
f 174 211 210
f 175 176 212
f 175 212 211
f 176 177 213
f 176 213 212
f 177 178 214
f 177 214 213
f 178 179 215
f 178 215 214
f 179 180 216
f 179 216 215
f 180 145 181
f 180 181 216
f 217 219 218
f 253 254 255
f 217 220 219
f 253 255 256
f 217 221 220
f 253 256 257
f 217 222 221
f 253 257 258
f 217 223 222
f 253 258 259
f 217 224 223
f 253 259 260
f 217 225 224
f 253 260 261
f 217 226 225
f 253 261 262
f 217 227 226
f 253 262 263
f 217 228 227
f 253 263 264
f 217 229 228
f 253 264 265
f 217 230 229
f 253 265 266
f 217 231 230
f 253 266 267
f 217 232 231
f 253 267 268
f 217 233 232
f 253 268 269
f 217 234 233
f 253 269 270
f 217 235 234
f 253 270 271
f 217 236 235
f 253 271 272
f 217 237 236
f 253 272 273
f 217 238 237
f 253 273 274
f 217 239 238
f 253 274 275
f 217 240 239
f 253 275 276
f 217 241 240
f 253 276 277
f 217 242 241
f 253 277 278
f 217 243 242
f 253 278 279
f 217 244 243
f 253 279 280
f 217 245 244
f 253 280 281
f 217 246 245
f 253 281 282
f 217 247 246
f 253 282 283
f 217 248 247
f 253 283 284
f 217 249 248
f 253 284 285
f 217 250 249
f 253 285 286
f 217 251 250
f 253 286 287
f 217 252 251
f 253 287 288
f 217 218 254
f 217 254 253
f 218 219 255
f 218 255 254
f 219 220 256
f 219 256 255
f 220 221 257
f 220 257 256
f 221 222 258
f 221 258 257
f 222 223 259
f 222 259 258
f 223 224 260
f 223 260 259
f 224 225 261
f 224 261 260
f 225 226 262
f 225 262 261
f 226 227 263
f 226 263 262
f 227 228 264
f 227 264 263
f 228 229 265
f 228 265 264
f 229 230 266
f 229 266 265
f 230 231 267
f 230 267 266
f 231 232 268
f 231 268 267
f 232 233 269
f 232 269 268
f 233 234 270
f 233 270 269
f 234 235 271
f 234 271 270
f 235 236 272
f 235 272 271
f 236 237 273
f 236 273 272
f 237 238 274
f 237 274 273
f 238 239 275
f 238 275 274
f 239 240 276
f 239 276 275
f 240 241 277
f 240 277 276
f 241 242 278
f 241 278 277
f 242 243 279
f 242 279 278
f 243 244 280
f 243 280 279
f 244 245 281
f 244 281 280
f 245 246 282
f 245 282 281
f 246 247 283
f 246 283 282
f 247 248 284
f 247 284 283
f 248 249 285
f 248 285 284
f 249 250 286
f 249 286 285
f 250 251 287
f 250 287 286
f 251 252 288
f 251 288 287
f 252 217 253
f 252 253 288
f 289 291 290
f 325 326 327
f 289 292 291
f 325 327 328
f 289 293 292
f 325 328 329
f 289 294 293
f 325 329 330
f 289 295 294
f 325 330 331
f 289 296 295
f 325 331 332
f 289 297 296
f 325 332 333
f 289 298 297
f 325 333 334
f 289 299 298
f 325 334 335
f 289 300 299
f 325 335 336
f 289 301 300
f 325 336 337
f 289 302 301
f 325 337 338
f 289 303 302
f 325 338 339
f 289 304 303
f 325 339 340
f 289 305 304
f 325 340 341
f 289 306 305
f 325 341 342
f 289 307 306
f 325 342 343
f 289 308 307
f 325 343 344
f 289 309 308
f 325 344 345
f 289 310 309
f 325 345 346
f 289 311 310
f 325 346 347
f 289 312 311
f 325 347 348
f 289 313 312
f 325 348 349
f 289 314 313
f 325 349 350
f 289 315 314
f 325 350 351
f 289 316 315
f 325 351 352
f 289 317 316
f 325 352 353
f 289 318 317
f 325 353 354
f 289 319 318
f 325 354 355
f 289 320 319
f 325 355 356
f 289 321 320
f 325 356 357
f 289 322 321
f 325 357 358
f 289 323 322
f 325 358 359
f 289 324 323
f 325 359 360
f 289 290 326
f 289 326 325
f 290 291 327
f 290 327 326
f 291 292 328
f 291 328 327
f 292 293 329
f 292 329 328
f 293 294 330
f 293 330 329
f 294 295 331
f 294 331 330
f 295 296 332
f 295 332 331
f 296 297 333
f 296 333 332
f 297 298 334
f 297 334 333
f 298 299 335
f 298 335 334
f 299 300 336
f 299 336 335
f 300 301 337
f 300 337 336
f 301 302 338
f 301 338 337
f 302 303 339
f 302 339 338
f 303 304 340
f 303 340 339
f 304 305 341
f 304 341 340
f 305 306 342
f 305 342 341
f 306 307 343
f 306 343 342
f 307 308 344
f 307 344 343
f 308 309 345
f 308 345 344
f 309 310 346
f 309 346 345
f 310 311 347
f 310 347 346
f 311 312 348
f 311 348 347
f 312 313 349
f 312 349 348
f 313 314 350
f 313 350 349
f 314 315 351
f 314 351 350
f 315 316 352
f 315 352 351
f 316 317 353
f 316 353 352
f 317 318 354
f 317 354 353
f 318 319 355
f 318 355 354
f 319 320 356
f 319 356 355
f 320 321 357
f 320 357 356
f 321 322 358
f 321 358 357
f 322 323 359
f 322 359 358
f 323 324 360
f 323 360 359
f 324 289 325
f 324 325 360
f 361 363 362
f 397 398 399
f 361 364 363
f 397 399 400
f 361 365 364
f 397 400 401
f 361 366 365
f 397 401 402
f 361 367 366
f 397 402 403
f 361 368 367
f 397 403 404
f 361 369 368
f 397 404 405
f 361 370 369
f 397 405 406
f 361 371 370
f 397 406 407
f 361 372 371
f 397 407 408
f 361 373 372
f 397 408 409
f 361 374 373
f 397 409 410
f 361 375 374
f 397 410 411
f 361 376 375
f 397 411 412
f 361 377 376
f 397 412 413
f 361 378 377
f 397 413 414
f 361 379 378
f 397 414 415
f 361 380 379
f 397 415 416
f 361 381 380
f 397 416 417
f 361 382 381
f 397 417 418
f 361 383 382
f 397 418 419
f 361 384 383
f 397 419 420
f 361 385 384
f 397 420 421
f 361 386 385
f 397 421 422
f 361 387 386
f 397 422 423
f 361 388 387
f 397 423 424
f 361 389 388
f 397 424 425
f 361 390 389
f 397 425 426
f 361 391 390
f 397 426 427
f 361 392 391
f 397 427 428
f 361 393 392
f 397 428 429
f 361 394 393
f 397 429 430
f 361 395 394
f 397 430 431
f 361 396 395
f 397 431 432
f 361 362 398
f 361 398 397
f 362 363 399
f 362 399 398
f 363 364 400
f 363 400 399
f 364 365 401
f 364 401 400
f 365 366 402
f 365 402 401
f 366 367 403
f 366 403 402
f 367 368 404
f 367 404 403
f 368 369 405
f 368 405 404
f 369 370 406
f 369 406 405
f 370 371 407
f 370 407 406
f 371 372 408
f 371 408 407
f 372 373 409
f 372 409 408
f 373 374 410
f 373 410 409
f 374 375 411
f 374 411 410
f 375 376 412
f 375 412 411
f 376 377 413
f 376 413 412
f 377 378 414
f 377 414 413
f 378 379 415
f 378 415 414
f 379 380 416
f 379 416 415
f 380 381 417
f 380 417 416
f 381 382 418
f 381 418 417
f 382 383 419
f 382 419 418
f 383 384 420
f 383 420 419
f 384 385 421
f 384 421 420
f 385 386 422
f 385 422 421
f 386 387 423
f 386 423 422
f 387 388 424
f 387 424 423
f 388 389 425
f 388 425 424
f 389 390 426
f 389 426 425
f 390 391 427
f 390 427 426
f 391 392 428
f 391 428 427
f 392 393 429
f 392 429 428
f 393 394 430
f 393 430 429
f 394 395 431
f 394 431 430
f 395 396 432
f 395 432 431
f 396 361 397
f 396 397 432
f 433 435 434
f 469 470 471
f 433 436 435
f 469 471 472
f 433 437 436
f 469 472 473
f 433 438 437
f 469 473 474
f 433 439 438
f 469 474 475
f 433 440 439
f 469 475 476
f 433 441 440
f 469 476 477
f 433 442 441
f 469 477 478
f 433 443 442
f 469 478 479
f 433 444 443
f 469 479 480
f 433 445 444
f 469 480 481
f 433 446 445
f 469 481 482
f 433 447 446
f 469 482 483
f 433 448 447
f 469 483 484
f 433 449 448
f 469 484 485
f 433 450 449
f 469 485 486
f 433 451 450
f 469 486 487
f 433 452 451
f 469 487 488
f 433 453 452
f 469 488 489
f 433 454 453
f 469 489 490
f 433 455 454
f 469 490 491
f 433 456 455
f 469 491 492
f 433 457 456
f 469 492 493
f 433 458 457
f 469 493 494
f 433 459 458
f 469 494 495
f 433 460 459
f 469 495 496
f 433 461 460
f 469 496 497
f 433 462 461
f 469 497 498
f 433 463 462
f 469 498 499
f 433 464 463
f 469 499 500
f 433 465 464
f 469 500 501
f 433 466 465
f 469 501 502
f 433 467 466
f 469 502 503
f 433 468 467
f 469 503 504
f 433 434 470
f 433 470 469
f 434 435 471
f 434 471 470
f 435 436 472
f 435 472 471
f 436 437 473
f 436 473 472
f 437 438 474
f 437 474 473
f 438 439 475
f 438 475 474
f 439 440 476
f 439 476 475
f 440 441 477
f 440 477 476
f 441 442 478
f 441 478 477
f 442 443 479
f 442 479 478
f 443 444 480
f 443 480 479
f 444 445 481
f 444 481 480
f 445 446 482
f 445 482 481
f 446 447 483
f 446 483 482
f 447 448 484
f 447 484 483
f 448 449 485
f 448 485 484
f 449 450 486
f 449 486 485
f 450 451 487
f 450 487 486
f 451 452 488
f 451 488 487
f 452 453 489
f 452 489 488
f 453 454 490
f 453 490 489
f 454 455 491
f 454 491 490
f 455 456 492
f 455 492 491
f 456 457 493
f 456 493 492
f 457 458 494
f 457 494 493
f 458 459 495
f 458 495 494
f 459 460 496
f 459 496 495
f 460 461 497
f 460 497 496
f 461 462 498
f 461 498 497
f 462 463 499
f 462 499 498
f 463 464 500
f 463 500 499
f 464 465 501
f 464 501 500
f 465 466 502
f 465 502 501
f 466 467 503
f 466 503 502
f 467 468 504
f 467 504 503
f 468 433 469
f 468 469 504
f 505 507 506
f 541 542 543
f 505 508 507
f 541 543 544
f 505 509 508
f 541 544 545
f 505 510 509
f 541 545 546
f 505 511 510
f 541 546 547
f 505 512 511
f 541 547 548
f 505 513 512
f 541 548 549
f 505 514 513
f 541 549 550
f 505 515 514
f 541 550 551
f 505 516 515
f 541 551 552
f 505 517 516
f 541 552 553
f 505 518 517
f 541 553 554
f 505 519 518
f 541 554 555
f 505 520 519
f 541 555 556
f 505 521 520
f 541 556 557
f 505 522 521
f 541 557 558
f 505 523 522
f 541 558 559
f 505 524 523
f 541 559 560
f 505 525 524
f 541 560 561
f 505 526 525
f 541 561 562
f 505 527 526
f 541 562 563
f 505 528 527
f 541 563 564
f 505 529 528
f 541 564 565
f 505 530 529
f 541 565 566
f 505 531 530
f 541 566 567
f 505 532 531
f 541 567 568
f 505 533 532
f 541 568 569
f 505 534 533
f 541 569 570
f 505 535 534
f 541 570 571
f 505 536 535
f 541 571 572
f 505 537 536
f 541 572 573
f 505 538 537
f 541 573 574
f 505 539 538
f 541 574 575
f 505 540 539
f 541 575 576
f 505 506 542
f 505 542 541
f 506 507 543
f 506 543 542
f 507 508 544
f 507 544 543
f 508 509 545
f 508 545 544
f 509 510 546
f 509 546 545
f 510 511 547
f 510 547 546
f 511 512 548
f 511 548 547
f 512 513 549
f 512 549 548
f 513 514 550
f 513 550 549
f 514 515 551
f 514 551 550
f 515 516 552
f 515 552 551
f 516 517 553
f 516 553 552
f 517 518 554
f 517 554 553
f 518 519 555
f 518 555 554
f 519 520 556
f 519 556 555
f 520 521 557
f 520 557 556
f 521 522 558
f 521 558 557
f 522 523 559
f 522 559 558
f 523 524 560
f 523 560 559
f 524 525 561
f 524 561 560
f 525 526 562
f 525 562 561
f 526 527 563
f 526 563 562
f 527 528 564
f 527 564 563
f 528 529 565
f 528 565 564
f 529 530 566
f 529 566 565
f 530 531 567
f 530 567 566
f 531 532 568
f 531 568 567
f 532 533 569
f 532 569 568
f 533 534 570
f 533 570 569
f 534 535 571
f 534 571 570
f 535 536 572
f 535 572 571
f 536 537 573
f 536 573 572
f 537 538 574
f 537 574 573
f 538 539 575
f 538 575 574
f 539 540 576
f 539 576 575
f 540 505 541
f 540 541 576
f 577 579 578
f 613 614 615
f 577 580 579
f 613 615 616
f 577 581 580
f 613 616 617
f 577 582 581
f 613 617 618
f 577 583 582
f 613 618 619
f 577 584 583
f 613 619 620
f 577 585 584
f 613 620 621
f 577 586 585
f 613 621 622
f 577 587 586
f 613 622 623
f 577 588 587
f 613 623 624
f 577 589 588
f 613 624 625
f 577 590 589
f 613 625 626
f 577 591 590
f 613 626 627
f 577 592 591
f 613 627 628
f 577 593 592
f 613 628 629
f 577 594 593
f 613 629 630
f 577 595 594
f 613 630 631
f 577 596 595
f 613 631 632
f 577 597 596
f 613 632 633
f 577 598 597
f 613 633 634
f 577 599 598
f 613 634 635
f 577 600 599
f 613 635 636
f 577 601 600
f 613 636 637
f 577 602 601
f 613 637 638
f 577 603 602
f 613 638 639
f 577 604 603
f 613 639 640
f 577 605 604
f 613 640 641
f 577 606 605
f 613 641 642
f 577 607 606
f 613 642 643
f 577 608 607
f 613 643 644
f 577 609 608
f 613 644 645
f 577 610 609
f 613 645 646
f 577 611 610
f 613 646 647
f 577 612 611
f 613 647 648
f 577 578 614
f 577 614 613
f 578 579 615
f 578 615 614
f 579 580 616
f 579 616 615
f 580 581 617
f 580 617 616
f 581 582 618
f 581 618 617
f 582 583 619
f 582 619 618
f 583 584 620
f 583 620 619
f 584 585 621
f 584 621 620
f 585 586 622
f 585 622 621
f 586 587 623
f 586 623 622
f 587 588 624
f 587 624 623
f 588 589 625
f 588 625 624
f 589 590 626
f 589 626 625
f 590 591 627
f 590 627 626
f 591 592 628
f 591 628 627
f 592 593 629
f 592 629 628
f 593 594 630
f 593 630 629
f 594 595 631
f 594 631 630
f 595 596 632
f 595 632 631
f 596 597 633
f 596 633 632
f 597 598 634
f 597 634 633
f 598 599 635
f 598 635 634
f 599 600 636
f 599 636 635
f 600 601 637
f 600 637 636
f 601 602 638
f 601 638 637
f 602 603 639
f 602 639 638
f 603 604 640
f 603 640 639
f 604 605 641
f 604 641 640
f 605 606 642
f 605 642 641
f 606 607 643
f 606 643 642
f 607 608 644
f 607 644 643
f 608 609 645
f 608 645 644
f 609 610 646
f 609 646 645
f 610 611 647
f 610 647 646
f 611 612 648
f 611 648 647
f 612 577 613
f 612 613 648
f 649 650 664
f 649 664 663
f 677 650 649
f 678 663 664
f 650 651 665
f 650 665 664
f 677 651 650
f 678 664 665
f 651 652 666
f 651 666 665
f 677 652 651
f 678 665 666
f 652 653 667
f 652 667 666
f 677 653 652
f 678 666 667
f 653 654 668
f 653 668 667
f 677 654 653
f 678 667 668
f 654 655 669
f 654 669 668
f 677 655 654
f 678 668 669
f 655 656 670
f 655 670 669
f 677 656 655
f 678 669 670
f 656 657 671
f 656 671 670
f 677 657 656
f 678 670 671
f 657 658 672
f 657 672 671
f 677 658 657
f 678 671 672
f 658 659 673
f 658 673 672
f 677 659 658
f 678 672 673
f 659 660 674
f 659 674 673
f 677 660 659
f 678 673 674
f 660 661 675
f 660 675 674
f 677 661 660
f 678 674 675
f 661 662 676
f 661 676 675
f 677 662 661
f 678 675 676
f 662 649 663
f 662 663 676
f 677 649 662
f 678 676 663
f 679 681 680
f 679 682 681
f 679 683 682
f 679 684 683
f 679 685 684
f 679 686 685
f 679 687 686
f 679 688 687
f 679 689 688
f 679 690 689
f 679 691 690
f 679 692 691
f 679 693 692
f 679 680 693
f 680 681 695
f 680 695 694
f 681 682 696
f 681 696 695
f 682 683 697
f 682 697 696
f 683 684 698
f 683 698 697
f 684 685 699
f 684 699 698
f 685 686 700
f 685 700 699
f 686 687 701
f 686 701 700
f 687 688 702
f 687 702 701
f 688 689 703
f 688 703 702
f 689 690 704
f 689 704 703
f 690 691 705
f 690 705 704
f 691 692 706
f 691 706 705
f 692 693 707
f 692 707 706
f 693 680 694
f 693 694 707
f 694 695 709
f 694 709 708
f 695 696 710
f 695 710 709
f 696 697 711
f 696 711 710
f 697 698 712
f 697 712 711
f 698 699 713
f 698 713 712
f 699 700 714
f 699 714 713
f 700 701 715
f 700 715 714
f 701 702 716
f 701 716 715
f 702 703 717
f 702 717 716
f 703 704 718
f 703 718 717
f 704 705 719
f 704 719 718
f 705 706 720
f 705 720 719
f 706 707 721
f 706 721 720
f 707 694 708
f 707 708 721
f 708 709 723
f 708 723 722
f 709 710 724
f 709 724 723
f 710 711 725
f 710 725 724
f 711 712 726
f 711 726 725
f 712 713 727
f 712 727 726
f 713 714 728
f 713 728 727
f 714 715 729
f 714 729 728
f 715 716 730
f 715 730 729
f 716 717 731
f 716 731 730
f 717 718 732
f 717 732 731
f 718 719 733
f 718 733 732
f 719 720 734
f 719 734 733
f 720 721 735
f 720 735 734
f 721 708 722
f 721 722 735
f 722 723 737
f 722 737 736
f 723 724 738
f 723 738 737
f 724 725 739
f 724 739 738
f 725 726 740
f 725 740 739
f 726 727 741
f 726 741 740
f 727 728 742
f 727 742 741
f 728 729 743
f 728 743 742
f 729 730 744
f 729 744 743
f 730 731 745
f 730 745 744
f 731 732 746
f 731 746 745
f 732 733 747
f 732 747 746
f 733 734 748
f 733 748 747
f 734 735 749
f 734 749 748
f 735 722 736
f 735 736 749
f 736 737 751
f 736 751 750
f 737 738 752
f 737 752 751
f 738 739 753
f 738 753 752
f 739 740 754
f 739 754 753
f 740 741 755
f 740 755 754
f 741 742 756
f 741 756 755
f 742 743 757
f 742 757 756
f 743 744 758
f 743 758 757
f 744 745 759
f 744 759 758
f 745 746 760
f 745 760 759
f 746 747 761
f 746 761 760
f 747 748 762
f 747 762 761
f 748 749 763
f 748 763 762
f 749 736 750
f 749 750 763
f 750 751 765
f 750 765 764
f 751 752 766
f 751 766 765
f 752 753 767
f 752 767 766
f 753 754 768
f 753 768 767
f 754 755 769
f 754 769 768
f 755 756 770
f 755 770 769
f 756 757 771
f 756 771 770
f 757 758 772
f 757 772 771
f 758 759 773
f 758 773 772
f 759 760 774
f 759 774 773
f 760 761 775
f 760 775 774
f 761 762 776
f 761 776 775
f 762 763 777
f 762 777 776
f 763 750 764
f 763 764 777
f 764 765 778
f 765 766 778
f 766 767 778
f 767 768 778
f 768 769 778
f 769 770 778
f 770 771 778
f 771 772 778
f 772 773 778
f 773 774 778
f 774 775 778
f 775 776 778
f 776 777 778
f 777 764 778
f 779 781 780
f 779 782 781
f 779 783 782
f 779 784 783
f 779 785 784
f 779 786 785
f 779 787 786
f 779 788 787
f 779 789 788
f 779 790 789
f 779 791 790
f 779 792 791
f 779 793 792
f 779 780 793
f 780 781 795
f 780 795 794
f 781 782 796
f 781 796 795
f 782 783 797
f 782 797 796
f 783 784 798
f 783 798 797
f 784 785 799
f 784 799 798
f 785 786 800
f 785 800 799
f 786 787 801
f 786 801 800
f 787 788 802
f 787 802 801
f 788 789 803
f 788 803 802
f 789 790 804
f 789 804 803
f 790 791 805
f 790 805 804
f 791 792 806
f 791 806 805
f 792 793 807
f 792 807 806
f 793 780 794
f 793 794 807
f 794 795 809
f 794 809 808
f 795 796 810
f 795 810 809
f 796 797 811
f 796 811 810
f 797 798 812
f 797 812 811
f 798 799 813
f 798 813 812
f 799 800 814
f 799 814 813
f 800 801 815
f 800 815 814
f 801 802 816
f 801 816 815
f 802 803 817
f 802 817 816
f 803 804 818
f 803 818 817
f 804 805 819
f 804 819 818
f 805 806 820
f 805 820 819
f 806 807 821
f 806 821 820
f 807 794 808
f 807 808 821
f 808 809 823
f 808 823 822
f 809 810 824
f 809 824 823
f 810 811 825
f 810 825 824
f 811 812 826
f 811 826 825
f 812 813 827
f 812 827 826
f 813 814 828
f 813 828 827
f 814 815 829
f 814 829 828
f 815 816 830
f 815 830 829
f 816 817 831
f 816 831 830
f 817 818 832
f 817 832 831
f 818 819 833
f 818 833 832
f 819 820 834
f 819 834 833
f 820 821 835
f 820 835 834
f 821 808 822
f 821 822 835
f 822 823 837
f 822 837 836
f 823 824 838
f 823 838 837
f 824 825 839
f 824 839 838
f 825 826 840
f 825 840 839
f 826 827 841
f 826 841 840
f 827 828 842
f 827 842 841
f 828 829 843
f 828 843 842
f 829 830 844
f 829 844 843
f 830 831 845
f 830 845 844
f 831 832 846
f 831 846 845
f 832 833 847
f 832 847 846
f 833 834 848
f 833 848 847
f 834 835 849
f 834 849 848
f 835 822 836
f 835 836 849
f 836 837 851
f 836 851 850
f 837 838 852
f 837 852 851
f 838 839 853
f 838 853 852
f 839 840 854
f 839 854 853
f 840 841 855
f 840 855 854
f 841 842 856
f 841 856 855
f 842 843 857
f 842 857 856
f 843 844 858
f 843 858 857
f 844 845 859
f 844 859 858
f 845 846 860
f 845 860 859
f 846 847 861
f 846 861 860
f 847 848 862
f 847 862 861
f 848 849 863
f 848 863 862
f 849 836 850
f 849 850 863
f 850 851 865
f 850 865 864
f 851 852 866
f 851 866 865
f 852 853 867
f 852 867 866
f 853 854 868
f 853 868 867
f 854 855 869
f 854 869 868
f 855 856 870
f 855 870 869
f 856 857 871
f 856 871 870
f 857 858 872
f 857 872 871
f 858 859 873
f 858 873 872
f 859 860 874
f 859 874 873
f 860 861 875
f 860 875 874
f 861 862 876
f 861 876 875
f 862 863 877
f 862 877 876
f 863 850 864
f 863 864 877
f 864 865 878
f 865 866 878
f 866 867 878
f 867 868 878
f 868 869 878
f 869 870 878
f 870 871 878
f 871 872 878
f 872 873 878
f 873 874 878
f 874 875 878
f 875 876 878
f 876 877 878
f 877 864 878
f 879 880 894
f 879 894 893
f 907 880 879
f 908 893 894
f 880 881 895
f 880 895 894
f 907 881 880
f 908 894 895
f 881 882 896
f 881 896 895
f 907 882 881
f 908 895 896
f 882 883 897
f 882 897 896
f 907 883 882
f 908 896 897
f 883 884 898
f 883 898 897
f 907 884 883
f 908 897 898
f 884 885 899
f 884 899 898
f 907 885 884
f 908 898 899
f 885 886 900
f 885 900 899
f 907 886 885
f 908 899 900
f 886 887 901
f 886 901 900
f 907 887 886
f 908 900 901
f 887 888 902
f 887 902 901
f 907 888 887
f 908 901 902
f 888 889 903
f 888 903 902
f 907 889 888
f 908 902 903
f 889 890 904
f 889 904 903
f 907 890 889
f 908 903 904
f 890 891 905
f 890 905 904
f 907 891 890
f 908 904 905
f 891 892 906
f 891 906 905
f 907 892 891
f 908 905 906
f 892 879 893
f 892 893 906
f 907 879 892
f 908 906 893
f 909 911 910
f 909 912 911
f 909 913 912
f 909 914 913
f 909 915 914
f 909 916 915
f 909 917 916
f 909 918 917
f 909 919 918
f 909 920 919
f 909 921 920
f 909 922 921
f 909 923 922
f 909 910 923
f 910 911 925
f 910 925 924
f 911 912 926
f 911 926 925
f 912 913 927
f 912 927 926
f 913 914 928
f 913 928 927
f 914 915 929
f 914 929 928
f 915 916 930
f 915 930 929
f 916 917 931
f 916 931 930
f 917 918 932
f 917 932 931
f 918 919 933
f 918 933 932
f 919 920 934
f 919 934 933
f 920 921 935
f 920 935 934
f 921 922 936
f 921 936 935
f 922 923 937
f 922 937 936
f 923 910 924
f 923 924 937
f 924 925 939
f 924 939 938
f 925 926 940
f 925 940 939
f 926 927 941
f 926 941 940
f 927 928 942
f 927 942 941
f 928 929 943
f 928 943 942
f 929 930 944
f 929 944 943
f 930 931 945
f 930 945 944
f 931 932 946
f 931 946 945
f 932 933 947
f 932 947 946
f 933 934 948
f 933 948 947
f 934 935 949
f 934 949 948
f 935 936 950
f 935 950 949
f 936 937 951
f 936 951 950
f 937 924 938
f 937 938 951
f 938 939 953
f 938 953 952
f 939 940 954
f 939 954 953
f 940 941 955
f 940 955 954
f 941 942 956
f 941 956 955
f 942 943 957
f 942 957 956
f 943 944 958
f 943 958 957
f 944 945 959
f 944 959 958
f 945 946 960
f 945 960 959
f 946 947 961
f 946 961 960
f 947 948 962
f 947 962 961
f 948 949 963
f 948 963 962
f 949 950 964
f 949 964 963
f 950 951 965
f 950 965 964
f 951 938 952
f 951 952 965
f 952 953 967
f 952 967 966
f 953 954 968
f 953 968 967
f 954 955 969
f 954 969 968
f 955 956 970
f 955 970 969
f 956 957 971
f 956 971 970
f 957 958 972
f 957 972 971
f 958 959 973
f 958 973 972
f 959 960 974
f 959 974 973
f 960 961 975
f 960 975 974
f 961 962 976
f 961 976 975
f 962 963 977
f 962 977 976
f 963 964 978
f 963 978 977
f 964 965 979
f 964 979 978
f 965 952 966
f 965 966 979
f 966 967 981
f 966 981 980
f 967 968 982
f 967 982 981
f 968 969 983
f 968 983 982
f 969 970 984
f 969 984 983
f 970 971 985
f 970 985 984
f 971 972 986
f 971 986 985
f 972 973 987
f 972 987 986
f 973 974 988
f 973 988 987
f 974 975 989
f 974 989 988
f 975 976 990
f 975 990 989
f 976 977 991
f 976 991 990
f 977 978 992
f 977 992 991
f 978 979 993
f 978 993 992
f 979 966 980
f 979 980 993
f 980 981 995
f 980 995 994
f 981 982 996
f 981 996 995
f 982 983 997
f 982 997 996
f 983 984 998
f 983 998 997
f 984 985 999
f 984 999 998
f 985 986 1000
f 985 1000 999
f 986 987 1001
f 986 1001 1000
f 987 988 1002
f 987 1002 1001
f 988 989 1003
f 988 1003 1002
f 989 990 1004
f 989 1004 1003
f 990 991 1005
f 990 1005 1004
f 991 992 1006
f 991 1006 1005
f 992 993 1007
f 992 1007 1006
f 993 980 994
f 993 994 1007
f 994 995 1008
f 995 996 1008
f 996 997 1008
f 997 998 1008
f 998 999 1008
f 999 1000 1008
f 1000 1001 1008
f 1001 1002 1008
f 1002 1003 1008
f 1003 1004 1008
f 1004 1005 1008
f 1005 1006 1008
f 1006 1007 1008
f 1007 994 1008
f 1009 1011 1010
f 1009 1012 1011
f 1009 1013 1012
f 1009 1014 1013
f 1009 1015 1014
f 1009 1016 1015
f 1009 1017 1016
f 1009 1018 1017
f 1009 1019 1018
f 1009 1020 1019
f 1009 1021 1020
f 1009 1022 1021
f 1009 1023 1022
f 1009 1010 1023
f 1010 1011 1025
f 1010 1025 1024
f 1011 1012 1026
f 1011 1026 1025
f 1012 1013 1027
f 1012 1027 1026
f 1013 1014 1028
f 1013 1028 1027
f 1014 1015 1029
f 1014 1029 1028
f 1015 1016 1030
f 1015 1030 1029
f 1016 1017 1031
f 1016 1031 1030
f 1017 1018 1032
f 1017 1032 1031
f 1018 1019 1033
f 1018 1033 1032
f 1019 1020 1034
f 1019 1034 1033
f 1020 1021 1035
f 1020 1035 1034
f 1021 1022 1036
f 1021 1036 1035
f 1022 1023 1037
f 1022 1037 1036
f 1023 1010 1024
f 1023 1024 1037
f 1024 1025 1039
f 1024 1039 1038
f 1025 1026 1040
f 1025 1040 1039
f 1026 1027 1041
f 1026 1041 1040
f 1027 1028 1042
f 1027 1042 1041
f 1028 1029 1043
f 1028 1043 1042
f 1029 1030 1044
f 1029 1044 1043
f 1030 1031 1045
f 1030 1045 1044
f 1031 1032 1046
f 1031 1046 1045
f 1032 1033 1047
f 1032 1047 1046
f 1033 1034 1048
f 1033 1048 1047
f 1034 1035 1049
f 1034 1049 1048
f 1035 1036 1050
f 1035 1050 1049
f 1036 1037 1051
f 1036 1051 1050
f 1037 1024 1038
f 1037 1038 1051
f 1038 1039 1053
f 1038 1053 1052
f 1039 1040 1054
f 1039 1054 1053
f 1040 1041 1055
f 1040 1055 1054
f 1041 1042 1056
f 1041 1056 1055
f 1042 1043 1057
f 1042 1057 1056
f 1043 1044 1058
f 1043 1058 1057
f 1044 1045 1059
f 1044 1059 1058
f 1045 1046 1060
f 1045 1060 1059
f 1046 1047 1061
f 1046 1061 1060
f 1047 1048 1062
f 1047 1062 1061
f 1048 1049 1063
f 1048 1063 1062
f 1049 1050 1064
f 1049 1064 1063
f 1050 1051 1065
f 1050 1065 1064
f 1051 1038 1052
f 1051 1052 1065
f 1052 1053 1067
f 1052 1067 1066
f 1053 1054 1068
f 1053 1068 1067
f 1054 1055 1069
f 1054 1069 1068
f 1055 1056 1070
f 1055 1070 1069
f 1056 1057 1071
f 1056 1071 1070
f 1057 1058 1072
f 1057 1072 1071
f 1058 1059 1073
f 1058 1073 1072
f 1059 1060 1074
f 1059 1074 1073
f 1060 1061 1075
f 1060 1075 1074
f 1061 1062 1076
f 1061 1076 1075
f 1062 1063 1077
f 1062 1077 1076
f 1063 1064 1078
f 1063 1078 1077
f 1064 1065 1079
f 1064 1079 1078
f 1065 1052 1066
f 1065 1066 1079
f 1066 1067 1081
f 1066 1081 1080
f 1067 1068 1082
f 1067 1082 1081
f 1068 1069 1083
f 1068 1083 1082
f 1069 1070 1084
f 1069 1084 1083
f 1070 1071 1085
f 1070 1085 1084
f 1071 1072 1086
f 1071 1086 1085
f 1072 1073 1087
f 1072 1087 1086
f 1073 1074 1088
f 1073 1088 1087
f 1074 1075 1089
f 1074 1089 1088
f 1075 1076 1090
f 1075 1090 1089
f 1076 1077 1091
f 1076 1091 1090
f 1077 1078 1092
f 1077 1092 1091
f 1078 1079 1093
f 1078 1093 1092
f 1079 1066 1080
f 1079 1080 1093
f 1080 1081 1095
f 1080 1095 1094
f 1081 1082 1096
f 1081 1096 1095
f 1082 1083 1097
f 1082 1097 1096
f 1083 1084 1098
f 1083 1098 1097
f 1084 1085 1099
f 1084 1099 1098
f 1085 1086 1100
f 1085 1100 1099
f 1086 1087 1101
f 1086 1101 1100
f 1087 1088 1102
f 1087 1102 1101
f 1088 1089 1103
f 1088 1103 1102
f 1089 1090 1104
f 1089 1104 1103
f 1090 1091 1105
f 1090 1105 1104
f 1091 1092 1106
f 1091 1106 1105
f 1092 1093 1107
f 1092 1107 1106
f 1093 1080 1094
f 1093 1094 1107
f 1094 1095 1108
f 1095 1096 1108
f 1096 1097 1108
f 1097 1098 1108
f 1098 1099 1108
f 1099 1100 1108
f 1100 1101 1108
f 1101 1102 1108
f 1102 1103 1108
f 1103 1104 1108
f 1104 1105 1108
f 1105 1106 1108
f 1106 1107 1108
f 1107 1094 1108
f 1109 1110 1124
f 1109 1124 1123
f 1137 1110 1109
f 1138 1123 1124
f 1110 1111 1125
f 1110 1125 1124
f 1137 1111 1110
f 1138 1124 1125
f 1111 1112 1126
f 1111 1126 1125
f 1137 1112 1111
f 1138 1125 1126
f 1112 1113 1127
f 1112 1127 1126
f 1137 1113 1112
f 1138 1126 1127
f 1113 1114 1128
f 1113 1128 1127
f 1137 1114 1113
f 1138 1127 1128
f 1114 1115 1129
f 1114 1129 1128
f 1137 1115 1114
f 1138 1128 1129
f 1115 1116 1130
f 1115 1130 1129
f 1137 1116 1115
f 1138 1129 1130
f 1116 1117 1131
f 1116 1131 1130
f 1137 1117 1116
f 1138 1130 1131
f 1117 1118 1132
f 1117 1132 1131
f 1137 1118 1117
f 1138 1131 1132
f 1118 1119 1133
f 1118 1133 1132
f 1137 1119 1118
f 1138 1132 1133
f 1119 1120 1134
f 1119 1134 1133
f 1137 1120 1119
f 1138 1133 1134
f 1120 1121 1135
f 1120 1135 1134
f 1137 1121 1120
f 1138 1134 1135
f 1121 1122 1136
f 1121 1136 1135
f 1137 1122 1121
f 1138 1135 1136
f 1122 1109 1123
f 1122 1123 1136
f 1137 1109 1122
f 1138 1136 1123
f 1139 1141 1140
f 1139 1142 1141
f 1139 1143 1142
f 1139 1144 1143
f 1139 1145 1144
f 1139 1146 1145
f 1139 1147 1146
f 1139 1148 1147
f 1139 1149 1148
f 1139 1150 1149
f 1139 1151 1150
f 1139 1152 1151
f 1139 1153 1152
f 1139 1140 1153
f 1140 1141 1155
f 1140 1155 1154
f 1141 1142 1156
f 1141 1156 1155
f 1142 1143 1157
f 1142 1157 1156
f 1143 1144 1158
f 1143 1158 1157
f 1144 1145 1159
f 1144 1159 1158
f 1145 1146 1160
f 1145 1160 1159
f 1146 1147 1161
f 1146 1161 1160
f 1147 1148 1162
f 1147 1162 1161
f 1148 1149 1163
f 1148 1163 1162
f 1149 1150 1164
f 1149 1164 1163
f 1150 1151 1165
f 1150 1165 1164
f 1151 1152 1166
f 1151 1166 1165
f 1152 1153 1167
f 1152 1167 1166
f 1153 1140 1154
f 1153 1154 1167
f 1154 1155 1169
f 1154 1169 1168
f 1155 1156 1170
f 1155 1170 1169
f 1156 1157 1171
f 1156 1171 1170
f 1157 1158 1172
f 1157 1172 1171
f 1158 1159 1173
f 1158 1173 1172
f 1159 1160 1174
f 1159 1174 1173
f 1160 1161 1175
f 1160 1175 1174
f 1161 1162 1176
f 1161 1176 1175
f 1162 1163 1177
f 1162 1177 1176
f 1163 1164 1178
f 1163 1178 1177
f 1164 1165 1179
f 1164 1179 1178
f 1165 1166 1180
f 1165 1180 1179
f 1166 1167 1181
f 1166 1181 1180
f 1167 1154 1168
f 1167 1168 1181
f 1168 1169 1183
f 1168 1183 1182
f 1169 1170 1184
f 1169 1184 1183
f 1170 1171 1185
f 1170 1185 1184
f 1171 1172 1186
f 1171 1186 1185
f 1172 1173 1187
f 1172 1187 1186
f 1173 1174 1188
f 1173 1188 1187
f 1174 1175 1189
f 1174 1189 1188
f 1175 1176 1190
f 1175 1190 1189
f 1176 1177 1191
f 1176 1191 1190
f 1177 1178 1192
f 1177 1192 1191
f 1178 1179 1193
f 1178 1193 1192
f 1179 1180 1194
f 1179 1194 1193
f 1180 1181 1195
f 1180 1195 1194
f 1181 1168 1182
f 1181 1182 1195
f 1182 1183 1197
f 1182 1197 1196
f 1183 1184 1198
f 1183 1198 1197
f 1184 1185 1199
f 1184 1199 1198
f 1185 1186 1200
f 1185 1200 1199
f 1186 1187 1201
f 1186 1201 1200
f 1187 1188 1202
f 1187 1202 1201
f 1188 1189 1203
f 1188 1203 1202
f 1189 1190 1204
f 1189 1204 1203
f 1190 1191 1205
f 1190 1205 1204
f 1191 1192 1206
f 1191 1206 1205
f 1192 1193 1207
f 1192 1207 1206
f 1193 1194 1208
f 1193 1208 1207
f 1194 1195 1209
f 1194 1209 1208
f 1195 1182 1196
f 1195 1196 1209
f 1196 1197 1211
f 1196 1211 1210
f 1197 1198 1212
f 1197 1212 1211
f 1198 1199 1213
f 1198 1213 1212
f 1199 1200 1214
f 1199 1214 1213
f 1200 1201 1215
f 1200 1215 1214
f 1201 1202 1216
f 1201 1216 1215
f 1202 1203 1217
f 1202 1217 1216
f 1203 1204 1218
f 1203 1218 1217
f 1204 1205 1219
f 1204 1219 1218
f 1205 1206 1220
f 1205 1220 1219
f 1206 1207 1221
f 1206 1221 1220
f 1207 1208 1222
f 1207 1222 1221
f 1208 1209 1223
f 1208 1223 1222
f 1209 1196 1210
f 1209 1210 1223
f 1210 1211 1225
f 1210 1225 1224
f 1211 1212 1226
f 1211 1226 1225
f 1212 1213 1227
f 1212 1227 1226
f 1213 1214 1228
f 1213 1228 1227
f 1214 1215 1229
f 1214 1229 1228
f 1215 1216 1230
f 1215 1230 1229
f 1216 1217 1231
f 1216 1231 1230
f 1217 1218 1232
f 1217 1232 1231
f 1218 1219 1233
f 1218 1233 1232
f 1219 1220 1234
f 1219 1234 1233
f 1220 1221 1235
f 1220 1235 1234
f 1221 1222 1236
f 1221 1236 1235
f 1222 1223 1237
f 1222 1237 1236
f 1223 1210 1224
f 1223 1224 1237
f 1224 1225 1238
f 1225 1226 1238
f 1226 1227 1238
f 1227 1228 1238
f 1228 1229 1238
f 1229 1230 1238
f 1230 1231 1238
f 1231 1232 1238
f 1232 1233 1238
f 1233 1234 1238
f 1234 1235 1238
f 1235 1236 1238
f 1236 1237 1238
f 1237 1224 1238
f 1239 1241 1240
f 1239 1242 1241
f 1239 1243 1242
f 1239 1244 1243
f 1239 1245 1244
f 1239 1246 1245
f 1239 1247 1246
f 1239 1248 1247
f 1239 1249 1248
f 1239 1250 1249
f 1239 1251 1250
f 1239 1252 1251
f 1239 1253 1252
f 1239 1240 1253
f 1240 1241 1255
f 1240 1255 1254
f 1241 1242 1256
f 1241 1256 1255
f 1242 1243 1257
f 1242 1257 1256
f 1243 1244 1258
f 1243 1258 1257
f 1244 1245 1259
f 1244 1259 1258
f 1245 1246 1260
f 1245 1260 1259
f 1246 1247 1261
f 1246 1261 1260
f 1247 1248 1262
f 1247 1262 1261
f 1248 1249 1263
f 1248 1263 1262
f 1249 1250 1264
f 1249 1264 1263
f 1250 1251 1265
f 1250 1265 1264
f 1251 1252 1266
f 1251 1266 1265
f 1252 1253 1267
f 1252 1267 1266
f 1253 1240 1254
f 1253 1254 1267
f 1254 1255 1269
f 1254 1269 1268
f 1255 1256 1270
f 1255 1270 1269
f 1256 1257 1271
f 1256 1271 1270
f 1257 1258 1272
f 1257 1272 1271
f 1258 1259 1273
f 1258 1273 1272
f 1259 1260 1274
f 1259 1274 1273
f 1260 1261 1275
f 1260 1275 1274
f 1261 1262 1276
f 1261 1276 1275
f 1262 1263 1277
f 1262 1277 1276
f 1263 1264 1278
f 1263 1278 1277
f 1264 1265 1279
f 1264 1279 1278
f 1265 1266 1280
f 1265 1280 1279
f 1266 1267 1281
f 1266 1281 1280
f 1267 1254 1268
f 1267 1268 1281
f 1268 1269 1283
f 1268 1283 1282
f 1269 1270 1284
f 1269 1284 1283
f 1270 1271 1285
f 1270 1285 1284
f 1271 1272 1286
f 1271 1286 1285
f 1272 1273 1287
f 1272 1287 1286
f 1273 1274 1288
f 1273 1288 1287
f 1274 1275 1289
f 1274 1289 1288
f 1275 1276 1290
f 1275 1290 1289
f 1276 1277 1291
f 1276 1291 1290
f 1277 1278 1292
f 1277 1292 1291
f 1278 1279 1293
f 1278 1293 1292
f 1279 1280 1294
f 1279 1294 1293
f 1280 1281 1295
f 1280 1295 1294
f 1281 1268 1282
f 1281 1282 1295
f 1282 1283 1297
f 1282 1297 1296
f 1283 1284 1298
f 1283 1298 1297
f 1284 1285 1299
f 1284 1299 1298
f 1285 1286 1300
f 1285 1300 1299
f 1286 1287 1301
f 1286 1301 1300
f 1287 1288 1302
f 1287 1302 1301
f 1288 1289 1303
f 1288 1303 1302
f 1289 1290 1304
f 1289 1304 1303
f 1290 1291 1305
f 1290 1305 1304
f 1291 1292 1306
f 1291 1306 1305
f 1292 1293 1307
f 1292 1307 1306
f 1293 1294 1308
f 1293 1308 1307
f 1294 1295 1309
f 1294 1309 1308
f 1295 1282 1296
f 1295 1296 1309
f 1296 1297 1311
f 1296 1311 1310
f 1297 1298 1312
f 1297 1312 1311
f 1298 1299 1313
f 1298 1313 1312
f 1299 1300 1314
f 1299 1314 1313
f 1300 1301 1315
f 1300 1315 1314
f 1301 1302 1316
f 1301 1316 1315
f 1302 1303 1317
f 1302 1317 1316
f 1303 1304 1318
f 1303 1318 1317
f 1304 1305 1319
f 1304 1319 1318
f 1305 1306 1320
f 1305 1320 1319
f 1306 1307 1321
f 1306 1321 1320
f 1307 1308 1322
f 1307 1322 1321
f 1308 1309 1323
f 1308 1323 1322
f 1309 1296 1310
f 1309 1310 1323
f 1310 1311 1325
f 1310 1325 1324
f 1311 1312 1326
f 1311 1326 1325
f 1312 1313 1327
f 1312 1327 1326
f 1313 1314 1328
f 1313 1328 1327
f 1314 1315 1329
f 1314 1329 1328
f 1315 1316 1330
f 1315 1330 1329
f 1316 1317 1331
f 1316 1331 1330
f 1317 1318 1332
f 1317 1332 1331
f 1318 1319 1333
f 1318 1333 1332
f 1319 1320 1334
f 1319 1334 1333
f 1320 1321 1335
f 1320 1335 1334
f 1321 1322 1336
f 1321 1336 1335
f 1322 1323 1337
f 1322 1337 1336
f 1323 1310 1324
f 1323 1324 1337
f 1324 1325 1338
f 1325 1326 1338
f 1326 1327 1338
f 1327 1328 1338
f 1328 1329 1338
f 1329 1330 1338
f 1330 1331 1338
f 1331 1332 1338
f 1332 1333 1338
f 1333 1334 1338
f 1334 1335 1338
f 1335 1336 1338
f 1336 1337 1338
f 1337 1324 1338
f 1339 1341 1340
f 1375 1376 1377
f 1339 1342 1341
f 1375 1377 1378
f 1339 1343 1342
f 1375 1378 1379
f 1339 1344 1343
f 1375 1379 1380
f 1339 1345 1344
f 1375 1380 1381
f 1339 1346 1345
f 1375 1381 1382
f 1339 1347 1346
f 1375 1382 1383
f 1339 1348 1347
f 1375 1383 1384
f 1339 1349 1348
f 1375 1384 1385
f 1339 1350 1349
f 1375 1385 1386
f 1339 1351 1350
f 1375 1386 1387
f 1339 1352 1351
f 1375 1387 1388
f 1339 1353 1352
f 1375 1388 1389
f 1339 1354 1353
f 1375 1389 1390
f 1339 1355 1354
f 1375 1390 1391
f 1339 1356 1355
f 1375 1391 1392
f 1339 1357 1356
f 1375 1392 1393
f 1339 1358 1357
f 1375 1393 1394
f 1339 1359 1358
f 1375 1394 1395
f 1339 1360 1359
f 1375 1395 1396
f 1339 1361 1360
f 1375 1396 1397
f 1339 1362 1361
f 1375 1397 1398
f 1339 1363 1362
f 1375 1398 1399
f 1339 1364 1363
f 1375 1399 1400
f 1339 1365 1364
f 1375 1400 1401
f 1339 1366 1365
f 1375 1401 1402
f 1339 1367 1366
f 1375 1402 1403
f 1339 1368 1367
f 1375 1403 1404
f 1339 1369 1368
f 1375 1404 1405
f 1339 1370 1369
f 1375 1405 1406
f 1339 1371 1370
f 1375 1406 1407
f 1339 1372 1371
f 1375 1407 1408
f 1339 1373 1372
f 1375 1408 1409
f 1339 1374 1373
f 1375 1409 1410
f 1339 1340 1376
f 1339 1376 1375
f 1340 1341 1377
f 1340 1377 1376
f 1341 1342 1378
f 1341 1378 1377
f 1342 1343 1379
f 1342 1379 1378
f 1343 1344 1380
f 1343 1380 1379
f 1344 1345 1381
f 1344 1381 1380
f 1345 1346 1382
f 1345 1382 1381
f 1346 1347 1383
f 1346 1383 1382
f 1347 1348 1384
f 1347 1384 1383
f 1348 1349 1385
f 1348 1385 1384
f 1349 1350 1386
f 1349 1386 1385
f 1350 1351 1387
f 1350 1387 1386
f 1351 1352 1388
f 1351 1388 1387
f 1352 1353 1389
f 1352 1389 1388
f 1353 1354 1390
f 1353 1390 1389
f 1354 1355 1391
f 1354 1391 1390
f 1355 1356 1392
f 1355 1392 1391
f 1356 1357 1393
f 1356 1393 1392
f 1357 1358 1394
f 1357 1394 1393
f 1358 1359 1395
f 1358 1395 1394
f 1359 1360 1396
f 1359 1396 1395
f 1360 1361 1397
f 1360 1397 1396
f 1361 1362 1398
f 1361 1398 1397
f 1362 1363 1399
f 1362 1399 1398
f 1363 1364 1400
f 1363 1400 1399
f 1364 1365 1401
f 1364 1401 1400
f 1365 1366 1402
f 1365 1402 1401
f 1366 1367 1403
f 1366 1403 1402
f 1367 1368 1404
f 1367 1404 1403
f 1368 1369 1405
f 1368 1405 1404
f 1369 1370 1406
f 1369 1406 1405
f 1370 1371 1407
f 1370 1407 1406
f 1371 1372 1408
f 1371 1408 1407
f 1372 1373 1409
f 1372 1409 1408
f 1373 1374 1410
f 1373 1410 1409
f 1374 1339 1375
f 1374 1375 1410
f 1411 1413 1412
f 1447 1448 1449
f 1411 1414 1413
f 1447 1449 1450
f 1411 1415 1414
f 1447 1450 1451
f 1411 1416 1415
f 1447 1451 1452
f 1411 1417 1416
f 1447 1452 1453
f 1411 1418 1417
f 1447 1453 1454
f 1411 1419 1418
f 1447 1454 1455
f 1411 1420 1419
f 1447 1455 1456
f 1411 1421 1420
f 1447 1456 1457
f 1411 1422 1421
f 1447 1457 1458
f 1411 1423 1422
f 1447 1458 1459
f 1411 1424 1423
f 1447 1459 1460
f 1411 1425 1424
f 1447 1460 1461
f 1411 1426 1425
f 1447 1461 1462
f 1411 1427 1426
f 1447 1462 1463
f 1411 1428 1427
f 1447 1463 1464
f 1411 1429 1428
f 1447 1464 1465
f 1411 1430 1429
f 1447 1465 1466
f 1411 1431 1430
f 1447 1466 1467
f 1411 1432 1431
f 1447 1467 1468
f 1411 1433 1432
f 1447 1468 1469
f 1411 1434 1433
f 1447 1469 1470
f 1411 1435 1434
f 1447 1470 1471
f 1411 1436 1435
f 1447 1471 1472
f 1411 1437 1436
f 1447 1472 1473
f 1411 1438 1437
f 1447 1473 1474
f 1411 1439 1438
f 1447 1474 1475
f 1411 1440 1439
f 1447 1475 1476
f 1411 1441 1440
f 1447 1476 1477
f 1411 1442 1441
f 1447 1477 1478
f 1411 1443 1442
f 1447 1478 1479
f 1411 1444 1443
f 1447 1479 1480
f 1411 1445 1444
f 1447 1480 1481
f 1411 1446 1445
f 1447 1481 1482
f 1411 1412 1448
f 1411 1448 1447
f 1412 1413 1449
f 1412 1449 1448
f 1413 1414 1450
f 1413 1450 1449
f 1414 1415 1451
f 1414 1451 1450
f 1415 1416 1452
f 1415 1452 1451
f 1416 1417 1453
f 1416 1453 1452
f 1417 1418 1454
f 1417 1454 1453
f 1418 1419 1455
f 1418 1455 1454
f 1419 1420 1456
f 1419 1456 1455
f 1420 1421 1457
f 1420 1457 1456
f 1421 1422 1458
f 1421 1458 1457
f 1422 1423 1459
f 1422 1459 1458
f 1423 1424 1460
f 1423 1460 1459
f 1424 1425 1461
f 1424 1461 1460
f 1425 1426 1462
f 1425 1462 1461
f 1426 1427 1463
f 1426 1463 1462
f 1427 1428 1464
f 1427 1464 1463
f 1428 1429 1465
f 1428 1465 1464
f 1429 1430 1466
f 1429 1466 1465
f 1430 1431 1467
f 1430 1467 1466
f 1431 1432 1468
f 1431 1468 1467
f 1432 1433 1469
f 1432 1469 1468
f 1433 1434 1470
f 1433 1470 1469
f 1434 1435 1471
f 1434 1471 1470
f 1435 1436 1472
f 1435 1472 1471
f 1436 1437 1473
f 1436 1473 1472
f 1437 1438 1474
f 1437 1474 1473
f 1438 1439 1475
f 1438 1475 1474
f 1439 1440 1476
f 1439 1476 1475
f 1440 1441 1477
f 1440 1477 1476
f 1441 1442 1478
f 1441 1478 1477
f 1442 1443 1479
f 1442 1479 1478
f 1443 1444 1480
f 1443 1480 1479
f 1444 1445 1481
f 1444 1481 1480
f 1445 1446 1482
f 1445 1482 1481
f 1446 1411 1447
f 1446 1447 1482
