o optional_10mm_coin_motor_insert
v 7.00000 3.00000 0.00000
v 6.92314 3.78036 0.00000
v 6.69552 4.53073 0.00000
v 6.32588 5.22228 0.00000
v 5.82843 5.82843 0.00000
v 5.22228 6.32588 0.00000
v 4.53073 6.69552 0.00000
v 3.78036 6.92314 0.00000
v 3.00000 7.00000 0.00000
v -3.00000 7.00000 0.00000
v -3.78036 6.92314 0.00000
v -4.53073 6.69552 0.00000
v -5.22228 6.32588 0.00000
v -5.82843 5.82843 0.00000
v -6.32588 5.22228 0.00000
v -6.69552 4.53073 0.00000
v -6.92314 3.78036 0.00000
v -7.00000 3.00000 0.00000
v -7.00000 -3.00000 0.00000
v -6.92314 -3.78036 0.00000
v -6.69552 -4.53073 0.00000
v -6.32588 -5.22228 0.00000
v -5.82843 -5.82843 0.00000
v -5.22228 -6.32588 0.00000
v -4.53073 -6.69552 0.00000
v -3.78036 -6.92314 0.00000
v -3.00000 -7.00000 0.00000
v 3.00000 -7.00000 0.00000
v 3.78036 -6.92314 0.00000
v 4.53073 -6.69552 0.00000
v 5.22228 -6.32588 0.00000
v 5.82843 -5.82843 0.00000
v 6.32588 -5.22228 0.00000
v 6.69552 -4.53073 0.00000
v 6.92314 -3.78036 0.00000
v 7.00000 -3.00000 0.00000
v 7.00000 3.00000 1.80000
v 6.92314 3.78036 1.80000
v 6.69552 4.53073 1.80000
v 6.32588 5.22228 1.80000
v 5.82843 5.82843 1.80000
v 5.22228 6.32588 1.80000
v 4.53073 6.69552 1.80000
v 3.78036 6.92314 1.80000
v 3.00000 7.00000 1.80000
v -3.00000 7.00000 1.80000
v -3.78036 6.92314 1.80000
v -4.53073 6.69552 1.80000
v -5.22228 6.32588 1.80000
v -5.82843 5.82843 1.80000
v -6.32588 5.22228 1.80000
v -6.69552 4.53073 1.80000
v -6.92314 3.78036 1.80000
v -7.00000 3.00000 1.80000
v -7.00000 -3.00000 1.80000
v -6.92314 -3.78036 1.80000
v -6.69552 -4.53073 1.80000
v -6.32588 -5.22228 1.80000
v -5.82843 -5.82843 1.80000
v -5.22228 -6.32588 1.80000
v -4.53073 -6.69552 1.80000
v -3.78036 -6.92314 1.80000
v -3.00000 -7.00000 1.80000
v 3.00000 -7.00000 1.80000
v 3.78036 -6.92314 1.80000
v 4.53073 -6.69552 1.80000
v 5.22228 -6.32588 1.80000
v 5.82843 -5.82843 1.80000
v 6.32588 -5.22228 1.80000
v 6.69552 -4.53073 1.80000
v 6.92314 -3.78036 1.80000
v 7.00000 -3.00000 1.80000
v 5.00000 6.20000 0.80000
v 4.98463 6.35607 0.80000
v 4.93910 6.50615 0.80000
v 4.86518 6.64446 0.80000
v 4.76569 6.76569 0.80000
v 4.64446 6.86518 0.80000
v 4.50615 6.93910 0.80000
v 4.35607 6.98463 0.80000
v 4.20000 7.00000 0.80000
v -4.20000 7.00000 0.80000
v -4.35607 6.98463 0.80000
v -4.50615 6.93910 0.80000
v -4.64446 6.86518 0.80000
v -4.76569 6.76569 0.80000
v -4.86518 6.64446 0.80000
v -4.93910 6.50615 0.80000
v -4.98463 6.35607 0.80000
v -5.00000 6.20000 0.80000
v -5.00000 6.00000 0.80000
v -4.98463 5.84393 0.80000
v -4.93910 5.69385 0.80000
v -4.86518 5.55554 0.80000
v -4.76569 5.43431 0.80000
v -4.64446 5.33482 0.80000
v -4.50615 5.26090 0.80000
v -4.35607 5.21537 0.80000
v -4.20000 5.20000 0.80000
v 4.20000 5.20000 0.80000
v 4.35607 5.21537 0.80000
v 4.50615 5.26090 0.80000
v 4.64446 5.33482 0.80000
v 4.76569 5.43431 0.80000
v 4.86518 5.55554 0.80000
v 4.93910 5.69385 0.80000
v 4.98463 5.84393 0.80000
v 5.00000 6.00000 0.80000
v 5.00000 6.20000 4.80000
v 4.98463 6.35607 4.80000
v 4.93910 6.50615 4.80000
v 4.86518 6.64446 4.80000
v 4.76569 6.76569 4.80000
v 4.64446 6.86518 4.80000
v 4.50615 6.93910 4.80000
v 4.35607 6.98463 4.80000
v 4.20000 7.00000 4.80000
v -4.20000 7.00000 4.80000
v -4.35607 6.98463 4.80000
v -4.50615 6.93910 4.80000
v -4.64446 6.86518 4.80000
v -4.76569 6.76569 4.80000
v -4.86518 6.64446 4.80000
v -4.93910 6.50615 4.80000
v -4.98463 6.35607 4.80000
v -5.00000 6.20000 4.80000
v -5.00000 6.00000 4.80000
v -4.98463 5.84393 4.80000
v -4.93910 5.69385 4.80000
v -4.86518 5.55554 4.80000
v -4.76569 5.43431 4.80000
v -4.64446 5.33482 4.80000
v -4.50615 5.26090 4.80000
v -4.35607 5.21537 4.80000
v -4.20000 5.20000 4.80000
v 4.20000 5.20000 4.80000
v 4.35607 5.21537 4.80000
v 4.50615 5.26090 4.80000
v 4.64446 5.33482 4.80000
v 4.76569 5.43431 4.80000
v 4.86518 5.55554 4.80000
v 4.93910 5.69385 4.80000
v 4.98463 5.84393 4.80000
v 5.00000 6.00000 4.80000
v 5.00000 -6.00000 0.80000
v 4.98463 -5.84393 0.80000
v 4.93910 -5.69385 0.80000
v 4.86518 -5.55554 0.80000
v 4.76569 -5.43431 0.80000
v 4.64446 -5.33482 0.80000
v 4.50615 -5.26090 0.80000
v 4.35607 -5.21537 0.80000
v 4.20000 -5.20000 0.80000
v -4.20000 -5.20000 0.80000
v -4.35607 -5.21537 0.80000
v -4.50615 -5.26090 0.80000
v -4.64446 -5.33482 0.80000
v -4.76569 -5.43431 0.80000
v -4.86518 -5.55554 0.80000
v -4.93910 -5.69385 0.80000
v -4.98463 -5.84393 0.80000
v -5.00000 -6.00000 0.80000
v -5.00000 -6.20000 0.80000
v -4.98463 -6.35607 0.80000
v -4.93910 -6.50615 0.80000
v -4.86518 -6.64446 0.80000
v -4.76569 -6.76569 0.80000
v -4.64446 -6.86518 0.80000
v -4.50615 -6.93910 0.80000
v -4.35607 -6.98463 0.80000
v -4.20000 -7.00000 0.80000
v 4.20000 -7.00000 0.80000
v 4.35607 -6.98463 0.80000
v 4.50615 -6.93910 0.80000
v 4.64446 -6.86518 0.80000
v 4.76569 -6.76569 0.80000
v 4.86518 -6.64446 0.80000
v 4.93910 -6.50615 0.80000
v 4.98463 -6.35607 0.80000
v 5.00000 -6.20000 0.80000
v 5.00000 -6.00000 4.80000
v 4.98463 -5.84393 4.80000
v 4.93910 -5.69385 4.80000
v 4.86518 -5.55554 4.80000
v 4.76569 -5.43431 4.80000
v 4.64446 -5.33482 4.80000
v 4.50615 -5.26090 4.80000
v 4.35607 -5.21537 4.80000
v 4.20000 -5.20000 4.80000
v -4.20000 -5.20000 4.80000
v -4.35607 -5.21537 4.80000
v -4.50615 -5.26090 4.80000
v -4.64446 -5.33482 4.80000
v -4.76569 -5.43431 4.80000
v -4.86518 -5.55554 4.80000
v -4.93910 -5.69385 4.80000
v -4.98463 -5.84393 4.80000
v -5.00000 -6.00000 4.80000
v -5.00000 -6.20000 4.80000
v -4.98463 -6.35607 4.80000
v -4.93910 -6.50615 4.80000
v -4.86518 -6.64446 4.80000
v -4.76569 -6.76569 4.80000
v -4.64446 -6.86518 4.80000
v -4.50615 -6.93910 4.80000
v -4.35607 -6.98463 4.80000
v -4.20000 -7.00000 4.80000
v 4.20000 -7.00000 4.80000
v 4.35607 -6.98463 4.80000
v 4.50615 -6.93910 4.80000
v 4.64446 -6.86518 4.80000
v 4.76569 -6.76569 4.80000
v 4.86518 -6.64446 4.80000
v 4.93910 -6.50615 4.80000
v 4.98463 -6.35607 4.80000
v 5.00000 -6.20000 4.80000
v 7.00000 4.20000 0.80000
v 6.98463 4.35607 0.80000
v 6.93910 4.50615 0.80000
v 6.86518 4.64446 0.80000
v 6.76569 4.76569 0.80000
v 6.64446 4.86518 0.80000
v 6.50615 4.93910 0.80000
v 6.35607 4.98463 0.80000
v 6.20000 5.00000 0.80000
v 6.00000 5.00000 0.80000
v 5.84393 4.98463 0.80000
v 5.69385 4.93910 0.80000
v 5.55554 4.86518 0.80000
v 5.43431 4.76569 0.80000
v 5.33482 4.64446 0.80000
v 5.26090 4.50615 0.80000
v 5.21537 4.35607 0.80000
v 5.20000 4.20000 0.80000
v 5.20000 -4.20000 0.80000
v 5.21537 -4.35607 0.80000
v 5.26090 -4.50615 0.80000
v 5.33482 -4.64446 0.80000
v 5.43431 -4.76569 0.80000
v 5.55554 -4.86518 0.80000
v 5.69385 -4.93910 0.80000
v 5.84393 -4.98463 0.80000
v 6.00000 -5.00000 0.80000
v 6.20000 -5.00000 0.80000
v 6.35607 -4.98463 0.80000
v 6.50615 -4.93910 0.80000
v 6.64446 -4.86518 0.80000
v 6.76569 -4.76569 0.80000
v 6.86518 -4.64446 0.80000
v 6.93910 -4.50615 0.80000
v 6.98463 -4.35607 0.80000
v 7.00000 -4.20000 0.80000
v 7.00000 4.20000 4.80000
v 6.98463 4.35607 4.80000
v 6.93910 4.50615 4.80000
v 6.86518 4.64446 4.80000
v 6.76569 4.76569 4.80000
v 6.64446 4.86518 4.80000
v 6.50615 4.93910 4.80000
v 6.35607 4.98463 4.80000
v 6.20000 5.00000 4.80000
v 6.00000 5.00000 4.80000
v 5.84393 4.98463 4.80000
v 5.69385 4.93910 4.80000
v 5.55554 4.86518 4.80000
v 5.43431 4.76569 4.80000
v 5.33482 4.64446 4.80000
v 5.26090 4.50615 4.80000
v 5.21537 4.35607 4.80000
v 5.20000 4.20000 4.80000
v 5.20000 -4.20000 4.80000
v 5.21537 -4.35607 4.80000
v 5.26090 -4.50615 4.80000
v 5.33482 -4.64446 4.80000
v 5.43431 -4.76569 4.80000
v 5.55554 -4.86518 4.80000
v 5.69385 -4.93910 4.80000
v 5.84393 -4.98463 4.80000
v 6.00000 -5.00000 4.80000
v 6.20000 -5.00000 4.80000
v 6.35607 -4.98463 4.80000
v 6.50615 -4.93910 4.80000
v 6.64446 -4.86518 4.80000
v 6.76569 -4.76569 4.80000
v 6.86518 -4.64446 4.80000
v 6.93910 -4.50615 4.80000
v 6.98463 -4.35607 4.80000
v 7.00000 -4.20000 4.80000
v -5.20000 4.20000 0.80000
v -5.21537 4.35607 0.80000
v -5.26090 4.50615 0.80000
v -5.33482 4.64446 0.80000
v -5.43431 4.76569 0.80000
v -5.55554 4.86518 0.80000
v -5.69385 4.93910 0.80000
v -5.84393 4.98463 0.80000
v -6.00000 5.00000 0.80000
v -6.20000 5.00000 0.80000
v -6.35607 4.98463 0.80000
v -6.50615 4.93910 0.80000
v -6.64446 4.86518 0.80000
v -6.76569 4.76569 0.80000
v -6.86518 4.64446 0.80000
v -6.93910 4.50615 0.80000
v -6.98463 4.35607 0.80000
v -7.00000 4.20000 0.80000
v -7.00000 -4.20000 0.80000
v -6.98463 -4.35607 0.80000
v -6.93910 -4.50615 0.80000
v -6.86518 -4.64446 0.80000
v -6.76569 -4.76569 0.80000
v -6.64446 -4.86518 0.80000
v -6.50615 -4.93910 0.80000
v -6.35607 -4.98463 0.80000
v -6.20000 -5.00000 0.80000
v -6.00000 -5.00000 0.80000
v -5.84393 -4.98463 0.80000
v -5.69385 -4.93910 0.80000
v -5.55554 -4.86518 0.80000
v -5.43431 -4.76569 0.80000
v -5.33482 -4.64446 0.80000
v -5.26090 -4.50615 0.80000
v -5.21537 -4.35607 0.80000
v -5.20000 -4.20000 0.80000
v -5.20000 4.20000 4.80000
v -5.21537 4.35607 4.80000
v -5.26090 4.50615 4.80000
v -5.33482 4.64446 4.80000
v -5.43431 4.76569 4.80000
v -5.55554 4.86518 4.80000
v -5.69385 4.93910 4.80000
v -5.84393 4.98463 4.80000
v -6.00000 5.00000 4.80000
v -6.20000 5.00000 4.80000
v -6.35607 4.98463 4.80000
v -6.50615 4.93910 4.80000
v -6.64446 4.86518 4.80000
v -6.76569 4.76569 4.80000
v -6.86518 4.64446 4.80000
v -6.93910 4.50615 4.80000
v -6.98463 4.35607 4.80000
v -7.00000 4.20000 4.80000
v -7.00000 -4.20000 4.80000
v -6.98463 -4.35607 4.80000
v -6.93910 -4.50615 4.80000
v -6.86518 -4.64446 4.80000
v -6.76569 -4.76569 4.80000
v -6.64446 -4.86518 4.80000
v -6.50615 -4.93910 4.80000
v -6.35607 -4.98463 4.80000
v -6.20000 -5.00000 4.80000
v -6.00000 -5.00000 4.80000
v -5.84393 -4.98463 4.80000
v -5.69385 -4.93910 4.80000
v -5.55554 -4.86518 4.80000
v -5.43431 -4.76569 4.80000
v -5.33482 -4.64446 4.80000
v -5.26090 -4.50615 4.80000
v -5.21537 -4.35607 4.80000
v -5.20000 -4.20000 4.80000
v -3.00000 -8.10000 1.50000
v -3.00000 -7.99107 1.02273
v -3.00000 -7.68584 0.63999
v -3.00000 -7.24477 0.42758
v -3.00000 -6.75523 0.42758
v -3.00000 -6.31416 0.63999
v -3.00000 -6.00893 1.02273
v -3.00000 -5.90000 1.50000
v -3.00000 -6.00893 1.97727
v -3.00000 -6.31416 2.36001
v -3.00000 -6.75523 2.57242
v -3.00000 -7.24477 2.57242
v -3.00000 -7.68584 2.36001
v -3.00000 -7.99107 1.97727
v 3.00000 -8.10000 1.50000
v 3.00000 -7.99107 1.02273
v 3.00000 -7.68584 0.63999
v 3.00000 -7.24477 0.42758
v 3.00000 -6.75523 0.42758
v 3.00000 -6.31416 0.63999
v 3.00000 -6.00893 1.02273
v 3.00000 -5.90000 1.50000
v 3.00000 -6.00893 1.97727
v 3.00000 -6.31416 2.36001
v 3.00000 -6.75523 2.57242
v 3.00000 -7.24477 2.57242
v 3.00000 -7.68584 2.36001
v 3.00000 -7.99107 1.97727
v -3.00000 -7.00000 1.50000
v 3.00000 -7.00000 1.50000
v -3.00000 -7.00000 2.60000
v -2.57905 -7.00000 2.51627
v -2.62074 -6.81736 2.51627
v -2.73754 -6.67089 2.51627
v -2.90633 -6.58960 2.51627
v -3.09367 -6.58960 2.51627
v -3.26246 -6.67089 2.51627
v -3.37926 -6.81736 2.51627
v -3.42095 -7.00000 2.51627
v -3.37926 -7.18264 2.51627
v -3.26246 -7.32911 2.51627
v -3.09367 -7.41040 2.51627
v -2.90633 -7.41040 2.51627
v -2.73754 -7.32911 2.51627
v -2.62074 -7.18264 2.51627
v -2.22218 -7.00000 2.27782
v -2.29921 -6.66252 2.27782
v -2.51504 -6.39188 2.27782
v -2.82692 -6.24168 2.27782
v -3.17308 -6.24168 2.27782
v -3.48496 -6.39188 2.27782
v -3.70079 -6.66252 2.27782
v -3.77782 -7.00000 2.27782
v -3.70079 -7.33748 2.27782
v -3.48496 -7.60812 2.27782
v -3.17308 -7.75832 2.27782
v -2.82692 -7.75832 2.27782
v -2.51504 -7.60812 2.27782
v -2.29921 -7.33748 2.27782
v -1.98373 -7.00000 1.92095
v -2.08437 -6.55906 1.92095
v -2.36637 -6.20545 1.92095
v -2.77386 -6.00921 1.92095
v -3.22614 -6.00921 1.92095
v -3.63363 -6.20545 1.92095
v -3.91563 -6.55906 1.92095
v -4.01627 -7.00000 1.92095
v -3.91563 -7.44094 1.92095
v -3.63363 -7.79455 1.92095
v -3.22614 -7.99079 1.92095
v -2.77386 -7.99079 1.92095
v -2.36637 -7.79455 1.92095
v -2.08437 -7.44094 1.92095
v -1.90000 -7.00000 1.50000
v -2.00893 -6.52273 1.50000
v -2.31416 -6.13999 1.50000
v -2.75523 -5.92758 1.50000
v -3.24477 -5.92758 1.50000
v -3.68584 -6.13999 1.50000
v -3.99107 -6.52273 1.50000
v -4.10000 -7.00000 1.50000
v -3.99107 -7.47727 1.50000
v -3.68584 -7.86001 1.50000
v -3.24477 -8.07242 1.50000
v -2.75523 -8.07242 1.50000
v -2.31416 -7.86001 1.50000
v -2.00893 -7.47727 1.50000
v -1.98373 -7.00000 1.07905
v -2.08437 -6.55906 1.07905
v -2.36637 -6.20545 1.07905
v -2.77386 -6.00921 1.07905
v -3.22614 -6.00921 1.07905
v -3.63363 -6.20545 1.07905
v -3.91563 -6.55906 1.07905
v -4.01627 -7.00000 1.07905
v -3.91563 -7.44094 1.07905
v -3.63363 -7.79455 1.07905
v -3.22614 -7.99079 1.07905
v -2.77386 -7.99079 1.07905
v -2.36637 -7.79455 1.07905
v -2.08437 -7.44094 1.07905
v -2.22218 -7.00000 0.72218
v -2.29921 -6.66252 0.72218
v -2.51504 -6.39188 0.72218
v -2.82692 -6.24168 0.72218
v -3.17308 -6.24168 0.72218
v -3.48496 -6.39188 0.72218
v -3.70079 -6.66252 0.72218
v -3.77782 -7.00000 0.72218
v -3.70079 -7.33748 0.72218
v -3.48496 -7.60812 0.72218
v -3.17308 -7.75832 0.72218
v -2.82692 -7.75832 0.72218
v -2.51504 -7.60812 0.72218
v -2.29921 -7.33748 0.72218
v -2.57905 -7.00000 0.48373
v -2.62074 -6.81736 0.48373
v -2.73754 -6.67089 0.48373
v -2.90633 -6.58960 0.48373
v -3.09367 -6.58960 0.48373
v -3.26246 -6.67089 0.48373
v -3.37926 -6.81736 0.48373
v -3.42095 -7.00000 0.48373
v -3.37926 -7.18264 0.48373
v -3.26246 -7.32911 0.48373
v -3.09367 -7.41040 0.48373
v -2.90633 -7.41040 0.48373
v -2.73754 -7.32911 0.48373
v -2.62074 -7.18264 0.48373
v -3.00000 -7.00000 0.40000
v 3.00000 -7.00000 2.60000
v 3.42095 -7.00000 2.51627
v 3.37926 -6.81736 2.51627
v 3.26246 -6.67089 2.51627
v 3.09367 -6.58960 2.51627
v 2.90633 -6.58960 2.51627
v 2.73754 -6.67089 2.51627
v 2.62074 -6.81736 2.51627
v 2.57905 -7.00000 2.51627
v 2.62074 -7.18264 2.51627
v 2.73754 -7.32911 2.51627
v 2.90633 -7.41040 2.51627
v 3.09367 -7.41040 2.51627
v 3.26246 -7.32911 2.51627
v 3.37926 -7.18264 2.51627
v 3.77782 -7.00000 2.27782
v 3.70079 -6.66252 2.27782
v 3.48496 -6.39188 2.27782
v 3.17308 -6.24168 2.27782
v 2.82692 -6.24168 2.27782
v 2.51504 -6.39188 2.27782
v 2.29921 -6.66252 2.27782
v 2.22218 -7.00000 2.27782
v 2.29921 -7.33748 2.27782
v 2.51504 -7.60812 2.27782
v 2.82692 -7.75832 2.27782
v 3.17308 -7.75832 2.27782
v 3.48496 -7.60812 2.27782
v 3.70079 -7.33748 2.27782
v 4.01627 -7.00000 1.92095
v 3.91563 -6.55906 1.92095
v 3.63363 -6.20545 1.92095
v 3.22614 -6.00921 1.92095
v 2.77386 -6.00921 1.92095
v 2.36637 -6.20545 1.92095
v 2.08437 -6.55906 1.92095
v 1.98373 -7.00000 1.92095
v 2.08437 -7.44094 1.92095
v 2.36637 -7.79455 1.92095
v 2.77386 -7.99079 1.92095
v 3.22614 -7.99079 1.92095
v 3.63363 -7.79455 1.92095
v 3.91563 -7.44094 1.92095
v 4.10000 -7.00000 1.50000
v 3.99107 -6.52273 1.50000
v 3.68584 -6.13999 1.50000
v 3.24477 -5.92758 1.50000
v 2.75523 -5.92758 1.50000
v 2.31416 -6.13999 1.50000
v 2.00893 -6.52273 1.50000
v 1.90000 -7.00000 1.50000
v 2.00893 -7.47727 1.50000
v 2.31416 -7.86001 1.50000
v 2.75523 -8.07242 1.50000
v 3.24477 -8.07242 1.50000
v 3.68584 -7.86001 1.50000
v 3.99107 -7.47727 1.50000
v 4.01627 -7.00000 1.07905
v 3.91563 -6.55906 1.07905
v 3.63363 -6.20545 1.07905
v 3.22614 -6.00921 1.07905
v 2.77386 -6.00921 1.07905
v 2.36637 -6.20545 1.07905
v 2.08437 -6.55906 1.07905
v 1.98373 -7.00000 1.07905
v 2.08437 -7.44094 1.07905
v 2.36637 -7.79455 1.07905
v 2.77386 -7.99079 1.07905
v 3.22614 -7.99079 1.07905
v 3.63363 -7.79455 1.07905
v 3.91563 -7.44094 1.07905
v 3.77782 -7.00000 0.72218
v 3.70079 -6.66252 0.72218
v 3.48496 -6.39188 0.72218
v 3.17308 -6.24168 0.72218
v 2.82692 -6.24168 0.72218
v 2.51504 -6.39188 0.72218
v 2.29921 -6.66252 0.72218
v 2.22218 -7.00000 0.72218
v 2.29921 -7.33748 0.72218
v 2.51504 -7.60812 0.72218
v 2.82692 -7.75832 0.72218
v 3.17308 -7.75832 0.72218
v 3.48496 -7.60812 0.72218
v 3.70079 -7.33748 0.72218
v 3.42095 -7.00000 0.48373
v 3.37926 -6.81736 0.48373
v 3.26246 -6.67089 0.48373
v 3.09367 -6.58960 0.48373
v 2.90633 -6.58960 0.48373
v 2.73754 -6.67089 0.48373
v 2.62074 -6.81736 0.48373
v 2.57905 -7.00000 0.48373
v 2.62074 -7.18264 0.48373
v 2.73754 -7.32911 0.48373
v 2.90633 -7.41040 0.48373
v 3.09367 -7.41040 0.48373
v 3.26246 -7.32911 0.48373
v 3.37926 -7.18264 0.48373
v 3.00000 -7.00000 0.40000
f 1 3 2
f 37 38 39
f 1 4 3
f 37 39 40
f 1 5 4
f 37 40 41
f 1 6 5
f 37 41 42
f 1 7 6
f 37 42 43
f 1 8 7
f 37 43 44
f 1 9 8
f 37 44 45
f 1 10 9
f 37 45 46
f 1 11 10
f 37 46 47
f 1 12 11
f 37 47 48
f 1 13 12
f 37 48 49
f 1 14 13
f 37 49 50
f 1 15 14
f 37 50 51
f 1 16 15
f 37 51 52
f 1 17 16
f 37 52 53
f 1 18 17
f 37 53 54
f 1 19 18
f 37 54 55
f 1 20 19
f 37 55 56
f 1 21 20
f 37 56 57
f 1 22 21
f 37 57 58
f 1 23 22
f 37 58 59
f 1 24 23
f 37 59 60
f 1 25 24
f 37 60 61
f 1 26 25
f 37 61 62
f 1 27 26
f 37 62 63
f 1 28 27
f 37 63 64
f 1 29 28
f 37 64 65
f 1 30 29
f 37 65 66
f 1 31 30
f 37 66 67
f 1 32 31
f 37 67 68
f 1 33 32
f 37 68 69
f 1 34 33
f 37 69 70
f 1 35 34
f 37 70 71
f 1 36 35
f 37 71 72
f 1 2 38
f 1 38 37
f 2 3 39
f 2 39 38
f 3 4 40
f 3 40 39
f 4 5 41
f 4 41 40
f 5 6 42
f 5 42 41
f 6 7 43
f 6 43 42
f 7 8 44
f 7 44 43
f 8 9 45
f 8 45 44
f 9 10 46
f 9 46 45
f 10 11 47
f 10 47 46
f 11 12 48
f 11 48 47
f 12 13 49
f 12 49 48
f 13 14 50
f 13 50 49
f 14 15 51
f 14 51 50
f 15 16 52
f 15 52 51
f 16 17 53
f 16 53 52
f 17 18 54
f 17 54 53
f 18 19 55
f 18 55 54
f 19 20 56
f 19 56 55
f 20 21 57
f 20 57 56
f 21 22 58
f 21 58 57
f 22 23 59
f 22 59 58
f 23 24 60
f 23 60 59
f 24 25 61
f 24 61 60
f 25 26 62
f 25 62 61
f 26 27 63
f 26 63 62
f 27 28 64
f 27 64 63
f 28 29 65
f 28 65 64
f 29 30 66
f 29 66 65
f 30 31 67
f 30 67 66
f 31 32 68
f 31 68 67
f 32 33 69
f 32 69 68
f 33 34 70
f 33 70 69
f 34 35 71
f 34 71 70
f 35 36 72
f 35 72 71
f 36 1 37
f 36 37 72
f 73 75 74
f 109 110 111
f 73 76 75
f 109 111 112
f 73 77 76
f 109 112 113
f 73 78 77
f 109 113 114
f 73 79 78
f 109 114 115
f 73 80 79
f 109 115 116
f 73 81 80
f 109 116 117
f 73 82 81
f 109 117 118
f 73 83 82
f 109 118 119
f 73 84 83
f 109 119 120
f 73 85 84
f 109 120 121
f 73 86 85
f 109 121 122
f 73 87 86
f 109 122 123
f 73 88 87
f 109 123 124
f 73 89 88
f 109 124 125
f 73 90 89
f 109 125 126
f 73 91 90
f 109 126 127
f 73 92 91
f 109 127 128
f 73 93 92
f 109 128 129
f 73 94 93
f 109 129 130
f 73 95 94
f 109 130 131
f 73 96 95
f 109 131 132
f 73 97 96
f 109 132 133
f 73 98 97
f 109 133 134
f 73 99 98
f 109 134 135
f 73 100 99
f 109 135 136
f 73 101 100
f 109 136 137
f 73 102 101
f 109 137 138
f 73 103 102
f 109 138 139
f 73 104 103
f 109 139 140
f 73 105 104
f 109 140 141
f 73 106 105
f 109 141 142
f 73 107 106
f 109 142 143
f 73 108 107
f 109 143 144
f 73 74 110
f 73 110 109
f 74 75 111
f 74 111 110
f 75 76 112
f 75 112 111
f 76 77 113
f 76 113 112
f 77 78 114
f 77 114 113
f 78 79 115
f 78 115 114
f 79 80 116
f 79 116 115
f 80 81 117
f 80 117 116
f 81 82 118
f 81 118 117
f 82 83 119
f 82 119 118
f 83 84 120
f 83 120 119
f 84 85 121
f 84 121 120
f 85 86 122
f 85 122 121
f 86 87 123
f 86 123 122
f 87 88 124
f 87 124 123
f 88 89 125
f 88 125 124
f 89 90 126
f 89 126 125
f 90 91 127
f 90 127 126
f 91 92 128
f 91 128 127
f 92 93 129
f 92 129 128
f 93 94 130
f 93 130 129
f 94 95 131
f 94 131 130
f 95 96 132
f 95 132 131
f 96 97 133
f 96 133 132
f 97 98 134
f 97 134 133
f 98 99 135
f 98 135 134
f 99 100 136
f 99 136 135
f 100 101 137
f 100 137 136
f 101 102 138
f 101 138 137
f 102 103 139
f 102 139 138
f 103 104 140
f 103 140 139
f 104 105 141
f 104 141 140
f 105 106 142
f 105 142 141
f 106 107 143
f 106 143 142
f 107 108 144
f 107 144 143
f 108 73 109
f 108 109 144
f 145 147 146
f 181 182 183
f 145 148 147
f 181 183 184
f 145 149 148
f 181 184 185
f 145 150 149
f 181 185 186
f 145 151 150
f 181 186 187
f 145 152 151
f 181 187 188
f 145 153 152
f 181 188 189
f 145 154 153
f 181 189 190
f 145 155 154
f 181 190 191
f 145 156 155
f 181 191 192
f 145 157 156
f 181 192 193
f 145 158 157
f 181 193 194
f 145 159 158
f 181 194 195
f 145 160 159
f 181 195 196
f 145 161 160
f 181 196 197
f 145 162 161
f 181 197 198
f 145 163 162
f 181 198 199
f 145 164 163
f 181 199 200
f 145 165 164
f 181 200 201
f 145 166 165
f 181 201 202
f 145 167 166
f 181 202 203
f 145 168 167
f 181 203 204
f 145 169 168
f 181 204 205
f 145 170 169
f 181 205 206
f 145 171 170
f 181 206 207
f 145 172 171
f 181 207 208
f 145 173 172
f 181 208 209
f 145 174 173
f 181 209 210
f 145 175 174
f 181 210 211
f 145 176 175
f 181 211 212
f 145 177 176
f 181 212 213
f 145 178 177
f 181 213 214
f 145 179 178
f 181 214 215
f 145 180 179
f 181 215 216
f 145 146 182
f 145 182 181
f 146 147 183
f 146 183 182
f 147 148 184
f 147 184 183
f 148 149 185
f 148 185 184
f 149 150 186
f 149 186 185
f 150 151 187
f 150 187 186
f 151 152 188
f 151 188 187
f 152 153 189
f 152 189 188
f 153 154 190
f 153 190 189
f 154 155 191
f 154 191 190
f 155 156 192
f 155 192 191
f 156 157 193
f 156 193 192
f 157 158 194
f 157 194 193
f 158 159 195
f 158 195 194
f 159 160 196
f 159 196 195
f 160 161 197
f 160 197 196
f 161 162 198
f 161 198 197
f 162 163 199
f 162 199 198
f 163 164 200
f 163 200 199
f 164 165 201
f 164 201 200
f 165 166 202
f 165 202 201
f 166 167 203
f 166 203 202
f 167 168 204
f 167 204 203
f 168 169 205
f 168 205 204
f 169 170 206
f 169 206 205
f 170 171 207
f 170 207 206
f 171 172 208
f 171 208 207
f 172 173 209
f 172 209 208
f 173 174 210
f 173 210 209
f 174 175 211
f 174 211 210
f 175 176 212
f 175 212 211
f 176 177 213
f 176 213 212
f 177 178 214
f 177 214 213
f 178 179 215
f 178 215 214
f 179 180 216
f 179 216 215
f 180 145 181
f 180 181 216
f 217 219 218
f 253 254 255
f 217 220 219
f 253 255 256
f 217 221 220
f 253 256 257
f 217 222 221
f 253 257 258
f 217 223 222
f 253 258 259
f 217 224 223
f 253 259 260
f 217 225 224
f 253 260 261
f 217 226 225
f 253 261 262
f 217 227 226
f 253 262 263
f 217 228 227
f 253 263 264
f 217 229 228
f 253 264 265
f 217 230 229
f 253 265 266
f 217 231 230
f 253 266 267
f 217 232 231
f 253 267 268
f 217 233 232
f 253 268 269
f 217 234 233
f 253 269 270
f 217 235 234
f 253 270 271
f 217 236 235
f 253 271 272
f 217 237 236
f 253 272 273
f 217 238 237
f 253 273 274
f 217 239 238
f 253 274 275
f 217 240 239
f 253 275 276
f 217 241 240
f 253 276 277
f 217 242 241
f 253 277 278
f 217 243 242
f 253 278 279
f 217 244 243
f 253 279 280
f 217 245 244
f 253 280 281
f 217 246 245
f 253 281 282
f 217 247 246
f 253 282 283
f 217 248 247
f 253 283 284
f 217 249 248
f 253 284 285
f 217 250 249
f 253 285 286
f 217 251 250
f 253 286 287
f 217 252 251
f 253 287 288
f 217 218 254
f 217 254 253
f 218 219 255
f 218 255 254
f 219 220 256
f 219 256 255
f 220 221 257
f 220 257 256
f 221 222 258
f 221 258 257
f 222 223 259
f 222 259 258
f 223 224 260
f 223 260 259
f 224 225 261
f 224 261 260
f 225 226 262
f 225 262 261
f 226 227 263
f 226 263 262
f 227 228 264
f 227 264 263
f 228 229 265
f 228 265 264
f 229 230 266
f 229 266 265
f 230 231 267
f 230 267 266
f 231 232 268
f 231 268 267
f 232 233 269
f 232 269 268
f 233 234 270
f 233 270 269
f 234 235 271
f 234 271 270
f 235 236 272
f 235 272 271
f 236 237 273
f 236 273 272
f 237 238 274
f 237 274 273
f 238 239 275
f 238 275 274
f 239 240 276
f 239 276 275
f 240 241 277
f 240 277 276
f 241 242 278
f 241 278 277
f 242 243 279
f 242 279 278
f 243 244 280
f 243 280 279
f 244 245 281
f 244 281 280
f 245 246 282
f 245 282 281
f 246 247 283
f 246 283 282
f 247 248 284
f 247 284 283
f 248 249 285
f 248 285 284
f 249 250 286
f 249 286 285
f 250 251 287
f 250 287 286
f 251 252 288
f 251 288 287
f 252 217 253
f 252 253 288
f 289 291 290
f 325 326 327
f 289 292 291
f 325 327 328
f 289 293 292
f 325 328 329
f 289 294 293
f 325 329 330
f 289 295 294
f 325 330 331
f 289 296 295
f 325 331 332
f 289 297 296
f 325 332 333
f 289 298 297
f 325 333 334
f 289 299 298
f 325 334 335
f 289 300 299
f 325 335 336
f 289 301 300
f 325 336 337
f 289 302 301
f 325 337 338
f 289 303 302
f 325 338 339
f 289 304 303
f 325 339 340
f 289 305 304
f 325 340 341
f 289 306 305
f 325 341 342
f 289 307 306
f 325 342 343
f 289 308 307
f 325 343 344
f 289 309 308
f 325 344 345
f 289 310 309
f 325 345 346
f 289 311 310
f 325 346 347
f 289 312 311
f 325 347 348
f 289 313 312
f 325 348 349
f 289 314 313
f 325 349 350
f 289 315 314
f 325 350 351
f 289 316 315
f 325 351 352
f 289 317 316
f 325 352 353
f 289 318 317
f 325 353 354
f 289 319 318
f 325 354 355
f 289 320 319
f 325 355 356
f 289 321 320
f 325 356 357
f 289 322 321
f 325 357 358
f 289 323 322
f 325 358 359
f 289 324 323
f 325 359 360
f 289 290 326
f 289 326 325
f 290 291 327
f 290 327 326
f 291 292 328
f 291 328 327
f 292 293 329
f 292 329 328
f 293 294 330
f 293 330 329
f 294 295 331
f 294 331 330
f 295 296 332
f 295 332 331
f 296 297 333
f 296 333 332
f 297 298 334
f 297 334 333
f 298 299 335
f 298 335 334
f 299 300 336
f 299 336 335
f 300 301 337
f 300 337 336
f 301 302 338
f 301 338 337
f 302 303 339
f 302 339 338
f 303 304 340
f 303 340 339
f 304 305 341
f 304 341 340
f 305 306 342
f 305 342 341
f 306 307 343
f 306 343 342
f 307 308 344
f 307 344 343
f 308 309 345
f 308 345 344
f 309 310 346
f 309 346 345
f 310 311 347
f 310 347 346
f 311 312 348
f 311 348 347
f 312 313 349
f 312 349 348
f 313 314 350
f 313 350 349
f 314 315 351
f 314 351 350
f 315 316 352
f 315 352 351
f 316 317 353
f 316 353 352
f 317 318 354
f 317 354 353
f 318 319 355
f 318 355 354
f 319 320 356
f 319 356 355
f 320 321 357
f 320 357 356
f 321 322 358
f 321 358 357
f 322 323 359
f 322 359 358
f 323 324 360
f 323 360 359
f 324 289 325
f 324 325 360
f 361 362 376
f 361 376 375
f 389 362 361
f 390 375 376
f 362 363 377
f 362 377 376
f 389 363 362
f 390 376 377
f 363 364 378
f 363 378 377
f 389 364 363
f 390 377 378
f 364 365 379
f 364 379 378
f 389 365 364
f 390 378 379
f 365 366 380
f 365 380 379
f 389 366 365
f 390 379 380
f 366 367 381
f 366 381 380
f 389 367 366
f 390 380 381
f 367 368 382
f 367 382 381
f 389 368 367
f 390 381 382
f 368 369 383
f 368 383 382
f 389 369 368
f 390 382 383
f 369 370 384
f 369 384 383
f 389 370 369
f 390 383 384
f 370 371 385
f 370 385 384
f 389 371 370
f 390 384 385
f 371 372 386
f 371 386 385
f 389 372 371
f 390 385 386
f 372 373 387
f 372 387 386
f 389 373 372
f 390 386 387
f 373 374 388
f 373 388 387
f 389 374 373
f 390 387 388
f 374 361 375
f 374 375 388
f 389 361 374
f 390 388 375
f 391 393 392
f 391 394 393
f 391 395 394
f 391 396 395
f 391 397 396
f 391 398 397
f 391 399 398
f 391 400 399
f 391 401 400
f 391 402 401
f 391 403 402
f 391 404 403
f 391 405 404
f 391 392 405
f 392 393 407
f 392 407 406
f 393 394 408
f 393 408 407
f 394 395 409
f 394 409 408
f 395 396 410
f 395 410 409
f 396 397 411
f 396 411 410
f 397 398 412
f 397 412 411
f 398 399 413
f 398 413 412
f 399 400 414
f 399 414 413
f 400 401 415
f 400 415 414
f 401 402 416
f 401 416 415
f 402 403 417
f 402 417 416
f 403 404 418
f 403 418 417
f 404 405 419
f 404 419 418
f 405 392 406
f 405 406 419
f 406 407 421
f 406 421 420
f 407 408 422
f 407 422 421
f 408 409 423
f 408 423 422
f 409 410 424
f 409 424 423
f 410 411 425
f 410 425 424
f 411 412 426
f 411 426 425
f 412 413 427
f 412 427 426
f 413 414 428
f 413 428 427
f 414 415 429
f 414 429 428
f 415 416 430
f 415 430 429
f 416 417 431
f 416 431 430
f 417 418 432
f 417 432 431
f 418 419 433
f 418 433 432
f 419 406 420
f 419 420 433
f 420 421 435
f 420 435 434
f 421 422 436
f 421 436 435
f 422 423 437
f 422 437 436
f 423 424 438
f 423 438 437
f 424 425 439
f 424 439 438
f 425 426 440
f 425 440 439
f 426 427 441
f 426 441 440
f 427 428 442
f 427 442 441
f 428 429 443
f 428 443 442
f 429 430 444
f 429 444 443
f 430 431 445
f 430 445 444
f 431 432 446
f 431 446 445
f 432 433 447
f 432 447 446
f 433 420 434
f 433 434 447
f 434 435 449
f 434 449 448
f 435 436 450
f 435 450 449
f 436 437 451
f 436 451 450
f 437 438 452
f 437 452 451
f 438 439 453
f 438 453 452
f 439 440 454
f 439 454 453
f 440 441 455
f 440 455 454
f 441 442 456
f 441 456 455
f 442 443 457
f 442 457 456
f 443 444 458
f 443 458 457
f 444 445 459
f 444 459 458
f 445 446 460
f 445 460 459
f 446 447 461
f 446 461 460
f 447 434 448
f 447 448 461
f 448 449 463
f 448 463 462
f 449 450 464
f 449 464 463
f 450 451 465
f 450 465 464
f 451 452 466
f 451 466 465
f 452 453 467
f 452 467 466
f 453 454 468
f 453 468 467
f 454 455 469
f 454 469 468
f 455 456 470
f 455 470 469
f 456 457 471
f 456 471 470
f 457 458 472
f 457 472 471
f 458 459 473
f 458 473 472
f 459 460 474
f 459 474 473
f 460 461 475
f 460 475 474
f 461 448 462
f 461 462 475
f 462 463 477
f 462 477 476
f 463 464 478
f 463 478 477
f 464 465 479
f 464 479 478
f 465 466 480
f 465 480 479
f 466 467 481
f 466 481 480
f 467 468 482
f 467 482 481
f 468 469 483
f 468 483 482
f 469 470 484
f 469 484 483
f 470 471 485
f 470 485 484
f 471 472 486
f 471 486 485
f 472 473 487
f 472 487 486
f 473 474 488
f 473 488 487
f 474 475 489
f 474 489 488
f 475 462 476
f 475 476 489
f 476 477 490
f 477 478 490
f 478 479 490
f 479 480 490
f 480 481 490
f 481 482 490
f 482 483 490
f 483 484 490
f 484 485 490
f 485 486 490
f 486 487 490
f 487 488 490
f 488 489 490
f 489 476 490
f 491 493 492
f 491 494 493
f 491 495 494
f 491 496 495
f 491 497 496
f 491 498 497
f 491 499 498
f 491 500 499
f 491 501 500
f 491 502 501
f 491 503 502
f 491 504 503
f 491 505 504
f 491 492 505
f 492 493 507
f 492 507 506
f 493 494 508
f 493 508 507
f 494 495 509
f 494 509 508
f 495 496 510
f 495 510 509
f 496 497 511
f 496 511 510
f 497 498 512
f 497 512 511
f 498 499 513
f 498 513 512
f 499 500 514
f 499 514 513
f 500 501 515
f 500 515 514
f 501 502 516
f 501 516 515
f 502 503 517
f 502 517 516
f 503 504 518
f 503 518 517
f 504 505 519
f 504 519 518
f 505 492 506
f 505 506 519
f 506 507 521
f 506 521 520
f 507 508 522
f 507 522 521
f 508 509 523
f 508 523 522
f 509 510 524
f 509 524 523
f 510 511 525
f 510 525 524
f 511 512 526
f 511 526 525
f 512 513 527
f 512 527 526
f 513 514 528
f 513 528 527
f 514 515 529
f 514 529 528
f 515 516 530
f 515 530 529
f 516 517 531
f 516 531 530
f 517 518 532
f 517 532 531
f 518 519 533
f 518 533 532
f 519 506 520
f 519 520 533
f 520 521 535
f 520 535 534
f 521 522 536
f 521 536 535
f 522 523 537
f 522 537 536
f 523 524 538
f 523 538 537
f 524 525 539
f 524 539 538
f 525 526 540
f 525 540 539
f 526 527 541
f 526 541 540
f 527 528 542
f 527 542 541
f 528 529 543
f 528 543 542
f 529 530 544
f 529 544 543
f 530 531 545
f 530 545 544
f 531 532 546
f 531 546 545
f 532 533 547
f 532 547 546
f 533 520 534
f 533 534 547
f 534 535 549
f 534 549 548
f 535 536 550
f 535 550 549
f 536 537 551
f 536 551 550
f 537 538 552
f 537 552 551
f 538 539 553
f 538 553 552
f 539 540 554
f 539 554 553
f 540 541 555
f 540 555 554
f 541 542 556
f 541 556 555
f 542 543 557
f 542 557 556
f 543 544 558
f 543 558 557
f 544 545 559
f 544 559 558
f 545 546 560
f 545 560 559
f 546 547 561
f 546 561 560
f 547 534 548
f 547 548 561
f 548 549 563
f 548 563 562
f 549 550 564
f 549 564 563
f 550 551 565
f 550 565 564
f 551 552 566
f 551 566 565
f 552 553 567
f 552 567 566
f 553 554 568
f 553 568 567
f 554 555 569
f 554 569 568
f 555 556 570
f 555 570 569
f 556 557 571
f 556 571 570
f 557 558 572
f 557 572 571
f 558 559 573
f 558 573 572
f 559 560 574
f 559 574 573
f 560 561 575
f 560 575 574
f 561 548 562
f 561 562 575
f 562 563 577
f 562 577 576
f 563 564 578
f 563 578 577
f 564 565 579
f 564 579 578
f 565 566 580
f 565 580 579
f 566 567 581
f 566 581 580
f 567 568 582
f 567 582 581
f 568 569 583
f 568 583 582
f 569 570 584
f 569 584 583
f 570 571 585
f 570 585 584
f 571 572 586
f 571 586 585
f 572 573 587
f 572 587 586
f 573 574 588
f 573 588 587
f 574 575 589
f 574 589 588
f 575 562 576
f 575 576 589
f 576 577 590
f 577 578 590
f 578 579 590
f 579 580 590
f 580 581 590
f 581 582 590
f 582 583 590
f 583 584 590
f 584 585 590
f 585 586 590
f 586 587 590
f 587 588 590
f 588 589 590
f 589 576 590
