o feelingmosaic_minimal_open_ring_19.5mm
v -3.97545 11.54555 -1.76400
v -4.56147 13.24748 -1.76400
v -4.67868 13.58787 -1.40400
v -4.67868 13.58787 1.40400
v -4.56147 13.24748 1.76400
v -3.97545 11.54555 1.76400
v -3.85825 11.20516 1.40400
v -3.85825 11.20516 -1.40400
v -4.88755 11.25553 -1.84039
v -5.61925 12.94054 -1.76018
v -5.75920 13.26283 -1.37674
v -5.70936 13.14807 1.48902
v -5.55664 12.79635 1.84039
v -4.82494 11.11133 1.76018
v -4.68499 10.78904 1.37674
v -4.73483 10.90381 -1.48902
v -5.76899 10.87531 -1.97726
v -6.67407 12.58151 -1.80828
v -6.83925 12.89290 -1.38821
v -6.71572 12.66003 1.62477
v -6.51887 12.28894 1.97726
v -5.61378 10.58274 1.80828
v -5.44861 10.27135 1.38821
v -5.57213 10.50422 -1.62477
v -6.61911 10.42335 -2.15205
v -7.72222 12.16045 -1.88114
v -7.91380 12.46213 -1.41541
v -7.68724 12.10537 1.79468
v -7.43758 11.71221 2.15205
v -6.33447 9.97511 1.88114
v -6.14289 9.67343 1.41541
v -6.36945 10.03019 -1.79468
v -7.43970 9.91275 -2.34002
v -8.75470 11.66487 -1.95374
v -8.97132 11.95351 -1.43835
v -8.60960 11.47155 1.97914
v -8.30023 11.05934 2.34002
v -6.98523 9.30722 1.95374
v -6.76861 9.01858 1.43835
v -7.13032 9.50054 -1.97914
v -8.23296 9.35125 -2.51468
v -9.75628 11.08148 -2.00362
v -9.99340 11.35081 -1.44035
v -9.46657 10.75242 2.15584
v -9.09436 10.32965 2.51468
v -7.57104 8.59942 2.00362
v -7.33392 8.33009 1.44035
v -7.86075 8.92848 -2.15584
v -8.99974 8.74168 -2.64832
v -10.70506 10.39810 -2.01131
v -10.95473 10.64062 -1.40843
v -10.24191 9.94823 2.30025
v -9.80946 9.52818 2.64832
v -8.10414 7.87176 2.01131
v -7.85446 7.62924 1.40843
v -8.56729 8.32163 -2.30025
v -9.73784 8.08292 -2.71249
v -11.57246 9.60575 -1.96072
v -11.82370 9.81428 -1.33351
v -10.92131 9.06526 2.38598
v -10.43869 8.66466 2.71249
v -8.60407 7.14183 1.96072
v -8.35284 6.93329 1.33351
v -9.25523 7.68232 -2.38598
v -10.43547 7.36748 -2.72977
v -12.35461 8.72240 -1.87472
v -12.59874 8.89475 -1.23387
v -11.50906 8.12544 2.43094
v -10.98553 7.75582 2.72977
v -9.06640 6.40091 1.87472
v -8.82227 6.22855 1.23387
v -9.91194 6.99787 -2.43094
v -11.08079 6.59238 -2.74186
v -13.06576 7.77331 -1.78515
v -13.29831 7.91167 -1.13187
v -12.01568 7.14858 2.47126
v -11.45425 6.81456 2.74186
v -9.46928 5.63363 1.78515
v -9.23672 5.49527 1.13187
v -10.51936 6.25836 -2.47126
v -11.66852 5.76131 -2.74873
v -13.70014 6.76442 -1.69218
v -13.91699 6.87149 -1.02772
v -12.43911 6.14179 2.50688
v -11.84332 5.84762 2.74873
v -9.81170 4.84451 1.69218
v -9.59484 4.73744 1.02772
v -11.07273 5.46714 -2.50688
v -12.19364 4.87848 -2.75036
v -14.25250 5.70220 -1.59599
v -14.44992 5.78118 -0.92161
v -12.77795 5.11225 2.53773
v -12.15182 4.86175 2.75036
v -10.09296 4.03803 1.59599
v -9.89554 3.95905 0.92161
v -11.56751 4.62798 -2.53773
v -12.65142 3.94855 -2.74676
v -14.71816 4.59359 -1.49676
v -14.89286 4.64812 -0.81375
v -13.03142 4.06715 2.56375
v -12.37942 3.86366 2.74676
v -10.31268 3.21862 1.49676
v -10.13798 3.16410 0.81375
v -11.99942 3.74506 -2.56375
v -13.03746 2.97667 -2.73793
v -15.09305 3.44599 -1.39468
v -15.24225 3.48006 -0.70434
v -13.19935 3.01363 2.58489
v -12.52633 2.85997 2.73793
v -10.47075 2.39064 1.39468
v -10.32154 2.35658 0.70434
v -12.36444 2.82300 -2.58489
v -13.34778 1.96838 -2.72389
v -15.37375 2.26715 -1.28995
v -15.49522 2.28506 -0.59359
v -13.28221 1.95871 2.60111
v -12.59329 1.85712 2.72389
v -10.56733 1.55835 1.28995
v -10.44585 1.54044 0.59359
v -12.65887 1.86679 -2.60111
v -13.57880 0.92968 -2.70467
v -15.55755 1.06515 -1.18276
v -15.64963 1.07146 -0.48171
v -13.28101 0.90929 2.61237
v -12.58159 0.86140 2.70467
v -10.60284 0.72593 1.18276
v -10.51075 0.71962 0.48171
v -12.87938 0.88179 -2.61237
v -13.72744 -0.13311 -2.68029
v -15.64246 -0.15168 -1.07332
v -15.70409 -0.15228 -0.36891
v -13.19734 -0.12797 2.61866
v -12.49295 -0.12114 2.68029
v -10.57793 -0.10257 1.07332
v -10.51631 -0.10197 0.36891
v -13.02306 -0.12628 -2.61866
v -13.79114 -1.21331 -2.65082
v -15.62725 -1.37484 -0.96184
v -15.65797 -1.37754 -0.25541
v -13.03331 -1.14663 2.61997
v -12.32959 -1.08472 2.65082
v -10.49349 -0.92319 0.96184
v -10.46276 -0.92048 0.25541
v -13.08743 -1.15140 -2.61997
v -13.76790 -2.30396 -2.61630
v -15.51142 -2.59572 -0.84853
v -15.51142 -2.59572 -0.14142
v -12.79153 -2.14057 2.61630
v -12.09412 -2.02386 2.61630
v -10.35059 -1.73210 0.84853
v -10.35059 -1.73210 0.14142
v -13.07049 -2.18725 -2.61630
v -13.65629 -3.39786 -2.57679
v -15.29529 -3.80567 -0.73360
v -15.26536 -3.79822 -0.02717
v -12.47505 -3.10396 2.60764
v -11.78952 -2.93339 2.57679
v -10.15052 -2.52558 0.73360
v -10.18045 -2.53303 0.02717
v -12.97075 -3.22729 -2.60764
v -13.45551 -4.48765 -2.53239
v -14.97993 -4.99607 -0.61727
v -14.92147 -4.97657 0.08714
v -12.08736 -4.03135 2.59401
v -11.41913 -3.80848 2.53239
v -9.89471 -3.30006 0.61727
v -9.95318 -3.31956 -0.08714
v -12.78728 -4.26478 -2.59401
v -13.16542 -5.56580 -2.48316
v -14.56720 -6.15842 -0.49977
v -14.48219 -6.12248 0.20128
v -11.63232 -4.91767 2.57545
v -10.98659 -4.64469 2.48316
v -9.58481 -4.05207 0.49977
v -9.66982 -4.08801 -0.20128
v -12.51969 -5.29282 -2.57545
v -12.78651 -6.62475 -2.42920
v -14.05971 -7.28440 -0.38132
v -13.95069 -7.22792 0.31504
v -11.11410 -5.75827 2.55199
v -10.49580 -5.43792 2.42920
v -9.22259 -4.77827 0.38132
v -9.33162 -4.83476 -0.31504
v -12.16820 -6.30440 -2.55199
v -12.31996 -7.65690 -2.37062
v -13.46082 -8.36595 -0.26214
v -13.33083 -8.28516 0.42820
v -10.53719 -6.54891 2.52367
v -9.95086 -6.18450 2.37062
v -8.81000 -5.47545 0.26214
v -8.93999 -5.55624 -0.42820
v -11.73363 -7.29249 -2.52367
v -11.76763 -8.65473 -2.30753
v -12.77461 -9.39533 -0.14247
v -12.62717 -9.28690 0.54054
v -9.90631 -7.28579 2.49054
v -9.35609 -6.88112 2.30753
v -8.34911 -6.14051 0.14247
v -8.49654 -6.24895 -0.54054
v -11.21740 -8.25005 -2.49054
v -11.13205 -9.61081 -2.24005
v -12.00583 -10.36518 -0.02252
v -11.84488 -10.22623 0.65186
v -9.22639 -7.96557 2.45268
v -8.71593 -7.52487 2.24005
v -7.84215 -6.77049 0.02252
v -8.00310 -6.90945 -0.65186
v -10.62159 -9.17011 -2.45268
v -10.41643 -10.51792 -2.16830
v -11.15989 -11.26863 0.09747
v -10.98971 -11.09679 0.76193
v -8.50252 -8.58536 2.41014
v -8.03495 -8.11324 2.16830
v -7.29149 -7.36254 -0.09747
v -7.46167 -7.53438 -0.76193
v -9.94887 -10.04580 -2.41014
v -9.62464 -11.36908 -2.09242
v -10.24279 -12.09927 0.21728
v -10.06795 -11.89275 0.87056
v -7.73988 -9.14272 2.36302
v -7.31778 -8.64411 2.09242
v -6.69963 -7.91392 -0.21728
v -6.87447 -8.12045 -0.87056
v -9.20254 -10.87048 -2.36302
v -8.76119 -12.15762 -2.01257
v -9.26109 -12.85132 0.33667
v -9.08638 -12.60888 0.97752
v -6.94378 -9.63566 2.31140
v -6.56910 -9.11574 2.01257
v -6.06920 -8.42204 -0.33667
v -6.24392 -8.66448 -0.97752
v -8.38652 -11.63770 -2.31140
v -7.83120 -12.87725 -1.92888
v -8.22182 -13.51956 0.45542
v -8.05217 -13.24059 1.08263
v -6.11951 -10.06263 2.25538
v -5.79361 -9.52673 1.92888
v -5.40299 -8.88442 -0.45542
v -5.57264 -9.16339 -1.08263
v -7.50530 -12.34135 -2.25538
v -6.84038 -13.52210 -1.84151
v -7.13246 -14.09947 0.57330
v -6.97286 -13.78399 1.18567
v -5.27240 -10.42251 2.19507
v -4.99598 -9.87607 1.84151
v -4.70390 -9.29870 -0.57330
v -4.86350 -9.61418 -1.18567
v -6.56396 -12.97566 -2.19507
v -5.79498 -14.08680 -1.75065
v -6.00083 -14.58721 0.69009
v -5.85629 -14.23585 1.28646
v -4.40774 -10.71461 2.13058
v -4.18085 -10.16308 1.75065
v -3.97499 -9.66267 -0.69009
v -4.11954 -10.01403 -1.28646
v -5.56809 -13.53527 -2.13058
v -4.70174 -14.56652 -1.65645
v -4.83509 -14.97966 0.80557
v -4.71051 -14.59368 1.38480
v -3.53074 -10.93862 2.06203
v -3.35281 -10.38739 1.65645
v -3.21946 -9.97426 -0.80557
v -3.34405 -10.36023 -1.38480
v -4.52382 -14.01530 -2.06203
v -3.56787 -14.95704 -1.55910
v -3.64358 -15.27445 0.91952
v -3.54370 -14.85574 1.48050
v -2.64652 -11.09463 1.98955
v -2.51636 -10.54896 1.55910
v -2.44064 -10.23155 -0.91952
v -2.54052 -10.65026 -1.48050
v -3.43770 -14.41137 -1.98955
v -2.40096 -15.25476 -1.45877
v -2.43483 -15.47000 1.03171
v -2.36417 -15.02101 1.57339
v -1.76011 -11.18309 1.91329
v -1.67590 -10.64800 1.45877
v -1.64202 -10.43276 -1.03171
v -1.71269 -10.88176 -1.57339
v -2.31674 -14.71967 -1.91329
v -1.20893 -15.45675 -1.35568
v -1.21744 -15.56547 1.14194
v -1.18019 -15.08921 1.66328
v -0.87637 -11.20478 1.83339
v -0.83572 -10.68504 1.35568
v -0.82722 -10.57632 -1.14194
v -0.86447 -11.05258 -1.66328
v -1.16828 -14.93701 -1.83339
v -0.00000 -15.56081 -1.25000
v -0.00000 -15.56081 1.25000
v -0.00000 -15.06081 1.75000
v -0.00000 -11.16081 1.75000
v -0.00000 -10.66081 1.25000
v -0.00000 -10.66081 -1.25000
v -0.00000 -11.16081 -1.75000
v -0.00000 -15.06081 -1.75000
v 1.21744 -15.56547 -1.14194
v 1.20893 -15.45675 1.35568
v 1.16828 -14.93701 1.83339
v 0.86447 -11.05258 1.66328
v 0.82722 -10.57632 1.14194
v 0.83572 -10.68504 -1.35568
v 0.87637 -11.20478 -1.83339
v 1.18019 -15.08921 -1.66328
v 2.43483 -15.47000 -1.03171
v 2.40096 -15.25476 1.45877
v 2.31674 -14.71967 1.91329
v 1.71269 -10.88176 1.57339
v 1.64202 -10.43276 1.03171
v 1.67590 -10.64800 -1.45877
v 1.76011 -11.18309 -1.91329
v 2.36417 -15.02101 -1.57339
v 3.64358 -15.27445 -0.91952
v 3.56787 -14.95704 1.55910
v 3.43770 -14.41137 1.98955
v 2.54052 -10.65026 1.48050
v 2.44064 -10.23155 0.91952
v 2.51636 -10.54896 -1.55910
v 2.64652 -11.09463 -1.98955
v 3.54370 -14.85574 -1.48050
v 4.83509 -14.97966 -0.80557
v 4.70174 -14.56652 1.65645
v 4.52382 -14.01530 2.06203
v 3.34405 -10.36023 1.38480
v 3.21946 -9.97426 0.80557
v 3.35281 -10.38739 -1.65645
v 3.53074 -10.93862 -2.06203
v 4.71051 -14.59368 -1.38480
v 6.00083 -14.58721 -0.69009
v 5.79498 -14.08680 1.75065
v 5.56809 -13.53527 2.13058
v 4.11954 -10.01403 1.28646
v 3.97499 -9.66267 0.69009
v 4.18085 -10.16308 -1.75065
v 4.40774 -10.71461 -2.13058
v 5.85629 -14.23585 -1.28646
v 7.13246 -14.09947 -0.57330
v 6.84038 -13.52210 1.84151
v 6.56396 -12.97566 2.19507
v 4.86350 -9.61418 1.18567
v 4.70390 -9.29870 0.57330
v 4.99598 -9.87607 -1.84151
v 5.27240 -10.42251 -2.19507
v 6.97286 -13.78399 -1.18567
v 8.22182 -13.51956 -0.45542
v 7.83120 -12.87725 1.92888
v 7.50530 -12.34135 2.25538
v 5.57264 -9.16339 1.08263
v 5.40299 -8.88442 0.45542
v 5.79361 -9.52673 -1.92888
v 6.11951 -10.06263 -2.25538
v 8.05217 -13.24059 -1.08263
v 9.26109 -12.85132 -0.33667
v 8.76119 -12.15762 2.01257
v 8.38652 -11.63770 2.31140
v 6.24392 -8.66448 0.97752
v 6.06920 -8.42204 0.33667
v 6.56910 -9.11574 -2.01257
v 6.94378 -9.63566 -2.31140
v 9.08638 -12.60888 -0.97752
v 10.24279 -12.09927 -0.21728
v 9.62464 -11.36908 2.09242
v 9.20254 -10.87048 2.36302
v 6.87447 -8.12045 0.87056
v 6.69963 -7.91392 0.21728
v 7.31778 -8.64411 -2.09242
v 7.73988 -9.14272 -2.36302
v 10.06795 -11.89275 -0.87056
v 11.15989 -11.26863 -0.09747
v 10.41643 -10.51792 2.16830
v 9.94887 -10.04580 2.41014
v 7.46167 -7.53438 0.76193
v 7.29149 -7.36254 0.09747
v 8.03495 -8.11324 -2.16830
v 8.50252 -8.58536 -2.41014
v 10.98971 -11.09679 -0.76193
v 12.00583 -10.36518 0.02252
v 11.13205 -9.61081 2.24005
v 10.62159 -9.17011 2.45268
v 8.00310 -6.90945 0.65186
v 7.84215 -6.77049 -0.02252
v 8.71593 -7.52487 -2.24005
v 9.22639 -7.96557 -2.45268
v 11.84488 -10.22623 -0.65186
v 12.77461 -9.39533 0.14247
v 11.76763 -8.65473 2.30753
v 11.21740 -8.25005 2.49054
v 8.49654 -6.24895 0.54054
v 8.34911 -6.14051 -0.14247
v 9.35609 -6.88112 -2.30753
v 9.90631 -7.28579 -2.49054
v 12.62717 -9.28690 -0.54054
v 13.46082 -8.36595 0.26214
v 12.31996 -7.65690 2.37062
v 11.73363 -7.29249 2.52367
v 8.93999 -5.55624 0.42820
v 8.81000 -5.47545 -0.26214
v 9.95086 -6.18450 -2.37062
v 10.53719 -6.54891 -2.52367
v 13.33083 -8.28516 -0.42820
v 14.05971 -7.28440 0.38132
v 12.78651 -6.62475 2.42920
v 12.16820 -6.30440 2.55199
v 9.33162 -4.83476 0.31504
v 9.22259 -4.77827 -0.38132
v 10.49580 -5.43792 -2.42920
v 11.11410 -5.75827 -2.55199
v 13.95069 -7.22792 -0.31504
v 14.56720 -6.15842 0.49977
v 13.16542 -5.56580 2.48316
v 12.51969 -5.29282 2.57545
v 9.66982 -4.08801 0.20128
v 9.58481 -4.05207 -0.49977
v 10.98659 -4.64469 -2.48316
v 11.63232 -4.91767 -2.57545
v 14.48219 -6.12248 -0.20128
v 14.97993 -4.99607 0.61727
v 13.45551 -4.48765 2.53239
v 12.78728 -4.26478 2.59401
v 9.95318 -3.31956 0.08714
v 9.89471 -3.30006 -0.61727
v 11.41913 -3.80848 -2.53239
v 12.08736 -4.03135 -2.59401
v 14.92147 -4.97657 -0.08714
v 15.29529 -3.80567 0.73360
v 13.65629 -3.39786 2.57679
v 12.97075 -3.22729 2.60764
v 10.18045 -2.53303 -0.02717
v 10.15052 -2.52558 -0.73360
v 11.78952 -2.93339 -2.57679
v 12.47505 -3.10396 -2.60764
v 15.26536 -3.79822 0.02717
v 15.51142 -2.59572 0.84853
v 13.76790 -2.30396 2.61630
v 13.07049 -2.18725 2.61630
v 10.35059 -1.73210 -0.14142
v 10.35059 -1.73210 -0.84853
v 12.09412 -2.02386 -2.61630
v 12.79153 -2.14057 -2.61630
v 15.51142 -2.59572 0.14142
v 15.62725 -1.37484 0.96184
v 13.79114 -1.21331 2.65082
v 13.08743 -1.15140 2.61997
v 10.46276 -0.92048 -0.25541
v 10.49349 -0.92319 -0.96184
v 12.32959 -1.08472 -2.65082
v 13.03331 -1.14663 -2.61997
v 15.65797 -1.37754 0.25541
v 15.64246 -0.15168 1.07332
v 13.72744 -0.13311 2.68029
v 13.02306 -0.12628 2.61866
v 10.51631 -0.10197 -0.36891
v 10.57793 -0.10257 -1.07332
v 12.49295 -0.12114 -2.68029
v 13.19734 -0.12797 -2.61866
v 15.70409 -0.15228 0.36891
v 15.55755 1.06515 1.18276
v 13.57880 0.92968 2.70467
v 12.87938 0.88179 2.61237
v 10.51075 0.71962 -0.48171
v 10.60284 0.72593 -1.18276
v 12.58159 0.86140 -2.70467
v 13.28101 0.90929 -2.61237
v 15.64963 1.07146 0.48171
v 15.37375 2.26715 1.28995
v 13.34778 1.96838 2.72389
v 12.65887 1.86679 2.60111
v 10.44585 1.54044 -0.59359
v 10.56733 1.55835 -1.28995
v 12.59329 1.85712 -2.72389
v 13.28221 1.95871 -2.60111
v 15.49522 2.28506 0.59359
v 15.09305 3.44599 1.39468
v 13.03746 2.97667 2.73793
v 12.36444 2.82300 2.58489
v 10.32154 2.35658 -0.70434
v 10.47075 2.39064 -1.39468
v 12.52633 2.85997 -2.73793
v 13.19935 3.01363 -2.58489
v 15.24225 3.48006 0.70434
v 14.71816 4.59359 1.49676
v 12.65142 3.94855 2.74676
v 11.99942 3.74506 2.56375
v 10.13798 3.16410 -0.81375
v 10.31268 3.21862 -1.49676
v 12.37942 3.86366 -2.74676
v 13.03142 4.06715 -2.56375
v 14.89286 4.64812 0.81375
v 14.25250 5.70220 1.59599
v 12.19364 4.87848 2.75036
v 11.56751 4.62798 2.53773
v 9.89554 3.95905 -0.92161
v 10.09296 4.03803 -1.59599
v 12.15182 4.86175 -2.75036
v 12.77795 5.11225 -2.53773
v 14.44992 5.78118 0.92161
v 13.70014 6.76442 1.69218
v 11.66852 5.76131 2.74873
v 11.07273 5.46714 2.50688
v 9.59484 4.73744 -1.02772
v 9.81170 4.84451 -1.69218
v 11.84332 5.84762 -2.74873
v 12.43911 6.14179 -2.50688
v 13.91699 6.87149 1.02772
v 13.06576 7.77331 1.78515
v 11.08079 6.59238 2.74186
v 10.51936 6.25836 2.47126
v 9.23672 5.49527 -1.13187
v 9.46928 5.63363 -1.78515
v 11.45425 6.81456 -2.74186
v 12.01568 7.14858 -2.47126
v 13.29831 7.91167 1.13187
v 12.35461 8.72240 1.87472
v 10.43547 7.36748 2.72977
v 9.91194 6.99787 2.43094
v 8.82227 6.22855 -1.23387
v 9.06640 6.40091 -1.87472
v 10.98553 7.75582 -2.72977
v 11.50906 8.12544 -2.43094
v 12.59874 8.89475 1.23387
v 11.57246 9.60575 1.96072
v 9.73784 8.08292 2.71249
v 9.25523 7.68232 2.38598
v 8.35284 6.93329 -1.33351
v 8.60407 7.14183 -1.96072
v 10.43869 8.66466 -2.71249
v 10.92131 9.06526 -2.38598
v 11.82370 9.81428 1.33351
v 10.70506 10.39810 2.01131
v 8.99974 8.74168 2.64832
v 8.56729 8.32163 2.30025
v 7.85446 7.62924 -1.40843
v 8.10414 7.87176 -2.01131
v 9.80946 9.52818 -2.64832
v 10.24191 9.94823 -2.30025
v 10.95473 10.64062 1.40843
v 9.75628 11.08148 2.00362
v 8.23296 9.35125 2.51468
v 7.86075 8.92848 2.15584
v 7.33392 8.33009 -1.44035
v 7.57104 8.59942 -2.00362
v 9.09436 10.32965 -2.51468
v 9.46657 10.75242 -2.15584
v 9.99340 11.35081 1.44035
v 8.75470 11.66487 1.95374
v 7.43970 9.91275 2.34002
v 7.13032 9.50054 1.97914
v 6.76861 9.01858 -1.43835
v 6.98523 9.30722 -1.95374
v 8.30023 11.05934 -2.34002
v 8.60960 11.47155 -1.97914
v 8.97132 11.95351 1.43835
v 7.72222 12.16045 1.88114
v 6.61911 10.42335 2.15205
v 6.36945 10.03019 1.79468
v 6.14289 9.67343 -1.41541
v 6.33447 9.97511 -1.88114
v 7.43758 11.71221 -2.15205
v 7.68724 12.10537 -1.79468
v 7.91380 12.46213 1.41541
v 6.67407 12.58151 1.80828
v 5.76899 10.87531 1.97726
v 5.57213 10.50422 1.62477
v 5.44861 10.27135 -1.38821
v 5.61378 10.58274 -1.80828
v 6.51887 12.28894 -1.97726
v 6.71572 12.66003 -1.62477
v 6.83925 12.89290 1.38821
v 5.61925 12.94054 1.76018
v 4.88755 11.25553 1.84039
v 4.73483 10.90381 1.48902
v 4.68499 10.78904 -1.37674
v 4.82494 11.11133 -1.76018
v 5.55664 12.79635 -1.84039
v 5.70936 13.14807 -1.48902
v 5.75920 13.26283 1.37674
v 4.56147 13.24748 1.76400
v 3.97545 11.54555 1.76400
v 3.85825 11.20516 1.40400
v 3.85825 11.20516 -1.40400
v 3.97545 11.54555 -1.76400
v 4.56147 13.24748 -1.76400
v 4.67868 13.58787 -1.40400
v 4.67868 13.58787 1.40400
v -4.26846 12.39652 0.00000
v 4.26846 12.39652 0.00000
f 1 2 10
f 1 10 9
f 2 3 11
f 2 11 10
f 3 4 12
f 3 12 11
f 4 5 13
f 4 13 12
f 5 6 14
f 5 14 13
f 6 7 15
f 6 15 14
f 7 8 16
f 7 16 15
f 8 1 9
f 8 9 16
f 9 10 18
f 9 18 17
f 10 11 19
f 10 19 18
f 11 12 20
f 11 20 19
f 12 13 21
f 12 21 20
f 13 14 22
f 13 22 21
f 14 15 23
f 14 23 22
f 15 16 24
f 15 24 23
f 16 9 17
f 16 17 24
f 17 18 26
f 17 26 25
f 18 19 27
f 18 27 26
f 19 20 28
f 19 28 27
f 20 21 29
f 20 29 28
f 21 22 30
f 21 30 29
f 22 23 31
f 22 31 30
f 23 24 32
f 23 32 31
f 24 17 25
f 24 25 32
f 25 26 34
f 25 34 33
f 26 27 35
f 26 35 34
f 27 28 36
f 27 36 35
f 28 29 37
f 28 37 36
f 29 30 38
f 29 38 37
f 30 31 39
f 30 39 38
f 31 32 40
f 31 40 39
f 32 25 33
f 32 33 40
f 33 34 42
f 33 42 41
f 34 35 43
f 34 43 42
f 35 36 44
f 35 44 43
f 36 37 45
f 36 45 44
f 37 38 46
f 37 46 45
f 38 39 47
f 38 47 46
f 39 40 48
f 39 48 47
f 40 33 41
f 40 41 48
f 41 42 50
f 41 50 49
f 42 43 51
f 42 51 50
f 43 44 52
f 43 52 51
f 44 45 53
f 44 53 52
f 45 46 54
f 45 54 53
f 46 47 55
f 46 55 54
f 47 48 56
f 47 56 55
f 48 41 49
f 48 49 56
f 49 50 58
f 49 58 57
f 50 51 59
f 50 59 58
f 51 52 60
f 51 60 59
f 52 53 61
f 52 61 60
f 53 54 62
f 53 62 61
f 54 55 63
f 54 63 62
f 55 56 64
f 55 64 63
f 56 49 57
f 56 57 64
f 57 58 66
f 57 66 65
f 58 59 67
f 58 67 66
f 59 60 68
f 59 68 67
f 60 61 69
f 60 69 68
f 61 62 70
f 61 70 69
f 62 63 71
f 62 71 70
f 63 64 72
f 63 72 71
f 64 57 65
f 64 65 72
f 65 66 74
f 65 74 73
f 66 67 75
f 66 75 74
f 67 68 76
f 67 76 75
f 68 69 77
f 68 77 76
f 69 70 78
f 69 78 77
f 70 71 79
f 70 79 78
f 71 72 80
f 71 80 79
f 72 65 73
f 72 73 80
f 73 74 82
f 73 82 81
f 74 75 83
f 74 83 82
f 75 76 84
f 75 84 83
f 76 77 85
f 76 85 84
f 77 78 86
f 77 86 85
f 78 79 87
f 78 87 86
f 79 80 88
f 79 88 87
f 80 73 81
f 80 81 88
f 81 82 90
f 81 90 89
f 82 83 91
f 82 91 90
f 83 84 92
f 83 92 91
f 84 85 93
f 84 93 92
f 85 86 94
f 85 94 93
f 86 87 95
f 86 95 94
f 87 88 96
f 87 96 95
f 88 81 89
f 88 89 96
f 89 90 98
f 89 98 97
f 90 91 99
f 90 99 98
f 91 92 100
f 91 100 99
f 92 93 101
f 92 101 100
f 93 94 102
f 93 102 101
f 94 95 103
f 94 103 102
f 95 96 104
f 95 104 103
f 96 89 97
f 96 97 104
f 97 98 106
f 97 106 105
f 98 99 107
f 98 107 106
f 99 100 108
f 99 108 107
f 100 101 109
f 100 109 108
f 101 102 110
f 101 110 109
f 102 103 111
f 102 111 110
f 103 104 112
f 103 112 111
f 104 97 105
f 104 105 112
f 105 106 114
f 105 114 113
f 106 107 115
f 106 115 114
f 107 108 116
f 107 116 115
f 108 109 117
f 108 117 116
f 109 110 118
f 109 118 117
f 110 111 119
f 110 119 118
f 111 112 120
f 111 120 119
f 112 105 113
f 112 113 120
f 113 114 122
f 113 122 121
f 114 115 123
f 114 123 122
f 115 116 124
f 115 124 123
f 116 117 125
f 116 125 124
f 117 118 126
f 117 126 125
f 118 119 127
f 118 127 126
f 119 120 128
f 119 128 127
f 120 113 121
f 120 121 128
f 121 122 130
f 121 130 129
f 122 123 131
f 122 131 130
f 123 124 132
f 123 132 131
f 124 125 133
f 124 133 132
f 125 126 134
f 125 134 133
f 126 127 135
f 126 135 134
f 127 128 136
f 127 136 135
f 128 121 129
f 128 129 136
f 129 130 138
f 129 138 137
f 130 131 139
f 130 139 138
f 131 132 140
f 131 140 139
f 132 133 141
f 132 141 140
f 133 134 142
f 133 142 141
f 134 135 143
f 134 143 142
f 135 136 144
f 135 144 143
f 136 129 137
f 136 137 144
f 137 138 146
f 137 146 145
f 138 139 147
f 138 147 146
f 139 140 148
f 139 148 147
f 140 141 149
f 140 149 148
f 141 142 150
f 141 150 149
f 142 143 151
f 142 151 150
f 143 144 152
f 143 152 151
f 144 137 145
f 144 145 152
f 145 146 154
f 145 154 153
f 146 147 155
f 146 155 154
f 147 148 156
f 147 156 155
f 148 149 157
f 148 157 156
f 149 150 158
f 149 158 157
f 150 151 159
f 150 159 158
f 151 152 160
f 151 160 159
f 152 145 153
f 152 153 160
f 153 154 162
f 153 162 161
f 154 155 163
f 154 163 162
f 155 156 164
f 155 164 163
f 156 157 165
f 156 165 164
f 157 158 166
f 157 166 165
f 158 159 167
f 158 167 166
f 159 160 168
f 159 168 167
f 160 153 161
f 160 161 168
f 161 162 170
f 161 170 169
f 162 163 171
f 162 171 170
f 163 164 172
f 163 172 171
f 164 165 173
f 164 173 172
f 165 166 174
f 165 174 173
f 166 167 175
f 166 175 174
f 167 168 176
f 167 176 175
f 168 161 169
f 168 169 176
f 169 170 178
f 169 178 177
f 170 171 179
f 170 179 178
f 171 172 180
f 171 180 179
f 172 173 181
f 172 181 180
f 173 174 182
f 173 182 181
f 174 175 183
f 174 183 182
f 175 176 184
f 175 184 183
f 176 169 177
f 176 177 184
f 177 178 186
f 177 186 185
f 178 179 187
f 178 187 186
f 179 180 188
f 179 188 187
f 180 181 189
f 180 189 188
f 181 182 190
f 181 190 189
f 182 183 191
f 182 191 190
f 183 184 192
f 183 192 191
f 184 177 185
f 184 185 192
f 185 186 194
f 185 194 193
f 186 187 195
f 186 195 194
f 187 188 196
f 187 196 195
f 188 189 197
f 188 197 196
f 189 190 198
f 189 198 197
f 190 191 199
f 190 199 198
f 191 192 200
f 191 200 199
f 192 185 193
f 192 193 200
f 193 194 202
f 193 202 201
f 194 195 203
f 194 203 202
f 195 196 204
f 195 204 203
f 196 197 205
f 196 205 204
f 197 198 206
f 197 206 205
f 198 199 207
f 198 207 206
f 199 200 208
f 199 208 207
f 200 193 201
f 200 201 208
f 201 202 210
f 201 210 209
f 202 203 211
f 202 211 210
f 203 204 212
f 203 212 211
f 204 205 213
f 204 213 212
f 205 206 214
f 205 214 213
f 206 207 215
f 206 215 214
f 207 208 216
f 207 216 215
f 208 201 209
f 208 209 216
f 209 210 218
f 209 218 217
f 210 211 219
f 210 219 218
f 211 212 220
f 211 220 219
f 212 213 221
f 212 221 220
f 213 214 222
f 213 222 221
f 214 215 223
f 214 223 222
f 215 216 224
f 215 224 223
f 216 209 217
f 216 217 224
f 217 218 226
f 217 226 225
f 218 219 227
f 218 227 226
f 219 220 228
f 219 228 227
f 220 221 229
f 220 229 228
f 221 222 230
f 221 230 229
f 222 223 231
f 222 231 230
f 223 224 232
f 223 232 231
f 224 217 225
f 224 225 232
f 225 226 234
f 225 234 233
f 226 227 235
f 226 235 234
f 227 228 236
f 227 236 235
f 228 229 237
f 228 237 236
f 229 230 238
f 229 238 237
f 230 231 239
f 230 239 238
f 231 232 240
f 231 240 239
f 232 225 233
f 232 233 240
f 233 234 242
f 233 242 241
f 234 235 243
f 234 243 242
f 235 236 244
f 235 244 243
f 236 237 245
f 236 245 244
f 237 238 246
f 237 246 245
f 238 239 247
f 238 247 246
f 239 240 248
f 239 248 247
f 240 233 241
f 240 241 248
f 241 242 250
f 241 250 249
f 242 243 251
f 242 251 250
f 243 244 252
f 243 252 251
f 244 245 253
f 244 253 252
f 245 246 254
f 245 254 253
f 246 247 255
f 246 255 254
f 247 248 256
f 247 256 255
f 248 241 249
f 248 249 256
f 249 250 258
f 249 258 257
f 250 251 259
f 250 259 258
f 251 252 260
f 251 260 259
f 252 253 261
f 252 261 260
f 253 254 262
f 253 262 261
f 254 255 263
f 254 263 262
f 255 256 264
f 255 264 263
f 256 249 257
f 256 257 264
f 257 258 266
f 257 266 265
f 258 259 267
f 258 267 266
f 259 260 268
f 259 268 267
f 260 261 269
f 260 269 268
f 261 262 270
f 261 270 269
f 262 263 271
f 262 271 270
f 263 264 272
f 263 272 271
f 264 257 265
f 264 265 272
f 265 266 274
f 265 274 273
f 266 267 275
f 266 275 274
f 267 268 276
f 267 276 275
f 268 269 277
f 268 277 276
f 269 270 278
f 269 278 277
f 270 271 279
f 270 279 278
f 271 272 280
f 271 280 279
f 272 265 273
f 272 273 280
f 273 274 282
f 273 282 281
f 274 275 283
f 274 283 282
f 275 276 284
f 275 284 283
f 276 277 285
f 276 285 284
f 277 278 286
f 277 286 285
f 278 279 287
f 278 287 286
f 279 280 288
f 279 288 287
f 280 273 281
f 280 281 288
f 281 282 290
f 281 290 289
f 282 283 291
f 282 291 290
f 283 284 292
f 283 292 291
f 284 285 293
f 284 293 292
f 285 286 294
f 285 294 293
f 286 287 295
f 286 295 294
f 287 288 296
f 287 296 295
f 288 281 289
f 288 289 296
f 289 290 298
f 289 298 297
f 290 291 299
f 290 299 298
f 291 292 300
f 291 300 299
f 292 293 301
f 292 301 300
f 293 294 302
f 293 302 301
f 294 295 303
f 294 303 302
f 295 296 304
f 295 304 303
f 296 289 297
f 296 297 304
f 297 298 306
f 297 306 305
f 298 299 307
f 298 307 306
f 299 300 308
f 299 308 307
f 300 301 309
f 300 309 308
f 301 302 310
f 301 310 309
f 302 303 311
f 302 311 310
f 303 304 312
f 303 312 311
f 304 297 305
f 304 305 312
f 305 306 314
f 305 314 313
f 306 307 315
f 306 315 314
f 307 308 316
f 307 316 315
f 308 309 317
f 308 317 316
f 309 310 318
f 309 318 317
f 310 311 319
f 310 319 318
f 311 312 320
f 311 320 319
f 312 305 313
f 312 313 320
f 313 314 322
f 313 322 321
f 314 315 323
f 314 323 322
f 315 316 324
f 315 324 323
f 316 317 325
f 316 325 324
f 317 318 326
f 317 326 325
f 318 319 327
f 318 327 326
f 319 320 328
f 319 328 327
f 320 313 321
f 320 321 328
f 321 322 330
f 321 330 329
f 322 323 331
f 322 331 330
f 323 324 332
f 323 332 331
f 324 325 333
f 324 333 332
f 325 326 334
f 325 334 333
f 326 327 335
f 326 335 334
f 327 328 336
f 327 336 335
f 328 321 329
f 328 329 336
f 329 330 338
f 329 338 337
f 330 331 339
f 330 339 338
f 331 332 340
f 331 340 339
f 332 333 341
f 332 341 340
f 333 334 342
f 333 342 341
f 334 335 343
f 334 343 342
f 335 336 344
f 335 344 343
f 336 329 337
f 336 337 344
f 337 338 346
f 337 346 345
f 338 339 347
f 338 347 346
f 339 340 348
f 339 348 347
f 340 341 349
f 340 349 348
f 341 342 350
f 341 350 349
f 342 343 351
f 342 351 350
f 343 344 352
f 343 352 351
f 344 337 345
f 344 345 352
f 345 346 354
f 345 354 353
f 346 347 355
f 346 355 354
f 347 348 356
f 347 356 355
f 348 349 357
f 348 357 356
f 349 350 358
f 349 358 357
f 350 351 359
f 350 359 358
f 351 352 360
f 351 360 359
f 352 345 353
f 352 353 360
f 353 354 362
f 353 362 361
f 354 355 363
f 354 363 362
f 355 356 364
f 355 364 363
f 356 357 365
f 356 365 364
f 357 358 366
f 357 366 365
f 358 359 367
f 358 367 366
f 359 360 368
f 359 368 367
f 360 353 361
f 360 361 368
f 361 362 370
f 361 370 369
f 362 363 371
f 362 371 370
f 363 364 372
f 363 372 371
f 364 365 373
f 364 373 372
f 365 366 374
f 365 374 373
f 366 367 375
f 366 375 374
f 367 368 376
f 367 376 375
f 368 361 369
f 368 369 376
f 369 370 378
f 369 378 377
f 370 371 379
f 370 379 378
f 371 372 380
f 371 380 379
f 372 373 381
f 372 381 380
f 373 374 382
f 373 382 381
f 374 375 383
f 374 383 382
f 375 376 384
f 375 384 383
f 376 369 377
f 376 377 384
f 377 378 386
f 377 386 385
f 378 379 387
f 378 387 386
f 379 380 388
f 379 388 387
f 380 381 389
f 380 389 388
f 381 382 390
f 381 390 389
f 382 383 391
f 382 391 390
f 383 384 392
f 383 392 391
f 384 377 385
f 384 385 392
f 385 386 394
f 385 394 393
f 386 387 395
f 386 395 394
f 387 388 396
f 387 396 395
f 388 389 397
f 388 397 396
f 389 390 398
f 389 398 397
f 390 391 399
f 390 399 398
f 391 392 400
f 391 400 399
f 392 385 393
f 392 393 400
f 393 394 402
f 393 402 401
f 394 395 403
f 394 403 402
f 395 396 404
f 395 404 403
f 396 397 405
f 396 405 404
f 397 398 406
f 397 406 405
f 398 399 407
f 398 407 406
f 399 400 408
f 399 408 407
f 400 393 401
f 400 401 408
f 401 402 410
f 401 410 409
f 402 403 411
f 402 411 410
f 403 404 412
f 403 412 411
f 404 405 413
f 404 413 412
f 405 406 414
f 405 414 413
f 406 407 415
f 406 415 414
f 407 408 416
f 407 416 415
f 408 401 409
f 408 409 416
f 409 410 418
f 409 418 417
f 410 411 419
f 410 419 418
f 411 412 420
f 411 420 419
f 412 413 421
f 412 421 420
f 413 414 422
f 413 422 421
f 414 415 423
f 414 423 422
f 415 416 424
f 415 424 423
f 416 409 417
f 416 417 424
f 417 418 426
f 417 426 425
f 418 419 427
f 418 427 426
f 419 420 428
f 419 428 427
f 420 421 429
f 420 429 428
f 421 422 430
f 421 430 429
f 422 423 431
f 422 431 430
f 423 424 432
f 423 432 431
f 424 417 425
f 424 425 432
f 425 426 434
f 425 434 433
f 426 427 435
f 426 435 434
f 427 428 436
f 427 436 435
f 428 429 437
f 428 437 436
f 429 430 438
f 429 438 437
f 430 431 439
f 430 439 438
f 431 432 440
f 431 440 439
f 432 425 433
f 432 433 440
f 433 434 442
f 433 442 441
f 434 435 443
f 434 443 442
f 435 436 444
f 435 444 443
f 436 437 445
f 436 445 444
f 437 438 446
f 437 446 445
f 438 439 447
f 438 447 446
f 439 440 448
f 439 448 447
f 440 433 441
f 440 441 448
f 441 442 450
f 441 450 449
f 442 443 451
f 442 451 450
f 443 444 452
f 443 452 451
f 444 445 453
f 444 453 452
f 445 446 454
f 445 454 453
f 446 447 455
f 446 455 454
f 447 448 456
f 447 456 455
f 448 441 449
f 448 449 456
f 449 450 458
f 449 458 457
f 450 451 459
f 450 459 458
f 451 452 460
f 451 460 459
f 452 453 461
f 452 461 460
f 453 454 462
f 453 462 461
f 454 455 463
f 454 463 462
f 455 456 464
f 455 464 463
f 456 449 457
f 456 457 464
f 457 458 466
f 457 466 465
f 458 459 467
f 458 467 466
f 459 460 468
f 459 468 467
f 460 461 469
f 460 469 468
f 461 462 470
f 461 470 469
f 462 463 471
f 462 471 470
f 463 464 472
f 463 472 471
f 464 457 465
f 464 465 472
f 465 466 474
f 465 474 473
f 466 467 475
f 466 475 474
f 467 468 476
f 467 476 475
f 468 469 477
f 468 477 476
f 469 470 478
f 469 478 477
f 470 471 479
f 470 479 478
f 471 472 480
f 471 480 479
f 472 465 473
f 472 473 480
f 473 474 482
f 473 482 481
f 474 475 483
f 474 483 482
f 475 476 484
f 475 484 483
f 476 477 485
f 476 485 484
f 477 478 486
f 477 486 485
f 478 479 487
f 478 487 486
f 479 480 488
f 479 488 487
f 480 473 481
f 480 481 488
f 481 482 490
f 481 490 489
f 482 483 491
f 482 491 490
f 483 484 492
f 483 492 491
f 484 485 493
f 484 493 492
f 485 486 494
f 485 494 493
f 486 487 495
f 486 495 494
f 487 488 496
f 487 496 495
f 488 481 489
f 488 489 496
f 489 490 498
f 489 498 497
f 490 491 499
f 490 499 498
f 491 492 500
f 491 500 499
f 492 493 501
f 492 501 500
f 493 494 502
f 493 502 501
f 494 495 503
f 494 503 502
f 495 496 504
f 495 504 503
f 496 489 497
f 496 497 504
f 497 498 506
f 497 506 505
f 498 499 507
f 498 507 506
f 499 500 508
f 499 508 507
f 500 501 509
f 500 509 508
f 501 502 510
f 501 510 509
f 502 503 511
f 502 511 510
f 503 504 512
f 503 512 511
f 504 497 505
f 504 505 512
f 505 506 514
f 505 514 513
f 506 507 515
f 506 515 514
f 507 508 516
f 507 516 515
f 508 509 517
f 508 517 516
f 509 510 518
f 509 518 517
f 510 511 519
f 510 519 518
f 511 512 520
f 511 520 519
f 512 505 513
f 512 513 520
f 513 514 522
f 513 522 521
f 514 515 523
f 514 523 522
f 515 516 524
f 515 524 523
f 516 517 525
f 516 525 524
f 517 518 526
f 517 526 525
f 518 519 527
f 518 527 526
f 519 520 528
f 519 528 527
f 520 513 521
f 520 521 528
f 521 522 530
f 521 530 529
f 522 523 531
f 522 531 530
f 523 524 532
f 523 532 531
f 524 525 533
f 524 533 532
f 525 526 534
f 525 534 533
f 526 527 535
f 526 535 534
f 527 528 536
f 527 536 535
f 528 521 529
f 528 529 536
f 529 530 538
f 529 538 537
f 530 531 539
f 530 539 538
f 531 532 540
f 531 540 539
f 532 533 541
f 532 541 540
f 533 534 542
f 533 542 541
f 534 535 543
f 534 543 542
f 535 536 544
f 535 544 543
f 536 529 537
f 536 537 544
f 537 538 546
f 537 546 545
f 538 539 547
f 538 547 546
f 539 540 548
f 539 548 547
f 540 541 549
f 540 549 548
f 541 542 550
f 541 550 549
f 542 543 551
f 542 551 550
f 543 544 552
f 543 552 551
f 544 537 545
f 544 545 552
f 545 546 554
f 545 554 553
f 546 547 555
f 546 555 554
f 547 548 556
f 547 556 555
f 548 549 557
f 548 557 556
f 549 550 558
f 549 558 557
f 550 551 559
f 550 559 558
f 551 552 560
f 551 560 559
f 552 545 553
f 552 553 560
f 553 554 562
f 553 562 561
f 554 555 563
f 554 563 562
f 555 556 564
f 555 564 563
f 556 557 565
f 556 565 564
f 557 558 566
f 557 566 565
f 558 559 567
f 558 567 566
f 559 560 568
f 559 568 567
f 560 553 561
f 560 561 568
f 561 562 570
f 561 570 569
f 562 563 571
f 562 571 570
f 563 564 572
f 563 572 571
f 564 565 573
f 564 573 572
f 565 566 574
f 565 574 573
f 566 567 575
f 566 575 574
f 567 568 576
f 567 576 575
f 568 561 569
f 568 569 576
f 569 570 578
f 569 578 577
f 570 571 579
f 570 579 578
f 571 572 580
f 571 580 579
f 572 573 581
f 572 581 580
f 573 574 582
f 573 582 581
f 574 575 583
f 574 583 582
f 575 576 584
f 575 584 583
f 576 569 577
f 576 577 584
f 585 2 1
f 586 577 578
f 585 3 2
f 586 578 579
f 585 4 3
f 586 579 580
f 585 5 4
f 586 580 581
f 585 6 5
f 586 581 582
f 585 7 6
f 586 582 583
f 585 8 7
f 586 583 584
f 585 1 8
f 586 584 577
