o luxury_closed_architectural_lid
v -63.00000 -50.00000 0.00000
v 63.00000 -50.00000 0.00000
v 75.00000 -38.00000 0.00000
v 75.00000 38.00000 0.00000
v 63.00000 50.00000 0.00000
v -63.00000 50.00000 0.00000
v -75.00000 38.00000 0.00000
v -75.00000 -38.00000 0.00000
v -63.00000 -50.00000 5.00000
v 63.00000 -50.00000 5.00000
v 75.00000 -38.00000 5.00000
v 75.00000 38.00000 5.00000
v 63.00000 50.00000 5.00000
v -63.00000 50.00000 5.00000
v -75.00000 38.00000 5.00000
v -75.00000 -38.00000 5.00000
v -68.00000 -38.00000 5.00000
v -8.00000 -21.00000 5.00000
v -8.00000 35.00000 5.00000
v -57.00000 42.00000 5.00000
v -70.00000 28.00000 5.00000
v -68.00000 -38.00000 8.00000
v -8.00000 -21.00000 8.00000
v -8.00000 35.00000 8.00000
v -57.00000 42.00000 8.00000
v -70.00000 28.00000 8.00000
v 68.00000 -38.00000 5.00000
v 8.00000 -21.00000 5.00000
v 8.00000 35.00000 5.00000
v 57.00000 42.00000 5.00000
v 70.00000 28.00000 5.00000
v 68.00000 -38.00000 8.00000
v 8.00000 -21.00000 8.00000
v 8.00000 35.00000 8.00000
v 57.00000 42.00000 8.00000
v 70.00000 28.00000 8.00000
v -28.00000 -34.50000 5.00000
v 28.00000 -34.50000 5.00000
v 32.00000 -30.50000 5.00000
v 32.00000 -21.50000 5.00000
v 28.00000 -17.50000 5.00000
v -28.00000 -17.50000 5.00000
v -32.00000 -21.50000 5.00000
v -32.00000 -30.50000 5.00000
v -28.00000 -34.50000 12.00000
v 28.00000 -34.50000 12.00000
v 32.00000 -30.50000 12.00000
v 32.00000 -21.50000 12.00000
v 28.00000 -17.50000 12.00000
v -28.00000 -17.50000 12.00000
v -32.00000 -21.50000 12.00000
v -32.00000 -30.50000 12.00000
v -18.00000 1.00000 5.00000
v 18.00000 1.00000 5.00000
v 24.00000 7.00000 5.00000
v 24.00000 25.00000 5.00000
v 18.00000 31.00000 5.00000
v -18.00000 31.00000 5.00000
v -24.00000 25.00000 5.00000
v -24.00000 7.00000 5.00000
v -18.00000 1.00000 11.00000
v 18.00000 1.00000 11.00000
v 24.00000 7.00000 11.00000
v 24.00000 25.00000 11.00000
v 18.00000 31.00000 11.00000
v -18.00000 31.00000 11.00000
v -24.00000 25.00000 11.00000
v -24.00000 7.00000 11.00000
v -16.24110 18.50000 10.51718
v -11.75890 18.50000 9.48282
v -11.75890 13.50000 9.48282
v -16.24110 13.50000 10.51718
v -10.24110 18.50000 36.51718
v -5.75890 18.50000 35.48282
v -5.75890 13.50000 35.48282
v -10.24110 13.50000 36.51718
v 11.75890 18.50000 9.48282
v 16.24110 18.50000 10.51718
v 16.24110 13.50000 10.51718
v 11.75890 13.50000 9.48282
v 5.75890 18.50000 35.48282
v 10.24110 18.50000 36.51718
v 10.24110 13.50000 36.51718
v 5.75890 13.50000 35.48282
v -8.50000 13.90000 37.10000
v -8.50000 18.10000 37.10000
v -8.50000 18.10000 32.90000
v -8.50000 13.90000 32.90000
v 8.50000 13.90000 37.10000
v 8.50000 18.10000 37.10000
v 8.50000 18.10000 32.90000
v 8.50000 13.90000 32.90000
v -13.00000 46.00000 9.00000
v -13.00000 50.00000 9.00000
v -13.00000 50.00000 5.00000
v -13.00000 46.00000 5.00000
v 13.00000 46.00000 9.00000
v 13.00000 50.00000 9.00000
v 13.00000 50.00000 5.00000
v 13.00000 46.00000 5.00000
f 1 3 2
f 9 10 11
f 1 4 3
f 9 11 12
f 1 5 4
f 9 12 13
f 1 6 5
f 9 13 14
f 1 7 6
f 9 14 15
f 1 8 7
f 9 15 16
f 1 2 10
f 1 10 9
f 2 3 11
f 2 11 10
f 3 4 12
f 3 12 11
f 4 5 13
f 4 13 12
f 5 6 14
f 5 14 13
f 6 7 15
f 6 15 14
f 7 8 16
f 7 16 15
f 8 1 9
f 8 9 16
f 17 19 18
f 22 23 24
f 17 20 19
f 22 24 25
f 17 21 20
f 22 25 26
f 17 18 23
f 17 23 22
f 18 19 24
f 18 24 23
f 19 20 25
f 19 25 24
f 20 21 26
f 20 26 25
f 21 17 22
f 21 22 26
f 27 29 28
f 32 33 34
f 27 30 29
f 32 34 35
f 27 31 30
f 32 35 36
f 27 28 33
f 27 33 32
f 28 29 34
f 28 34 33
f 29 30 35
f 29 35 34
f 30 31 36
f 30 36 35
f 31 27 32
f 31 32 36
f 37 39 38
f 45 46 47
f 37 40 39
f 45 47 48
f 37 41 40
f 45 48 49
f 37 42 41
f 45 49 50
f 37 43 42
f 45 50 51
f 37 44 43
f 45 51 52
f 37 38 46
f 37 46 45
f 38 39 47
f 38 47 46
f 39 40 48
f 39 48 47
f 40 41 49
f 40 49 48
f 41 42 50
f 41 50 49
f 42 43 51
f 42 51 50
f 43 44 52
f 43 52 51
f 44 37 45
f 44 45 52
f 53 55 54
f 61 62 63
f 53 56 55
f 61 63 64
f 53 57 56
f 61 64 65
f 53 58 57
f 61 65 66
f 53 59 58
f 61 66 67
f 53 60 59
f 61 67 68
f 53 54 62
f 53 62 61
f 54 55 63
f 54 63 62
f 55 56 64
f 55 64 63
f 56 57 65
f 56 65 64
f 57 58 66
f 57 66 65
f 58 59 67
f 58 67 66
f 59 60 68
f 59 68 67
f 60 53 61
f 60 61 68
f 69 71 70
f 69 72 71
f 73 74 75
f 73 75 76
f 69 70 74
f 69 74 73
f 70 71 75
f 70 75 74
f 71 72 76
f 71 76 75
f 72 69 73
f 72 73 76
f 77 79 78
f 77 80 79
f 81 82 83
f 81 83 84
f 77 78 82
f 77 82 81
f 78 79 83
f 78 83 82
f 79 80 84
f 79 84 83
f 80 77 81
f 80 81 84
f 85 87 86
f 85 88 87
f 89 90 91
f 89 91 92
f 85 86 90
f 85 90 89
f 86 87 91
f 86 91 90
f 87 88 92
f 87 92 91
f 88 85 89
f 88 89 92
f 93 95 94
f 93 96 95
f 97 98 99
f 97 99 100
f 93 94 98
f 93 98 97
f 94 95 99
f 94 99 98
f 95 96 100
f 95 100 99
f 96 93 97
f 96 97 100
