o luxury_open_display_frame
v -62.00000 -45.75000 1.00000
v 62.00000 -45.75000 1.00000
v 62.00000 -50.25000 1.00000
v -62.00000 -50.25000 1.00000
v -62.00000 -45.75000 5.50000
v 62.00000 -45.75000 5.50000
v 62.00000 -50.25000 5.50000
v -62.00000 -50.25000 5.50000
v 60.40901 -46.40901 1.00000
v 71.40901 -35.40901 1.00000
v 74.59099 -38.59099 1.00000
v 63.59099 -49.59099 1.00000
v 60.40901 -46.40901 5.50000
v 71.40901 -35.40901 5.50000
v 74.59099 -38.59099 5.50000
v 63.59099 -49.59099 5.50000
v 70.75000 -37.00000 1.00000
v 70.75000 37.00000 1.00000
v 75.25000 37.00000 1.00000
v 75.25000 -37.00000 1.00000
v 70.75000 -37.00000 5.50000
v 70.75000 37.00000 5.50000
v 75.25000 37.00000 5.50000
v 75.25000 -37.00000 5.50000
v 71.40901 35.40901 1.00000
v 60.40901 46.40901 1.00000
v 63.59099 49.59099 1.00000
v 74.59099 38.59099 1.00000
v 71.40901 35.40901 5.50000
v 60.40901 46.40901 5.50000
v 63.59099 49.59099 5.50000
v 74.59099 38.59099 5.50000
v 62.00000 45.75000 1.00000
v -62.00000 45.75000 1.00000
v -62.00000 50.25000 1.00000
v 62.00000 50.25000 1.00000
v 62.00000 45.75000 5.50000
v -62.00000 45.75000 5.50000
v -62.00000 50.25000 5.50000
v 62.00000 50.25000 5.50000
v -60.40901 46.40901 1.00000
v -71.40901 35.40901 1.00000
v -74.59099 38.59099 1.00000
v -63.59099 49.59099 1.00000
v -60.40901 46.40901 5.50000
v -71.40901 35.40901 5.50000
v -74.59099 38.59099 5.50000
v -63.59099 49.59099 5.50000
v -70.75000 37.00000 1.00000
v -70.75000 -37.00000 1.00000
v -75.25000 -37.00000 1.00000
v -75.25000 37.00000 1.00000
v -70.75000 37.00000 5.50000
v -70.75000 -37.00000 5.50000
v -75.25000 -37.00000 5.50000
v -75.25000 37.00000 5.50000
v -71.40901 -35.40901 1.00000
v -60.40901 -46.40901 1.00000
v -63.59099 -49.59099 1.00000
v -74.59099 -38.59099 1.00000
v -71.40901 -35.40901 5.50000
v -60.40901 -46.40901 5.50000
v -63.59099 -49.59099 5.50000
v -74.59099 -38.59099 5.50000
v -62.00000 -45.75000 36.00000
v 62.00000 -45.75000 36.00000
v 62.00000 -50.25000 36.00000
v -62.00000 -50.25000 36.00000
v -62.00000 -45.75000 40.50000
v 62.00000 -45.75000 40.50000
v 62.00000 -50.25000 40.50000
v -62.00000 -50.25000 40.50000
v 60.40901 -46.40901 36.00000
v 71.40901 -35.40901 36.00000
v 74.59099 -38.59099 36.00000
v 63.59099 -49.59099 36.00000
v 60.40901 -46.40901 40.50000
v 71.40901 -35.40901 40.50000
v 74.59099 -38.59099 40.50000
v 63.59099 -49.59099 40.50000
v 70.75000 -37.00000 36.00000
v 70.75000 37.00000 36.00000
v 75.25000 37.00000 36.00000
v 75.25000 -37.00000 36.00000
v 70.75000 -37.00000 40.50000
v 70.75000 37.00000 40.50000
v 75.25000 37.00000 40.50000
v 75.25000 -37.00000 40.50000
v 71.40901 35.40901 36.00000
v 60.40901 46.40901 36.00000
v 63.59099 49.59099 36.00000
v 74.59099 38.59099 36.00000
v 71.40901 35.40901 40.50000
v 60.40901 46.40901 40.50000
v 63.59099 49.59099 40.50000
v 74.59099 38.59099 40.50000
v 62.00000 45.75000 36.00000
v -62.00000 45.75000 36.00000
v -62.00000 50.25000 36.00000
v 62.00000 50.25000 36.00000
v 62.00000 45.75000 40.50000
v -62.00000 45.75000 40.50000
v -62.00000 50.25000 40.50000
v 62.00000 50.25000 40.50000
v -60.40901 46.40901 36.00000
v -71.40901 35.40901 36.00000
v -74.59099 38.59099 36.00000
v -63.59099 49.59099 36.00000
v -60.40901 46.40901 40.50000
v -71.40901 35.40901 40.50000
v -74.59099 38.59099 40.50000
v -63.59099 49.59099 40.50000
v -70.75000 37.00000 36.00000
v -70.75000 -37.00000 36.00000
v -75.25000 -37.00000 36.00000
v -75.25000 37.00000 36.00000
v -70.75000 37.00000 40.50000
v -70.75000 -37.00000 40.50000
v -75.25000 -37.00000 40.50000
v -75.25000 37.00000 40.50000
v -71.40901 -35.40901 36.00000
v -60.40901 -46.40901 36.00000
v -63.59099 -49.59099 36.00000
v -74.59099 -38.59099 36.00000
v -71.40901 -35.40901 40.50000
v -60.40901 -46.40901 40.50000
v -63.59099 -49.59099 40.50000
v -74.59099 -38.59099 40.50000
v -64.50371 -45.50407 4.04230
v -59.51735 -45.50407 3.67316
v -59.49629 -50.49593 3.95770
v -64.48265 -50.49593 4.32684
v -62.02371 -43.58407 37.54230
v -57.03735 -43.58407 37.17316
v -57.01629 -48.57593 37.45770
v -62.00265 -48.57593 37.82684
v 59.51735 -45.50407 3.67316
v 64.50371 -45.50407 4.04230
v 64.48265 -50.49593 4.32684
v 59.49629 -50.49593 3.95770
v 57.03735 -43.58407 37.17316
v 62.02371 -43.58407 37.54230
v 62.00265 -48.57593 37.82684
v 57.01629 -48.57593 37.45770
v 70.51899 -34.50242 3.67340
v 75.50010 -34.50242 4.10758
v 75.48101 -39.49758 4.32660
v 70.49990 -39.49758 3.89242
v 67.59899 -33.02242 37.17340
v 72.58010 -33.02242 37.60758
v 72.56101 -38.01758 37.82660
v 67.57990 -38.01758 37.39242
v 70.49990 39.49758 3.89242
v 75.48101 39.49758 4.32660
v 75.50010 34.50242 4.10758
v 70.51899 34.50242 3.67340
v 67.57990 38.01758 37.39242
v 72.56101 38.01758 37.82660
v 72.58010 33.02242 37.60758
v 67.59899 33.02242 37.17340
v 59.49629 50.49593 3.95770
v 64.48265 50.49593 4.32684
v 64.50371 45.50407 4.04230
v 59.51735 45.50407 3.67316
v 57.01629 48.57593 37.45770
v 62.00265 48.57593 37.82684
v 62.02371 43.58407 37.54230
v 57.03735 43.58407 37.17316
v -64.48265 50.49593 4.32684
v -59.49629 50.49593 3.95770
v -59.51735 45.50407 3.67316
v -64.50371 45.50407 4.04230
v -62.00265 48.57593 37.82684
v -57.01629 48.57593 37.45770
v -57.03735 43.58407 37.17316
v -62.02371 43.58407 37.54230
v -75.48101 39.49758 4.32660
v -70.49990 39.49758 3.89242
v -70.51899 34.50242 3.67340
v -75.50010 34.50242 4.10758
v -72.56101 38.01758 37.82660
v -67.57990 38.01758 37.39242
v -67.59899 33.02242 37.17340
v -72.58010 33.02242 37.60758
v -75.50010 -34.50242 4.10758
v -70.51899 -34.50242 3.67340
v -70.49990 -39.49758 3.89242
v -75.48101 -39.49758 4.32660
v -72.58010 -33.02242 37.60758
v -67.59899 -33.02242 37.17340
v -67.57990 -38.01758 37.39242
v -72.56101 -38.01758 37.82660
v -30.50000 -46.25000 14.50000
v 30.50000 -46.25000 14.50000
v 32.00000 -44.75000 14.50000
v 32.00000 -43.25000 14.50000
v 30.50000 -41.75000 14.50000
v -30.50000 -41.75000 14.50000
v -32.00000 -43.25000 14.50000
v -32.00000 -44.75000 14.50000
v -30.50000 -46.25000 25.50000
v 30.50000 -46.25000 25.50000
v 32.00000 -44.75000 25.50000
v 32.00000 -43.25000 25.50000
v 30.50000 -41.75000 25.50000
v -30.50000 -41.75000 25.50000
v -32.00000 -43.25000 25.50000
v -32.00000 -44.75000 25.50000
v -18.00000 1.00000 40.50000
v 18.00000 1.00000 40.50000
v 24.00000 7.00000 40.50000
v 24.00000 25.00000 40.50000
v 18.00000 31.00000 40.50000
v -18.00000 31.00000 40.50000
v -24.00000 25.00000 40.50000
v -24.00000 7.00000 40.50000
v -18.00000 1.00000 46.50000
v 18.00000 1.00000 46.50000
v 24.00000 7.00000 46.50000
v 24.00000 25.00000 46.50000
v 18.00000 31.00000 46.50000
v -18.00000 31.00000 46.50000
v -24.00000 25.00000 46.50000
v -24.00000 7.00000 46.50000
v -16.24110 18.50000 46.01718
v -11.75890 18.50000 44.98282
v -11.75890 13.50000 44.98282
v -16.24110 13.50000 46.01718
v -10.24110 18.50000 72.01718
v -5.75890 18.50000 70.98282
v -5.75890 13.50000 70.98282
v -10.24110 13.50000 72.01718
v 11.75890 18.50000 44.98282
v 16.24110 18.50000 46.01718
v 16.24110 13.50000 46.01718
v 11.75890 13.50000 44.98282
v 5.75890 18.50000 70.98282
v 10.24110 18.50000 72.01718
v 10.24110 13.50000 72.01718
v 5.75890 13.50000 70.98282
v -8.50000 13.90000 72.60000
v -8.50000 18.10000 72.60000
v -8.50000 18.10000 68.40000
v -8.50000 13.90000 68.40000
v 8.50000 13.90000 72.60000
v 8.50000 18.10000 72.60000
v 8.50000 18.10000 68.40000
v 8.50000 13.90000 68.40000
f 1 3 2
f 5 6 7
f 1 4 3
f 5 7 8
f 1 2 6
f 1 6 5
f 2 3 7
f 2 7 6
f 3 4 8
f 3 8 7
f 4 1 5
f 4 5 8
f 9 11 10
f 13 14 15
f 9 12 11
f 13 15 16
f 9 10 14
f 9 14 13
f 10 11 15
f 10 15 14
f 11 12 16
f 11 16 15
f 12 9 13
f 12 13 16
f 17 19 18
f 21 22 23
f 17 20 19
f 21 23 24
f 17 18 22
f 17 22 21
f 18 19 23
f 18 23 22
f 19 20 24
f 19 24 23
f 20 17 21
f 20 21 24
f 25 27 26
f 29 30 31
f 25 28 27
f 29 31 32
f 25 26 30
f 25 30 29
f 26 27 31
f 26 31 30
f 27 28 32
f 27 32 31
f 28 25 29
f 28 29 32
f 33 35 34
f 37 38 39
f 33 36 35
f 37 39 40
f 33 34 38
f 33 38 37
f 34 35 39
f 34 39 38
f 35 36 40
f 35 40 39
f 36 33 37
f 36 37 40
f 41 43 42
f 45 46 47
f 41 44 43
f 45 47 48
f 41 42 46
f 41 46 45
f 42 43 47
f 42 47 46
f 43 44 48
f 43 48 47
f 44 41 45
f 44 45 48
f 49 51 50
f 53 54 55
f 49 52 51
f 53 55 56
f 49 50 54
f 49 54 53
f 50 51 55
f 50 55 54
f 51 52 56
f 51 56 55
f 52 49 53
f 52 53 56
f 57 59 58
f 61 62 63
f 57 60 59
f 61 63 64
f 57 58 62
f 57 62 61
f 58 59 63
f 58 63 62
f 59 60 64
f 59 64 63
f 60 57 61
f 60 61 64
f 65 67 66
f 69 70 71
f 65 68 67
f 69 71 72
f 65 66 70
f 65 70 69
f 66 67 71
f 66 71 70
f 67 68 72
f 67 72 71
f 68 65 69
f 68 69 72
f 73 75 74
f 77 78 79
f 73 76 75
f 77 79 80
f 73 74 78
f 73 78 77
f 74 75 79
f 74 79 78
f 75 76 80
f 75 80 79
f 76 73 77
f 76 77 80
f 81 83 82
f 85 86 87
f 81 84 83
f 85 87 88
f 81 82 86
f 81 86 85
f 82 83 87
f 82 87 86
f 83 84 88
f 83 88 87
f 84 81 85
f 84 85 88
f 89 91 90
f 93 94 95
f 89 92 91
f 93 95 96
f 89 90 94
f 89 94 93
f 90 91 95
f 90 95 94
f 91 92 96
f 91 96 95
f 92 89 93
f 92 93 96
f 97 99 98
f 101 102 103
f 97 100 99
f 101 103 104
f 97 98 102
f 97 102 101
f 98 99 103
f 98 103 102
f 99 100 104
f 99 104 103
f 100 97 101
f 100 101 104
f 105 107 106
f 109 110 111
f 105 108 107
f 109 111 112
f 105 106 110
f 105 110 109
f 106 107 111
f 106 111 110
f 107 108 112
f 107 112 111
f 108 105 109
f 108 109 112
f 113 115 114
f 117 118 119
f 113 116 115
f 117 119 120
f 113 114 118
f 113 118 117
f 114 115 119
f 114 119 118
f 115 116 120
f 115 120 119
f 116 113 117
f 116 117 120
f 121 123 122
f 125 126 127
f 121 124 123
f 125 127 128
f 121 122 126
f 121 126 125
f 122 123 127
f 122 127 126
f 123 124 128
f 123 128 127
f 124 121 125
f 124 125 128
f 129 131 130
f 129 132 131
f 133 134 135
f 133 135 136
f 129 130 134
f 129 134 133
f 130 131 135
f 130 135 134
f 131 132 136
f 131 136 135
f 132 129 133
f 132 133 136
f 137 139 138
f 137 140 139
f 141 142 143
f 141 143 144
f 137 138 142
f 137 142 141
f 138 139 143
f 138 143 142
f 139 140 144
f 139 144 143
f 140 137 141
f 140 141 144
f 145 147 146
f 145 148 147
f 149 150 151
f 149 151 152
f 145 146 150
f 145 150 149
f 146 147 151
f 146 151 150
f 147 148 152
f 147 152 151
f 148 145 149
f 148 149 152
f 153 155 154
f 153 156 155
f 157 158 159
f 157 159 160
f 153 154 158
f 153 158 157
f 154 155 159
f 154 159 158
f 155 156 160
f 155 160 159
f 156 153 157
f 156 157 160
f 161 163 162
f 161 164 163
f 165 166 167
f 165 167 168
f 161 162 166
f 161 166 165
f 162 163 167
f 162 167 166
f 163 164 168
f 163 168 167
f 164 161 165
f 164 165 168
f 169 171 170
f 169 172 171
f 173 174 175
f 173 175 176
f 169 170 174
f 169 174 173
f 170 171 175
f 170 175 174
f 171 172 176
f 171 176 175
f 172 169 173
f 172 173 176
f 177 179 178
f 177 180 179
f 181 182 183
f 181 183 184
f 177 178 182
f 177 182 181
f 178 179 183
f 178 183 182
f 179 180 184
f 179 184 183
f 180 177 181
f 180 181 184
f 185 187 186
f 185 188 187
f 189 190 191
f 189 191 192
f 185 186 190
f 185 190 189
f 186 187 191
f 186 191 190
f 187 188 192
f 187 192 191
f 188 185 189
f 188 189 192
f 193 195 194
f 201 202 203
f 193 196 195
f 201 203 204
f 193 197 196
f 201 204 205
f 193 198 197
f 201 205 206
f 193 199 198
f 201 206 207
f 193 200 199
f 201 207 208
f 193 194 202
f 193 202 201
f 194 195 203
f 194 203 202
f 195 196 204
f 195 204 203
f 196 197 205
f 196 205 204
f 197 198 206
f 197 206 205
f 198 199 207
f 198 207 206
f 199 200 208
f 199 208 207
f 200 193 201
f 200 201 208
f 209 211 210
f 217 218 219
f 209 212 211
f 217 219 220
f 209 213 212
f 217 220 221
f 209 214 213
f 217 221 222
f 209 215 214
f 217 222 223
f 209 216 215
f 217 223 224
f 209 210 218
f 209 218 217
f 210 211 219
f 210 219 218
f 211 212 220
f 211 220 219
f 212 213 221
f 212 221 220
f 213 214 222
f 213 222 221
f 214 215 223
f 214 223 222
f 215 216 224
f 215 224 223
f 216 209 217
f 216 217 224
f 225 227 226
f 225 228 227
f 229 230 231
f 229 231 232
f 225 226 230
f 225 230 229
f 226 227 231
f 226 231 230
f 227 228 232
f 227 232 231
f 228 225 229
f 228 229 232
f 233 235 234
f 233 236 235
f 237 238 239
f 237 239 240
f 233 234 238
f 233 238 237
f 234 235 239
f 234 239 238
f 235 236 240
f 235 240 239
f 236 233 237
f 236 237 240
f 241 243 242
f 241 244 243
f 245 246 247
f 245 247 248
f 241 242 246
f 241 246 245
f 242 243 247
f 242 247 246
f 243 244 248
f 243 248 247
f 244 241 245
f 244 245 248
